<?xml version="1.0" encoding="utf-8"?>
<!-- Generator: Adobe Illustrator 25.4.1, SVG Export Plug-In . SVG Version: 6.00 Build 0)  -->
<svg version="1.1" id="Layer_1" xmlns="http://www.w3.org/2000/svg" xmlns:xlink="http://www.w3.org/1999/xlink" x="0px" y="0px"
	 viewBox="0 0 836.9 617.4" style="enable-background:new 0 0 836.9 617.4;" xml:space="preserve">
<style type="text/css">
	.st0{clip-path:url(#SVGID_00000061431692505985938380000001432066306069061289_);}
	.st1{fill:#FFFFFF;}
	.st2{fill:#C4C4C4;stroke:#000000;stroke-width:2.2;}
	.st3{fill:#DEDEDE;}
	.st4{fill:none;stroke:#515151;stroke-width:1.1;}
	.st5{fill:none;stroke:#000000;stroke-width:2.2;}
	.st6{fill:#FFFFFF;stroke:#000000;stroke-width:2.2;}
	.st7{opacity:0.7;}
	.st8{fill:url(#SVGID_00000132789996150987741880000005397477997266394254_);}
	.st9{fill:url(#SVGID_00000178206955648681398360000008988934587683820162_);}
	.st10{fill:url(#SVGID_00000085208905288978172040000011130177237218071696_);}
	.st11{fill:url(#SVGID_00000139266324223155455130000009019604958379967165_);}
	.st12{fill:url(#SVGID_00000102502555419397984960000016605571209616777351_);}
	.st13{fill:url(#SVGID_00000129181164998084072940000009104406124049973411_);}
	.st14{fill:url(#SVGID_00000021090727031332070640000015337795049044692892_);}
	.st15{fill:url(#SVGID_00000141419893808967346980000012463967489015332244_);}
	.st16{fill:url(#SVGID_00000078020345432980040190000011547989084949093054_);}
	.st17{fill:url(#SVGID_00000139252193891454668280000015768393817885450658_);}
	.st18{fill:url(#SVGID_00000136389583204494438060000013525182478104368299_);}
	.st19{fill:#919191;}
</style>
<g>
	<defs>
		<rect id="SVGID_1_" x="-3.5" width="840.4" height="616"/>
	</defs>
	<clipPath id="SVGID_00000117643390136117117830000001399730722865038504_">
		<use xlink:href="#SVGID_1_"  style="overflow:visible;"/>
	</clipPath>
	<g style="clip-path:url(#SVGID_00000117643390136117117830000001399730722865038504_);">
		<rect x="-3.5" class="st1" width="840.4" height="616"/>
		<path d="M52.4,62h3.2v4.5h-3.2v6.1h-5.6v-6.1H35.2L35,63l11.7-18.5h5.6V62z M40.6,62h6.2v-9.9l-0.4,0.6L40.6,62z M67.8,62
			c0-3.3,0.7-5.9,2.2-7.8c1.5-1.9,3.5-2.9,6-2.9c2,0,3.7,0.8,5,2.3V42.9h5.6v29.7h-5l-0.3-2.2C79.9,72.1,78.2,73,76,73
			c-2.5,0-4.4-1-5.9-2.9C68.5,68.1,67.8,65.4,67.8,62z M73.4,62.4c0,2,0.3,3.5,1,4.5c0.7,1,1.7,1.6,3,1.6c1.7,0,2.9-0.7,3.7-2.2V58
			c-0.7-1.5-1.9-2.2-3.6-2.2C74.7,55.8,73.4,58,73.4,62.4z M100.6,73c-3.1,0-5.6-0.9-7.5-2.8c-1.9-1.9-2.9-4.4-2.9-7.5v-0.5
			c0-2.1,0.4-4,1.2-5.6c0.8-1.7,2-2.9,3.4-3.8c1.5-0.9,3.2-1.4,5.1-1.4c2.9,0,5.1,0.9,6.7,2.7c1.7,1.8,2.5,4.4,2.5,7.7V64H95.9
			c0.2,1.4,0.7,2.5,1.6,3.3c0.9,0.8,2.1,1.2,3.5,1.2c2.2,0,3.8-0.8,5-2.3l2.7,3.1c-0.8,1.2-2,2.1-3.4,2.8
			C103.9,72.7,102.4,73,100.6,73z M100,55.8c-1.1,0-2,0.4-2.7,1.1c-0.7,0.7-1.1,1.8-1.3,3.2h7.8v-0.4c0-1.2-0.4-2.2-1-2.9
			C102.1,56.2,101.2,55.8,100,55.8z M120,65.8l3.9-14.1h5.8l-7.1,20.9h-5.3l-7.1-20.9h5.8L120,65.8z M138.1,72.6h-5.6V51.7h5.6V72.6
			z M132.1,46.3c0-0.8,0.3-1.5,0.8-2.1c0.6-0.5,1.3-0.8,2.3-0.8c1,0,1.7,0.3,2.3,0.8c0.6,0.5,0.9,1.2,0.9,2.1c0,0.9-0.3,1.5-0.9,2.1
			c-0.6,0.5-1.3,0.8-2.3,0.8c-0.9,0-1.7-0.3-2.3-0.8C132.4,47.8,132.1,47.1,132.1,46.3z M151.4,68.5c1,0,1.9-0.3,2.5-0.9
			c0.6-0.6,1-1.3,1-2.3h5.2c0,1.4-0.4,2.7-1.2,3.9c-0.8,1.2-1.8,2.1-3.1,2.7c-1.3,0.6-2.8,1-4.4,1c-3,0-5.3-0.9-7.1-2.8
			c-1.7-1.9-2.6-4.5-2.6-7.9v-0.4c0-3.2,0.9-5.8,2.6-7.7c1.7-1.9,4.1-2.9,7.1-2.9c2.6,0,4.7,0.7,6.3,2.2c1.6,1.5,2.4,3.5,2.4,5.9
			h-5.2c0-1.1-0.4-2-1-2.6c-0.6-0.7-1.5-1-2.6-1c-1.3,0-2.3,0.5-3,1.4c-0.7,0.9-1,2.5-1,4.6v0.6c0,2.2,0.3,3.7,1,4.6
			C149.1,68,150.1,68.5,151.4,68.5z M173,73c-3.1,0-5.6-0.9-7.5-2.8c-1.9-1.9-2.9-4.4-2.9-7.5v-0.5c0-2.1,0.4-4,1.2-5.6
			c0.8-1.7,2-2.9,3.4-3.8c1.5-0.9,3.2-1.4,5.1-1.4c2.9,0,5.1,0.9,6.7,2.7c1.6,1.8,2.5,4.4,2.5,7.7V64h-13.3c0.2,1.4,0.7,2.5,1.6,3.3
			c0.9,0.8,2.1,1.2,3.5,1.2c2.2,0,3.8-0.8,5-2.3l2.7,3.1c-0.8,1.2-2,2.1-3.4,2.8C176.3,72.7,174.7,73,173,73z M172.3,55.8
			c-1.1,0-2,0.4-2.7,1.1c-0.7,0.7-1.1,1.8-1.3,3.2h7.8v-0.4c0-1.2-0.4-2.2-1-2.9C174.4,56.2,173.5,55.8,172.3,55.8z M196.1,66.8
			c0-0.7-0.3-1.2-1-1.6c-0.7-0.4-1.8-0.8-3.2-1.1c-5-1-7.5-3.2-7.5-6.3c0-1.9,0.8-3.4,2.3-4.6c1.5-1.3,3.6-1.9,6.1-1.9
			c2.7,0,4.8,0.6,6.4,1.9c1.6,1.3,2.4,2.9,2.4,4.9h-5.6c0-0.8-0.3-1.5-0.8-2c-0.5-0.5-1.3-0.8-2.4-0.8c-0.9,0-1.7,0.2-2.2,0.6
			c-0.5,0.4-0.8,1-0.8,1.6c0,0.6,0.3,1.1,0.9,1.5c0.6,0.4,1.6,0.7,3,1c1.4,0.3,2.6,0.6,3.5,0.9c3,1.1,4.4,3,4.4,5.6
			c0,1.9-0.8,3.5-2.5,4.6c-1.6,1.2-3.8,1.8-6.3,1.8c-1.8,0-3.3-0.3-4.7-0.9c-1.4-0.6-2.4-1.5-3.2-2.6c-0.8-1.1-1.2-2.3-1.2-3.5h5.3
			c0.1,1,0.4,1.8,1.1,2.3c0.7,0.5,1.6,0.8,2.7,0.8c1.1,0,1.9-0.2,2.4-0.6C195.8,68,196.1,67.5,196.1,66.8z M206.6,79.7l-2.9-1.5
			l0.7-1.3c0.9-1.6,1.3-3.1,1.3-4.7v-4.3h4.7l0,3.9c0,1.4-0.4,2.9-1.1,4.3C208.6,77.5,207.7,78.7,206.6,79.7z M230.6,72.6H225V51.7
			h5.6V72.6z M224.6,46.3c0-0.8,0.3-1.5,0.8-2.1c0.6-0.5,1.3-0.8,2.3-0.8c1,0,1.7,0.3,2.3,0.8c0.6,0.5,0.9,1.2,0.9,2.1
			c0,0.9-0.3,1.5-0.9,2.1c-0.6,0.5-1.3,0.8-2.3,0.8c-0.9,0-1.7-0.3-2.3-0.8C224.9,47.8,224.6,47.1,224.6,46.3z M240.3,51.7l0.2,2.4
			c1.5-1.9,3.5-2.8,6-2.8c2.2,0,3.9,0.7,5,2c1.1,1.3,1.6,3.2,1.7,5.8v13.5h-5.6V59.2c0-1.2-0.3-2-0.8-2.6c-0.5-0.5-1.4-0.8-2.6-0.8
			c-1.6,0-2.8,0.7-3.5,2v14.8h-5.6V51.7H240.3z M264.1,46.5v5.1h3.6v4.1h-3.6v10.4c0,0.8,0.1,1.3,0.4,1.7c0.3,0.3,0.9,0.5,1.7,0.5
			c0.6,0,1.2,0,1.6-0.1v4.2c-1.1,0.3-2.2,0.5-3.4,0.5c-3.9,0-5.9-2-6-5.9V55.8h-3.1v-4.1h3.1v-5.1H264.1z M280.4,73
			c-3.1,0-5.6-0.9-7.5-2.8c-1.9-1.9-2.9-4.4-2.9-7.5v-0.5c0-2.1,0.4-4,1.2-5.6c0.8-1.7,2-2.9,3.4-3.8c1.5-0.9,3.2-1.4,5.1-1.4
			c2.9,0,5.1,0.9,6.7,2.7c1.6,1.8,2.5,4.4,2.5,7.7V64h-13.3c0.2,1.4,0.7,2.5,1.6,3.3c0.9,0.8,2.1,1.2,3.5,1.2c2.2,0,3.8-0.8,5-2.3
			l2.7,3.1c-0.8,1.2-2,2.1-3.4,2.8C283.7,72.7,282.1,73,280.4,73z M279.8,55.8c-1.1,0-2,0.4-2.7,1.1c-0.7,0.7-1.1,1.8-1.3,3.2h7.8
			v-0.4c0-1.2-0.4-2.2-1-2.9C281.9,56.2,281,55.8,279.8,55.8z M304,56.9c-0.8-0.1-1.4-0.2-2-0.2c-2.1,0-3.5,0.7-4.2,2.1v13.7h-5.6
			V51.7h5.3l0.2,2.5c1.1-1.9,2.7-2.9,4.7-2.9c0.6,0,1.2,0.1,1.7,0.3L304,56.9z M311.8,51.7l0.2,2.4c1.5-1.9,3.5-2.8,6-2.8
			c2.2,0,3.9,0.7,5,2c1.1,1.3,1.6,3.2,1.7,5.8v13.5H319V59.2c0-1.2-0.3-2-0.8-2.6c-0.5-0.5-1.4-0.8-2.6-0.8c-1.6,0-2.8,0.7-3.5,2
			v14.8h-5.6V51.7H311.8z M341,72.6c-0.3-0.5-0.4-1.1-0.6-1.9c-1.4,1.5-3.1,2.3-5.3,2.3c-2.1,0-3.8-0.6-5.1-1.8
			c-1.3-1.2-2-2.7-2-4.5c0-2.2,0.8-3.9,2.5-5.1c1.6-1.2,4-1.8,7.1-1.8h2.6v-1.2c0-1-0.3-1.7-0.8-2.3c-0.5-0.6-1.3-0.9-2.3-0.9
			c-0.9,0-1.7,0.2-2.2,0.7c-0.5,0.5-0.8,1.1-0.8,1.9h-5.6c0-1.2,0.4-2.3,1.1-3.4c0.7-1,1.8-1.8,3.2-2.4c1.4-0.6,2.9-0.9,4.6-0.9
			c2.6,0,4.6,0.7,6.1,2c1.5,1.3,2.3,3.1,2.3,5.5v9.1c0,2,0.3,3.5,0.8,4.5v0.3H341z M336.4,68.7c0.8,0,1.6-0.2,2.3-0.5
			c0.7-0.4,1.2-0.9,1.5-1.5v-3.6h-2.1c-2.8,0-4.3,1-4.5,2.9l0,0.3c0,0.7,0.2,1.3,0.7,1.7C334.8,68.5,335.5,68.7,336.4,68.7z
			 M356,72.6h-5.6V42.9h5.6V72.6z M378.1,64.2l-2,2v6.4h-5.6V42.9h5.6v16.5l1.1-1.4l5.4-6.3h6.7l-7.6,8.7l8.2,12.2h-6.4L378.1,64.2z
			 M400.9,73c-3.1,0-5.6-0.9-7.5-2.8c-1.9-1.9-2.9-4.4-2.9-7.5v-0.5c0-2.1,0.4-4,1.2-5.6c0.8-1.7,2-2.9,3.4-3.8
			c1.5-0.9,3.2-1.4,5.1-1.4c2.9,0,5.1,0.9,6.7,2.7c1.6,1.8,2.5,4.4,2.5,7.7V64h-13.3c0.2,1.4,0.7,2.5,1.6,3.3
			c0.9,0.8,2.1,1.2,3.5,1.2c2.2,0,3.8-0.8,5-2.3l2.7,3.1c-0.8,1.2-2,2.1-3.4,2.8C404.2,72.7,402.6,73,400.9,73z M400.2,55.8
			c-1.1,0-2,0.4-2.7,1.1c-0.7,0.7-1.1,1.8-1.3,3.2h7.8v-0.4c0-1.2-0.4-2.2-1-2.9C402.3,56.2,401.4,55.8,400.2,55.8z M420.2,64.7
			l3.9-13h6l-8.4,24.2l-0.5,1.1c-1.2,2.7-3.3,4.1-6.2,4.1c-0.8,0-1.6-0.1-2.5-0.4v-4.2l0.9,0c1.1,0,1.8-0.2,2.4-0.5
			c0.5-0.3,0.9-0.9,1.2-1.6l0.7-1.7l-7.3-21h6L420.2,64.7z M441.6,73c-3.1,0-5.6-0.9-7.5-2.8c-1.9-1.9-2.9-4.4-2.9-7.5v-0.5
			c0-2.1,0.4-4,1.2-5.6c0.8-1.7,2-2.9,3.4-3.8c1.5-0.9,3.2-1.4,5.1-1.4c2.9,0,5.1,0.9,6.7,2.7c1.6,1.8,2.5,4.4,2.5,7.7V64h-13.3
			c0.2,1.4,0.7,2.5,1.6,3.3c0.9,0.8,2.1,1.2,3.5,1.2c2.2,0,3.8-0.8,5-2.3l2.7,3.1c-0.8,1.2-2,2.1-3.4,2.8
			C445,72.7,443.4,73,441.6,73z M441,55.8c-1.1,0-2,0.4-2.7,1.1c-0.7,0.7-1.1,1.8-1.3,3.2h7.8v-0.4c0-1.2-0.4-2.2-1-2.9
			C443.1,56.2,442.2,55.8,441,55.8z M465.2,56.9c-0.8-0.1-1.4-0.2-2-0.2c-2.1,0-3.5,0.7-4.2,2.1v13.7h-5.6V51.7h5.3l0.2,2.5
			c1.1-1.9,2.7-2.9,4.7-2.9c0.6,0,1.2,0.1,1.7,0.3L465.2,56.9z M478,61.2c0-3,0.4-5.8,1.2-8.4c0.8-2.7,1.9-5,3.5-7.1
			c1.5-2.1,3.2-3.5,5-4.3l1.1,3c-1.9,1.4-3.4,3.5-4.4,6.5c-1.1,2.9-1.6,6.3-1.6,10.2v0.6c0,3.9,0.5,7.3,1.6,10.2
			c1,2.9,2.5,5.1,4.4,6.6l-1.1,3c-1.8-0.8-3.4-2.2-4.9-4.2c-1.5-2-2.7-4.3-3.5-6.9c-0.8-2.6-1.2-5.3-1.3-8.2V61.2z M492,72.6V44.4
			h8.7c2.5,0,4.7,0.6,6.6,1.7c2,1.1,3.5,2.7,4.6,4.8c1.1,2,1.6,4.4,1.6,7v1.3c0,2.6-0.5,4.9-1.6,7c-1.1,2-2.6,3.6-4.5,4.7
			c-2,1.1-4.2,1.7-6.6,1.7H492z M497.8,49.1v18.8h2.8c2.3,0,4-0.7,5.2-2.2c1.2-1.5,1.8-3.6,1.8-6.4v-1.5c0-2.9-0.6-5-1.8-6.5
			c-1.2-1.5-2.9-2.2-5.2-2.2H497.8z M532.4,65.2c0-1.1-0.4-1.9-1.2-2.5c-0.8-0.6-2.2-1.2-4.2-1.9c-2-0.7-3.6-1.3-4.8-1.9
			c-3.2-1.7-4.8-4.1-4.8-7c0-1.5,0.4-2.9,1.3-4.1c0.9-1.2,2.1-2.1,3.7-2.8c1.6-0.7,3.4-1,5.4-1c2,0,3.8,0.4,5.4,1.1
			c1.6,0.7,2.8,1.7,3.7,3.1c0.9,1.3,1.3,2.8,1.3,4.5h-5.8c0-1.3-0.4-2.3-1.2-3c-0.8-0.7-2-1.1-3.4-1.1c-1.4,0-2.5,0.3-3.3,0.9
			c-0.8,0.6-1.2,1.4-1.2,2.4c0,0.9,0.5,1.7,1.4,2.3c0.9,0.6,2.3,1.2,4.1,1.7c3.3,1,5.7,2.2,7.2,3.7c1.5,1.5,2.3,3.3,2.3,5.5
			c0,2.4-0.9,4.4-2.8,5.7c-1.8,1.4-4.3,2.1-7.4,2.1c-2.2,0-4.1-0.4-5.9-1.2c-1.8-0.8-3.1-1.9-4.1-3.3c-0.9-1.4-1.4-3-1.4-4.8h5.8
			c0,3.1,1.9,4.7,5.6,4.7c1.4,0,2.5-0.3,3.2-0.8C532,67,532.4,66.2,532.4,65.2z M551,61.3l-3,3.2v8h-5.8V44.4h5.8v12.8l2.6-3.5
			l7.2-9.3h7.1l-10,12.5l10.3,15.6h-6.9L551,61.3z M576.6,61.6c0,2.9-0.4,5.7-1.3,8.4c-0.8,2.7-2,5.1-3.6,7.1
			c-1.6,2.1-3.3,3.5-5,4.3l-1.1-3c1.8-1.4,3.3-3.5,4.3-6.4c1.1-2.9,1.6-6.2,1.6-9.9v-1c0-3.9-0.5-7.3-1.6-10.2
			c-1-2.9-2.5-5.1-4.4-6.6l1.1-3c1.8,0.8,3.4,2.1,5,4.1c1.6,2,2.8,4.3,3.6,7c0.9,2.7,1.3,5.4,1.4,8.3V61.6z"/>
		<path class="st2" d="M1249.4,482.9v-352c0-4.9-3.9-8.8-8.8-8.8h-34.9c-2.3,0-4.6-0.9-6.2-2.6l-0.3-0.3c-1.7-1.7-3.9-2.6-6.2-2.6
			H618c0,3-2.5,5.5-5.5,5.5h-92.4v26.4c0,1.8-1.5,3.3-3.3,3.3s-3.3,1.5-3.3,3.3V528h62.7c4.9,0,8.8-3.9,8.8-8.8v-20.9
			c0-3.6,3-6.6,6.6-6.6h53.9c3.6,0,6.6,3,6.6,6.6v20.9c0,4.9,3.9,8.8,8.8,8.8h14.3c4.9,0,8.8-3.9,8.8-8.8v-17.6c0,0,0-9.9,9.9-9.9
			c9.9,0,9.9,9.9,9.9,9.9v42.9c0,2.4,2,4.4,4.4,4.4h38.5c2.4,0,4.4-2,4.4-4.4V517c0,0,0-5.5,5.5-5.5s5.5,5.5,5.5,5.5v27.5
			c0,2.4,2,4.4,4.4,4.4h132c2.4,0,4.4-2,4.4-4.4v-44c0-4.9,3.9-8.8,8.8-8.8h328.9C1245.5,491.7,1249.4,487.8,1249.4,482.9z"/>
		<path class="st3" d="M487.1,173.8c0-1.2,1-2.2,2.2-2.2h19.8v28.6h-19.8c-1.2,0-2.2-1-2.2-2.2V173.8z"/>
		<line class="st4" x1="494.3" y1="171.6" x2="496.5" y2="200.2"/>
		<line class="st4" x1="492.1" y1="171.6" x2="494.3" y2="200.2"/>
		<line class="st4" x1="496.5" y1="171.6" x2="498.7" y2="200.2"/>
		<line class="st4" x1="498.7" y1="171.6" x2="500.9" y2="200.2"/>
		<line class="st4" x1="500.9" y1="171.6" x2="503.1" y2="200.2"/>
		<line class="st4" x1="503.1" y1="171.6" x2="505.3" y2="200.2"/>
		<line class="st4" x1="505.3" y1="171.6" x2="507.5" y2="200.2"/>
		<line class="st4" x1="507.5" y1="171.6" x2="509.7" y2="200.2"/>
		<path class="st5" d="M487.1,173.8c0-1.2,1-2.2,2.2-2.2h19.8v28.6h-19.8c-1.2,0-2.2-1-2.2-2.2V173.8z"/>
		<path class="st6" d="M460.7,178.2c0-1.2,1-2.2,2.2-2.2h24.2v19.8h-24.2c-1.2,0-2.2-1-2.2-2.2V178.2z"/>
		<line class="st5" x1="468.4" y1="176" x2="468.4" y2="195.8"/>
		<path class="st3" d="M487.1,209c0-1.2,1-2.2,2.2-2.2h19.8v28.6h-19.8c-1.2,0-2.2-1-2.2-2.2V209z"/>
		<line class="st4" x1="494.3" y1="206.8" x2="496.5" y2="235.4"/>
		<line class="st4" x1="492.1" y1="206.8" x2="494.3" y2="235.4"/>
		<line class="st4" x1="496.5" y1="206.8" x2="498.7" y2="235.4"/>
		<line class="st4" x1="498.7" y1="206.8" x2="500.9" y2="235.4"/>
		<line class="st4" x1="500.9" y1="206.8" x2="503.1" y2="235.4"/>
		<line class="st4" x1="503.1" y1="206.8" x2="505.3" y2="235.4"/>
		<line class="st4" x1="505.3" y1="206.8" x2="507.5" y2="235.4"/>
		<line class="st4" x1="507.5" y1="206.8" x2="509.7" y2="235.4"/>
		<path class="st5" d="M487.1,209c0-1.2,1-2.2,2.2-2.2h19.8v28.6h-19.8c-1.2,0-2.2-1-2.2-2.2V209z"/>
		<path class="st6" d="M460.7,213.4c0-1.2,1-2.2,2.2-2.2h24.2V231h-24.2c-1.2,0-2.2-1-2.2-2.2V213.4z"/>
		<line class="st5" x1="468.4" y1="211.2" x2="468.4" y2="231"/>
		<path class="st3" d="M487.1,244.2c0-1.2,1-2.2,2.2-2.2h19.8v28.6h-19.8c-1.2,0-2.2-1-2.2-2.2V244.2z"/>
		<line class="st4" x1="494.3" y1="242" x2="496.5" y2="270.6"/>
		<line class="st4" x1="492.1" y1="242" x2="494.3" y2="270.6"/>
		<line class="st4" x1="496.5" y1="242" x2="498.7" y2="270.6"/>
		<line class="st4" x1="498.7" y1="242" x2="500.9" y2="270.6"/>
		<line class="st4" x1="500.9" y1="242" x2="503.1" y2="270.6"/>
		<line class="st4" x1="503.1" y1="242" x2="505.3" y2="270.6"/>
		<line class="st4" x1="505.3" y1="242" x2="507.5" y2="270.6"/>
		<line class="st4" x1="507.5" y1="242" x2="509.7" y2="270.6"/>
		<path class="st5" d="M487.1,244.2c0-1.2,1-2.2,2.2-2.2h19.8v28.6h-19.8c-1.2,0-2.2-1-2.2-2.2V244.2z"/>
		<path class="st6" d="M460.7,248.6c0-1.2,1-2.2,2.2-2.2h24.2v19.8h-24.2c-1.2,0-2.2-1-2.2-2.2V248.6z"/>
		<line class="st5" x1="468.4" y1="246.4" x2="468.4" y2="266.2"/>
		<path class="st3" d="M487.1,279.4c0-1.2,1-2.2,2.2-2.2h19.8v28.6h-19.8c-1.2,0-2.2-1-2.2-2.2V279.4z"/>
		<line class="st4" x1="494.3" y1="277.2" x2="496.5" y2="305.8"/>
		<line class="st4" x1="492.1" y1="277.2" x2="494.3" y2="305.8"/>
		<line class="st4" x1="496.5" y1="277.2" x2="498.7" y2="305.8"/>
		<line class="st4" x1="498.7" y1="277.2" x2="500.9" y2="305.8"/>
		<line class="st4" x1="500.9" y1="277.2" x2="503.1" y2="305.8"/>
		<line class="st4" x1="503.1" y1="277.2" x2="505.3" y2="305.8"/>
		<line class="st4" x1="505.3" y1="277.2" x2="507.5" y2="305.8"/>
		<line class="st4" x1="507.5" y1="277.2" x2="509.7" y2="305.8"/>
		<path class="st5" d="M487.1,279.4c0-1.2,1-2.2,2.2-2.2h19.8v28.6h-19.8c-1.2,0-2.2-1-2.2-2.2V279.4z"/>
		<path class="st6" d="M460.7,283.8c0-1.2,1-2.2,2.2-2.2h24.2v19.8h-24.2c-1.2,0-2.2-1-2.2-2.2V283.8z"/>
		<line class="st5" x1="468.4" y1="281.6" x2="468.4" y2="301.4"/>
		<path class="st3" d="M487.1,314.6c0-1.2,1-2.2,2.2-2.2h19.8V341h-19.8c-1.2,0-2.2-1-2.2-2.2V314.6z"/>
		<line class="st4" x1="494.3" y1="312.4" x2="496.5" y2="341"/>
		<line class="st4" x1="492.1" y1="312.4" x2="494.3" y2="341"/>
		<line class="st4" x1="496.5" y1="312.4" x2="498.7" y2="341"/>
		<line class="st4" x1="498.7" y1="312.4" x2="500.9" y2="341"/>
		<line class="st4" x1="500.9" y1="312.4" x2="503.1" y2="341"/>
		<line class="st4" x1="503.1" y1="312.4" x2="505.3" y2="341"/>
		<line class="st4" x1="505.3" y1="312.4" x2="507.5" y2="341"/>
		<line class="st4" x1="507.5" y1="312.4" x2="509.7" y2="341"/>
		<path class="st5" d="M487.1,314.6c0-1.2,1-2.2,2.2-2.2h19.8V341h-19.8c-1.2,0-2.2-1-2.2-2.2V314.6z"/>
		<path class="st6" d="M460.7,319c0-1.2,1-2.2,2.2-2.2h24.2v19.8h-24.2c-1.2,0-2.2-1-2.2-2.2V319z"/>
		<line class="st5" x1="468.4" y1="316.8" x2="468.4" y2="336.6"/>
		<path class="st3" d="M487.1,349.8c0-1.2,1-2.2,2.2-2.2h19.8v28.6h-19.8c-1.2,0-2.2-1-2.2-2.2V349.8z"/>
		<line class="st4" x1="494.3" y1="347.6" x2="496.5" y2="376.2"/>
		<line class="st4" x1="492.1" y1="347.6" x2="494.3" y2="376.2"/>
		<line class="st4" x1="496.5" y1="347.6" x2="498.7" y2="376.2"/>
		<line class="st4" x1="498.7" y1="347.6" x2="500.9" y2="376.2"/>
		<line class="st4" x1="500.9" y1="347.6" x2="503.1" y2="376.2"/>
		<line class="st4" x1="503.1" y1="347.6" x2="505.3" y2="376.2"/>
		<line class="st4" x1="505.3" y1="347.6" x2="507.5" y2="376.2"/>
		<line class="st4" x1="507.5" y1="347.6" x2="509.7" y2="376.2"/>
		<path class="st5" d="M487.1,349.8c0-1.2,1-2.2,2.2-2.2h19.8v28.6h-19.8c-1.2,0-2.2-1-2.2-2.2V349.8z"/>
		<path class="st6" d="M460.7,354.2c0-1.2,1-2.2,2.2-2.2h24.2v19.8h-24.2c-1.2,0-2.2-1-2.2-2.2V354.2z"/>
		<line class="st5" x1="468.4" y1="352" x2="468.4" y2="371.8"/>
		<path class="st3" d="M487.1,385c0-1.2,1-2.2,2.2-2.2h19.8v28.6h-19.8c-1.2,0-2.2-1-2.2-2.2V385z"/>
		<line class="st4" x1="494.3" y1="382.8" x2="496.5" y2="411.4"/>
		<line class="st4" x1="492.1" y1="382.8" x2="494.3" y2="411.4"/>
		<line class="st4" x1="496.5" y1="382.8" x2="498.7" y2="411.4"/>
		<line class="st4" x1="498.7" y1="382.8" x2="500.9" y2="411.4"/>
		<line class="st4" x1="500.9" y1="382.8" x2="503.1" y2="411.4"/>
		<line class="st4" x1="503.1" y1="382.8" x2="505.3" y2="411.4"/>
		<line class="st4" x1="505.3" y1="382.8" x2="507.5" y2="411.4"/>
		<line class="st4" x1="507.5" y1="382.8" x2="509.7" y2="411.4"/>
		<path class="st5" d="M487.1,385c0-1.2,1-2.2,2.2-2.2h19.8v28.6h-19.8c-1.2,0-2.2-1-2.2-2.2V385z"/>
		<path class="st6" d="M460.7,389.4c0-1.2,1-2.2,2.2-2.2h24.2V407h-24.2c-1.2,0-2.2-1-2.2-2.2V389.4z"/>
		<line class="st5" x1="468.4" y1="387.2" x2="468.4" y2="407"/>
		<path class="st3" d="M487.1,420.2c0-1.2,1-2.2,2.2-2.2h19.8v28.6h-19.8c-1.2,0-2.2-1-2.2-2.2V420.2z"/>
		<line class="st4" x1="494.3" y1="418" x2="496.5" y2="446.6"/>
		<line class="st4" x1="492.1" y1="418" x2="494.3" y2="446.6"/>
		<line class="st4" x1="496.5" y1="418" x2="498.7" y2="446.6"/>
		<line class="st4" x1="498.7" y1="418" x2="500.9" y2="446.6"/>
		<line class="st4" x1="500.9" y1="418" x2="503.1" y2="446.6"/>
		<line class="st4" x1="503.1" y1="418" x2="505.3" y2="446.6"/>
		<line class="st4" x1="505.3" y1="418" x2="507.5" y2="446.6"/>
		<line class="st4" x1="507.5" y1="418" x2="509.7" y2="446.6"/>
		<path class="st5" d="M487.1,420.2c0-1.2,1-2.2,2.2-2.2h19.8v28.6h-19.8c-1.2,0-2.2-1-2.2-2.2V420.2z"/>
		<path class="st6" d="M460.7,424.6c0-1.2,1-2.2,2.2-2.2h24.2v19.8h-24.2c-1.2,0-2.2-1-2.2-2.2V424.6z"/>
		<line class="st5" x1="468.4" y1="422.4" x2="468.4" y2="442.2"/>
		<path class="st3" d="M487.1,455.4c0-1.2,1-2.2,2.2-2.2h19.8v28.6h-19.8c-1.2,0-2.2-1-2.2-2.2V455.4z"/>
		<line class="st4" x1="494.3" y1="453.2" x2="496.5" y2="481.8"/>
		<line class="st4" x1="492.1" y1="453.2" x2="494.3" y2="481.8"/>
		<line class="st4" x1="496.5" y1="453.2" x2="498.7" y2="481.8"/>
		<line class="st4" x1="498.7" y1="453.2" x2="500.9" y2="481.8"/>
		<line class="st4" x1="500.9" y1="453.2" x2="503.1" y2="481.8"/>
		<line class="st4" x1="503.1" y1="453.2" x2="505.3" y2="481.8"/>
		<line class="st4" x1="505.3" y1="453.2" x2="507.5" y2="481.8"/>
		<line class="st4" x1="507.5" y1="453.2" x2="509.7" y2="481.8"/>
		<path class="st5" d="M487.1,455.4c0-1.2,1-2.2,2.2-2.2h19.8v28.6h-19.8c-1.2,0-2.2-1-2.2-2.2V455.4z"/>
		<path class="st6" d="M460.7,459.8c0-1.2,1-2.2,2.2-2.2h24.2v19.8h-24.2c-1.2,0-2.2-1-2.2-2.2V459.8z"/>
		<line class="st5" x1="468.4" y1="457.6" x2="468.4" y2="477.4"/>
		<g class="st7">
			
				<linearGradient id="SVGID_00000082328541310524970330000011199311232577812656_" gradientUnits="userSpaceOnUse" x1="451.9294" y1="151.6" x2="380.7022" y2="151.6" gradientTransform="matrix(1 0 0 -1 0 618)">
				<stop  offset="0" style="stop-color:#000000"/>
				<stop  offset="1" style="stop-color:#000000;stop-opacity:0"/>
			</linearGradient>
			<path style="fill:url(#SVGID_00000082328541310524970330000011199311232577812656_);" d="M452.7,467.2c0.4-0.4,0.4-1.1,0-1.6
				l-7-7c-0.4-0.4-1.1-0.4-1.6,0c-0.4,0.4-0.4,1.1,0,1.6l6.2,6.2l-6.2,6.2c-0.4,0.4-0.4,1.1,0,1.6c0.4,0.4,1.1,0.4,1.6,0
				L452.7,467.2z M451.9,465.3H339.7v2.2h112.2V465.3z"/>
		</g>
		<g class="st7">
			<path d="M279.9,467.6h-4.4v7.6H273v-18.8h6.2c2.1,0,3.7,0.5,4.9,1.4c1.1,1,1.7,2.4,1.7,4.2c0,1.2-0.3,2.2-1,3.1
				c-0.6,0.9-1.5,1.5-2.6,1.9l4.4,8v0.2H284L279.9,467.6z M275.5,465.6h3.8c1.2,0,2.2-0.3,2.9-1c0.7-0.6,1.1-1.5,1.1-2.6
				c0-1.2-0.3-2-1-2.7c-0.7-0.6-1.7-0.9-3-0.9h-3.8V465.6z M294.7,475.5c-1.9,0-3.4-0.6-4.6-1.9c-1.2-1.2-1.8-2.9-1.8-5v-0.4
				c0-1.4,0.3-2.6,0.8-3.7c0.5-1.1,1.3-1.9,2.2-2.6c1-0.6,2-0.9,3.1-0.9c1.8,0,3.2,0.6,4.2,1.8c1,1.2,1.5,2.9,1.5,5.1v1h-9.4
				c0,1.4,0.4,2.5,1.2,3.3c0.8,0.8,1.8,1.3,2.9,1.3c0.8,0,1.6-0.2,2.1-0.5c0.6-0.3,1.1-0.8,1.5-1.4l1.5,1.1
				C298.8,474.6,297,475.5,294.7,475.5z M294.4,463c-1,0-1.8,0.4-2.4,1.1c-0.7,0.7-1.1,1.7-1.2,2.9h7v-0.2c-0.1-1.2-0.4-2.1-1-2.8
				C296.2,463.3,295.4,463,294.4,463z M304.1,475.2v-12.1h-2.2v-1.8h2.2v-1.4c0-1.5,0.4-2.7,1.2-3.5c0.8-0.8,1.9-1.2,3.4-1.2
				c0.6,0,1.1,0.1,1.6,0.2l-0.1,1.9c-0.4-0.1-0.8-0.1-1.3-0.1c-0.8,0-1.4,0.2-1.8,0.7c-0.4,0.4-0.6,1.1-0.6,1.9v1.5h3v1.8h-3v12.1
				H304.1z M320.6,475.2H319v-13.9h1.5V475.2z M318.8,457.2c0-0.3,0.1-0.5,0.3-0.7c0.2-0.2,0.4-0.3,0.8-0.3c0.3,0,0.6,0.1,0.8,0.3
				c0.2,0.2,0.3,0.4,0.3,0.7c0,0.3-0.1,0.5-0.3,0.7c-0.2,0.2-0.4,0.3-0.8,0.3c-0.3,0-0.6-0.1-0.8-0.3
				C318.9,457.8,318.8,457.5,318.8,457.2z M326.3,461.3l0.1,2.4c0.5-0.9,1.2-1.5,2-2c0.8-0.5,1.6-0.7,2.6-0.7c1.5,0,2.6,0.4,3.3,1.3
				c0.7,0.8,1.1,2.1,1.1,3.8v9.2h-1.5V466c0-1.2-0.3-2.2-0.8-2.8c-0.5-0.6-1.3-0.9-2.5-0.9c-1,0-1.8,0.3-2.5,0.9
				c-0.7,0.6-1.3,1.4-1.6,2.4v9.6h-1.5v-13.9H326.3z M350.5,468.4c0,2.2-0.5,3.9-1.4,5.2c-1,1.3-2.3,1.9-3.9,1.9
				c-1.9,0-3.4-0.7-4.4-2v7.1h-1.5v-19.3h1.4l0.1,2c1-1.5,2.5-2.2,4.4-2.2c1.7,0,3,0.6,3.9,1.9c1,1.3,1.4,3,1.4,5.3V468.4z
				 M349,468.1c0-1.8-0.4-3.2-1.1-4.2c-0.7-1-1.7-1.5-3.1-1.5c-0.9,0-1.8,0.2-2.4,0.7c-0.7,0.5-1.2,1.1-1.6,2v6.7
				c0.4,0.8,0.9,1.4,1.6,1.8c0.7,0.4,1.5,0.6,2.4,0.6c1.3,0,2.3-0.5,3-1.5C348.6,471.6,349,470.1,349,468.1z M362.9,473.4
				c-0.9,1.4-2.4,2-4.4,2c-1.5,0-2.6-0.4-3.4-1.3c-0.8-0.9-1.2-2.1-1.2-3.8v-9.1h1.5v8.9c0,2.7,1.1,4,3.2,4c2.2,0,3.6-0.9,4.2-2.8
				v-10.1h1.5v13.9h-1.5L362.9,473.4z M370.9,457.7v3.6h2.9v1.3h-2.9v9.3c0,0.8,0.1,1.3,0.4,1.7c0.3,0.4,0.8,0.6,1.4,0.6
				c0.3,0,0.7,0,1.2-0.1l0.1,1.3c-0.4,0.1-1,0.2-1.7,0.2c-1.1,0-1.8-0.3-2.3-0.9c-0.5-0.6-0.7-1.5-0.7-2.7v-9.3h-2.6v-1.3h2.6v-3.6
				H370.9z"/>
		</g>
		<path class="st1" d="M508,105.6v490.6h5.5v-74.8h4.4l9.9-9.9V150.7l-5.3-5.3l-1.2-1.2l-2.3-2.3l-0.1-0.1h-1.1
			c-1.8,0-3.3-1.5-3.3-3.3v-35.2c0-3.6-3-6.6-6.6-6.6h-53.9v6.6h51.7C507,103.4,508,104.4,508,105.6z"/>
		<path d="M508,596.2h-1.1c0,0.6,0.5,1.1,1.1,1.1V596.2z M454.1,103.4H453c0,0.6,0.5,1.1,1.1,1.1V103.4z M454.1,96.8v-1.1
			c-0.6,0-1.1,0.5-1.1,1.1H454.1z M527.8,150.7h1.1c0-0.3-0.1-0.6-0.3-0.8L527.8,150.7z M527.8,511.5l0.8,0.8
			c0.2-0.2,0.3-0.5,0.3-0.8H527.8z M517.9,521.4v1.1c0.3,0,0.6-0.1,0.8-0.3L517.9,521.4z M513.5,521.4v-1.1c-0.6,0-1.1,0.5-1.1,1.1
			H513.5z M513.5,596.2v1.1c0.6,0,1.1-0.5,1.1-1.1H513.5z M519,141.9l0.8-0.8c-0.2-0.2-0.5-0.3-0.8-0.3V141.9z M509.1,596.2V105.6
			h-2.2v490.6H509.1z M505.8,102.3h-51.7v2.2h51.7V102.3z M455.2,103.4v-6.6H453v6.6H455.2z M526.7,150.7v360.8h2.2V150.7H526.7z
			 M527.1,510.7l-9.9,9.9l1.6,1.6l9.9-9.9L527.1,510.7z M517.9,520.3h-4.4v2.2h4.4V520.3z M512.4,521.4v74.8h2.2v-74.8H512.4z
			 M513.5,595.1H508v2.2h5.5V595.1z M513.5,103.4v35.2h2.2v-35.2H513.5z M454.1,97.9H508v-2.2h-53.9V97.9z M518.3,142.7L518.3,142.7
			l1.6-1.5l-0.1-0.1L518.3,142.7z M518.3,142.8l2.3,2.3l1.6-1.6l-2.3-2.3L518.3,142.8z M520.6,145l1.2,1.2l1.6-1.6l-1.2-1.2
			L520.6,145z M521.8,146.2l5.3,5.3l1.6-1.6l-5.3-5.3L521.8,146.2z M517.9,143h1.1v-2.2h-1.1V143z M513.5,138.6c0,2.4,2,4.4,4.4,4.4
			v-2.2c-1.2,0-2.2-1-2.2-2.2H513.5z M515.7,103.4c0-4.3-3.4-7.7-7.7-7.7v2.2c3,0,5.5,2.5,5.5,5.5H515.7z M509.1,105.6
			c0-1.8-1.5-3.3-3.3-3.3v2.2c0.6,0,1.1,0.5,1.1,1.1H509.1z"/>
		
			<linearGradient id="SVGID_00000158723162477387721550000001163256859142799538_" gradientUnits="userSpaceOnUse" x1="832.5294" y1="85.0698" x2="832.5294" y2="109.4964" gradientTransform="matrix(1 0 0 -1 0 618)">
			<stop  offset="0" style="stop-color:#AFAFAF"/>
			<stop  offset="1" style="stop-color:#C2C2C2;stop-opacity:0"/>
		</linearGradient>
		<path style="fill:url(#SVGID_00000158723162477387721550000001163256859142799538_);" d="M898.5,547.8V517h-132v30.8H898.5z"/>
		
			<linearGradient id="SVGID_00000121247423614203966790000006238505869604521357_" gradientUnits="userSpaceOnUse" x1="728.0294" y1="85.0698" x2="728.0294" y2="109.4964" gradientTransform="matrix(1 0 0 -1 0 618)">
			<stop  offset="0" style="stop-color:#AFAFAF"/>
			<stop  offset="1" style="stop-color:#C2C2C2;stop-opacity:0"/>
		</linearGradient>
		<path style="fill:url(#SVGID_00000121247423614203966790000006238505869604521357_);" d="M746.7,547.8V517h-37.4v30.8H746.7z"/>
		<path d="M161.6,420l1.4,0.9c-0.8,1.1-1.2,2.3-1.2,3.5v1.8h-2.4v-1.5c0-0.9,0.2-1.7,0.6-2.6C160.4,421.2,160.9,420.5,161.6,420z
			 M165.6,420l1.4,0.9c-0.8,1.1-1.2,2.3-1.2,3.5v1.8h-2.4v-1.5c0-0.9,0.2-1.7,0.6-2.6C164.4,421.2,165,420.5,165.6,420z M183.3,434
			c-0.2,2-1,3.5-2.2,4.6c-1.2,1.1-2.9,1.6-4.9,1.6c-2.2,0-4-0.8-5.3-2.4c-1.3-1.6-2-3.7-2-6.4v-1.8c0-1.7,0.3-3.3,0.9-4.6
			c0.6-1.3,1.5-2.3,2.7-3c1.1-0.7,2.5-1.1,4-1.1c2,0,3.6,0.6,4.8,1.7c1.2,1.1,1.9,2.6,2.1,4.6h-2.5c-0.2-1.5-0.7-2.6-1.4-3.2
			c-0.7-0.7-1.7-1-3-1c-1.6,0-2.8,0.6-3.7,1.8c-0.9,1.2-1.3,2.8-1.3,5v1.8c0,2,0.4,3.7,1.3,4.9c0.9,1.2,2,1.8,3.6,1.8
			c1.4,0,2.4-0.3,3.2-0.9c0.7-0.6,1.2-1.7,1.5-3.3H183.3z M188.9,440h-2.4v-19.8h2.4V440z M198.5,440.3c-1.9,0-3.4-0.6-4.6-1.9
			c-1.2-1.2-1.8-2.9-1.8-5V433c0-1.4,0.3-2.6,0.8-3.7c0.5-1.1,1.3-1.9,2.2-2.6c1-0.6,2-0.9,3.1-0.9c1.8,0,3.2,0.6,4.2,1.8
			c1,1.2,1.5,2.9,1.5,5.1v1h-9.4c0,1.4,0.4,2.5,1.2,3.3c0.8,0.8,1.8,1.3,2.9,1.3c0.8,0,1.6-0.2,2.1-0.5c0.6-0.3,1.1-0.8,1.5-1.4
			l1.5,1.1C202.6,439.4,200.9,440.3,198.5,440.3z M198.2,427.8c-1,0-1.8,0.4-2.4,1.1c-0.7,0.7-1.1,1.7-1.2,2.9h7v-0.2
			c-0.1-1.2-0.4-2.1-1-2.8C200,428.1,199.2,427.8,198.2,427.8z M215.3,440c-0.1-0.3-0.2-0.8-0.3-1.5c-1.1,1.2-2.4,1.7-4,1.7
			c-1.4,0-2.5-0.4-3.4-1.2c-0.9-0.8-1.3-1.8-1.3-3c0-1.5,0.6-2.6,1.7-3.4c1.1-0.8,2.7-1.2,4.7-1.2h2.3v-1.1c0-0.8-0.2-1.5-0.7-2
			c-0.5-0.5-1.2-0.7-2.2-0.7c-0.9,0-1.6,0.2-2.1,0.6c-0.6,0.4-0.9,1-0.9,1.6h-2.4c0-0.7,0.2-1.4,0.7-2c0.5-0.7,1.2-1.2,2-1.5
			c0.9-0.4,1.8-0.6,2.8-0.6c1.6,0,2.9,0.4,3.8,1.2c0.9,0.8,1.4,1.9,1.4,3.3v6.4c0,1.3,0.2,2.3,0.5,3.1v0.2H215.3z M211.4,438.2
			c0.7,0,1.5-0.2,2.1-0.6c0.7-0.4,1.2-0.9,1.5-1.5v-2.9h-1.9c-2.9,0-4.4,0.9-4.4,2.6c0,0.7,0.2,1.3,0.7,1.8
			C210,438,210.6,438.2,211.4,438.2z M223.3,426.1l0.1,1.8c1.1-1.3,2.5-2,4.2-2c2.9,0,4.4,1.7,4.5,5v9.2h-2.4v-9.2
			c0-1-0.2-1.7-0.7-2.2c-0.4-0.5-1.1-0.7-2.1-0.7c-0.8,0-1.5,0.2-2,0.6c-0.6,0.4-1,1-1.4,1.6v9.9h-2.4v-13.9H223.3z M234.6,426.5
			l-1.4-0.9c0.8-1.1,1.2-2.3,1.2-3.5v-1.9h2.4v1.7c0,0.9-0.2,1.7-0.6,2.6C235.8,425.3,235.3,426,234.6,426.5z M238.6,426.5l-1.4-0.9
			c0.8-1.1,1.2-2.3,1.2-3.5v-1.9h2.4v1.7c0,0.9-0.2,1.7-0.6,2.6C239.8,425.3,239.3,426,238.6,426.5z M256.2,431.6
			c-2.1-0.6-3.7-1.4-4.6-2.2c-1-0.9-1.4-2-1.4-3.3c0-1.5,0.6-2.7,1.8-3.7c1.2-1,2.7-1.5,4.6-1.5c1.3,0,2.4,0.2,3.4,0.7
			c1,0.5,1.8,1.2,2.3,2.1c0.6,0.9,0.8,1.8,0.8,2.9h-2.5c0-1.1-0.4-2-1.1-2.7c-0.7-0.7-1.7-1-3.1-1c-1.2,0-2.2,0.3-2.9,0.8
			c-0.7,0.5-1,1.3-1,2.2c0,0.8,0.3,1.4,1,1.9c0.7,0.5,1.8,1,3.3,1.4c1.6,0.4,2.8,0.9,3.7,1.5c0.9,0.5,1.5,1.1,2,1.8
			c0.4,0.7,0.6,1.5,0.6,2.5c0,1.5-0.6,2.7-1.8,3.7c-1.2,0.9-2.8,1.4-4.8,1.4c-1.3,0-2.5-0.2-3.6-0.7c-1.1-0.5-2-1.2-2.6-2
			c-0.6-0.9-0.9-1.8-0.9-2.9h2.5c0,1.1,0.4,2,1.2,2.7c0.8,0.7,2,1,3.4,1c1.3,0,2.3-0.3,3-0.8c0.7-0.5,1-1.3,1-2.2
			c0-0.9-0.3-1.6-1-2.1C259.1,432.6,257.9,432.1,256.2,431.6z M266.4,440v-18.8h5.3c1.6,0,3.1,0.4,4.3,1.1c1.3,0.7,2.2,1.7,2.9,3.1
			c0.7,1.3,1,2.9,1,4.6v1.2c0,1.8-0.3,3.3-1,4.7c-0.7,1.3-1.7,2.4-2.9,3.1c-1.3,0.7-2.7,1.1-4.4,1.1H266.4z M268.8,423.3V438h2.6
			c1.9,0,3.4-0.6,4.4-1.8c1.1-1.2,1.6-2.9,1.6-5.1V430c0-2.1-0.5-3.8-1.5-5c-1-1.2-2.4-1.8-4.3-1.8H268.8z M286.3,440h-2.5v-18.8
			h2.5V440z M305.6,440h-3.7v-14.4l-4.4,1.4v-3l7.8-2.8h0.4V440z M320.6,440H319v-13.9h1.5V440z M318.8,422c0-0.3,0.1-0.5,0.3-0.7
			c0.2-0.2,0.4-0.3,0.8-0.3c0.3,0,0.6,0.1,0.8,0.3c0.2,0.2,0.3,0.4,0.3,0.7c0,0.3-0.1,0.5-0.3,0.7c-0.2,0.2-0.4,0.3-0.8,0.3
			c-0.3,0-0.6-0.1-0.8-0.3C318.9,422.6,318.8,422.3,318.8,422z M326.3,426.1l0.1,2.4c0.5-0.9,1.2-1.5,2-2c0.8-0.5,1.6-0.7,2.6-0.7
			c1.5,0,2.6,0.4,3.3,1.3c0.7,0.8,1.1,2.1,1.1,3.8v9.2h-1.5v-9.2c0-1.2-0.3-2.2-0.8-2.8c-0.5-0.6-1.3-0.9-2.5-0.9
			c-1,0-1.8,0.3-2.5,0.9c-0.7,0.6-1.3,1.4-1.6,2.4v9.6h-1.5v-13.9H326.3z M350.5,433.2c0,2.2-0.5,3.9-1.4,5.2
			c-1,1.3-2.3,1.9-3.9,1.9c-1.9,0-3.4-0.7-4.4-2v7.1h-1.5v-19.3h1.4l0.1,2c1-1.5,2.5-2.2,4.4-2.2c1.7,0,3,0.6,3.9,1.9
			c1,1.3,1.4,3,1.4,5.3V433.2z M349,432.9c0-1.8-0.4-3.2-1.1-4.2c-0.7-1-1.7-1.5-3.1-1.5c-0.9,0-1.8,0.2-2.4,0.7
			c-0.7,0.5-1.2,1.1-1.6,2v6.7c0.4,0.8,0.9,1.4,1.6,1.8c0.7,0.4,1.5,0.6,2.4,0.6c1.3,0,2.3-0.5,3-1.5
			C348.6,436.4,349,434.9,349,432.9z M362.9,438.2c-0.9,1.4-2.4,2-4.4,2c-1.5,0-2.6-0.4-3.4-1.3c-0.8-0.9-1.2-2.1-1.2-3.8v-9.1h1.5
			v8.9c0,2.7,1.1,4,3.2,4c2.2,0,3.6-0.9,4.2-2.8v-10.1h1.5V440h-1.5L362.9,438.2z M370.9,422.5v3.6h2.9v1.3h-2.9v9.3
			c0,0.8,0.1,1.3,0.4,1.7c0.3,0.4,0.8,0.6,1.4,0.6c0.3,0,0.7,0,1.2-0.1l0.1,1.3c-0.4,0.1-1,0.2-1.7,0.2c-1.1,0-1.8-0.3-2.3-0.9
			c-0.5-0.6-0.7-1.5-0.7-2.7v-9.3h-2.6v-1.3h2.6v-3.6H370.9z"/>
		<path d="M161.6,349.6l1.4,0.9c-0.8,1.1-1.2,2.3-1.2,3.5v1.8h-2.4v-1.5c0-0.9,0.2-1.7,0.6-2.6C160.4,350.8,160.9,350.1,161.6,349.6
			z M165.6,349.6l1.4,0.9c-0.8,1.1-1.2,2.3-1.2,3.5v1.8h-2.4v-1.5c0-0.9,0.2-1.7,0.6-2.6C164.4,350.8,165,350.1,165.6,349.6z
			 M183.3,363.6c-0.2,2-1,3.5-2.2,4.6c-1.2,1.1-2.9,1.6-4.9,1.6c-2.2,0-4-0.8-5.3-2.4c-1.3-1.6-2-3.7-2-6.4v-1.8
			c0-1.7,0.3-3.3,0.9-4.6c0.6-1.3,1.5-2.3,2.7-3c1.1-0.7,2.5-1.1,4-1.1c2,0,3.6,0.6,4.8,1.7c1.2,1.1,1.9,2.6,2.1,4.6h-2.5
			c-0.2-1.5-0.7-2.6-1.4-3.2c-0.7-0.7-1.7-1-3-1c-1.6,0-2.8,0.6-3.7,1.8c-0.9,1.2-1.3,2.8-1.3,5v1.8c0,2,0.4,3.7,1.3,4.9
			c0.9,1.2,2,1.8,3.6,1.8c1.4,0,2.4-0.3,3.2-0.9c0.7-0.6,1.2-1.7,1.5-3.3H183.3z M188.9,369.6h-2.4v-19.8h2.4V369.6z M198.5,369.9
			c-1.9,0-3.4-0.6-4.6-1.9c-1.2-1.2-1.8-2.9-1.8-5v-0.4c0-1.4,0.3-2.6,0.8-3.7c0.5-1.1,1.3-1.9,2.2-2.6c1-0.6,2-0.9,3.1-0.9
			c1.8,0,3.2,0.6,4.2,1.8c1,1.2,1.5,2.9,1.5,5.1v1h-9.4c0,1.4,0.4,2.5,1.2,3.3c0.8,0.8,1.8,1.3,2.9,1.3c0.8,0,1.6-0.2,2.1-0.5
			c0.6-0.3,1.1-0.8,1.5-1.4l1.5,1.1C202.6,369,200.9,369.9,198.5,369.9z M198.2,357.4c-1,0-1.8,0.4-2.4,1.1
			c-0.7,0.7-1.1,1.7-1.2,2.9h7v-0.2c-0.1-1.2-0.4-2.1-1-2.8C200,357.7,199.2,357.4,198.2,357.4z M215.3,369.6
			c-0.1-0.3-0.2-0.8-0.3-1.5c-1.1,1.2-2.4,1.7-4,1.7c-1.4,0-2.5-0.4-3.4-1.2c-0.9-0.8-1.3-1.8-1.3-3c0-1.5,0.6-2.6,1.7-3.4
			c1.1-0.8,2.7-1.2,4.7-1.2h2.3V360c0-0.8-0.2-1.5-0.7-2c-0.5-0.5-1.2-0.7-2.2-0.7c-0.9,0-1.6,0.2-2.1,0.6c-0.6,0.4-0.9,1-0.9,1.6
			h-2.4c0-0.7,0.2-1.4,0.7-2c0.5-0.7,1.2-1.2,2-1.5c0.9-0.4,1.8-0.6,2.8-0.6c1.6,0,2.9,0.4,3.8,1.2c0.9,0.8,1.4,1.9,1.4,3.3v6.4
			c0,1.3,0.2,2.3,0.5,3.1v0.2H215.3z M211.4,367.8c0.7,0,1.5-0.2,2.1-0.6c0.7-0.4,1.2-0.9,1.5-1.5v-2.9h-1.9c-2.9,0-4.4,0.9-4.4,2.6
			c0,0.7,0.2,1.3,0.7,1.8C210,367.6,210.6,367.8,211.4,367.8z M223.3,355.7l0.1,1.8c1.1-1.3,2.5-2,4.2-2c2.9,0,4.4,1.7,4.5,5v9.2
			h-2.4v-9.2c0-1-0.2-1.7-0.7-2.2c-0.4-0.5-1.1-0.7-2.1-0.7c-0.8,0-1.5,0.2-2,0.6c-0.6,0.4-1,1-1.4,1.6v9.9h-2.4v-13.9H223.3z
			 M234.6,356.1l-1.4-0.9c0.8-1.1,1.2-2.3,1.2-3.5v-1.9h2.4v1.7c0,0.9-0.2,1.7-0.6,2.6C235.8,354.9,235.3,355.6,234.6,356.1z
			 M238.6,356.1l-1.4-0.9c0.8-1.1,1.2-2.3,1.2-3.5v-1.9h2.4v1.7c0,0.9-0.2,1.7-0.6,2.6C239.8,354.9,239.3,355.6,238.6,356.1z
			 M256.2,361.2c-2.1-0.6-3.7-1.4-4.6-2.2c-1-0.9-1.4-2-1.4-3.3c0-1.5,0.6-2.7,1.8-3.7c1.2-1,2.7-1.5,4.6-1.5c1.3,0,2.4,0.2,3.4,0.7
			c1,0.5,1.8,1.2,2.3,2.1c0.6,0.9,0.8,1.8,0.8,2.9h-2.5c0-1.1-0.4-2-1.1-2.7c-0.7-0.7-1.7-1-3.1-1c-1.2,0-2.2,0.3-2.9,0.8
			c-0.7,0.5-1,1.3-1,2.2c0,0.8,0.3,1.4,1,1.9c0.7,0.5,1.8,1,3.3,1.4c1.6,0.4,2.8,0.9,3.7,1.5c0.9,0.5,1.5,1.1,2,1.8
			c0.4,0.7,0.6,1.5,0.6,2.5c0,1.5-0.6,2.7-1.8,3.7c-1.2,0.9-2.8,1.4-4.8,1.4c-1.3,0-2.5-0.2-3.6-0.7c-1.1-0.5-2-1.2-2.6-2
			c-0.6-0.9-0.9-1.8-0.9-2.9h2.5c0,1.1,0.4,2,1.2,2.7c0.8,0.7,2,1,3.4,1c1.3,0,2.3-0.3,3-0.8c0.7-0.5,1-1.3,1-2.2
			c0-0.9-0.3-1.6-1-2.1C259.1,362.2,257.9,361.7,256.2,361.2z M266.4,369.6v-18.8h5.3c1.6,0,3.1,0.4,4.3,1.1
			c1.3,0.7,2.2,1.7,2.9,3.1c0.7,1.3,1,2.9,1,4.6v1.2c0,1.8-0.3,3.3-1,4.7c-0.7,1.3-1.7,2.4-2.9,3.1c-1.3,0.7-2.7,1.1-4.4,1.1H266.4z
			 M268.8,352.9v14.7h2.6c1.9,0,3.4-0.6,4.4-1.8c1.1-1.2,1.6-2.9,1.6-5.1v-1.1c0-2.1-0.5-3.8-1.5-5c-1-1.2-2.4-1.8-4.3-1.8H268.8z
			 M286.3,369.6h-2.5v-18.8h2.5V369.6z M300.3,358.6h2c0.9,0,1.6-0.2,2.1-0.7s0.7-1.1,0.7-1.9c0-0.8-0.2-1.3-0.7-1.8
			c-0.4-0.4-1.1-0.6-1.9-0.6c-0.7,0-1.3,0.2-1.8,0.6c-0.5,0.4-0.7,0.9-0.7,1.5h-3.7c0-1,0.3-1.9,0.8-2.6c0.5-0.8,1.3-1.4,2.2-1.8
			c1-0.4,2-0.7,3.1-0.7c2,0,3.5,0.5,4.7,1.4c1.1,0.9,1.7,2.3,1.7,3.9c0,0.9-0.3,1.6-0.8,2.4c-0.5,0.7-1.2,1.3-2.1,1.7
			c1.1,0.4,1.8,0.9,2.4,1.7c0.5,0.8,0.8,1.6,0.8,2.7c0,1.7-0.6,3-1.8,4c-1.2,1-2.8,1.5-4.8,1.5c-1.9,0-3.4-0.5-4.6-1.5
			c-1.2-1-1.8-2.3-1.8-3.9h3.7c0,0.7,0.3,1.3,0.8,1.7c0.5,0.4,1.2,0.7,2,0.7c0.9,0,1.6-0.2,2.1-0.7c0.5-0.5,0.8-1.1,0.8-1.9
			c0-1.9-1-2.8-3.1-2.8h-2V358.6z M320.6,369.6H319v-13.9h1.5V369.6z M318.8,351.6c0-0.3,0.1-0.5,0.3-0.7c0.2-0.2,0.4-0.3,0.8-0.3
			c0.3,0,0.6,0.1,0.8,0.3c0.2,0.2,0.3,0.4,0.3,0.7c0,0.3-0.1,0.5-0.3,0.7c-0.2,0.2-0.4,0.3-0.8,0.3c-0.3,0-0.6-0.1-0.8-0.3
			C318.9,352.2,318.8,351.9,318.8,351.6z M326.3,355.7l0.1,2.4c0.5-0.9,1.2-1.5,2-2c0.8-0.5,1.6-0.7,2.6-0.7c1.5,0,2.6,0.4,3.3,1.3
			c0.7,0.8,1.1,2.1,1.1,3.8v9.2h-1.5v-9.2c0-1.2-0.3-2.2-0.8-2.8c-0.5-0.6-1.3-0.9-2.5-0.9c-1,0-1.8,0.3-2.5,0.9
			c-0.7,0.6-1.3,1.4-1.6,2.4v9.6h-1.5v-13.9H326.3z M350.5,362.8c0,2.2-0.5,3.9-1.4,5.2c-1,1.3-2.3,1.9-3.9,1.9
			c-1.9,0-3.4-0.7-4.4-2v7.1h-1.5v-19.3h1.4l0.1,2c1-1.5,2.5-2.2,4.4-2.2c1.7,0,3,0.6,3.9,1.9c1,1.3,1.4,3,1.4,5.3V362.8z
			 M349,362.5c0-1.8-0.4-3.2-1.1-4.2c-0.7-1-1.7-1.5-3.1-1.5c-0.9,0-1.8,0.2-2.4,0.7c-0.7,0.5-1.2,1.1-1.6,2v6.7
			c0.4,0.8,0.9,1.4,1.6,1.8c0.7,0.4,1.5,0.6,2.4,0.6c1.3,0,2.3-0.5,3-1.5C348.6,366,349,364.5,349,362.5z M362.9,367.8
			c-0.9,1.4-2.4,2-4.4,2c-1.5,0-2.6-0.4-3.4-1.3c-0.8-0.9-1.2-2.1-1.2-3.8v-9.1h1.5v8.9c0,2.7,1.1,4,3.2,4c2.2,0,3.6-0.9,4.2-2.8
			v-10.1h1.5v13.9h-1.5L362.9,367.8z M370.9,352.1v3.6h2.9v1.3h-2.9v9.3c0,0.8,0.1,1.3,0.4,1.7c0.3,0.4,0.8,0.6,1.4,0.6
			c0.3,0,0.7,0,1.2-0.1l0.1,1.3c-0.4,0.1-1,0.2-1.7,0.2c-1.1,0-1.8-0.3-2.3-0.9c-0.5-0.6-0.7-1.5-0.7-2.7v-9.3h-2.6v-1.3h2.6v-3.6
			H370.9z"/>
		<path d="M161.6,279.2l1.4,0.9c-0.8,1.1-1.2,2.3-1.2,3.5v1.8h-2.4v-1.5c0-0.9,0.2-1.7,0.6-2.6C160.4,280.4,160.9,279.7,161.6,279.2
			z M165.6,279.2l1.4,0.9c-0.8,1.1-1.2,2.3-1.2,3.5v1.8h-2.4v-1.5c0-0.9,0.2-1.7,0.6-2.6C164.4,280.4,165,279.7,165.6,279.2z
			 M183.3,293.2c-0.2,2-1,3.5-2.2,4.6c-1.2,1.1-2.9,1.6-4.9,1.6c-2.2,0-4-0.8-5.3-2.4c-1.3-1.6-2-3.7-2-6.4v-1.8
			c0-1.7,0.3-3.3,0.9-4.6c0.6-1.3,1.5-2.3,2.7-3c1.1-0.7,2.5-1.1,4-1.1c2,0,3.6,0.6,4.8,1.7c1.2,1.1,1.9,2.6,2.1,4.6h-2.5
			c-0.2-1.5-0.7-2.6-1.4-3.2c-0.7-0.7-1.7-1-3-1c-1.6,0-2.8,0.6-3.7,1.8c-0.9,1.2-1.3,2.8-1.3,5v1.8c0,2,0.4,3.7,1.3,4.9
			c0.9,1.2,2,1.8,3.6,1.8c1.4,0,2.4-0.3,3.2-0.9c0.7-0.6,1.2-1.7,1.5-3.3H183.3z M188.9,299.2h-2.4v-19.8h2.4V299.2z M198.5,299.5
			c-1.9,0-3.4-0.6-4.6-1.9c-1.2-1.2-1.8-2.9-1.8-5v-0.4c0-1.4,0.3-2.6,0.8-3.7c0.5-1.1,1.3-1.9,2.2-2.6c1-0.6,2-0.9,3.1-0.9
			c1.8,0,3.2,0.6,4.2,1.8c1,1.2,1.5,2.9,1.5,5.1v1h-9.4c0,1.4,0.4,2.5,1.2,3.3c0.8,0.8,1.8,1.3,2.9,1.3c0.8,0,1.6-0.2,2.1-0.5
			c0.6-0.3,1.1-0.8,1.5-1.4l1.5,1.1C202.6,298.6,200.9,299.5,198.5,299.5z M198.2,287c-1,0-1.8,0.4-2.4,1.1
			c-0.7,0.7-1.1,1.7-1.2,2.9h7v-0.2c-0.1-1.2-0.4-2.1-1-2.8C200,287.3,199.2,287,198.2,287z M215.3,299.2c-0.1-0.3-0.2-0.8-0.3-1.5
			c-1.1,1.2-2.4,1.7-4,1.7c-1.4,0-2.5-0.4-3.4-1.2c-0.9-0.8-1.3-1.8-1.3-3c0-1.5,0.6-2.6,1.7-3.4c1.1-0.8,2.7-1.2,4.7-1.2h2.3v-1.1
			c0-0.8-0.2-1.5-0.7-2c-0.5-0.5-1.2-0.7-2.2-0.7c-0.9,0-1.6,0.2-2.1,0.6c-0.6,0.4-0.9,1-0.9,1.6h-2.4c0-0.7,0.2-1.4,0.7-2
			c0.5-0.7,1.2-1.2,2-1.5c0.9-0.4,1.8-0.6,2.8-0.6c1.6,0,2.9,0.4,3.8,1.2c0.9,0.8,1.4,1.9,1.4,3.3v6.4c0,1.3,0.2,2.3,0.5,3.1v0.2
			H215.3z M211.4,297.4c0.7,0,1.5-0.2,2.1-0.6c0.7-0.4,1.2-0.9,1.5-1.5v-2.9h-1.9c-2.9,0-4.4,0.9-4.4,2.6c0,0.7,0.2,1.3,0.7,1.8
			C210,297.2,210.6,297.4,211.4,297.4z M223.3,285.3l0.1,1.8c1.1-1.3,2.5-2,4.2-2c2.9,0,4.4,1.7,4.5,5v9.2h-2.4V290
			c0-1-0.2-1.7-0.7-2.2c-0.4-0.5-1.1-0.7-2.1-0.7c-0.8,0-1.5,0.2-2,0.6c-0.6,0.4-1,1-1.4,1.6v9.9h-2.4v-13.9H223.3z M234.6,285.7
			l-1.4-0.9c0.8-1.1,1.2-2.3,1.2-3.5v-1.9h2.4v1.7c0,0.9-0.2,1.7-0.6,2.6C235.8,284.5,235.3,285.2,234.6,285.7z M238.6,285.7
			l-1.4-0.9c0.8-1.1,1.2-2.3,1.2-3.5v-1.9h2.4v1.7c0,0.9-0.2,1.7-0.6,2.6C239.8,284.5,239.3,285.2,238.6,285.7z M256.2,290.8
			c-2.1-0.6-3.7-1.4-4.6-2.2c-1-0.9-1.4-2-1.4-3.3c0-1.5,0.6-2.7,1.8-3.7c1.2-1,2.7-1.5,4.6-1.5c1.3,0,2.4,0.2,3.4,0.7
			c1,0.5,1.8,1.2,2.3,2.1c0.6,0.9,0.8,1.8,0.8,2.9h-2.5c0-1.1-0.4-2-1.1-2.7c-0.7-0.7-1.7-1-3.1-1c-1.2,0-2.2,0.3-2.9,0.8
			c-0.7,0.5-1,1.3-1,2.2c0,0.8,0.3,1.4,1,1.9c0.7,0.5,1.8,1,3.3,1.4c1.6,0.4,2.8,0.9,3.7,1.5c0.9,0.5,1.5,1.1,2,1.8
			c0.4,0.7,0.6,1.5,0.6,2.5c0,1.5-0.6,2.7-1.8,3.7c-1.2,0.9-2.8,1.4-4.8,1.4c-1.3,0-2.5-0.2-3.6-0.7c-1.1-0.5-2-1.2-2.6-2
			c-0.6-0.9-0.9-1.8-0.9-2.9h2.5c0,1.1,0.4,2,1.2,2.7c0.8,0.7,2,1,3.4,1c1.3,0,2.3-0.3,3-0.8c0.7-0.5,1-1.3,1-2.2s-0.3-1.6-1-2.1
			C259.1,291.8,257.9,291.3,256.2,290.8z M266.4,299.2v-18.8h5.3c1.6,0,3.1,0.4,4.3,1.1c1.3,0.7,2.2,1.7,2.9,3.1
			c0.7,1.3,1,2.9,1,4.6v1.2c0,1.8-0.3,3.3-1,4.7c-0.7,1.3-1.7,2.4-2.9,3.1c-1.3,0.7-2.7,1.1-4.4,1.1H266.4z M268.8,282.5v14.7h2.6
			c1.9,0,3.4-0.6,4.4-1.8c1.1-1.2,1.6-2.9,1.6-5.1v-1.1c0-2.1-0.5-3.8-1.5-5c-1-1.2-2.4-1.8-4.3-1.8H268.8z M286.3,299.2h-2.5v-18.8
			h2.5V299.2z M297.1,290l1.1-9.5h10.5v3.1h-7.5l-0.5,4c0.9-0.5,1.8-0.7,2.8-0.7c1.8,0,3.2,0.6,4.2,1.7c1,1.1,1.5,2.7,1.5,4.7
			c0,1.2-0.3,2.3-0.8,3.3c-0.5,1-1.2,1.7-2.2,2.2c-1,0.5-2.1,0.8-3.4,0.8c-1.1,0-2.2-0.2-3.2-0.7c-1-0.5-1.7-1.1-2.3-1.9
			c-0.6-0.8-0.9-1.8-0.9-2.8h3.7c0.1,0.8,0.3,1.4,0.8,1.8c0.5,0.4,1.1,0.6,1.8,0.6c0.8,0,1.5-0.3,1.9-0.9c0.5-0.6,0.7-1.5,0.7-2.6
			c0-1.1-0.3-1.9-0.8-2.4c-0.5-0.6-1.3-0.9-2.2-0.9c-0.9,0-1.6,0.2-2.2,0.7l-0.4,0.3L297.1,290z M320.6,299.2H319v-13.9h1.5V299.2z
			 M318.8,281.2c0-0.3,0.1-0.5,0.3-0.7c0.2-0.2,0.4-0.3,0.8-0.3c0.3,0,0.6,0.1,0.8,0.3c0.2,0.2,0.3,0.4,0.3,0.7s-0.1,0.5-0.3,0.7
			c-0.2,0.2-0.4,0.3-0.8,0.3c-0.3,0-0.6-0.1-0.8-0.3C318.9,281.8,318.8,281.5,318.8,281.2z M326.3,285.3l0.1,2.4
			c0.5-0.9,1.2-1.5,2-2c0.8-0.5,1.6-0.7,2.6-0.7c1.5,0,2.6,0.4,3.3,1.3c0.7,0.8,1.1,2.1,1.1,3.8v9.2h-1.5V290c0-1.2-0.3-2.2-0.8-2.8
			c-0.5-0.6-1.3-0.9-2.5-0.9c-1,0-1.8,0.3-2.5,0.9c-0.7,0.6-1.3,1.4-1.6,2.4v9.6h-1.5v-13.9H326.3z M350.5,292.4
			c0,2.2-0.5,3.9-1.4,5.2c-1,1.3-2.3,1.9-3.9,1.9c-1.9,0-3.4-0.7-4.4-2v7.1h-1.5v-19.3h1.4l0.1,2c1-1.5,2.5-2.2,4.4-2.2
			c1.7,0,3,0.6,3.9,1.9c1,1.3,1.4,3,1.4,5.3V292.4z M349,292.1c0-1.8-0.4-3.2-1.1-4.2c-0.7-1-1.7-1.5-3.1-1.5
			c-0.9,0-1.8,0.2-2.4,0.7c-0.7,0.5-1.2,1.1-1.6,2v6.7c0.4,0.8,0.9,1.4,1.6,1.8c0.7,0.4,1.5,0.6,2.4,0.6c1.3,0,2.3-0.5,3-1.5
			C348.6,295.6,349,294.1,349,292.1z M362.9,297.4c-0.9,1.4-2.4,2-4.4,2c-1.5,0-2.6-0.4-3.4-1.3c-0.8-0.9-1.2-2.1-1.2-3.8v-9.1h1.5
			v8.9c0,2.7,1.1,4,3.2,4c2.2,0,3.6-0.9,4.2-2.8v-10.1h1.5v13.9h-1.5L362.9,297.4z M370.9,281.7v3.6h2.9v1.3h-2.9v9.3
			c0,0.8,0.1,1.3,0.4,1.7c0.3,0.4,0.8,0.6,1.4,0.6c0.3,0,0.7,0,1.2-0.1l0.1,1.3c-0.4,0.1-1,0.2-1.7,0.2c-1.1,0-1.8-0.3-2.3-0.9
			c-0.5-0.6-0.7-1.5-0.7-2.7v-9.3h-2.6v-1.3h2.6v-3.6H370.9z"/>
		<path d="M161.6,208.8l1.4,0.9c-0.8,1.1-1.2,2.3-1.2,3.5v1.8h-2.4v-1.5c0-0.9,0.2-1.7,0.6-2.6C160.4,210,160.9,209.3,161.6,208.8z
			 M165.6,208.8l1.4,0.9c-0.8,1.1-1.2,2.3-1.2,3.5v1.8h-2.4v-1.5c0-0.9,0.2-1.7,0.6-2.6C164.4,210,165,209.3,165.6,208.8z
			 M183.3,222.8c-0.2,2-1,3.5-2.2,4.6c-1.2,1.1-2.9,1.6-4.9,1.6c-2.2,0-4-0.8-5.3-2.4c-1.3-1.6-2-3.7-2-6.4v-1.8
			c0-1.7,0.3-3.3,0.9-4.6c0.6-1.3,1.5-2.3,2.7-3c1.1-0.7,2.5-1.1,4-1.1c2,0,3.6,0.6,4.8,1.7c1.2,1.1,1.9,2.6,2.1,4.6h-2.5
			c-0.2-1.5-0.7-2.6-1.4-3.2c-0.7-0.7-1.7-1-3-1c-1.6,0-2.8,0.6-3.7,1.8c-0.9,1.2-1.3,2.8-1.3,5v1.8c0,2,0.4,3.7,1.3,4.9
			c0.9,1.2,2,1.8,3.6,1.8c1.4,0,2.4-0.3,3.2-0.9c0.7-0.6,1.2-1.7,1.5-3.3H183.3z M188.9,228.8h-2.4V209h2.4V228.8z M198.5,229.1
			c-1.9,0-3.4-0.6-4.6-1.9c-1.2-1.2-1.8-2.9-1.8-5v-0.4c0-1.4,0.3-2.6,0.8-3.7c0.5-1.1,1.3-1.9,2.2-2.6c1-0.6,2-0.9,3.1-0.9
			c1.8,0,3.2,0.6,4.2,1.8c1,1.2,1.5,2.9,1.5,5.1v1h-9.4c0,1.4,0.4,2.5,1.2,3.3c0.8,0.8,1.8,1.3,2.9,1.3c0.8,0,1.6-0.2,2.1-0.5
			c0.6-0.3,1.1-0.8,1.5-1.4l1.5,1.1C202.6,228.2,200.9,229.1,198.5,229.1z M198.2,216.6c-1,0-1.8,0.4-2.4,1.1
			c-0.7,0.7-1.1,1.7-1.2,2.9h7v-0.2c-0.1-1.2-0.4-2.1-1-2.8C200,216.9,199.2,216.6,198.2,216.6z M215.3,228.8
			c-0.1-0.3-0.2-0.8-0.3-1.5c-1.1,1.2-2.4,1.7-4,1.7c-1.4,0-2.5-0.4-3.4-1.2c-0.9-0.8-1.3-1.8-1.3-3c0-1.5,0.6-2.6,1.7-3.4
			c1.1-0.8,2.7-1.2,4.7-1.2h2.3v-1.1c0-0.8-0.2-1.5-0.7-2c-0.5-0.5-1.2-0.7-2.2-0.7c-0.9,0-1.6,0.2-2.1,0.6
			c-0.6,0.4-0.9,0.9-0.9,1.6h-2.4c0-0.7,0.2-1.4,0.7-2c0.5-0.7,1.2-1.2,2-1.5c0.9-0.4,1.8-0.6,2.8-0.6c1.6,0,2.9,0.4,3.8,1.2
			c0.9,0.8,1.4,1.9,1.4,3.3v6.4c0,1.3,0.2,2.3,0.5,3.1v0.2H215.3z M211.4,227c0.7,0,1.5-0.2,2.1-0.6c0.7-0.4,1.2-0.9,1.5-1.5V222
			h-1.9c-2.9,0-4.4,0.9-4.4,2.6c0,0.7,0.2,1.3,0.7,1.8C210,226.8,210.6,227,211.4,227z M223.3,214.9l0.1,1.8c1.1-1.3,2.5-2,4.2-2
			c2.9,0,4.4,1.7,4.5,5v9.2h-2.4v-9.2c0-1-0.2-1.7-0.7-2.2c-0.4-0.5-1.1-0.7-2.1-0.7c-0.8,0-1.5,0.2-2,0.6c-0.6,0.4-1,1-1.4,1.6v9.9
			h-2.4v-13.9H223.3z M234.6,215.3l-1.4-0.9c0.8-1.1,1.2-2.3,1.2-3.5V209h2.4v1.7c0,0.9-0.2,1.7-0.6,2.6
			C235.8,214.1,235.3,214.8,234.6,215.3z M238.6,215.3l-1.4-0.9c0.8-1.1,1.2-2.3,1.2-3.5V209h2.4v1.7c0,0.9-0.2,1.7-0.6,2.6
			C239.8,214.1,239.3,214.8,238.6,215.3z M256.2,220.4c-2.1-0.6-3.7-1.4-4.6-2.2c-1-0.9-1.4-2-1.4-3.3c0-1.5,0.6-2.7,1.8-3.7
			c1.2-1,2.7-1.5,4.6-1.5c1.3,0,2.4,0.2,3.4,0.7c1,0.5,1.8,1.2,2.3,2.1c0.6,0.9,0.8,1.8,0.8,2.9h-2.5c0-1.1-0.4-2-1.1-2.7
			c-0.7-0.7-1.7-1-3.1-1c-1.2,0-2.2,0.3-2.9,0.8c-0.7,0.5-1,1.3-1,2.2c0,0.8,0.3,1.4,1,1.9c0.7,0.5,1.8,1,3.3,1.4
			c1.6,0.4,2.8,0.9,3.7,1.5c0.9,0.5,1.5,1.1,2,1.8c0.4,0.7,0.6,1.5,0.6,2.5c0,1.5-0.6,2.7-1.8,3.7c-1.2,0.9-2.8,1.4-4.8,1.4
			c-1.3,0-2.5-0.2-3.6-0.7c-1.1-0.5-2-1.2-2.6-2c-0.6-0.9-0.9-1.8-0.9-2.9h2.5c0,1.1,0.4,2,1.2,2.7c0.8,0.7,2,1,3.4,1
			c1.3,0,2.3-0.3,3-0.8c0.7-0.5,1-1.3,1-2.2s-0.3-1.6-1-2.1C259.1,221.4,257.9,220.9,256.2,220.4z M266.4,228.8V210h5.3
			c1.6,0,3.1,0.4,4.3,1.1c1.3,0.7,2.2,1.7,2.9,3.1c0.7,1.3,1,2.9,1,4.6v1.2c0,1.8-0.3,3.3-1,4.7c-0.7,1.3-1.7,2.4-2.9,3.1
			c-1.3,0.7-2.7,1.1-4.4,1.1H266.4z M268.8,212.1v14.7h2.6c1.9,0,3.4-0.6,4.4-1.8c1.1-1.2,1.6-2.9,1.6-5.1v-1.1c0-2.1-0.5-3.8-1.5-5
			c-1-1.2-2.4-1.8-4.3-1.8H268.8z M286.3,228.8h-2.5V210h2.5V228.8z M309.3,212.1l-7.3,16.7h-3.9l7.3-15.8h-9.3v-3h13.3V212.1z
			 M320.6,228.8H319v-13.9h1.5V228.8z M318.8,210.8c0-0.3,0.1-0.5,0.3-0.7c0.2-0.2,0.4-0.3,0.8-0.3c0.3,0,0.6,0.1,0.8,0.3
			c0.2,0.2,0.3,0.4,0.3,0.7s-0.1,0.5-0.3,0.7c-0.2,0.2-0.4,0.3-0.8,0.3c-0.3,0-0.6-0.1-0.8-0.3C318.9,211.4,318.8,211.1,318.8,210.8
			z M326.3,214.9l0.1,2.4c0.5-0.9,1.2-1.5,2-2c0.8-0.5,1.6-0.7,2.6-0.7c1.5,0,2.6,0.4,3.3,1.3c0.7,0.8,1.1,2.1,1.1,3.8v9.2h-1.5
			v-9.2c0-1.2-0.3-2.2-0.8-2.8c-0.5-0.6-1.3-0.9-2.5-0.9c-1,0-1.8,0.3-2.5,0.9c-0.7,0.6-1.3,1.4-1.6,2.4v9.6h-1.5v-13.9H326.3z
			 M350.5,222c0,2.2-0.5,3.9-1.4,5.2c-1,1.3-2.3,1.9-3.9,1.9c-1.9,0-3.4-0.7-4.4-2v7.1h-1.5v-19.3h1.4l0.1,2c1-1.5,2.5-2.2,4.4-2.2
			c1.7,0,3,0.6,3.9,1.9c1,1.3,1.4,3,1.4,5.3V222z M349,221.7c0-1.8-0.4-3.2-1.1-4.2c-0.7-1-1.7-1.5-3.1-1.5c-0.9,0-1.8,0.2-2.4,0.7
			s-1.2,1.1-1.6,2v6.7c0.4,0.8,0.9,1.4,1.6,1.8c0.7,0.4,1.5,0.6,2.4,0.6c1.3,0,2.3-0.5,3-1.5C348.6,225.2,349,223.7,349,221.7z
			 M362.9,227c-0.9,1.4-2.4,2-4.4,2c-1.5,0-2.6-0.4-3.4-1.3c-0.8-0.9-1.2-2.1-1.2-3.8v-9.1h1.5v8.9c0,2.7,1.1,4,3.2,4
			c2.2,0,3.6-0.9,4.2-2.8v-10.1h1.5v13.9h-1.5L362.9,227z M370.9,211.3v3.6h2.9v1.3h-2.9v9.3c0,0.8,0.1,1.3,0.4,1.7
			c0.3,0.4,0.8,0.6,1.4,0.6c0.3,0,0.7,0,1.2-0.1l0.1,1.3c-0.4,0.1-1,0.2-1.7,0.2c-1.1,0-1.8-0.3-2.3-0.9c-0.5-0.6-0.7-1.5-0.7-2.7
			v-9.3h-2.6v-1.3h2.6v-3.6H370.9z"/>
		<path d="M98.7,384.8l1.4,0.9c-0.8,1.1-1.2,2.3-1.2,3.5v1.8h-2.4v-1.5c0-0.9,0.2-1.7,0.6-2.6C97.5,386,98,385.3,98.7,384.8z
			 M102.8,384.8l1.4,0.9c-0.8,1.1-1.2,2.3-1.2,3.5v1.8h-2.4v-1.5c0-0.9,0.2-1.7,0.6-2.6C101.6,386,102.1,385.3,102.8,384.8z
			 M106.6,404.8V386h5.3c1.6,0,3.1,0.4,4.3,1.1s2.2,1.7,2.9,3.1c0.7,1.3,1,2.9,1,4.6v1.2c0,1.8-0.3,3.3-1,4.7
			c-0.7,1.3-1.7,2.4-2.9,3.1c-1.3,0.7-2.7,1.1-4.4,1.1H106.6z M109.1,388.1v14.7h2.6c1.9,0,3.4-0.6,4.4-1.8c1.1-1.2,1.6-2.9,1.6-5.1
			v-1.1c0-2.1-0.5-3.8-1.5-5c-1-1.2-2.4-1.8-4.3-1.8H109.1z M126.2,404.8h-2.4v-13.9h2.4V404.8z M123.6,387.2c0-0.4,0.1-0.7,0.3-1
			c0.2-0.3,0.6-0.4,1.1-0.4c0.5,0,0.8,0.1,1.1,0.4c0.2,0.3,0.4,0.6,0.4,1c0,0.4-0.1,0.7-0.4,1c-0.2,0.3-0.6,0.4-1.1,0.4
			c-0.5,0-0.8-0.1-1.1-0.4C123.7,387.9,123.6,387.5,123.6,387.2z M136.7,393c-0.4-0.1-0.8-0.1-1.2-0.1c-1.6,0-2.6,0.7-3.2,2v9.9H130
			v-13.9h2.3l0,1.6c0.8-1.2,1.9-1.9,3.3-1.9c0.5,0,0.8,0.1,1.1,0.2V393z M142.8,387.5v3.4h2.6v1.8h-2.6v8.7c0,0.6,0.1,1,0.3,1.3
			c0.2,0.3,0.6,0.4,1.2,0.4c0.3,0,0.7-0.1,1.1-0.2v1.9c-0.6,0.2-1.2,0.3-1.8,0.3c-1.1,0-1.9-0.3-2.4-1c-0.5-0.6-0.8-1.6-0.8-2.7
			v-8.7h-2.5v-1.8h2.5v-3.4H142.8z M152.8,401.3l3.2-10.5h2.6L153,407c-0.9,2.3-2.2,3.5-4.1,3.5l-0.5,0l-0.9-0.2v-1.9l0.6,0.1
			c0.8,0,1.4-0.2,1.9-0.5c0.5-0.3,0.8-0.9,1.1-1.8l0.5-1.4l-5-13.8h2.6L152.8,401.3z M161.3,391.3l-1.4-0.9c0.8-1.1,1.2-2.3,1.2-3.5
			V385h2.4v1.7c0,0.9-0.2,1.7-0.6,2.6C162.5,390.1,161.9,390.8,161.3,391.3z M165.2,391.3l-1.4-0.9c0.8-1.1,1.2-2.3,1.2-3.5V385h2.4
			v1.7c0,0.9-0.2,1.7-0.6,2.6C166.4,390.1,165.9,390.8,165.2,391.3z M182.8,396.4c-2.1-0.6-3.7-1.4-4.6-2.2c-1-0.9-1.4-2-1.4-3.3
			c0-1.5,0.6-2.7,1.8-3.7c1.2-1,2.7-1.5,4.6-1.5c1.3,0,2.4,0.2,3.4,0.7c1,0.5,1.8,1.2,2.3,2.1c0.6,0.9,0.8,1.8,0.8,2.9h-2.5
			c0-1.1-0.4-2-1.1-2.7c-0.7-0.7-1.7-1-3.1-1c-1.2,0-2.2,0.3-2.9,0.8c-0.7,0.5-1,1.3-1,2.2c0,0.8,0.3,1.4,1,1.9
			c0.7,0.5,1.8,1,3.3,1.4c1.6,0.4,2.8,0.9,3.7,1.5c0.9,0.5,1.5,1.1,2,1.8c0.4,0.7,0.6,1.5,0.6,2.5c0,1.5-0.6,2.7-1.8,3.7
			c-1.2,0.9-2.8,1.4-4.8,1.4c-1.3,0-2.5-0.2-3.6-0.7c-1.1-0.5-2-1.2-2.6-2c-0.6-0.9-0.9-1.8-0.9-2.9h2.5c0,1.1,0.4,2,1.3,2.7
			c0.8,0.7,2,1,3.4,1c1.3,0,2.3-0.3,3-0.8c0.7-0.5,1-1.3,1-2.2c0-0.9-0.3-1.6-1-2.1C185.7,397.4,184.5,396.9,182.8,396.4z
			 M193,404.8V386h5.3c1.6,0,3.1,0.4,4.3,1.1c1.3,0.7,2.2,1.7,2.9,3.1c0.7,1.3,1,2.9,1,4.6v1.2c0,1.8-0.3,3.3-1,4.7
			c-0.7,1.3-1.7,2.4-2.9,3.1c-1.3,0.7-2.7,1.1-4.4,1.1H193z M195.5,388.1v14.7h2.6c1.9,0,3.4-0.6,4.4-1.8c1.1-1.2,1.6-2.9,1.6-5.1
			v-1.1c0-2.1-0.5-3.8-1.5-5c-1-1.2-2.4-1.8-4.3-1.8H195.5z M213,404.8h-2.5V386h2.5V404.8z M236,404.8h-12.9v-2.6l6.1-6.5
			c0.8-0.9,1.4-1.7,1.8-2.4c0.4-0.7,0.6-1.3,0.6-1.9c0-0.8-0.2-1.5-0.6-2c-0.4-0.5-1-0.7-1.8-0.7c-0.8,0-1.5,0.3-2,0.9
			c-0.5,0.6-0.7,1.3-0.7,2.3h-3.7c0-1.1,0.3-2.2,0.8-3.1c0.5-0.9,1.3-1.7,2.3-2.2c1-0.5,2.1-0.8,3.4-0.8c1.9,0,3.4,0.5,4.5,1.4
			c1.1,0.9,1.6,2.2,1.6,3.9c0,0.9-0.2,1.9-0.7,2.8c-0.5,1-1.3,2.1-2.5,3.4l-4.3,4.5h8.1V404.8z M245.8,404.8V386h5.2
			c1.5,0,2.9,0.4,4.1,1.1c1.2,0.7,2.2,1.7,2.8,3c0.7,1.3,1,2.8,1,4.5v1.7c0,1.7-0.3,3.2-1,4.5c-0.7,1.3-1.6,2.3-2.9,3
			c-1.2,0.7-2.6,1.1-4.2,1.1H245.8z M247.4,387.4v16.1h3.6c2,0,3.6-0.7,4.8-2c1.2-1.3,1.8-3.1,1.8-5.3v-1.6c0-2.2-0.6-3.9-1.8-5.2
			c-1.2-1.3-2.7-2-4.7-2H247.4z M273.8,400.2c0-1-0.4-1.9-1.1-2.5c-0.7-0.6-2.1-1.2-4-1.7c-1.9-0.5-3.4-1.1-4.3-1.8
			c-1.3-0.9-1.9-2.1-1.9-3.6c0-1.4,0.6-2.6,1.8-3.5c1.2-0.9,2.7-1.4,4.5-1.4c1.2,0,2.4,0.2,3.3,0.7c1,0.5,1.8,1.2,2.3,2
			c0.5,0.9,0.8,1.8,0.8,2.9h-1.6c0-1.3-0.4-2.3-1.3-3.1c-0.9-0.8-2.1-1.2-3.5-1.2c-1.4,0-2.6,0.3-3.4,1c-0.9,0.6-1.3,1.5-1.3,2.5
			c0,1,0.4,1.7,1.1,2.3c0.8,0.6,2,1.1,3.7,1.6c1.7,0.5,3,0.9,3.8,1.4c0.9,0.5,1.5,1.1,2,1.8c0.4,0.7,0.7,1.5,0.7,2.4
			c0,1.5-0.6,2.7-1.8,3.6c-1.2,0.9-2.7,1.3-4.7,1.3c-1.3,0-2.5-0.2-3.6-0.7c-1.1-0.5-1.9-1.1-2.5-2c-0.6-0.9-0.9-1.8-0.9-2.9h1.6
			c0,1.3,0.5,2.4,1.5,3.1c1,0.8,2.3,1.1,3.9,1.1c1.5,0,2.6-0.3,3.5-1C273.3,402.1,273.8,401.3,273.8,400.2z M283,395.5l-2.6,2.6v6.7
			h-1.6V386h1.6v10.1L290,386h2l-7.9,8.4l8.5,10.4h-1.9L283,395.5z M300.7,397.6c0-1.3,0.3-2.5,0.8-3.6c0.5-1.1,1.3-1.9,2.2-2.5
			c1-0.6,2-0.9,3.2-0.9c1.9,0,3.4,0.7,4.5,2c1.2,1.3,1.7,3,1.7,5.2v0.3c0,1.3-0.3,2.6-0.8,3.6c-0.5,1.1-1.2,1.9-2.2,2.5
			c-0.9,0.6-2,0.9-3.2,0.9c-1.8,0-3.4-0.6-4.5-1.9c-1.2-1.3-1.7-3-1.7-5.2V397.6z M302.2,398c0,1.7,0.4,3,1.3,4.1
			c0.9,1.1,2,1.6,3.4,1.6c1.4,0,2.5-0.5,3.4-1.6c0.9-1.1,1.3-2.5,1.3-4.2v-0.3c0-1.1-0.2-2-0.6-2.9c-0.4-0.9-1-1.6-1.7-2
			c-0.7-0.5-1.5-0.7-2.5-0.7c-1.4,0-2.5,0.5-3.4,1.6c-0.9,1.1-1.3,2.5-1.3,4.2V398z M325.3,403c-0.9,1.4-2.4,2-4.4,2
			c-1.5,0-2.6-0.4-3.4-1.3c-0.8-0.9-1.2-2.1-1.2-3.8v-9.1h1.5v8.9c0,2.7,1.1,4,3.2,4c2.2,0,3.6-0.9,4.2-2.8v-10.1h1.5v13.9h-1.5
			L325.3,403z M333.2,387.3v3.6h2.9v1.3h-2.9v9.3c0,0.8,0.1,1.3,0.4,1.7c0.3,0.4,0.8,0.6,1.4,0.6c0.3,0,0.7,0,1.3-0.1l0.1,1.3
			c-0.4,0.1-1,0.2-1.6,0.2c-1.1,0-1.8-0.3-2.3-0.9c-0.5-0.6-0.7-1.5-0.7-2.7v-9.3h-2.6v-1.3h2.6v-3.6H333.2z M350.5,398
			c0,2.2-0.5,3.9-1.4,5.2c-1,1.3-2.3,1.9-3.9,1.9c-1.9,0-3.4-0.7-4.4-2v7.1h-1.5v-19.3h1.4l0.1,2c1-1.5,2.5-2.2,4.4-2.2
			c1.7,0,3,0.6,3.9,1.9c1,1.3,1.4,3,1.4,5.3V398z M349,397.7c0-1.8-0.4-3.2-1.1-4.2c-0.7-1-1.7-1.5-3.1-1.5c-0.9,0-1.8,0.2-2.4,0.7
			c-0.7,0.5-1.2,1.1-1.6,2v6.7c0.4,0.8,0.9,1.4,1.6,1.8c0.7,0.4,1.5,0.6,2.4,0.6c1.3,0,2.3-0.5,3-1.5
			C348.6,401.2,349,399.7,349,397.7z M362.9,403c-0.9,1.4-2.4,2-4.4,2c-1.5,0-2.6-0.4-3.4-1.3c-0.8-0.9-1.2-2.1-1.2-3.8v-9.1h1.5
			v8.9c0,2.7,1.1,4,3.2,4c2.2,0,3.6-0.9,4.2-2.8v-10.1h1.5v13.9h-1.5L362.9,403z M370.9,387.3v3.6h2.9v1.3h-2.9v9.3
			c0,0.8,0.1,1.3,0.4,1.7c0.3,0.4,0.8,0.6,1.4,0.6c0.3,0,0.7,0,1.2-0.1l0.1,1.3c-0.4,0.1-1,0.2-1.7,0.2c-1.1,0-1.8-0.3-2.3-0.9
			c-0.5-0.6-0.7-1.5-0.7-2.7v-9.3h-2.6v-1.3h2.6v-3.6H370.9z"/>
		<path d="M98.7,314.4l1.4,0.9c-0.8,1.1-1.2,2.3-1.2,3.5v1.8h-2.4v-1.5c0-0.9,0.2-1.7,0.6-2.6C97.5,315.6,98,314.9,98.7,314.4z
			 M102.8,314.4l1.4,0.9c-0.8,1.1-1.2,2.3-1.2,3.5v1.8h-2.4v-1.5c0-0.9,0.2-1.7,0.6-2.6C101.6,315.6,102.1,314.9,102.8,314.4z
			 M106.6,334.4v-18.8h5.3c1.6,0,3.1,0.4,4.3,1.1c1.3,0.7,2.2,1.7,2.9,3.1c0.7,1.3,1,2.9,1,4.6v1.2c0,1.8-0.3,3.3-1,4.7
			c-0.7,1.3-1.7,2.4-2.9,3.1c-1.3,0.7-2.7,1.1-4.4,1.1H106.6z M109.1,317.7v14.7h2.6c1.9,0,3.4-0.6,4.4-1.8c1.1-1.2,1.6-2.9,1.6-5.1
			v-1.1c0-2.1-0.5-3.8-1.5-5c-1-1.2-2.4-1.8-4.3-1.8H109.1z M126.2,334.4h-2.4v-13.9h2.4V334.4z M123.6,316.8c0-0.4,0.1-0.7,0.3-1
			c0.2-0.3,0.6-0.4,1.1-0.4c0.5,0,0.8,0.1,1.1,0.4c0.2,0.3,0.4,0.6,0.4,1c0,0.4-0.1,0.7-0.4,1c-0.2,0.3-0.6,0.4-1.1,0.4
			c-0.5,0-0.8-0.1-1.1-0.4C123.7,317.5,123.6,317.1,123.6,316.8z M136.7,322.6c-0.4-0.1-0.8-0.1-1.2-0.1c-1.6,0-2.6,0.7-3.2,2v9.9
			H130v-13.9h2.3l0,1.6c0.8-1.2,1.9-1.9,3.3-1.9c0.5,0,0.8,0.1,1.1,0.2V322.6z M142.8,317.1v3.4h2.6v1.8h-2.6v8.7
			c0,0.6,0.1,1,0.3,1.3c0.2,0.3,0.6,0.4,1.2,0.4c0.3,0,0.7-0.1,1.1-0.2v1.9c-0.6,0.2-1.2,0.3-1.8,0.3c-1.1,0-1.9-0.3-2.4-1
			c-0.5-0.6-0.8-1.6-0.8-2.7v-8.7h-2.5v-1.8h2.5v-3.4H142.8z M152.8,330.9l3.2-10.5h2.6l-5.6,16.1c-0.9,2.3-2.2,3.5-4.1,3.5l-0.5,0
			l-0.9-0.2v-1.9l0.6,0.1c0.8,0,1.4-0.2,1.9-0.5c0.5-0.3,0.8-0.9,1.1-1.8l0.5-1.4l-5-13.8h2.6L152.8,330.9z M161.3,320.9l-1.4-0.9
			c0.8-1.1,1.2-2.3,1.2-3.5v-1.9h2.4v1.7c0,0.9-0.2,1.7-0.6,2.6C162.5,319.7,161.9,320.4,161.3,320.9z M165.2,320.9l-1.4-0.9
			c0.8-1.1,1.2-2.3,1.2-3.5v-1.9h2.4v1.7c0,0.9-0.2,1.7-0.6,2.6C166.4,319.7,165.9,320.4,165.2,320.9z M182.8,326
			c-2.1-0.6-3.7-1.4-4.6-2.2c-1-0.9-1.4-2-1.4-3.3c0-1.5,0.6-2.7,1.8-3.7c1.2-1,2.7-1.5,4.6-1.5c1.3,0,2.4,0.2,3.4,0.7
			c1,0.5,1.8,1.2,2.3,2.1c0.6,0.9,0.8,1.8,0.8,2.9h-2.5c0-1.1-0.4-2-1.1-2.7c-0.7-0.7-1.7-1-3.1-1c-1.2,0-2.2,0.3-2.9,0.8
			c-0.7,0.5-1,1.3-1,2.2c0,0.8,0.3,1.4,1,1.9c0.7,0.5,1.8,1,3.3,1.4c1.6,0.4,2.8,0.9,3.7,1.5c0.9,0.5,1.5,1.1,2,1.8
			c0.4,0.7,0.6,1.5,0.6,2.5c0,1.5-0.6,2.7-1.8,3.7c-1.2,0.9-2.8,1.4-4.8,1.4c-1.3,0-2.5-0.2-3.6-0.7c-1.1-0.5-2-1.2-2.6-2
			c-0.6-0.9-0.9-1.8-0.9-2.9h2.5c0,1.1,0.4,2,1.3,2.7c0.8,0.7,2,1,3.4,1c1.3,0,2.3-0.3,3-0.8c0.7-0.5,1-1.3,1-2.2
			c0-0.9-0.3-1.6-1-2.1C185.7,327,184.5,326.5,182.8,326z M193,334.4v-18.8h5.3c1.6,0,3.1,0.4,4.3,1.1c1.3,0.7,2.2,1.7,2.9,3.1
			c0.7,1.3,1,2.9,1,4.6v1.2c0,1.8-0.3,3.3-1,4.7c-0.7,1.3-1.7,2.4-2.9,3.1c-1.3,0.7-2.7,1.1-4.4,1.1H193z M195.5,317.7v14.7h2.6
			c1.9,0,3.4-0.6,4.4-1.8c1.1-1.2,1.6-2.9,1.6-5.1v-1.1c0-2.1-0.5-3.8-1.5-5c-1-1.2-2.4-1.8-4.3-1.8H195.5z M213,334.4h-2.5v-18.8
			h2.5V334.4z M234.2,327.3h2.1v3h-2.1v4.1h-3.7v-4.1h-7.7l-0.2-2.3l7.8-12.4h3.8V327.3z M226.3,327.3h4.2v-6.6l-0.2,0.4
			L226.3,327.3z M245.8,334.4v-18.8h5.2c1.5,0,2.9,0.4,4.1,1.1c1.2,0.7,2.2,1.7,2.8,3c0.7,1.3,1,2.8,1,4.5v1.7c0,1.7-0.3,3.2-1,4.5
			c-0.7,1.3-1.6,2.3-2.9,3c-1.2,0.7-2.6,1.1-4.2,1.1H245.8z M247.4,317v16.1h3.6c2,0,3.6-0.7,4.8-2c1.2-1.3,1.8-3.1,1.8-5.3v-1.6
			c0-2.2-0.6-3.9-1.8-5.2c-1.2-1.3-2.7-2-4.7-2H247.4z M273.8,329.8c0-1-0.4-1.9-1.1-2.5c-0.7-0.6-2.1-1.2-4-1.7
			c-1.9-0.6-3.4-1.1-4.3-1.8c-1.3-0.9-1.9-2.1-1.9-3.6c0-1.4,0.6-2.6,1.8-3.5c1.2-0.9,2.7-1.4,4.5-1.4c1.2,0,2.4,0.2,3.3,0.7
			c1,0.5,1.8,1.2,2.3,2c0.5,0.9,0.8,1.8,0.8,2.9h-1.6c0-1.3-0.4-2.3-1.3-3.1c-0.9-0.8-2.1-1.2-3.5-1.2c-1.4,0-2.6,0.3-3.4,1
			c-0.9,0.6-1.3,1.5-1.3,2.5c0,1,0.4,1.7,1.1,2.3c0.8,0.6,2,1.1,3.7,1.6c1.7,0.5,3,0.9,3.8,1.4c0.9,0.5,1.5,1.1,2,1.8
			c0.4,0.7,0.7,1.5,0.7,2.4c0,1.5-0.6,2.7-1.8,3.6c-1.2,0.9-2.7,1.3-4.7,1.3c-1.3,0-2.5-0.2-3.6-0.7c-1.1-0.5-1.9-1.1-2.5-2
			c-0.6-0.9-0.9-1.8-0.9-2.9h1.6c0,1.3,0.5,2.4,1.5,3.1c1,0.8,2.3,1.1,3.9,1.1c1.5,0,2.6-0.3,3.5-1S273.8,330.9,273.8,329.8z
			 M283,325.1l-2.6,2.6v6.7h-1.6v-18.8h1.6v10.1l9.6-10.1h2l-7.9,8.4l8.5,10.4h-1.9L283,325.1z M300.7,327.2c0-1.3,0.3-2.5,0.8-3.6
			c0.5-1.1,1.3-1.9,2.2-2.5c1-0.6,2-0.9,3.2-0.9c1.9,0,3.4,0.7,4.5,2c1.2,1.3,1.7,3,1.7,5.2v0.3c0,1.3-0.3,2.6-0.8,3.6
			c-0.5,1.1-1.2,1.9-2.2,2.5c-0.9,0.6-2,0.9-3.2,0.9c-1.8,0-3.4-0.6-4.5-1.9c-1.2-1.3-1.7-3-1.7-5.2V327.2z M302.2,327.6
			c0,1.7,0.4,3,1.3,4.1c0.9,1.1,2,1.6,3.4,1.6c1.4,0,2.5-0.5,3.4-1.6c0.9-1.1,1.3-2.5,1.3-4.2v-0.3c0-1.1-0.2-2-0.6-2.9
			c-0.4-0.9-1-1.6-1.7-2c-0.7-0.5-1.5-0.7-2.5-0.7c-1.4,0-2.5,0.5-3.4,1.6c-0.9,1.1-1.3,2.5-1.3,4.2V327.6z M325.3,332.6
			c-0.9,1.4-2.4,2-4.4,2c-1.5,0-2.6-0.4-3.4-1.3c-0.8-0.9-1.2-2.1-1.2-3.8v-9.1h1.5v8.9c0,2.7,1.1,4,3.2,4c2.2,0,3.6-0.9,4.2-2.8
			v-10.1h1.5v13.9h-1.5L325.3,332.6z M333.2,316.9v3.6h2.9v1.3h-2.9v9.3c0,0.8,0.1,1.3,0.4,1.7c0.3,0.4,0.8,0.6,1.4,0.6
			c0.3,0,0.7,0,1.3-0.1l0.1,1.3c-0.4,0.1-1,0.2-1.6,0.2c-1.1,0-1.8-0.3-2.3-0.9c-0.5-0.6-0.7-1.5-0.7-2.7v-9.3h-2.6v-1.3h2.6v-3.6
			H333.2z M350.5,327.6c0,2.2-0.5,3.9-1.4,5.2c-1,1.3-2.3,1.9-3.9,1.9c-1.9,0-3.4-0.7-4.4-2v7.1h-1.5v-19.3h1.4l0.1,2
			c1-1.5,2.5-2.2,4.4-2.2c1.7,0,3,0.6,3.9,1.9c1,1.3,1.4,3,1.4,5.3V327.6z M349,327.3c0-1.8-0.4-3.2-1.1-4.2c-0.7-1-1.7-1.5-3.1-1.5
			c-0.9,0-1.8,0.2-2.4,0.7s-1.2,1.1-1.6,2v6.7c0.4,0.8,0.9,1.4,1.6,1.8c0.7,0.4,1.5,0.6,2.4,0.6c1.3,0,2.3-0.5,3-1.5
			C348.6,330.8,349,329.3,349,327.3z M362.9,332.6c-0.9,1.4-2.4,2-4.4,2c-1.5,0-2.6-0.4-3.4-1.3c-0.8-0.9-1.2-2.1-1.2-3.8v-9.1h1.5
			v8.9c0,2.7,1.1,4,3.2,4c2.2,0,3.6-0.9,4.2-2.8v-10.1h1.5v13.9h-1.5L362.9,332.6z M370.9,316.9v3.6h2.9v1.3h-2.9v9.3
			c0,0.8,0.1,1.3,0.4,1.7c0.3,0.4,0.8,0.6,1.4,0.6c0.3,0,0.7,0,1.2-0.1l0.1,1.3c-0.4,0.1-1,0.2-1.7,0.2c-1.1,0-1.8-0.3-2.3-0.9
			c-0.5-0.6-0.7-1.5-0.7-2.7v-9.3h-2.6v-1.3h2.6v-3.6H370.9z"/>
		<path d="M98.7,244l1.4,0.9c-0.8,1.1-1.2,2.3-1.2,3.5v1.8h-2.4v-1.5c0-0.9,0.2-1.7,0.6-2.6C97.5,245.2,98,244.5,98.7,244z
			 M102.8,244l1.4,0.9c-0.8,1.1-1.2,2.3-1.2,3.5v1.8h-2.4v-1.5c0-0.9,0.2-1.7,0.6-2.6C101.6,245.2,102.1,244.5,102.8,244z
			 M106.6,264v-18.8h5.3c1.6,0,3.1,0.4,4.3,1.1c1.3,0.7,2.2,1.7,2.9,3.1c0.7,1.3,1,2.9,1,4.6v1.2c0,1.8-0.3,3.3-1,4.7
			c-0.7,1.3-1.7,2.4-2.9,3.1c-1.3,0.7-2.7,1.1-4.4,1.1H106.6z M109.1,247.3V262h2.6c1.9,0,3.4-0.6,4.4-1.8c1.1-1.2,1.6-2.9,1.6-5.1
			V254c0-2.1-0.5-3.8-1.5-5c-1-1.2-2.4-1.8-4.3-1.8H109.1z M126.2,264h-2.4v-13.9h2.4V264z M123.6,246.4c0-0.4,0.1-0.7,0.3-1
			c0.2-0.3,0.6-0.4,1.1-0.4c0.5,0,0.8,0.1,1.1,0.4c0.2,0.3,0.4,0.6,0.4,1c0,0.4-0.1,0.7-0.4,1c-0.2,0.3-0.6,0.4-1.1,0.4
			c-0.5,0-0.8-0.1-1.1-0.4C123.7,247.1,123.6,246.7,123.6,246.4z M136.7,252.2c-0.4-0.1-0.8-0.1-1.2-0.1c-1.6,0-2.6,0.7-3.2,2v9.9
			H130v-13.9h2.3l0,1.6c0.8-1.2,1.9-1.9,3.3-1.9c0.5,0,0.8,0.1,1.1,0.2V252.2z M142.8,246.7v3.4h2.6v1.8h-2.6v8.7
			c0,0.6,0.1,1,0.3,1.3c0.2,0.3,0.6,0.4,1.2,0.4c0.3,0,0.7-0.1,1.1-0.2v1.9c-0.6,0.2-1.2,0.3-1.8,0.3c-1.1,0-1.9-0.3-2.4-1
			c-0.5-0.6-0.8-1.6-0.8-2.7v-8.7h-2.5v-1.8h2.5v-3.4H142.8z M152.8,260.5l3.2-10.5h2.6l-5.6,16.1c-0.9,2.3-2.2,3.5-4.1,3.5l-0.5,0
			l-0.9-0.2v-1.9l0.6,0.1c0.8,0,1.4-0.2,1.9-0.5c0.5-0.3,0.8-0.9,1.1-1.8l0.5-1.4l-5-13.8h2.6L152.8,260.5z M161.3,250.5l-1.4-0.9
			c0.8-1.1,1.2-2.3,1.2-3.5v-1.9h2.4v1.7c0,0.9-0.2,1.7-0.6,2.6C162.5,249.3,161.9,250,161.3,250.5z M165.2,250.5l-1.4-0.9
			c0.8-1.1,1.2-2.3,1.2-3.5v-1.9h2.4v1.7c0,0.9-0.2,1.7-0.6,2.6C166.4,249.3,165.9,250,165.2,250.5z M182.8,255.6
			c-2.1-0.6-3.7-1.4-4.6-2.2c-1-0.9-1.4-2-1.4-3.3c0-1.5,0.6-2.7,1.8-3.7c1.2-1,2.7-1.5,4.6-1.5c1.3,0,2.4,0.2,3.4,0.7
			c1,0.5,1.8,1.2,2.3,2.1c0.6,0.9,0.8,1.8,0.8,2.9h-2.5c0-1.1-0.4-2-1.1-2.7c-0.7-0.7-1.7-1-3.1-1c-1.2,0-2.2,0.3-2.9,0.8
			c-0.7,0.5-1,1.3-1,2.2c0,0.8,0.3,1.4,1,1.9c0.7,0.5,1.8,1,3.3,1.4c1.6,0.4,2.8,0.9,3.7,1.5c0.9,0.5,1.5,1.1,2,1.8
			c0.4,0.7,0.6,1.5,0.6,2.5c0,1.5-0.6,2.7-1.8,3.7c-1.2,0.9-2.8,1.4-4.8,1.4c-1.3,0-2.5-0.2-3.6-0.7c-1.1-0.5-2-1.2-2.6-2
			c-0.6-0.9-0.9-1.8-0.9-2.9h2.5c0,1.1,0.4,2,1.3,2.7c0.8,0.7,2,1,3.4,1c1.3,0,2.3-0.3,3-0.8c0.7-0.5,1-1.3,1-2.2s-0.3-1.6-1-2.1
			C185.7,256.6,184.5,256.1,182.8,255.6z M193,264v-18.8h5.3c1.6,0,3.1,0.4,4.3,1.1c1.3,0.7,2.2,1.7,2.9,3.1c0.7,1.3,1,2.9,1,4.6
			v1.2c0,1.8-0.3,3.3-1,4.7c-0.7,1.3-1.7,2.4-2.9,3.1c-1.3,0.7-2.7,1.1-4.4,1.1H193z M195.5,247.3V262h2.6c1.9,0,3.4-0.6,4.4-1.8
			c1.1-1.2,1.6-2.9,1.6-5.1V254c0-2.1-0.5-3.8-1.5-5c-1-1.2-2.4-1.8-4.3-1.8H195.5z M213,264h-2.5v-18.8h2.5V264z M233.3,245v3.1
			h-0.4c-1.7,0-3,0.5-4.1,1.3c-1,0.9-1.6,2-1.8,3.5c1-1,2.3-1.5,3.8-1.5c1.6,0,2.9,0.6,3.9,1.8c1,1.2,1.4,2.7,1.4,4.6
			c0,1.2-0.3,2.3-0.8,3.3c-0.5,1-1.3,1.8-2.2,2.3c-1,0.5-2.1,0.8-3.3,0.8c-2,0-3.6-0.7-4.8-2.1c-1.2-1.4-1.8-3.2-1.8-5.5v-1.3
			c0-2,0.4-3.8,1.1-5.4c0.8-1.6,1.9-2.8,3.3-3.6c1.4-0.9,3.1-1.3,5-1.3H233.3z M229.6,254.4c-0.6,0-1.1,0.2-1.6,0.5
			c-0.5,0.3-0.9,0.7-1.1,1.2v1.1c0,1.2,0.2,2.2,0.7,2.9c0.5,0.7,1.2,1,2.1,1c0.8,0,1.4-0.3,1.9-0.9c0.5-0.6,0.7-1.5,0.7-2.5
			c0-1-0.2-1.8-0.7-2.5C231.2,254.7,230.5,254.4,229.6,254.4z M245.8,264v-18.8h5.2c1.5,0,2.9,0.4,4.1,1.1c1.2,0.7,2.2,1.7,2.8,3
			c0.7,1.3,1,2.8,1,4.5v1.7c0,1.7-0.3,3.2-1,4.5c-0.7,1.3-1.6,2.3-2.9,3c-1.2,0.7-2.6,1.1-4.2,1.1H245.8z M247.4,246.6v16.1h3.6
			c2,0,3.6-0.7,4.8-2c1.2-1.3,1.8-3.1,1.8-5.3v-1.7c0-2.2-0.6-3.9-1.8-5.2c-1.2-1.3-2.7-2-4.7-2H247.4z M273.8,259.4
			c0-1-0.4-1.9-1.1-2.5c-0.7-0.6-2.1-1.2-4-1.7c-1.9-0.6-3.4-1.1-4.3-1.8c-1.3-0.9-1.9-2.1-1.9-3.6c0-1.4,0.6-2.6,1.8-3.5
			c1.2-0.9,2.7-1.4,4.5-1.4c1.2,0,2.4,0.2,3.3,0.7c1,0.5,1.8,1.2,2.3,2c0.5,0.9,0.8,1.8,0.8,2.9h-1.6c0-1.3-0.4-2.3-1.3-3.1
			c-0.9-0.8-2.1-1.2-3.5-1.2c-1.4,0-2.6,0.3-3.4,1c-0.9,0.6-1.3,1.5-1.3,2.5c0,1,0.4,1.7,1.1,2.3c0.8,0.6,2,1.1,3.7,1.6
			c1.7,0.5,3,0.9,3.8,1.4c0.9,0.5,1.5,1.1,2,1.8c0.4,0.7,0.7,1.5,0.7,2.4c0,1.5-0.6,2.7-1.8,3.6c-1.2,0.9-2.7,1.3-4.7,1.3
			c-1.3,0-2.5-0.2-3.6-0.7c-1.1-0.5-1.9-1.1-2.5-2c-0.6-0.9-0.9-1.8-0.9-2.9h1.6c0,1.3,0.5,2.4,1.5,3.1c1,0.8,2.3,1.1,3.9,1.1
			c1.5,0,2.6-0.3,3.5-1C273.3,261.3,273.8,260.5,273.8,259.4z M283,254.7l-2.6,2.6v6.7h-1.6v-18.8h1.6v10.1l9.6-10.1h2l-7.9,8.4
			l8.5,10.4h-1.9L283,254.7z M300.7,256.8c0-1.3,0.3-2.5,0.8-3.6c0.5-1.1,1.3-1.9,2.2-2.5c1-0.6,2-0.9,3.2-0.9c1.9,0,3.4,0.7,4.5,2
			c1.2,1.3,1.7,3,1.7,5.2v0.3c0,1.3-0.3,2.6-0.8,3.6c-0.5,1.1-1.2,1.9-2.2,2.5c-0.9,0.6-2,0.9-3.2,0.9c-1.8,0-3.4-0.6-4.5-1.9
			c-1.2-1.3-1.7-3-1.7-5.2V256.8z M302.2,257.2c0,1.7,0.4,3,1.3,4.1c0.9,1.1,2,1.6,3.4,1.6c1.4,0,2.5-0.5,3.4-1.6
			c0.9-1.1,1.3-2.5,1.3-4.2v-0.3c0-1.1-0.2-2-0.6-2.9c-0.4-0.9-1-1.6-1.7-2c-0.7-0.5-1.5-0.7-2.5-0.7c-1.4,0-2.5,0.5-3.4,1.6
			c-0.9,1.1-1.3,2.5-1.3,4.2V257.2z M325.3,262.2c-0.9,1.4-2.4,2-4.4,2c-1.5,0-2.6-0.4-3.4-1.3c-0.8-0.9-1.2-2.1-1.2-3.8v-9.1h1.5
			v8.9c0,2.7,1.1,4,3.2,4c2.2,0,3.6-0.9,4.2-2.8v-10.1h1.5V264h-1.5L325.3,262.2z M333.2,246.5v3.6h2.9v1.3h-2.9v9.3
			c0,0.8,0.1,1.3,0.4,1.7c0.3,0.4,0.8,0.6,1.4,0.6c0.3,0,0.7,0,1.3-0.1l0.1,1.3c-0.4,0.1-1,0.2-1.6,0.2c-1.1,0-1.8-0.3-2.3-0.9
			c-0.5-0.6-0.7-1.5-0.7-2.7v-9.3h-2.6v-1.3h2.6v-3.6H333.2z M350.5,257.2c0,2.2-0.5,3.9-1.4,5.2c-1,1.3-2.3,1.9-3.9,1.9
			c-1.9,0-3.4-0.7-4.4-2v7.1h-1.5v-19.3h1.4l0.1,2c1-1.5,2.5-2.2,4.4-2.2c1.7,0,3,0.6,3.9,1.9c1,1.3,1.4,3,1.4,5.3V257.2z
			 M349,256.9c0-1.8-0.4-3.2-1.1-4.2c-0.7-1-1.7-1.5-3.1-1.5c-0.9,0-1.8,0.2-2.4,0.7c-0.7,0.5-1.2,1.1-1.6,2v6.7
			c0.4,0.8,0.9,1.4,1.6,1.8c0.7,0.4,1.5,0.6,2.4,0.6c1.3,0,2.3-0.5,3-1.5C348.6,260.4,349,258.9,349,256.9z M362.9,262.2
			c-0.9,1.4-2.4,2-4.4,2c-1.5,0-2.6-0.4-3.4-1.3c-0.8-0.9-1.2-2.1-1.2-3.8v-9.1h1.5v8.9c0,2.7,1.1,4,3.2,4c2.2,0,3.6-0.9,4.2-2.8
			v-10.1h1.5V264h-1.5L362.9,262.2z M370.9,246.5v3.6h2.9v1.3h-2.9v9.3c0,0.8,0.1,1.3,0.4,1.7c0.3,0.4,0.8,0.6,1.4,0.6
			c0.3,0,0.7,0,1.2-0.1l0.1,1.3c-0.4,0.1-1,0.2-1.7,0.2c-1.1,0-1.8-0.3-2.3-0.9c-0.5-0.6-0.7-1.5-0.7-2.7v-9.3h-2.6v-1.3h2.6v-3.6
			H370.9z"/>
		<path d="M98.7,173.6l1.4,0.9c-0.8,1.1-1.2,2.3-1.2,3.5v1.8h-2.4v-1.5c0-0.9,0.2-1.7,0.6-2.6C97.5,174.8,98,174.1,98.7,173.6z
			 M102.8,173.6l1.4,0.9c-0.8,1.1-1.2,2.3-1.2,3.5v1.8h-2.4v-1.5c0-0.9,0.2-1.7,0.6-2.6C101.6,174.8,102.1,174.1,102.8,173.6z
			 M106.6,193.6v-18.8h5.3c1.6,0,3.1,0.4,4.3,1.1c1.3,0.7,2.2,1.7,2.9,3.1c0.7,1.3,1,2.9,1,4.6v1.2c0,1.8-0.3,3.3-1,4.7
			c-0.7,1.3-1.7,2.4-2.9,3.1c-1.3,0.7-2.7,1.1-4.4,1.1H106.6z M109.1,176.9v14.7h2.6c1.9,0,3.4-0.6,4.4-1.8c1.1-1.2,1.6-2.9,1.6-5.1
			v-1.1c0-2.1-0.5-3.8-1.5-5c-1-1.2-2.4-1.8-4.3-1.8H109.1z M126.2,193.6h-2.4v-13.9h2.4V193.6z M123.6,176c0-0.4,0.1-0.7,0.3-1
			c0.2-0.3,0.6-0.4,1.1-0.4c0.5,0,0.8,0.1,1.1,0.4c0.2,0.3,0.4,0.6,0.4,1c0,0.4-0.1,0.7-0.4,1c-0.2,0.3-0.6,0.4-1.1,0.4
			c-0.5,0-0.8-0.1-1.1-0.4C123.7,176.7,123.6,176.3,123.6,176z M136.7,181.8c-0.4-0.1-0.8-0.1-1.2-0.1c-1.6,0-2.6,0.7-3.2,2v9.9H130
			v-13.9h2.3l0,1.6c0.8-1.2,1.9-1.9,3.3-1.9c0.5,0,0.8,0.1,1.1,0.2V181.8z M142.8,176.3v3.4h2.6v1.8h-2.6v8.6c0,0.6,0.1,1,0.3,1.3
			c0.2,0.3,0.6,0.4,1.2,0.4c0.3,0,0.7-0.1,1.1-0.2v1.9c-0.6,0.2-1.2,0.3-1.8,0.3c-1.1,0-1.9-0.3-2.4-1c-0.5-0.6-0.8-1.6-0.8-2.7
			v-8.6h-2.5v-1.8h2.5v-3.4H142.8z M152.8,190.1l3.2-10.5h2.6l-5.6,16.1c-0.9,2.3-2.2,3.5-4.1,3.5l-0.5,0l-0.9-0.2v-1.9l0.6,0.1
			c0.8,0,1.4-0.2,1.9-0.5c0.5-0.3,0.8-0.9,1.1-1.8l0.5-1.4l-5-13.8h2.6L152.8,190.1z M161.3,180.1l-1.4-0.9c0.8-1.1,1.2-2.3,1.2-3.5
			v-1.9h2.4v1.7c0,0.9-0.2,1.7-0.6,2.6C162.5,178.9,161.9,179.6,161.3,180.1z M165.2,180.1l-1.4-0.9c0.8-1.1,1.2-2.3,1.2-3.5v-1.9
			h2.4v1.7c0,0.9-0.2,1.7-0.6,2.6C166.4,178.9,165.9,179.6,165.2,180.1z M182.8,185.2c-2.1-0.6-3.7-1.4-4.6-2.2
			c-1-0.9-1.4-2-1.4-3.3c0-1.5,0.6-2.7,1.8-3.7c1.2-1,2.7-1.5,4.6-1.5c1.3,0,2.4,0.2,3.4,0.7c1,0.5,1.8,1.2,2.3,2.1
			c0.6,0.9,0.8,1.8,0.8,2.9h-2.5c0-1.1-0.4-2-1.1-2.7c-0.7-0.7-1.7-1-3.1-1c-1.2,0-2.2,0.3-2.9,0.8c-0.7,0.5-1,1.3-1,2.2
			c0,0.8,0.3,1.4,1,1.9c0.7,0.5,1.8,1,3.3,1.4c1.6,0.4,2.8,0.9,3.7,1.5c0.9,0.5,1.5,1.1,2,1.8c0.4,0.7,0.6,1.5,0.6,2.5
			c0,1.5-0.6,2.7-1.8,3.7c-1.2,0.9-2.8,1.4-4.8,1.4c-1.3,0-2.5-0.2-3.6-0.7c-1.1-0.5-2-1.2-2.6-2c-0.6-0.9-0.9-1.8-0.9-2.9h2.5
			c0,1.1,0.4,2,1.3,2.7c0.8,0.7,2,1,3.4,1c1.3,0,2.3-0.3,3-0.8c0.7-0.5,1-1.3,1-2.2c0-0.9-0.3-1.6-1-2.1
			C185.7,186.2,184.5,185.7,182.8,185.2z M193,193.6v-18.8h5.3c1.6,0,3.1,0.4,4.3,1.1c1.3,0.7,2.2,1.7,2.9,3.1c0.7,1.3,1,2.9,1,4.6
			v1.2c0,1.8-0.3,3.3-1,4.7c-0.7,1.3-1.7,2.4-2.9,3.1c-1.3,0.7-2.7,1.1-4.4,1.1H193z M195.5,176.9v14.7h2.6c1.9,0,3.4-0.6,4.4-1.8
			c1.1-1.2,1.6-2.9,1.6-5.1v-1.1c0-2.1-0.5-3.8-1.5-5c-1-1.2-2.4-1.8-4.3-1.8H195.5z M213,193.6h-2.5v-18.8h2.5V193.6z M235.4,179.8
			c0,0.9-0.2,1.7-0.7,2.4c-0.5,0.7-1.1,1.3-1.9,1.7c0.9,0.4,1.6,1,2.2,1.8c0.5,0.8,0.8,1.7,0.8,2.7c0,1.7-0.6,3-1.7,4
			c-1.1,1-2.7,1.4-4.6,1.4c-2,0-3.5-0.5-4.6-1.5c-1.1-1-1.7-2.3-1.7-3.9c0-1,0.3-1.9,0.8-2.7c0.5-0.8,1.3-1.4,2.2-1.8
			c-0.8-0.4-1.4-1-1.9-1.7c-0.4-0.7-0.7-1.5-0.7-2.4c0-1.6,0.5-2.9,1.6-3.8c1.1-1,2.5-1.4,4.3-1.4c1.8,0,3.3,0.5,4.3,1.4
			C234.9,176.9,235.4,178.2,235.4,179.8z M232.1,188.2c0-0.8-0.2-1.5-0.7-2c-0.5-0.5-1.1-0.7-1.9-0.7c-0.8,0-1.4,0.2-1.9,0.7
			c-0.5,0.5-0.7,1.1-0.7,2c0,0.8,0.2,1.4,0.7,1.9c0.5,0.5,1.1,0.7,1.9,0.7c0.8,0,1.4-0.2,1.9-0.7C231.8,189.7,232.1,189,232.1,188.2
			z M231.7,180c0-0.7-0.2-1.3-0.6-1.8c-0.4-0.4-0.9-0.7-1.6-0.7c-0.7,0-1.2,0.2-1.6,0.6c-0.4,0.4-0.6,1-0.6,1.8
			c0,0.7,0.2,1.3,0.6,1.8c0.4,0.5,0.9,0.7,1.6,0.7c0.7,0,1.2-0.2,1.6-0.7C231.5,181.3,231.7,180.7,231.7,180z M245.8,193.6v-18.8
			h5.2c1.5,0,2.9,0.4,4.1,1.1c1.2,0.7,2.2,1.7,2.8,3c0.7,1.3,1,2.8,1,4.5v1.7c0,1.7-0.3,3.2-1,4.5c-0.7,1.3-1.6,2.3-2.9,3
			c-1.2,0.7-2.6,1.1-4.2,1.1H245.8z M247.4,176.2v16.1h3.6c2,0,3.6-0.7,4.8-2c1.2-1.3,1.8-3.1,1.8-5.3v-1.7c0-2.2-0.6-3.9-1.8-5.2
			c-1.2-1.3-2.7-2-4.7-2H247.4z M273.8,189c0-1-0.4-1.9-1.1-2.5c-0.7-0.6-2.1-1.2-4-1.7c-1.9-0.6-3.4-1.1-4.3-1.8
			c-1.3-0.9-1.9-2.1-1.9-3.6c0-1.4,0.6-2.6,1.8-3.5c1.2-0.9,2.7-1.4,4.5-1.4c1.2,0,2.4,0.2,3.3,0.7c1,0.5,1.8,1.2,2.3,2
			c0.5,0.9,0.8,1.8,0.8,2.9h-1.6c0-1.3-0.4-2.3-1.3-3.1c-0.9-0.8-2.1-1.2-3.5-1.2c-1.4,0-2.6,0.3-3.4,1c-0.9,0.6-1.3,1.5-1.3,2.5
			c0,1,0.4,1.7,1.1,2.3c0.8,0.6,2,1.1,3.7,1.6c1.7,0.5,3,0.9,3.8,1.4c0.9,0.5,1.5,1.1,2,1.8c0.4,0.7,0.7,1.5,0.7,2.4
			c0,1.5-0.6,2.7-1.8,3.6c-1.2,0.9-2.7,1.3-4.7,1.3c-1.3,0-2.5-0.2-3.6-0.7c-1.1-0.5-1.9-1.1-2.5-2c-0.6-0.9-0.9-1.8-0.9-2.9h1.6
			c0,1.3,0.5,2.4,1.5,3.1c1,0.8,2.3,1.1,3.9,1.1c1.5,0,2.6-0.3,3.5-1C273.3,190.9,273.8,190.1,273.8,189z M283,184.3l-2.6,2.6v6.7
			h-1.6v-18.8h1.6V185l9.6-10.1h2l-7.9,8.4l8.5,10.4h-1.9L283,184.3z M300.7,186.4c0-1.3,0.3-2.5,0.8-3.6c0.5-1.1,1.3-1.9,2.2-2.5
			c1-0.6,2-0.9,3.2-0.9c1.9,0,3.4,0.7,4.5,2c1.2,1.3,1.7,3,1.7,5.2v0.3c0,1.3-0.3,2.6-0.8,3.6c-0.5,1.1-1.2,1.9-2.2,2.5
			c-0.9,0.6-2,0.9-3.2,0.9c-1.8,0-3.4-0.6-4.5-1.9c-1.2-1.3-1.7-3-1.7-5.2V186.4z M302.2,186.8c0,1.7,0.4,3,1.3,4.1
			c0.9,1.1,2,1.6,3.4,1.6c1.4,0,2.5-0.5,3.4-1.6c0.9-1.1,1.3-2.5,1.3-4.2v-0.3c0-1.1-0.2-2-0.6-2.9c-0.4-0.9-1-1.6-1.7-2
			c-0.7-0.5-1.5-0.7-2.5-0.7c-1.4,0-2.5,0.5-3.4,1.6c-0.9,1.1-1.3,2.5-1.3,4.2V186.8z M325.3,191.8c-0.9,1.3-2.4,2-4.4,2
			c-1.5,0-2.6-0.4-3.4-1.3c-0.8-0.9-1.2-2.1-1.2-3.8v-9.1h1.5v8.9c0,2.7,1.1,4,3.2,4c2.2,0,3.6-0.9,4.2-2.8v-10.1h1.5v13.9h-1.5
			L325.3,191.8z M333.2,176.1v3.6h2.9v1.3h-2.9v9.3c0,0.8,0.1,1.3,0.4,1.7c0.3,0.4,0.8,0.6,1.4,0.6c0.3,0,0.7,0,1.3-0.1l0.1,1.3
			c-0.4,0.1-1,0.2-1.6,0.2c-1.1,0-1.8-0.3-2.3-0.9c-0.5-0.6-0.7-1.5-0.7-2.7v-9.3h-2.6v-1.3h2.6v-3.6H333.2z M350.5,186.8
			c0,2.2-0.5,3.9-1.4,5.2c-1,1.3-2.3,1.9-3.9,1.9c-1.9,0-3.4-0.7-4.4-2v7.1h-1.5v-19.3h1.4l0.1,2c1-1.5,2.5-2.2,4.4-2.2
			c1.7,0,3,0.6,3.9,1.9c1,1.3,1.4,3,1.4,5.3V186.8z M349,186.5c0-1.8-0.4-3.2-1.1-4.2c-0.7-1-1.7-1.5-3.1-1.5
			c-0.9,0-1.8,0.2-2.4,0.7s-1.2,1.1-1.6,2v6.7c0.4,0.8,0.9,1.4,1.6,1.8c0.7,0.4,1.5,0.6,2.4,0.6c1.3,0,2.3-0.5,3-1.5
			C348.6,190,349,188.5,349,186.5z M362.9,191.8c-0.9,1.3-2.4,2-4.4,2c-1.5,0-2.6-0.4-3.4-1.3c-0.8-0.9-1.2-2.1-1.2-3.8v-9.1h1.5
			v8.9c0,2.7,1.1,4,3.2,4c2.2,0,3.6-0.9,4.2-2.8v-10.1h1.5v13.9h-1.5L362.9,191.8z M370.9,176.1v3.6h2.9v1.3h-2.9v9.3
			c0,0.8,0.1,1.3,0.4,1.7c0.3,0.4,0.8,0.6,1.4,0.6c0.3,0,0.7,0,1.2-0.1l0.1,1.3c-0.4,0.1-1,0.2-1.7,0.2c-1.1,0-1.8-0.3-2.3-0.9
			c-0.5-0.6-0.7-1.5-0.7-2.7v-9.3h-2.6v-1.3h2.6v-3.6H370.9z"/>
		
			<linearGradient id="SVGID_00000047739193814663735530000015973127027332745602_" gradientUnits="userSpaceOnUse" x1="385.9294" y1="222" x2="457.1566" y2="222" gradientTransform="matrix(1 0 0 -1 0 618)">
			<stop  offset="0" style="stop-color:#000000"/>
			<stop  offset="1" style="stop-color:#000000;stop-opacity:0"/>
		</linearGradient>
		<path style="fill:url(#SVGID_00000047739193814663735530000015973127027332745602_);" d="M385.2,395.2c-0.4,0.4-0.4,1.1,0,1.6l7,7
			c0.4,0.4,1.1,0.4,1.6,0c0.4-0.4,0.4-1.1,0-1.6l-6.2-6.2l6.2-6.2c0.4-0.4,0.4-1.1,0-1.6c-0.4-0.4-1.1-0.4-1.6,0L385.2,395.2z
			 M385.9,397.1h112.2v-2.2H385.9V397.1z"/>
		
			<linearGradient id="SVGID_00000142880401110252983860000017658162151284751235_" gradientUnits="userSpaceOnUse" x1="385.9294" y1="362.8" x2="457.1566" y2="362.8" gradientTransform="matrix(1 0 0 -1 0 618)">
			<stop  offset="0" style="stop-color:#000000"/>
			<stop  offset="1" style="stop-color:#000000;stop-opacity:0"/>
		</linearGradient>
		<path style="fill:url(#SVGID_00000142880401110252983860000017658162151284751235_);" d="M385.2,254.4c-0.4,0.4-0.4,1.1,0,1.6l7,7
			c0.4,0.4,1.1,0.4,1.6,0c0.4-0.4,0.4-1.1,0-1.6l-6.2-6.2l6.2-6.2c0.4-0.4,0.4-1.1,0-1.6c-0.4-0.4-1.1-0.4-1.6,0L385.2,254.4z
			 M385.9,256.3h112.2v-2.2H385.9V256.3z"/>
		
			<linearGradient id="SVGID_00000090292699127240424060000000363026947556807049_" gradientUnits="userSpaceOnUse" x1="385.9294" y1="292.4" x2="457.1566" y2="292.4" gradientTransform="matrix(1 0 0 -1 0 618)">
			<stop  offset="0" style="stop-color:#000000"/>
			<stop  offset="1" style="stop-color:#000000;stop-opacity:0"/>
		</linearGradient>
		<path style="fill:url(#SVGID_00000090292699127240424060000000363026947556807049_);" d="M385.2,324.8c-0.4,0.4-0.4,1.1,0,1.6l7,7
			c0.4,0.4,1.1,0.4,1.6,0c0.4-0.4,0.4-1.1,0-1.6l-6.2-6.2l6.2-6.2c0.4-0.4,0.4-1.1,0-1.6c-0.4-0.4-1.1-0.4-1.6,0L385.2,324.8z
			 M385.9,326.7h112.2v-2.2H385.9V326.7z"/>
		
			<linearGradient id="SVGID_00000091732929615746376650000017496127304894423168_" gradientUnits="userSpaceOnUse" x1="385.9294" y1="433.2" x2="457.1566" y2="433.2" gradientTransform="matrix(1 0 0 -1 0 618)">
			<stop  offset="0" style="stop-color:#000000"/>
			<stop  offset="1" style="stop-color:#000000;stop-opacity:0"/>
		</linearGradient>
		<path style="fill:url(#SVGID_00000091732929615746376650000017496127304894423168_);" d="M385.2,184c-0.4,0.4-0.4,1.1,0,1.6l7,7
			c0.4,0.4,1.1,0.4,1.6,0c0.4-0.4,0.4-1.1,0-1.6l-6.2-6.2l6.2-6.2c0.4-0.4,0.4-1.1,0-1.6c-0.4-0.4-1.1-0.4-1.6,0L385.2,184z
			 M385.9,185.9h112.2v-2.2H385.9V185.9z"/>
		
			<linearGradient id="SVGID_00000117672474229087626180000017228672224586571162_" gradientUnits="userSpaceOnUse" x1="451.9294" y1="186.8" x2="380.7022" y2="186.8" gradientTransform="matrix(1 0 0 -1 0 618)">
			<stop  offset="0" style="stop-color:#000000"/>
			<stop  offset="1" style="stop-color:#000000;stop-opacity:0"/>
		</linearGradient>
		<path style="fill:url(#SVGID_00000117672474229087626180000017228672224586571162_);" d="M452.7,432c0.4-0.4,0.4-1.1,0-1.6l-7-7
			c-0.4-0.4-1.1-0.4-1.6,0c-0.4,0.4-0.4,1.1,0,1.6l6.2,6.2l-6.2,6.2c-0.4,0.4-0.4,1.1,0,1.6c0.4,0.4,1.1,0.4,1.6,0L452.7,432z
			 M451.9,430.1H339.7v2.2h112.2V430.1z"/>
		
			<linearGradient id="SVGID_00000142151618604921535460000005272156463839569593_" gradientUnits="userSpaceOnUse" x1="451.9294" y1="327.6" x2="380.7022" y2="327.6" gradientTransform="matrix(1 0 0 -1 0 618)">
			<stop  offset="0" style="stop-color:#000000"/>
			<stop  offset="1" style="stop-color:#000000;stop-opacity:0"/>
		</linearGradient>
		<path style="fill:url(#SVGID_00000142151618604921535460000005272156463839569593_);" d="M452.7,291.2c0.4-0.4,0.4-1.1,0-1.6l-7-7
			c-0.4-0.4-1.1-0.4-1.6,0c-0.4,0.4-0.4,1.1,0,1.6l6.2,6.2l-6.2,6.2c-0.4,0.4-0.4,1.1,0,1.6c0.4,0.4,1.1,0.4,1.6,0L452.7,291.2z
			 M451.9,289.3H339.7v2.2h112.2V289.3z"/>
		
			<linearGradient id="SVGID_00000106863005443252537350000000568114027693537191_" gradientUnits="userSpaceOnUse" x1="451.9294" y1="257.2" x2="380.7022" y2="257.2" gradientTransform="matrix(1 0 0 -1 0 618)">
			<stop  offset="0" style="stop-color:#000000"/>
			<stop  offset="1" style="stop-color:#000000;stop-opacity:0"/>
		</linearGradient>
		<path style="fill:url(#SVGID_00000106863005443252537350000000568114027693537191_);" d="M452.7,361.6c0.4-0.4,0.4-1.1,0-1.6l-7-7
			c-0.4-0.4-1.1-0.4-1.6,0c-0.4,0.4-0.4,1.1,0,1.6l6.2,6.2l-6.2,6.2c-0.4,0.4-0.4,1.1,0,1.6c0.4,0.4,1.1,0.4,1.6,0L452.7,361.6z
			 M451.9,359.7H339.7v2.2h112.2V359.7z"/>
		
			<linearGradient id="SVGID_00000060022029833332850300000010202745502537201031_" gradientUnits="userSpaceOnUse" x1="451.9294" y1="397.9997" x2="380.7022" y2="397.9997" gradientTransform="matrix(1 0 0 -1 0 618)">
			<stop  offset="0" style="stop-color:#000000"/>
			<stop  offset="1" style="stop-color:#000000;stop-opacity:0"/>
		</linearGradient>
		<path style="fill:url(#SVGID_00000060022029833332850300000010202745502537201031_);" d="M452.7,220.8c0.4-0.4,0.4-1.1,0-1.6l-7-7
			c-0.4-0.4-1.1-0.4-1.6,0c-0.4,0.4-0.4,1.1,0,1.6l6.2,6.2l-6.2,6.2c-0.4,0.4-0.4,1.1,0,1.6c0.4,0.4,1.1,0.4,1.6,0L452.7,220.8z
			 M451.9,218.9H339.7v2.2h112.2V218.9z"/>
		<path class="st19" d="M528.9,171.6h112.2c3.6,0,6.6,3,6.6,6.6v15.4c0,3.6-3,6.6-6.6,6.6H528.9V171.6z"/>
		<path class="st19" d="M528.9,206.8h112.2c3.6,0,6.6,3,6.6,6.6v15.4c0,3.6-3,6.6-6.6,6.6H528.9V206.8z"/>
		<path class="st19" d="M535.5,171.6h246.4c3.6,0,6.6,3,6.6,6.6v50.6c0,3.6-3,6.6-6.6,6.6H535.5V171.6z"/>
		<path class="st1" d="M594.3,211.2V194h4.9c1.5,0,2.8,0.3,4,1c1.2,0.7,2,1.6,2.7,2.8c0.6,1.2,0.9,2.6,1,4.2v1.1
			c0,1.6-0.3,3-0.9,4.3c-0.6,1.2-1.5,2.2-2.7,2.8c-1.2,0.7-2.5,1-4.1,1H594.3z M596.6,195.9v13.5h2.4c1.7,0,3.1-0.5,4.1-1.6
			c1-1.1,1.5-2.6,1.5-4.6v-1c0-2-0.5-3.5-1.4-4.5c-0.9-1.1-2.2-1.6-3.9-1.7H596.6z M615.2,211.4c-1.7,0-3.1-0.6-4.2-1.7
			c-1.1-1.1-1.6-2.7-1.6-4.6v-0.4c0-1.3,0.2-2.4,0.7-3.4c0.5-1,1.2-1.8,2-2.3c0.9-0.6,1.8-0.9,2.8-0.9c1.7,0,3,0.5,3.9,1.6
			c0.9,1.1,1.4,2.7,1.4,4.7v0.9h-8.7c0,1.3,0.4,2.3,1.1,3.1c0.7,0.8,1.6,1.2,2.7,1.2c0.8,0,1.4-0.2,2-0.5c0.5-0.3,1-0.7,1.4-1.3
			l1.3,1C618.9,210.6,617.3,211.4,615.2,211.4z M614.9,200c-0.9,0-1.6,0.3-2.2,1c-0.6,0.6-1,1.5-1.1,2.7h6.4v-0.2
			c-0.1-1.1-0.4-2-0.9-2.6C616.6,200.3,615.8,200,614.9,200z M626.8,208.2l3.2-9.8h2.2l-4.6,12.8h-1.7l-4.6-12.8h2.2L626.8,208.2z
			 M636.7,211.2h-2.2v-12.8h2.2V211.2z M634.3,195c0-0.4,0.1-0.7,0.3-0.9c0.2-0.2,0.5-0.4,1-0.4c0.4,0,0.7,0.1,1,0.4
			c0.2,0.2,0.3,0.5,0.3,0.9c0,0.4-0.1,0.6-0.3,0.9c-0.2,0.2-0.5,0.4-1,0.4c-0.4,0-0.8-0.1-1-0.4C634.4,195.7,634.3,195.4,634.3,195z
			 M645.3,209.7c0.8,0,1.5-0.2,2-0.7c0.6-0.5,0.9-1.1,1-1.8h2.1c0,0.7-0.3,1.4-0.8,2.1c-0.5,0.7-1.1,1.2-1.9,1.6
			c-0.8,0.4-1.6,0.6-2.5,0.6c-1.7,0-3.1-0.6-4.2-1.7c-1-1.2-1.5-2.8-1.5-4.8v-0.4c0-1.2,0.2-2.4,0.7-3.3c0.5-1,1.1-1.7,2-2.3
			c0.9-0.5,1.9-0.8,3-0.8c1.4,0,2.6,0.4,3.6,1.3c1,0.9,1.5,2,1.5,3.3h-2.1c-0.1-0.8-0.4-1.5-0.9-2c-0.6-0.5-1.3-0.8-2.1-0.8
			c-1.1,0-2,0.4-2.6,1.2c-0.6,0.8-0.9,1.9-0.9,3.5v0.4c0,1.5,0.3,2.6,0.9,3.4C643.3,209.3,644.2,209.7,645.3,209.7z M658.1,211.4
			c-1.7,0-3.1-0.6-4.2-1.7c-1.1-1.1-1.6-2.7-1.6-4.6v-0.4c0-1.3,0.2-2.4,0.7-3.4c0.5-1,1.2-1.8,2-2.3c0.9-0.6,1.8-0.9,2.8-0.9
			c1.7,0,3,0.5,3.9,1.6c0.9,1.1,1.4,2.7,1.4,4.7v0.9h-8.7c0,1.3,0.4,2.3,1.1,3.1c0.7,0.8,1.6,1.2,2.7,1.2c0.8,0,1.4-0.2,2-0.5
			c0.5-0.3,1-0.7,1.4-1.3l1.3,1C661.9,210.6,660.3,211.4,658.1,211.4z M657.9,200c-0.9,0-1.6,0.3-2.2,1c-0.6,0.6-1,1.5-1.1,2.7h6.4
			v-0.2c-0.1-1.1-0.4-2-0.9-2.6C659.5,200.3,658.8,200,657.9,200z M681.3,204.7h1.9v2.8h-1.9v3.7h-3.4v-3.7h-7.1l-0.2-2.2l7.2-11.3
			h3.5V204.7z M674.1,204.7h3.8v-6.1l-0.2,0.4L674.1,204.7z"/>
		<path class="st19" d="M528.9,242h112.2c3.6,0,6.6,3,6.6,6.6V264c0,3.6-3,6.6-6.6,6.6H528.9V242z"/>
		<path class="st19" d="M528.9,277.2h112.2c3.6,0,6.6,3,6.6,6.6v15.4c0,3.6-3,6.6-6.6,6.6H528.9V277.2z"/>
		<path class="st19" d="M535.5,242h246.4c3.6,0,6.6,3,6.6,6.6v50.6c0,3.6-3,6.6-6.6,6.6H535.5V242z"/>
		<path class="st1" d="M594.3,281.6v-17.2h4.9c1.5,0,2.8,0.3,4,1c1.2,0.7,2,1.6,2.7,2.8c0.6,1.2,0.9,2.6,1,4.2v1.1
			c0,1.6-0.3,3-0.9,4.3c-0.6,1.2-1.5,2.2-2.7,2.8c-1.2,0.7-2.5,1-4.1,1H594.3z M596.6,266.3v13.5h2.4c1.7,0,3.1-0.5,4.1-1.6
			c1-1.1,1.5-2.6,1.5-4.6v-1c0-2-0.5-3.5-1.4-4.5c-0.9-1.1-2.2-1.6-3.9-1.7H596.6z M615.2,281.8c-1.7,0-3.1-0.6-4.2-1.7
			c-1.1-1.1-1.6-2.7-1.6-4.6v-0.4c0-1.3,0.2-2.4,0.7-3.4c0.5-1,1.2-1.8,2-2.3c0.9-0.6,1.8-0.9,2.8-0.9c1.7,0,3,0.5,3.9,1.6
			c0.9,1.1,1.4,2.7,1.4,4.7v0.9h-8.7c0,1.3,0.4,2.3,1.1,3.1c0.7,0.8,1.6,1.2,2.7,1.2c0.8,0,1.4-0.2,2-0.5c0.5-0.3,1-0.7,1.4-1.3
			l1.3,1C618.9,281,617.3,281.8,615.2,281.8z M614.9,270.4c-0.9,0-1.6,0.3-2.2,1c-0.6,0.6-1,1.5-1.1,2.7h6.4v-0.2
			c-0.1-1.1-0.4-2-0.9-2.6C616.6,270.7,615.8,270.4,614.9,270.4z M626.8,278.6l3.2-9.8h2.2l-4.6,12.8h-1.7l-4.6-12.8h2.2
			L626.8,278.6z M636.7,281.6h-2.2v-12.8h2.2V281.6z M634.3,265.4c0-0.4,0.1-0.7,0.3-0.9c0.2-0.2,0.5-0.4,1-0.4c0.4,0,0.7,0.1,1,0.4
			c0.2,0.2,0.3,0.5,0.3,0.9s-0.1,0.6-0.3,0.9c-0.2,0.2-0.5,0.4-1,0.4c-0.4,0-0.8-0.1-1-0.4C634.4,266.1,634.3,265.8,634.3,265.4z
			 M645.3,280.1c0.8,0,1.5-0.2,2-0.7c0.6-0.5,0.9-1.1,1-1.8h2.1c0,0.7-0.3,1.4-0.8,2.1c-0.5,0.7-1.1,1.2-1.9,1.6
			c-0.8,0.4-1.6,0.6-2.5,0.6c-1.7,0-3.1-0.6-4.2-1.7c-1-1.2-1.5-2.8-1.5-4.8V275c0-1.2,0.2-2.3,0.7-3.3c0.5-1,1.1-1.7,2-2.3
			c0.9-0.5,1.9-0.8,3-0.8c1.4,0,2.6,0.4,3.6,1.3c1,0.9,1.5,2,1.5,3.3h-2.1c-0.1-0.8-0.4-1.5-0.9-2c-0.6-0.5-1.3-0.8-2.1-0.8
			c-1.1,0-2,0.4-2.6,1.2c-0.6,0.8-0.9,2-0.9,3.5v0.4c0,1.5,0.3,2.6,0.9,3.4S644.2,280.1,645.3,280.1z M658.1,281.8
			c-1.7,0-3.1-0.6-4.2-1.7c-1.1-1.1-1.6-2.7-1.6-4.6v-0.4c0-1.3,0.2-2.4,0.7-3.4c0.5-1,1.2-1.8,2-2.3c0.9-0.6,1.8-0.9,2.8-0.9
			c1.7,0,3,0.5,3.9,1.6c0.9,1.1,1.4,2.7,1.4,4.7v0.9h-8.7c0,1.3,0.4,2.3,1.1,3.1c0.7,0.8,1.6,1.2,2.7,1.2c0.8,0,1.4-0.2,2-0.5
			c0.5-0.3,1-0.7,1.4-1.3l1.3,1C661.9,281,660.3,281.8,658.1,281.8z M657.9,270.4c-0.9,0-1.6,0.3-2.2,1c-0.6,0.6-1,1.5-1.1,2.7h6.4
			v-0.2c-0.1-1.1-0.4-2-0.9-2.6C659.5,270.7,658.8,270.4,657.9,270.4z M674.7,271.5h1.8c0.9,0,1.5-0.2,1.9-0.6
			c0.4-0.4,0.6-1,0.6-1.7c0-0.7-0.2-1.2-0.6-1.6c-0.4-0.4-1-0.6-1.7-0.6c-0.7,0-1.2,0.2-1.6,0.5c-0.4,0.4-0.7,0.8-0.7,1.4H671
			c0-0.9,0.2-1.7,0.7-2.4c0.5-0.7,1.2-1.3,2-1.7c0.9-0.4,1.8-0.6,2.9-0.6c1.8,0,3.2,0.4,4.3,1.3c1,0.9,1.5,2.1,1.5,3.6
			c0,0.8-0.2,1.5-0.7,2.2c-0.5,0.7-1.1,1.2-1.9,1.5c1,0.3,1.7,0.9,2.2,1.6c0.5,0.7,0.7,1.5,0.7,2.5c0,1.5-0.6,2.8-1.7,3.7
			c-1.1,0.9-2.6,1.4-4.4,1.4c-1.7,0-3.1-0.5-4.2-1.4c-1.1-0.9-1.6-2.1-1.6-3.6h3.4c0,0.6,0.2,1.2,0.7,1.6c0.5,0.4,1.1,0.6,1.8,0.6
			c0.8,0,1.4-0.2,1.9-0.6c0.5-0.4,0.7-1,0.7-1.7c0-1.7-0.9-2.6-2.8-2.6h-1.8V271.5z"/>
		<path class="st19" d="M528.9,312.4h112.2c3.6,0,6.6,3,6.6,6.6v15.4c0,3.6-3,6.6-6.6,6.6H528.9V312.4z"/>
		<path class="st19" d="M528.9,347.6h112.2c3.6,0,6.6,3,6.6,6.6v15.4c0,3.6-3,6.6-6.6,6.6H528.9V347.6z"/>
		<path class="st19" d="M535.5,312.4h246.4c3.6,0,6.6,3,6.6,6.6v50.6c0,3.6-3,6.6-6.6,6.6H535.5V312.4z"/>
		<path class="st1" d="M594.3,352v-17.2h4.9c1.5,0,2.8,0.3,4,1s2,1.6,2.7,2.8c0.6,1.2,0.9,2.6,1,4.2v1.1c0,1.6-0.3,3-0.9,4.3
			c-0.6,1.2-1.5,2.2-2.7,2.8c-1.2,0.7-2.5,1-4.1,1H594.3z M596.6,336.7v13.5h2.4c1.7,0,3.1-0.5,4.1-1.6c1-1.1,1.5-2.6,1.5-4.6v-1
			c0-2-0.5-3.5-1.4-4.5c-0.9-1.1-2.2-1.6-3.9-1.7H596.6z M615.2,352.2c-1.7,0-3.1-0.6-4.2-1.7c-1.1-1.1-1.6-2.7-1.6-4.6v-0.4
			c0-1.3,0.2-2.4,0.7-3.4c0.5-1,1.2-1.8,2-2.3c0.9-0.6,1.8-0.9,2.8-0.9c1.7,0,3,0.5,3.9,1.6c0.9,1.1,1.4,2.7,1.4,4.7v0.9h-8.7
			c0,1.3,0.4,2.3,1.1,3.1c0.7,0.8,1.6,1.2,2.7,1.2c0.8,0,1.4-0.2,2-0.5c0.5-0.3,1-0.7,1.4-1.3l1.3,1
			C618.9,351.4,617.3,352.2,615.2,352.2z M614.9,340.8c-0.9,0-1.6,0.3-2.2,1c-0.6,0.6-1,1.5-1.1,2.7h6.4v-0.2
			c-0.1-1.1-0.4-2-0.9-2.6C616.6,341.1,615.8,340.8,614.9,340.8z M626.8,349l3.2-9.8h2.2l-4.6,12.8h-1.7l-4.6-12.8h2.2L626.8,349z
			 M636.7,352h-2.2v-12.8h2.2V352z M634.3,335.8c0-0.4,0.1-0.7,0.3-0.9c0.2-0.2,0.5-0.4,1-0.4c0.4,0,0.7,0.1,1,0.4
			c0.2,0.2,0.3,0.5,0.3,0.9s-0.1,0.6-0.3,0.9c-0.2,0.2-0.5,0.4-1,0.4c-0.4,0-0.8-0.1-1-0.4C634.4,336.5,634.3,336.2,634.3,335.8z
			 M645.3,350.5c0.8,0,1.5-0.2,2-0.7c0.6-0.5,0.9-1.1,1-1.8h2.1c0,0.7-0.3,1.4-0.8,2.1c-0.5,0.7-1.1,1.2-1.9,1.6
			c-0.8,0.4-1.6,0.6-2.5,0.6c-1.7,0-3.1-0.6-4.2-1.7c-1-1.2-1.5-2.8-1.5-4.8v-0.4c0-1.2,0.2-2.3,0.7-3.3c0.5-1,1.1-1.7,2-2.3
			c0.9-0.5,1.9-0.8,3-0.8c1.4,0,2.6,0.4,3.6,1.3c1,0.9,1.5,2,1.5,3.3h-2.1c-0.1-0.8-0.4-1.5-0.9-2c-0.6-0.5-1.3-0.8-2.1-0.8
			c-1.1,0-2,0.4-2.6,1.2c-0.6,0.8-0.9,2-0.9,3.5v0.4c0,1.5,0.3,2.6,0.9,3.4C643.3,350.1,644.2,350.5,645.3,350.5z M658.1,352.2
			c-1.7,0-3.1-0.6-4.2-1.7c-1.1-1.1-1.6-2.7-1.6-4.6v-0.4c0-1.3,0.2-2.4,0.7-3.4c0.5-1,1.2-1.8,2-2.3c0.9-0.6,1.8-0.9,2.8-0.9
			c1.7,0,3,0.5,3.9,1.6c0.9,1.1,1.4,2.7,1.4,4.7v0.9h-8.7c0,1.3,0.4,2.3,1.1,3.1c0.7,0.8,1.6,1.2,2.7,1.2c0.8,0,1.4-0.2,2-0.5
			c0.5-0.3,1-0.7,1.4-1.3l1.3,1C661.9,351.4,660.3,352.2,658.1,352.2z M657.9,340.8c-0.9,0-1.6,0.3-2.2,1c-0.6,0.6-1,1.5-1.1,2.7
			h6.4v-0.2c-0.1-1.1-0.4-2-0.9-2.6C659.5,341.1,658.8,340.8,657.9,340.8z M683,352h-11.8v-2.3l5.6-5.9c0.8-0.8,1.3-1.6,1.7-2.2
			c0.4-0.6,0.6-1.2,0.6-1.8c0-0.8-0.2-1.4-0.6-1.8c-0.4-0.4-0.9-0.7-1.7-0.7c-0.8,0-1.4,0.3-1.8,0.8c-0.4,0.5-0.7,1.2-0.7,2.1h-3.4
			c0-1,0.2-2,0.7-2.9c0.5-0.9,1.2-1.5,2.1-2c0.9-0.5,1.9-0.7,3.1-0.7c1.8,0,3.1,0.4,4.1,1.3c1,0.9,1.5,2.1,1.5,3.6
			c0,0.8-0.2,1.7-0.7,2.6c-0.4,0.9-1.2,1.9-2.3,3.1l-3.9,4.1h7.4V352z"/>
		<path class="st19" d="M528.9,382.8h112.2c3.6,0,6.6,3,6.6,6.6v15.4c0,3.6-3,6.6-6.6,6.6H528.9V382.8z"/>
		<path class="st19" d="M528.9,418h112.2c3.6,0,6.6,3,6.6,6.6V440c0,3.6-3,6.6-6.6,6.6H528.9V418z"/>
		<path class="st19" d="M535.5,382.8h246.4c3.6,0,6.6,3,6.6,6.6V440c0,3.6-3,6.6-6.6,6.6H535.5V382.8z"/>
		<path class="st1" d="M594.3,422.4v-17.2h4.9c1.5,0,2.8,0.3,4,1s2,1.6,2.7,2.8c0.6,1.2,0.9,2.6,1,4.2v1.1c0,1.6-0.3,3-0.9,4.3
			c-0.6,1.2-1.5,2.2-2.7,2.8c-1.2,0.7-2.5,1-4.1,1H594.3z M596.6,407.1v13.5h2.4c1.7,0,3.1-0.5,4.1-1.6c1-1.1,1.5-2.6,1.5-4.6v-1
			c0-2-0.5-3.5-1.4-4.5c-0.9-1.1-2.2-1.6-3.9-1.7H596.6z M615.2,422.6c-1.7,0-3.1-0.6-4.2-1.7c-1.1-1.1-1.6-2.7-1.6-4.6V416
			c0-1.3,0.2-2.4,0.7-3.4c0.5-1,1.2-1.8,2-2.3c0.9-0.6,1.8-0.9,2.8-0.9c1.7,0,3,0.5,3.9,1.6c0.9,1.1,1.4,2.7,1.4,4.7v0.9h-8.7
			c0,1.3,0.4,2.3,1.1,3.1c0.7,0.8,1.6,1.2,2.7,1.2c0.8,0,1.4-0.2,2-0.5c0.5-0.3,1-0.7,1.4-1.3l1.3,1
			C618.9,421.8,617.3,422.6,615.2,422.6z M614.9,411.2c-0.9,0-1.6,0.3-2.2,1c-0.6,0.6-1,1.5-1.1,2.7h6.4v-0.2
			c-0.1-1.1-0.4-2-0.9-2.6C616.6,411.5,615.8,411.2,614.9,411.2z M626.8,419.4l3.2-9.8h2.2l-4.6,12.8h-1.7l-4.6-12.8h2.2
			L626.8,419.4z M636.7,422.4h-2.2v-12.8h2.2V422.4z M634.3,406.2c0-0.4,0.1-0.7,0.3-0.9c0.2-0.2,0.5-0.4,1-0.4c0.4,0,0.7,0.1,1,0.4
			c0.2,0.2,0.3,0.5,0.3,0.9c0,0.4-0.1,0.6-0.3,0.9c-0.2,0.2-0.5,0.4-1,0.4c-0.4,0-0.8-0.1-1-0.4
			C634.4,406.9,634.3,406.6,634.3,406.2z M645.3,420.9c0.8,0,1.5-0.2,2-0.7c0.6-0.5,0.9-1.1,1-1.8h2.1c0,0.7-0.3,1.4-0.8,2.1
			c-0.5,0.7-1.1,1.2-1.9,1.6c-0.8,0.4-1.6,0.6-2.5,0.6c-1.7,0-3.1-0.6-4.2-1.7c-1-1.2-1.5-2.8-1.5-4.8v-0.4c0-1.2,0.2-2.3,0.7-3.3
			c0.5-1,1.1-1.7,2-2.3c0.9-0.5,1.9-0.8,3-0.8c1.4,0,2.6,0.4,3.6,1.3c1,0.9,1.5,2,1.5,3.3h-2.1c-0.1-0.8-0.4-1.5-0.9-2
			c-0.6-0.5-1.3-0.8-2.1-0.8c-1.1,0-2,0.4-2.6,1.2c-0.6,0.8-0.9,2-0.9,3.5v0.4c0,1.5,0.3,2.6,0.9,3.4
			C643.3,420.5,644.2,420.9,645.3,420.9z M658.1,422.6c-1.7,0-3.1-0.6-4.2-1.7c-1.1-1.1-1.6-2.7-1.6-4.6V416c0-1.3,0.2-2.4,0.7-3.4
			c0.5-1,1.2-1.8,2-2.3c0.9-0.6,1.8-0.9,2.8-0.9c1.7,0,3,0.5,3.9,1.6c0.9,1.1,1.4,2.7,1.4,4.7v0.9h-8.7c0,1.3,0.4,2.3,1.1,3.1
			c0.7,0.8,1.6,1.2,2.7,1.2c0.8,0,1.4-0.2,2-0.5c0.5-0.3,1-0.7,1.4-1.3l1.3,1C661.9,421.8,660.3,422.6,658.1,422.6z M657.9,411.2
			c-0.9,0-1.6,0.3-2.2,1c-0.6,0.6-1,1.5-1.1,2.7h6.4v-0.2c-0.1-1.1-0.4-2-0.9-2.6C659.5,411.5,658.8,411.2,657.9,411.2z
			 M679.5,422.4h-3.4v-13.2l-4.1,1.3v-2.8l7.1-2.6h0.4V422.4z"/>
		<path d="M534.8,397.4c-0.4,0.4-0.4,1.1,0,1.6l7,7c0.4,0.4,1.1,0.4,1.6,0c0.4-0.4,0.4-1.1,0-1.6l-6.2-6.2l6.2-6.2
			c0.4-0.4,0.4-1.1,0-1.6c-0.4-0.4-1.1-0.4-1.6,0L534.8,397.4z M556.1,397.1h-20.6v2.2h20.6V397.1z M535.5,434.5h20.6v-2.2h-20.6
			V434.5z M556.1,434.5c13.8,0,21.8-9.2,22.3-18.6c0.2-4.7-1.4-9.4-5.1-13c-3.7-3.5-9.4-5.8-17.2-5.8v2.2c7.3,0,12.4,2.1,15.6,5.2
			c3.2,3.1,4.7,7.1,4.4,11.2c-0.4,8.2-7.4,16.6-20.1,16.6V434.5z"/>
		<path d="M534.8,256.6c-0.4,0.4-0.4,1.1,0,1.6l7,7c0.4,0.4,1.1,0.4,1.6,0c0.4-0.4,0.4-1.1,0-1.6l-6.2-6.2l6.2-6.2
			c0.4-0.4,0.4-1.1,0-1.6c-0.4-0.4-1.1-0.4-1.6,0L534.8,256.6z M556.1,256.3h-20.6v2.2h20.6V256.3z M535.5,293.7h20.6v-2.2h-20.6
			V293.7z M556.1,293.7c13.8,0,21.8-9.2,22.3-18.6c0.2-4.7-1.4-9.4-5.1-13c-3.7-3.5-9.4-5.8-17.2-5.8v2.2c7.3,0,12.4,2.1,15.6,5.2
			c3.2,3.1,4.7,7.1,4.4,11.2c-0.4,8.2-7.4,16.6-20.1,16.6V293.7z"/>
		<path d="M534.8,327c-0.4,0.4-0.4,1.1,0,1.6l7,7c0.4,0.4,1.1,0.4,1.6,0c0.4-0.4,0.4-1.1,0-1.6l-6.2-6.2l6.2-6.2
			c0.4-0.4,0.4-1.1,0-1.6c-0.4-0.4-1.1-0.4-1.6,0L534.8,327z M556.1,326.7h-20.6v2.2h20.6V326.7z M535.5,364.1h20.6v-2.2h-20.6
			V364.1z M556.1,364.1c13.8,0,21.8-9.2,22.3-18.6c0.2-4.7-1.4-9.4-5.1-13c-3.7-3.5-9.4-5.8-17.2-5.8v2.2c7.3,0,12.4,2.1,15.6,5.2
			c3.2,3.1,4.7,7.1,4.4,11.2c-0.4,8.2-7.4,16.6-20.1,16.6V364.1z"/>
		<path d="M534.8,186.2c-0.4,0.4-0.4,1.1,0,1.6l7,7c0.4,0.4,1.1,0.4,1.6,0c0.4-0.4,0.4-1.1,0-1.6l-6.2-6.2l6.2-6.2
			c0.4-0.4,0.4-1.1,0-1.6c-0.4-0.4-1.1-0.4-1.6,0L534.8,186.2z M556.1,185.9h-20.6v2.2h20.6V185.9z M535.5,223.3h20.6v-2.2h-20.6
			V223.3z M556.1,223.3c13.8,0,21.8-9.2,22.3-18.6c0.2-4.7-1.4-9.4-5.1-13c-3.7-3.5-9.4-5.8-17.2-5.8v2.2c7.3,0,12.4,2.1,15.6,5.2
			c3.2,3.1,4.7,7.1,4.4,11.2c-0.4,8.2-7.4,16.6-20.1,16.6V223.3z"/>
	</g>
</g>
</svg>
