<?xml version="1.0" encoding="utf-8"?>
<!-- Generator: Adobe Illustrator 25.4.1, SVG Export Plug-In . SVG Version: 6.00 Build 0)  -->
<svg version="1.1" id="Layer_1" xmlns="http://www.w3.org/2000/svg" xmlns:xlink="http://www.w3.org/1999/xlink" x="0px" y="0px"
	 viewBox="0 0 840.4 617.4" style="enable-background:new 0 0 840.4 617.4;" xml:space="preserve">
<style type="text/css">
	.st0{clip-path:url(#SVGID_00000013167222114996907070000016479597984250369212_);}
	.st1{fill:#FFFFFF;}
	.st2{fill:#C4C4C4;stroke:#000000;stroke-width:2.2;}
	.st3{fill:#DEDEDE;}
	.st4{fill:none;stroke:#515151;stroke-width:1.1;}
	.st5{fill:none;stroke:#000000;stroke-width:2.2;}
	.st6{fill:#FFFFFF;stroke:#000000;stroke-width:2.2;}
	.st7{opacity:0.7;}
	.st8{fill:url(#SVGID_00000168810024943555944130000003333043121790681253_);}
	.st9{fill:url(#SVGID_00000068640447581592538480000007256076892742449286_);}
	.st10{fill:url(#SVGID_00000111899860754650669530000012983501321673804687_);}
	.st11{fill:url(#SVGID_00000176764715027149879630000015906691936614406566_);}
	.st12{fill:url(#SVGID_00000083051593450761925520000018296916002575273105_);}
	.st13{fill:url(#SVGID_00000098191240217765125040000006095457648657125297_);}
	.st14{fill:url(#SVGID_00000145029434652003540130000003008667260613520319_);}
	.st15{fill:url(#SVGID_00000139282416764266868060000003116078441339589272_);}
	.st16{fill:url(#SVGID_00000173127339846694453520000010411111333780537236_);}
	.st17{fill:#919191;}
	.st18{fill:none;stroke:#FF0000;stroke-width:2.2;}
	.st19{fill:none;stroke:#00FF00;stroke-width:2.2;}
	.st20{fill:none;stroke:#0000FF;stroke-width:2.2;}
</style>
<g>
	<g>
		<defs>
			<rect id="SVGID_1_" width="840.4" height="616"/>
		</defs>
		<clipPath id="SVGID_00000124125464869661483950000006842317021111418807_">
			<use xlink:href="#SVGID_1_"  style="overflow:visible;"/>
		</clipPath>
		<g style="clip-path:url(#SVGID_00000124125464869661483950000006842317021111418807_);">
			<rect class="st1" width="840.4" height="616"/>
			<path d="M56.9,60.4H45.8v7.5h13.1v4.7H40V44.4h18.8v4.7h-13v6.7h11.1L56.9,60.4L56.9,60.4z M69.8,57.9l3.5-6.2h6l-6,10.2
				l6.2,10.7h-6L69.8,66l-3.7,6.6h-6l6.2-10.7l-5.9-10.2h6L69.8,57.9z M94.1,72.6c-0.3-0.5-0.4-1.1-0.6-1.9
				c-1.4,1.5-3.1,2.3-5.3,2.3c-2,0-3.8-0.6-5.1-1.8c-1.3-1.2-2-2.7-2-4.5c0-2.2,0.8-3.9,2.5-5.1s4-1.8,7.1-1.8h2.6v-1.2
				c0-1-0.3-1.7-0.8-2.3c-0.5-0.6-1.3-0.9-2.3-0.9c-0.9,0-1.7,0.2-2.2,0.7s-0.8,1.1-0.8,1.9h-5.6c0-1.2,0.4-2.3,1.1-3.4
				c0.7-1,1.8-1.8,3.2-2.4s2.9-0.9,4.6-0.9c2.6,0,4.6,0.7,6.1,2s2.3,3.1,2.3,5.5v9.1c0,2,0.3,3.5,0.8,4.5v0.3L94.1,72.6L94.1,72.6z
				 M89.5,68.7c0.8,0,1.6-0.2,2.3-0.5c0.7-0.4,1.2-0.9,1.5-1.5v-3.6h-2.1c-2.8,0-4.3,1-4.5,2.9v0.3c0,0.7,0.2,1.3,0.7,1.7
				C88,68.5,88.6,68.7,89.5,68.7z M108.4,51.7l0.2,2.3c1.5-1.8,3.5-2.7,6-2.7c2.7,0,4.5,1.1,5.5,3.2c1.5-2.1,3.6-3.2,6.3-3.2
				c2.3,0,4,0.7,5.1,2c1.1,1.3,1.7,3.3,1.7,6v13.4h-5.6V59.4c0-1.2-0.2-2-0.7-2.6s-1.3-0.8-2.5-0.8c-1.7,0-2.8,0.8-3.5,2.4v14.4
				h-5.6V59.5c0-1.2-0.2-2.1-0.7-2.6s-1.3-0.8-2.4-0.8c-1.6,0-2.7,0.7-3.4,2v14.8h-5.6V52h5.2V51.7z M156.3,62.3
				c0,3.2-0.7,5.8-2.2,7.8c-1.4,1.9-3.4,2.9-5.9,2.9c-2.1,0-3.8-0.7-5.1-2.2v9.9h-5.6v-29h5.2l0.2,2c1.4-1.6,3.1-2.4,5.3-2.4
				c2.6,0,4.6,1,6,2.9s2.1,4.5,2.1,7.9V62.3z M150.7,61.9c0-1.9-0.3-3.4-1-4.5s-1.7-1.6-3-1.6c-1.8,0-3,0.7-3.6,2v8.6
				c0.7,1.4,1.9,2.1,3.7,2.1C149.4,68.5,150.7,66.3,150.7,61.9z M165.7,72.6h-5.6V42.9h5.6V72.6z M180,73c-3.1,0-5.6-0.9-7.5-2.8
				c-1.9-1.9-2.9-4.4-2.9-7.5v-0.5c0-2.1,0.4-4,1.2-5.6c0.8-1.7,2-2.9,3.4-3.8c1.5-0.9,3.2-1.4,5.1-1.4c2.9,0,5.1,0.9,6.7,2.7
				c1.7,1.8,2.5,4.4,2.5,7.7v2.3h-13.3c0.2,1.4,0.7,2.5,1.6,3.3c0.9,0.8,2.1,1.2,3.5,1.2c2.2,0,3.8-0.8,5-2.3l2.7,3.1
				c-0.8,1.2-2,2.1-3.4,2.8C183.3,72.7,181.7,73,180,73z M179.3,55.8c-1.1,0-2,0.4-2.7,1.1s-1.1,1.8-1.3,3.2h7.8v-0.4
				c0-1.2-0.4-2.2-1-2.9C181.4,56.2,180.5,55.8,179.3,55.8z M215,72.6h-5.6V51.1l-6.7,2.1v-4.5l11.7-4.2h0.6V72.6z M224.6,69.9
				c0-0.9,0.3-1.6,0.9-2.2c0.6-0.6,1.4-0.8,2.3-0.8c0.9,0,1.7,0.3,2.3,0.8c0.6,0.6,0.9,1.3,0.9,2.2c0,0.9-0.3,1.6-0.9,2.1
				c-0.6,0.5-1.4,0.8-2.3,0.8c-0.9,0-1.7-0.3-2.3-0.8C224.9,71.4,224.6,70.7,224.6,69.9z M224.6,54c0-0.9,0.3-1.6,0.9-2.2
				c0.6-0.6,1.4-0.8,2.3-0.8c0.9,0,1.7,0.3,2.3,0.8c0.6,0.6,0.9,1.3,0.9,2.2c0,0.9-0.3,1.6-0.9,2.1c-0.6,0.5-1.4,0.8-2.3,0.8
				c-0.9,0-1.7-0.3-2.3-0.8C224.9,55.6,224.6,54.9,224.6,54z M250.6,51.7l0.2,2.3c1.5-1.8,3.5-2.7,6-2.7c2.7,0,4.5,1.1,5.6,3.2
				c1.5-2.1,3.6-3.2,6.3-3.2c2.3,0,4,0.7,5.1,2c1.1,1.3,1.7,3.3,1.7,6v13.4h-5.6V59.4c0-1.2-0.2-2-0.7-2.6s-1.3-0.8-2.5-0.8
				c-1.7,0-2.8,0.8-3.5,2.4v14.4h-5.6V59.5c0-1.2-0.2-2.1-0.7-2.6s-1.3-0.8-2.4-0.8c-1.6,0-2.7,0.7-3.4,2v14.8h-5.6V52h5.1V51.7z
				 M285.6,72.6H280V51.7h5.6V72.6z M279.7,46.3c0-0.8,0.3-1.5,0.8-2.1c0.6-0.5,1.3-0.8,2.3-0.8s1.7,0.3,2.3,0.8
				c0.6,0.5,0.9,1.2,0.9,2.1s-0.3,1.5-0.9,2.1c-0.6,0.5-1.3,0.8-2.3,0.8c-0.9,0-1.7-0.3-2.3-0.8C279.9,47.8,279.7,47.1,279.7,46.3z
				 M298.2,57.9l3.5-6.2h6l-6,10.2l6.2,10.7h-6l-3.7-6.6l-3.7,6.6h-6l6.2-10.7l-5.9-10.2h6L298.2,57.9z M319.6,73
				c-3.1,0-5.6-0.9-7.5-2.8s-2.9-4.4-2.9-7.5v-0.5c0-2.1,0.4-4,1.2-5.6c0.8-1.7,2-2.9,3.4-3.8c1.5-0.9,3.2-1.4,5.1-1.4
				c2.9,0,5.1,0.9,6.7,2.7c1.7,1.8,2.5,4.4,2.5,7.7v2.3h-13.2c0.2,1.4,0.7,2.5,1.6,3.3c0.9,0.8,2.1,1.2,3.5,1.2c2.2,0,3.8-0.8,5-2.3
				l2.7,3.1c-0.8,1.2-2,2.1-3.4,2.8C322.9,72.7,321.3,73,319.6,73z M319,55.8c-1.1,0-2,0.4-2.7,1.1c-0.7,0.7-1.1,1.8-1.3,3.2h7.8
				v-0.4c0-1.2-0.4-2.2-1-2.9C321.1,56.2,320.2,55.8,319,55.8z M330.5,62c0-3.3,0.7-5.9,2.2-7.8s3.5-2.9,6-2.9c2,0,3.7,0.8,5,2.3
				V42.9h5.6v29.7h-5l-0.3-2.2c-1.4,1.7-3.2,2.6-5.4,2.6c-2.5,0-4.4-1-5.9-2.9C331.3,68.1,330.5,65.4,330.5,62z M336.1,62.4
				c0,2,0.3,3.5,1,4.5c0.7,1,1.7,1.6,3,1.6c1.7,0,2.9-0.7,3.7-2.2V58c-0.7-1.5-1.9-2.2-3.6-2.2C337.5,55.8,336.1,58,336.1,62.4z
				 M372.3,68.5c1,0,1.9-0.3,2.5-0.9c0.6-0.6,1-1.3,1-2.3h5.2c0,1.4-0.4,2.7-1.2,3.9c-0.8,1.2-1.8,2.1-3.1,2.7c-1.3,0.6-2.8,1-4.4,1
				c-3,0-5.4-0.9-7.1-2.8s-2.6-4.5-2.6-7.9v-0.4c0-3.2,0.9-5.8,2.6-7.7c1.7-1.9,4.1-2.9,7.1-2.9c2.6,0,4.7,0.7,6.3,2.2
				s2.4,3.5,2.4,5.9h-5.2c0-1.1-0.4-2-1-2.6c-0.6-0.7-1.5-1-2.6-1c-1.3,0-2.3,0.5-3,1.4c-0.7,0.9-1,2.5-1,4.6v0.6
				c0,2.2,0.3,3.7,1,4.6C369.9,68,370.9,68.5,372.3,68.5z M383.4,61.9c0-2.1,0.4-3.9,1.2-5.5c0.8-1.6,1.9-2.9,3.4-3.8
				s3.3-1.3,5.2-1.3c2.8,0,5.1,0.9,6.9,2.6s2.8,4.1,3,7v1.4c0,3.2-0.9,5.8-2.7,7.7c-1.8,1.9-4.2,2.9-7.2,2.9s-5.4-1-7.2-2.9
				c-1.8-1.9-2.7-4.6-2.7-7.9v-0.2H383.4z M388.9,62.4c0,2,0.4,3.5,1.1,4.6c0.7,1,1.8,1.6,3.2,1.6c1.4,0,2.4-0.5,3.2-1.5
				s1.1-2.7,1.1-5c0-1.9-0.4-3.5-1.1-4.5c-0.8-1.1-1.8-1.6-3.2-1.6c-1.4,0-2.4,0.5-3.2,1.6C389.3,58.5,388.9,60.1,388.9,62.4z
				 M411.8,51.7l0.2,2.4c1.5-1.9,3.5-2.8,6-2.8c2.2,0,3.9,0.7,5,2s1.6,3.2,1.7,5.8v13.5h-5.6V59.2c0-1.2-0.3-2-0.8-2.6
				c-0.5-0.5-1.4-0.8-2.6-0.8c-1.6,0-2.8,0.7-3.5,2v14.8h-5.6V51.7H411.8z M430.2,72.6V55.8h-3.1v-4.1h3.1v-1c0-2.6,0.8-4.7,2.4-6.1
				c1.6-1.4,3.8-2.1,6.7-2.1c1.7,0,3.9,0.4,6.3,1.1l-0.8,4.6c-1.3-0.4-2.2-0.6-2.9-0.7s-1.4-0.2-2.2-0.2c-2.6,0-3.9,1.2-3.9,3.5v0.9
				h4.1v4.1h-4.1v16.8C435.8,72.6,430.2,72.6,430.2,72.6z M448.3,72.6h-5.6V51.7h5.6V72.6z M452.1,62c0-3.2,0.8-5.8,2.3-7.8
				s3.6-2.9,6.2-2.9c2.3,0,4.1,0.8,5.4,2.4l0.2-2h5.1v20.2c0,1.8-0.4,3.4-1.3,4.8c-0.8,1.4-2,2.4-3.5,3.1s-3.3,1.1-5.3,1.1
				c-1.5,0-3-0.3-4.5-0.9s-2.6-1.4-3.3-2.4l2.5-3.4c1.4,1.6,3.1,2.3,5.1,2.3c1.5,0,2.6-0.4,3.5-1.2c0.8-0.8,1.2-1.9,1.2-3.4v-1.1
				c-1.3,1.5-3,2.2-5.1,2.2c-2.5,0-4.5-1-6.1-2.9c-1.5-2-2.3-4.6-2.3-7.8L452.1,62L452.1,62z M457.7,62.4c0,1.9,0.4,3.4,1.1,4.5
				c0.8,1.1,1.8,1.6,3.1,1.6c1.7,0,2.9-0.6,3.7-1.9v-8.8c-0.7-1.3-2-1.9-3.6-1.9c-1.3,0-2.4,0.5-3.2,1.6
				C458.1,58.6,457.7,60.2,457.7,62.4z M488.1,70.5c-1.4,1.7-3.3,2.5-5.7,2.5c-2.2,0-4-0.6-5.1-1.9c-1.2-1.3-1.8-3.2-1.8-5.7V51.7
				h5.6v13.5c0,2.2,1,3.3,3,3.3c1.9,0,3.2-0.7,3.9-2V51.7h5.6v20.9h-5.4L488.1,70.5z M509.4,56.9c-0.8-0.1-1.4-0.2-2-0.2
				c-2.1,0-3.5,0.7-4.2,2.1v13.7h-5.6V51.6h5.3l0.2,2.5c1.1-1.9,2.7-2.9,4.7-2.9c0.6,0,1.2,0.1,1.7,0.3L509.4,56.9z M523.7,72.6
				c-0.3-0.5-0.4-1.1-0.6-1.9c-1.4,1.5-3.1,2.3-5.3,2.3c-2.1,0-3.8-0.6-5.1-1.8c-1.3-1.2-2-2.7-2-4.5c0-2.2,0.8-3.9,2.5-5.1
				c1.6-1.2,4-1.8,7.1-1.8h2.6v-1.2c0-1-0.3-1.7-0.8-2.3c-0.5-0.6-1.3-0.9-2.3-0.9c-0.9,0-1.7,0.2-2.2,0.7s-0.8,1.1-0.8,1.9h-5.6
				c0-1.2,0.4-2.3,1.1-3.4c0.7-1,1.8-1.8,3.2-2.4s2.9-0.9,4.6-0.9c2.6,0,4.6,0.7,6.1,2s2.3,3.1,2.3,5.5v9.1c0,2,0.3,3.5,0.8,4.5v0.3
				L523.7,72.6L523.7,72.6z M519.1,68.7c0.8,0,1.6-0.2,2.3-0.5c0.7-0.4,1.2-0.9,1.5-1.5v-3.6h-2.1c-2.8,0-4.3,1-4.5,2.9v0.3
				c0,0.7,0.2,1.3,0.7,1.7C517.6,68.5,518.2,68.7,519.1,68.7z M539.5,46.5v5.1h3.6v4.1h-3.6v10.4c0,0.8,0.1,1.3,0.4,1.7
				c0.3,0.3,0.9,0.5,1.7,0.5c0.6,0,1.2,0,1.6-0.1v4.2c-1.1,0.3-2.2,0.5-3.4,0.5c-3.9,0-5.9-2-6-5.9V55.7h-3.1v-4.1h3.1v-5.1
				C533.8,46.5,539.5,46.5,539.5,46.5z M552.1,72.6h-5.6V51.7h5.6V72.6z M546.1,46.3c0-0.8,0.3-1.5,0.8-2.1c0.6-0.5,1.3-0.8,2.3-0.8
				s1.7,0.3,2.3,0.8s0.9,1.2,0.9,2.1s-0.3,1.5-0.9,2.1c-0.6,0.5-1.3,0.8-2.3,0.8c-0.9,0-1.7-0.3-2.3-0.8
				C546.4,47.8,546.1,47.1,546.1,46.3z M555.8,61.9c0-2.1,0.4-3.9,1.2-5.5s1.9-2.9,3.4-3.8s3.3-1.3,5.2-1.3c2.8,0,5.1,0.9,6.9,2.6
				s2.8,4.1,3,7v1.4c0,3.2-0.9,5.8-2.7,7.7c-1.8,1.9-4.2,2.9-7.2,2.9s-5.4-1-7.2-2.9c-1.8-1.9-2.7-4.6-2.7-7.9v-0.2H555.8z
				 M561.4,62.4c0,2,0.4,3.5,1.1,4.6c0.7,1,1.8,1.6,3.2,1.6s2.4-0.5,3.2-1.5s1.1-2.7,1.1-5c0-1.9-0.4-3.5-1.1-4.5
				c-0.8-1.1-1.8-1.6-3.2-1.6c-1.4,0-2.4,0.5-3.2,1.6C561.8,58.5,561.4,60.1,561.4,62.4z M584.2,51.7l0.2,2.4c1.5-1.9,3.5-2.8,6-2.8
				c2.2,0,3.9,0.7,5,2c1.1,1.3,1.6,3.2,1.7,5.8v13.5h-5.6V59.2c0-1.2-0.3-2-0.8-2.6c-0.5-0.5-1.4-0.8-2.6-0.8c-1.6,0-2.8,0.7-3.5,2
				v14.8H579V51.7H584.2z"/>
			<path class="st2" d="M1252.9,482.9v-352c0-4.9-3.9-8.8-8.8-8.8h-34.9c-2.3,0-4.6-0.9-6.2-2.6l-0.3-0.3c-1.7-1.7-3.9-2.6-6.2-2.6
				h-575c0,3-2.5,5.5-5.5,5.5h-92.4v26.4c0,1.8-1.5,3.3-3.3,3.3s-3.3,1.5-3.3,3.3V528h62.7c4.9,0,8.8-3.9,8.8-8.8v-20.9
				c0-3.6,3-6.6,6.6-6.6H649c3.6,0,6.6,3,6.6,6.6v20.9c0,4.9,3.9,8.8,8.8,8.8h14.3c4.9,0,8.8-3.9,8.8-8.8v-17.6c0,0,0-9.9,9.9-9.9
				c9.9,0,9.9,9.9,9.9,9.9v42.9c0,2.4,2,4.4,4.4,4.4h38.5c2.4,0,4.4-2,4.4-4.4V517c0,0,0-5.5,5.5-5.5s5.5,5.5,5.5,5.5v27.5
				c0,2.4,2,4.4,4.4,4.4h132c2.4,0,4.4-2,4.4-4.4v-44c0-4.9,3.9-8.8,8.8-8.8h328.9C1249,491.7,1252.9,487.8,1252.9,482.9z"/>
			<path class="st3" d="M490.6,173.8c0-1.2,1-2.2,2.2-2.2h19.8v28.6h-19.8c-1.2,0-2.2-1-2.2-2.2V173.8z"/>
			<line class="st4" x1="497.7" y1="171.6" x2="499.9" y2="200.2"/>
			<line class="st4" x1="495.5" y1="171.6" x2="497.7" y2="200.2"/>
			<line class="st4" x1="499.9" y1="171.6" x2="502.1" y2="200.2"/>
			<line class="st4" x1="502.1" y1="171.6" x2="504.3" y2="200.2"/>
			<line class="st4" x1="504.3" y1="171.6" x2="506.5" y2="200.2"/>
			<line class="st4" x1="506.5" y1="171.6" x2="508.7" y2="200.2"/>
			<line class="st4" x1="508.7" y1="171.6" x2="510.9" y2="200.2"/>
			<line class="st4" x1="510.9" y1="171.6" x2="513.1" y2="200.2"/>
			<path class="st5" d="M490.6,173.8c0-1.2,1-2.2,2.2-2.2h19.8v28.6h-19.8c-1.2,0-2.2-1-2.2-2.2V173.8z"/>
			<path class="st6" d="M464.2,178.2c0-1.2,1-2.2,2.2-2.2h24.2v19.8h-24.2c-1.2,0-2.2-1-2.2-2.2V178.2z"/>
			<line class="st5" x1="471.9" y1="176" x2="471.9" y2="195.8"/>
			<path class="st3" d="M490.6,209c0-1.2,1-2.2,2.2-2.2h19.8v28.6h-19.8c-1.2,0-2.2-1-2.2-2.2V209z"/>
			<line class="st4" x1="497.7" y1="206.8" x2="499.9" y2="235.4"/>
			<line class="st4" x1="495.5" y1="206.8" x2="497.7" y2="235.4"/>
			<line class="st4" x1="499.9" y1="206.8" x2="502.1" y2="235.4"/>
			<line class="st4" x1="502.1" y1="206.8" x2="504.3" y2="235.4"/>
			<line class="st4" x1="504.3" y1="206.8" x2="506.5" y2="235.4"/>
			<line class="st4" x1="506.5" y1="206.8" x2="508.7" y2="235.4"/>
			<line class="st4" x1="508.7" y1="206.8" x2="510.9" y2="235.4"/>
			<line class="st4" x1="510.9" y1="206.8" x2="513.1" y2="235.4"/>
			<path class="st5" d="M490.6,209c0-1.2,1-2.2,2.2-2.2h19.8v28.6h-19.8c-1.2,0-2.2-1-2.2-2.2V209z"/>
			<path class="st6" d="M464.2,213.4c0-1.2,1-2.2,2.2-2.2h24.2V231h-24.2c-1.2,0-2.2-1-2.2-2.2V213.4z"/>
			<line class="st5" x1="471.9" y1="211.2" x2="471.9" y2="231"/>
			<path class="st3" d="M490.6,244.2c0-1.2,1-2.2,2.2-2.2h19.8v28.6h-19.8c-1.2,0-2.2-1-2.2-2.2V244.2z"/>
			<line class="st4" x1="497.7" y1="242" x2="499.9" y2="270.6"/>
			<line class="st4" x1="495.5" y1="242" x2="497.7" y2="270.6"/>
			<line class="st4" x1="499.9" y1="242" x2="502.1" y2="270.6"/>
			<line class="st4" x1="502.1" y1="242" x2="504.3" y2="270.6"/>
			<line class="st4" x1="504.3" y1="242" x2="506.5" y2="270.6"/>
			<line class="st4" x1="506.5" y1="242" x2="508.7" y2="270.6"/>
			<line class="st4" x1="508.7" y1="242" x2="510.9" y2="270.6"/>
			<line class="st4" x1="510.9" y1="242" x2="513.1" y2="270.6"/>
			<path class="st5" d="M490.6,244.2c0-1.2,1-2.2,2.2-2.2h19.8v28.6h-19.8c-1.2,0-2.2-1-2.2-2.2V244.2z"/>
			<path class="st6" d="M464.2,248.6c0-1.2,1-2.2,2.2-2.2h24.2v19.8h-24.2c-1.2,0-2.2-1-2.2-2.2V248.6z"/>
			<line class="st5" x1="471.9" y1="246.4" x2="471.9" y2="266.2"/>
			<path class="st3" d="M490.6,279.4c0-1.2,1-2.2,2.2-2.2h19.8v28.6h-19.8c-1.2,0-2.2-1-2.2-2.2V279.4z"/>
			<line class="st4" x1="497.7" y1="277.2" x2="499.9" y2="305.8"/>
			<line class="st4" x1="495.5" y1="277.2" x2="497.7" y2="305.8"/>
			<line class="st4" x1="499.9" y1="277.2" x2="502.1" y2="305.8"/>
			<line class="st4" x1="502.1" y1="277.2" x2="504.3" y2="305.8"/>
			<line class="st4" x1="504.3" y1="277.2" x2="506.5" y2="305.8"/>
			<line class="st4" x1="506.5" y1="277.2" x2="508.7" y2="305.8"/>
			<line class="st4" x1="508.7" y1="277.2" x2="510.9" y2="305.8"/>
			<line class="st4" x1="510.9" y1="277.2" x2="513.1" y2="305.8"/>
			<path class="st5" d="M490.6,279.4c0-1.2,1-2.2,2.2-2.2h19.8v28.6h-19.8c-1.2,0-2.2-1-2.2-2.2V279.4z"/>
			<path class="st6" d="M464.2,283.8c0-1.2,1-2.2,2.2-2.2h24.2v19.8h-24.2c-1.2,0-2.2-1-2.2-2.2V283.8z"/>
			<line class="st5" x1="471.9" y1="281.6" x2="471.9" y2="301.4"/>
			<path class="st3" d="M490.6,314.6c0-1.2,1-2.2,2.2-2.2h19.8V341h-19.8c-1.2,0-2.2-1-2.2-2.2V314.6z"/>
			<line class="st4" x1="497.7" y1="312.4" x2="499.9" y2="341"/>
			<line class="st4" x1="495.5" y1="312.4" x2="497.7" y2="341"/>
			<line class="st4" x1="499.9" y1="312.4" x2="502.1" y2="341"/>
			<line class="st4" x1="502.1" y1="312.4" x2="504.3" y2="341"/>
			<line class="st4" x1="504.3" y1="312.4" x2="506.5" y2="341"/>
			<line class="st4" x1="506.5" y1="312.4" x2="508.7" y2="341"/>
			<line class="st4" x1="508.7" y1="312.4" x2="510.9" y2="341"/>
			<line class="st4" x1="510.9" y1="312.4" x2="513.1" y2="341"/>
			<path class="st5" d="M490.6,314.6c0-1.2,1-2.2,2.2-2.2h19.8V341h-19.8c-1.2,0-2.2-1-2.2-2.2V314.6z"/>
			<path class="st6" d="M464.2,319c0-1.2,1-2.2,2.2-2.2h24.2v19.8h-24.2c-1.2,0-2.2-1-2.2-2.2V319z"/>
			<line class="st5" x1="471.9" y1="316.8" x2="471.9" y2="336.6"/>
			<path class="st3" d="M490.6,349.8c0-1.2,1-2.2,2.2-2.2h19.8v28.6h-19.8c-1.2,0-2.2-1-2.2-2.2V349.8z"/>
			<line class="st4" x1="497.7" y1="347.6" x2="499.9" y2="376.2"/>
			<line class="st4" x1="495.5" y1="347.6" x2="497.7" y2="376.2"/>
			<line class="st4" x1="499.9" y1="347.6" x2="502.1" y2="376.2"/>
			<line class="st4" x1="502.1" y1="347.6" x2="504.3" y2="376.2"/>
			<line class="st4" x1="504.3" y1="347.6" x2="506.5" y2="376.2"/>
			<line class="st4" x1="506.5" y1="347.6" x2="508.7" y2="376.2"/>
			<line class="st4" x1="508.7" y1="347.6" x2="510.9" y2="376.2"/>
			<line class="st4" x1="510.9" y1="347.6" x2="513.1" y2="376.2"/>
			<path class="st5" d="M490.6,349.8c0-1.2,1-2.2,2.2-2.2h19.8v28.6h-19.8c-1.2,0-2.2-1-2.2-2.2V349.8z"/>
			<path class="st6" d="M464.2,354.2c0-1.2,1-2.2,2.2-2.2h24.2v19.8h-24.2c-1.2,0-2.2-1-2.2-2.2V354.2z"/>
			<line class="st5" x1="471.9" y1="352" x2="471.9" y2="371.8"/>
			<path class="st3" d="M490.6,385c0-1.2,1-2.2,2.2-2.2h19.8v28.6h-19.8c-1.2,0-2.2-1-2.2-2.2V385z"/>
			<line class="st4" x1="497.7" y1="382.8" x2="499.9" y2="411.4"/>
			<line class="st4" x1="495.5" y1="382.8" x2="497.7" y2="411.4"/>
			<line class="st4" x1="499.9" y1="382.8" x2="502.1" y2="411.4"/>
			<line class="st4" x1="502.1" y1="382.8" x2="504.3" y2="411.4"/>
			<line class="st4" x1="504.3" y1="382.8" x2="506.5" y2="411.4"/>
			<line class="st4" x1="506.5" y1="382.8" x2="508.7" y2="411.4"/>
			<line class="st4" x1="508.7" y1="382.8" x2="510.9" y2="411.4"/>
			<line class="st4" x1="510.9" y1="382.8" x2="513.1" y2="411.4"/>
			<path class="st5" d="M490.6,385c0-1.2,1-2.2,2.2-2.2h19.8v28.6h-19.8c-1.2,0-2.2-1-2.2-2.2V385z"/>
			<path class="st6" d="M464.2,389.4c0-1.2,1-2.2,2.2-2.2h24.2V407h-24.2c-1.2,0-2.2-1-2.2-2.2V389.4z"/>
			<line class="st5" x1="471.9" y1="387.2" x2="471.9" y2="407"/>
			<path class="st3" d="M490.6,420.2c0-1.2,1-2.2,2.2-2.2h19.8v28.6h-19.8c-1.2,0-2.2-1-2.2-2.2V420.2z"/>
			<line class="st4" x1="497.7" y1="418" x2="499.9" y2="446.6"/>
			<line class="st4" x1="495.5" y1="418" x2="497.7" y2="446.6"/>
			<line class="st4" x1="499.9" y1="418" x2="502.1" y2="446.6"/>
			<line class="st4" x1="502.1" y1="418" x2="504.3" y2="446.6"/>
			<line class="st4" x1="504.3" y1="418" x2="506.5" y2="446.6"/>
			<line class="st4" x1="506.5" y1="418" x2="508.7" y2="446.6"/>
			<line class="st4" x1="508.7" y1="418" x2="510.9" y2="446.6"/>
			<line class="st4" x1="510.9" y1="418" x2="513.1" y2="446.6"/>
			<path class="st5" d="M490.6,420.2c0-1.2,1-2.2,2.2-2.2h19.8v28.6h-19.8c-1.2,0-2.2-1-2.2-2.2V420.2z"/>
			<path class="st6" d="M464.2,424.6c0-1.2,1-2.2,2.2-2.2h24.2v19.8h-24.2c-1.2,0-2.2-1-2.2-2.2V424.6z"/>
			<line class="st5" x1="471.9" y1="422.4" x2="471.9" y2="442.2"/>
			<path class="st3" d="M490.6,455.4c0-1.2,1-2.2,2.2-2.2h19.8v28.6h-19.8c-1.2,0-2.2-1-2.2-2.2V455.4z"/>
			<line class="st4" x1="497.7" y1="453.2" x2="499.9" y2="481.8"/>
			<line class="st4" x1="495.5" y1="453.2" x2="497.7" y2="481.8"/>
			<line class="st4" x1="499.9" y1="453.2" x2="502.1" y2="481.8"/>
			<line class="st4" x1="502.1" y1="453.2" x2="504.3" y2="481.8"/>
			<line class="st4" x1="504.3" y1="453.2" x2="506.5" y2="481.8"/>
			<line class="st4" x1="506.5" y1="453.2" x2="508.7" y2="481.8"/>
			<line class="st4" x1="508.7" y1="453.2" x2="510.9" y2="481.8"/>
			<line class="st4" x1="510.9" y1="453.2" x2="513.1" y2="481.8"/>
			<path class="st5" d="M490.6,455.4c0-1.2,1-2.2,2.2-2.2h19.8v28.6h-19.8c-1.2,0-2.2-1-2.2-2.2V455.4z"/>
			<path class="st6" d="M464.2,459.8c0-1.2,1-2.2,2.2-2.2h24.2v19.8h-24.2c-1.2,0-2.2-1-2.2-2.2V459.8z"/>
			<line class="st5" x1="471.9" y1="457.6" x2="471.9" y2="477.4"/>
			<g class="st7">
				
					<linearGradient id="SVGID_00000164484383362892655100000002702519843337950107_" gradientUnits="userSpaceOnUse" x1="455.4" y1="952.4" x2="384.1728" y2="952.4" gradientTransform="matrix(1 0 0 1 0 -486)">
					<stop  offset="0" style="stop-color:#000000"/>
					<stop  offset="1" style="stop-color:#000000;stop-opacity:0"/>
				</linearGradient>
				<path style="fill:url(#SVGID_00000164484383362892655100000002702519843337950107_);" d="M456.2,467.2c0.4-0.4,0.4-1.1,0-1.6
					l-7-7c-0.4-0.4-1.1-0.4-1.6,0c-0.4,0.4-0.4,1.1,0,1.6l6.2,6.2l-6.2,6.2c-0.4,0.4-0.4,1.1,0,1.6c0.4,0.4,1.1,0.4,1.6,0
					L456.2,467.2z M455.4,465.3H343.2v2.2h112.2V465.3z"/>
			</g>
			<g class="st7">
				<path d="M283.4,467.6H279v7.6h-2.5v-18.8h6.2c2.1,0,3.7,0.5,4.9,1.4c1.1,1,1.7,2.4,1.7,4.2c0,1.2-0.3,2.2-1,3.1
					c-0.6,0.9-1.5,1.5-2.6,1.9l4.4,8v0.2h-2.7L283.4,467.6z M279,465.6h3.8c1.2,0,2.2-0.3,2.9-1c0.7-0.6,1.1-1.5,1.1-2.6
					c0-1.2-0.3-2-1-2.7c-0.7-0.6-1.7-0.9-3-0.9H279V465.6z M298.2,475.5c-1.9,0-3.4-0.6-4.6-1.9c-1.2-1.2-1.8-2.9-1.8-5v-0.4
					c0-1.4,0.3-2.6,0.8-3.7s1.3-1.9,2.2-2.6c1-0.6,2-0.9,3.1-0.9c1.8,0,3.2,0.6,4.2,1.8c1,1.2,1.5,2.9,1.5,5.1v1h-9.4
					c0,1.4,0.4,2.5,1.2,3.3c0.8,0.8,1.8,1.3,2.9,1.3c0.8,0,1.6-0.2,2.1-0.5c0.6-0.3,1.1-0.8,1.5-1.4l1.5,1.1
					C302.3,474.6,300.5,475.5,298.2,475.5z M297.9,463c-1,0-1.8,0.4-2.4,1.1c-0.7,0.7-1.1,1.7-1.2,2.9h7v-0.2
					c-0.1-1.2-0.4-2.1-1-2.8C299.7,463.3,298.9,463,297.9,463z M307.6,475.2v-12.1h-2.2v-1.8h2.2v-1.4c0-1.5,0.4-2.7,1.2-3.5
					c0.8-0.8,1.9-1.2,3.4-1.2c0.5,0,1.1,0.1,1.6,0.2l-0.1,1.9c-0.4-0.1-0.8-0.1-1.3-0.1c-0.8,0-1.4,0.2-1.8,0.7
					c-0.4,0.4-0.6,1.1-0.6,1.9v1.5h3v1.8h-3v12.1H307.6z M324.1,475.2h-1.5v-13.9h1.5V475.2z M322.2,457.2c0-0.3,0.1-0.5,0.3-0.7
					s0.4-0.3,0.8-0.3c0.3,0,0.6,0.1,0.8,0.3c0.2,0.2,0.3,0.4,0.3,0.7c0,0.3-0.1,0.5-0.3,0.7c-0.2,0.2-0.4,0.3-0.8,0.3
					c-0.3,0-0.6-0.1-0.8-0.3C322.3,457.8,322.2,457.5,322.2,457.2z M329.7,461.3l0.1,2.4c0.5-0.9,1.2-1.5,2-2
					c0.8-0.5,1.6-0.7,2.6-0.7c1.5,0,2.6,0.4,3.3,1.3c0.7,0.8,1.1,2.1,1.1,3.8v9.2h-1.6V466c0-1.2-0.3-2.2-0.8-2.8
					c-0.5-0.6-1.3-0.9-2.5-0.9c-1,0-1.8,0.3-2.5,0.9s-1.3,1.4-1.6,2.4v9.6h-1.5v-13.9L329.7,461.3L329.7,461.3z M354,468.4
					c0,2.2-0.5,3.9-1.4,5.2c-1,1.3-2.3,1.9-3.9,1.9c-1.9,0-3.4-0.7-4.4-2v7.1h-1.5v-19.3h1.4l0.1,2c1-1.5,2.5-2.2,4.4-2.2
					c1.7,0,3,0.6,3.9,1.9c1,1.3,1.4,3,1.4,5.3V468.4z M352.4,468.1c0-1.8-0.4-3.2-1.1-4.2c-0.7-1-1.7-1.5-3.1-1.5
					c-0.9,0-1.8,0.2-2.4,0.7c-0.7,0.5-1.2,1.1-1.6,2v6.7c0.4,0.8,0.9,1.4,1.6,1.8c0.7,0.4,1.5,0.6,2.4,0.6c1.3,0,2.3-0.5,3-1.5
					C352.1,471.6,352.4,470.1,352.4,468.1z M366.4,473.4c-0.9,1.4-2.4,2-4.4,2c-1.5,0-2.6-0.4-3.4-1.3c-0.8-0.9-1.2-2.1-1.2-3.8
					v-9.1h1.5v8.9c0,2.7,1.1,4,3.2,4c2.2,0,3.6-0.9,4.2-2.8v-10.1h1.5v13.9h-1.5L366.4,473.4z M374.3,457.7v3.6h2.9v1.3h-2.9v9.3
					c0,0.8,0.1,1.3,0.4,1.7c0.3,0.4,0.8,0.6,1.4,0.6c0.3,0,0.7,0,1.2-0.1l0.1,1.3c-0.4,0.1-1,0.2-1.6,0.2c-1.1,0-1.8-0.3-2.3-0.9
					s-0.7-1.5-0.7-2.7v-9.3h-2.6v-1.3h2.6v-3.6h1.5V457.7z"/>
			</g>
			<path class="st1" d="M511.5,105.6v490.6h5.5v-74.8h4.4l9.9-9.9V150.7l-5.3-5.3l-1.2-1.2l-2.3-2.3l-0.1-0.1h-1.1
				c-1.8,0-3.3-1.5-3.3-3.3v-35.2c0-3.6-3-6.6-6.6-6.6h-53.9v6.6h51.7C510.5,103.4,511.5,104.4,511.5,105.6z"/>
			<path d="M511.5,596.2h-1.1c0,0.6,0.5,1.1,1.1,1.1V596.2z M457.6,103.4h-1.1c0,0.6,0.5,1.1,1.1,1.1V103.4z M457.6,96.8v-1.1
				c-0.6,0-1.1,0.5-1.1,1.1H457.6z M531.3,150.7h1.1c0-0.3-0.1-0.6-0.3-0.8L531.3,150.7z M531.3,511.5l0.8,0.8
				c0.2-0.2,0.3-0.5,0.3-0.8H531.3z M521.4,521.4v1.1c0.3,0,0.6-0.1,0.8-0.3L521.4,521.4z M517,521.4v-1.1c-0.6,0-1.1,0.5-1.1,1.1
				H517z M517,596.2v1.1c0.6,0,1.1-0.5,1.1-1.1H517z M522.5,141.9l0.8-0.8c-0.2-0.2-0.5-0.3-0.8-0.3V141.9z M512.6,596.2V105.6h-2.2
				v490.6H512.6z M509.3,102.3h-51.7v2.2h51.7V102.3z M458.7,103.4v-6.6h-2.2v6.6H458.7z M530.2,150.7v360.8h2.2V150.7H530.2z
				 M530.5,510.7l-9.9,9.9l1.6,1.6l9.9-9.9L530.5,510.7z M521.4,520.3H517v2.2h4.4V520.3z M515.9,521.4v74.8h2.2v-74.8H515.9
				L515.9,521.4z M517,595.1h-5.5v2.2h5.5V595.1z M517,103.4v35.2h2.2v-35.2H517z M457.6,97.9h53.9v-2.2h-53.9V97.9z M521.7,142.7
				L521.7,142.7l1.6-1.5l-0.1-0.1L521.7,142.7z M521.8,142.8l2.3,2.3l1.6-1.6l-2.3-2.3L521.8,142.8z M524.1,145l1.2,1.2l1.6-1.6
				l-1.2-1.2L524.1,145z M525.2,146.2l5.3,5.3l1.6-1.6l-5.3-5.3L525.2,146.2z M521.4,143h1.1v-2.2h-1.1V143z M517,138.6
				c0,2.4,2,4.4,4.4,4.4v-2.2c-1.2,0-2.2-1-2.2-2.2C519.2,138.6,517,138.6,517,138.6z M519.2,103.4c0-4.3-3.4-7.7-7.7-7.7v2.2
				c3,0,5.5,2.5,5.5,5.5H519.2z M512.6,105.6c0-1.8-1.5-3.3-3.3-3.3v2.2c0.6,0,1.1,0.5,1.1,1.1C510.4,105.6,512.6,105.6,512.6,105.6
				z"/>
			
				<linearGradient id="SVGID_00000082337538130872033790000005993864966932149891_" gradientUnits="userSpaceOnUse" x1="836" y1="1018.9302" x2="836" y2="994.5036" gradientTransform="matrix(1 0 0 1 0 -486)">
				<stop  offset="0" style="stop-color:#AFAFAF"/>
				<stop  offset="1" style="stop-color:#C2C2C2;stop-opacity:0"/>
			</linearGradient>
			<path style="fill:url(#SVGID_00000082337538130872033790000005993864966932149891_);" d="M902,547.8V517H770v30.8H902z"/>
			
				<linearGradient id="SVGID_00000075136412894509893680000012960702822119626144_" gradientUnits="userSpaceOnUse" x1="731.5" y1="1018.9302" x2="731.5" y2="994.5036" gradientTransform="matrix(1 0 0 1 0 -486)">
				<stop  offset="0" style="stop-color:#AFAFAF"/>
				<stop  offset="1" style="stop-color:#C2C2C2;stop-opacity:0"/>
			</linearGradient>
			<path style="fill:url(#SVGID_00000075136412894509893680000012960702822119626144_);" d="M750.2,547.8V517h-37.4v30.8H750.2z"/>
			<path d="M165,420l1.4,0.9c-0.8,1.1-1.2,2.3-1.2,3.5v1.8h-2.4v-1.5c0-0.9,0.2-1.7,0.6-2.6C163.8,421.2,164.4,420.5,165,420z
				 M169.1,420l1.4,0.9c-0.8,1.1-1.2,2.3-1.2,3.5v1.8h-2.4v-1.5c0-0.9,0.2-1.7,0.6-2.6C167.9,421.2,168.4,420.5,169.1,420z
				 M186.8,434c-0.2,2-1,3.5-2.2,4.6s-2.9,1.6-4.9,1.6c-2.2,0-4-0.8-5.3-2.4s-2-3.7-2-6.4v-1.8c0-1.7,0.3-3.3,0.9-4.6
				c0.6-1.3,1.5-2.3,2.7-3c1.1-0.7,2.5-1.1,4-1.1c2,0,3.6,0.6,4.8,1.7c1.2,1.1,1.9,2.6,2.1,4.6h-2.5c-0.2-1.5-0.7-2.6-1.4-3.2
				c-0.7-0.7-1.7-1-3-1c-1.6,0-2.8,0.6-3.7,1.8c-0.9,1.2-1.3,2.8-1.3,5v1.8c0,2,0.4,3.7,1.3,4.9c0.9,1.2,2,1.8,3.6,1.8
				c1.4,0,2.4-0.3,3.2-0.9c0.7-0.6,1.2-1.7,1.5-3.3L186.8,434L186.8,434z M192.4,440H190v-19.8h2.4V440z M202,440.3
				c-1.9,0-3.4-0.6-4.6-1.9c-1.2-1.2-1.8-2.9-1.8-5V433c0-1.4,0.3-2.6,0.8-3.7s1.3-1.9,2.2-2.6c1-0.6,2-0.9,3.1-0.9
				c1.8,0,3.2,0.6,4.2,1.8c1,1.2,1.5,2.9,1.5,5.1v1H198c0,1.4,0.4,2.5,1.2,3.3s1.8,1.3,2.9,1.3c0.8,0,1.6-0.2,2.1-0.5
				c0.6-0.3,1.1-0.8,1.5-1.4l1.5,1.1C206.1,439.4,204.3,440.3,202,440.3z M201.7,427.8c-1,0-1.8,0.4-2.4,1.1
				c-0.7,0.7-1.1,1.7-1.2,2.9h7v-0.2c-0.1-1.2-0.4-2.1-1-2.8C203.5,428.1,202.7,427.8,201.7,427.8z M218.8,440
				c-0.1-0.3-0.2-0.8-0.3-1.5c-1.1,1.2-2.4,1.7-4,1.7c-1.4,0-2.5-0.4-3.4-1.2c-0.9-0.8-1.3-1.8-1.3-3c0-1.5,0.5-2.6,1.6-3.4
				c1.1-0.8,2.7-1.2,4.7-1.2h2.3v-1.1c0-0.8-0.2-1.5-0.7-2s-1.2-0.7-2.2-0.7c-0.9,0-1.6,0.2-2.1,0.6c-0.6,0.4-0.9,1-0.9,1.6h-2.4
				c0-0.7,0.2-1.4,0.7-2c0.5-0.7,1.2-1.2,2-1.5c0.9-0.4,1.8-0.6,2.8-0.6c1.6,0,2.9,0.4,3.8,1.2c0.9,0.8,1.4,1.9,1.4,3.3v6.4
				c0,1.3,0.2,2.3,0.5,3.1v0.2h-2.5V440z M214.9,438.2c0.7,0,1.5-0.2,2.1-0.6c0.7-0.4,1.2-0.9,1.5-1.5v-2.9h-1.9
				c-2.9,0-4.4,0.9-4.4,2.6c0,0.7,0.2,1.3,0.7,1.8C213.4,438,214.1,438.2,214.9,438.2z M226.8,426.1l0.1,1.8c1.1-1.3,2.5-2,4.2-2
				c2.9,0,4.4,1.7,4.5,5v9.2h-2.5v-9.2c0-1-0.2-1.7-0.7-2.2c-0.4-0.5-1.1-0.7-2.1-0.7c-0.8,0-1.5,0.2-2,0.6c-0.6,0.4-1,1-1.4,1.6
				v9.9h-2.4v-13.9L226.8,426.1L226.8,426.1z M238.1,426.5l-1.4-0.9c0.8-1.1,1.2-2.3,1.2-3.5v-1.9h2.4v1.7c0,0.9-0.2,1.7-0.6,2.6
				C239.3,425.3,238.8,426,238.1,426.5z M242.1,426.5l-1.4-0.9c0.8-1.1,1.2-2.3,1.2-3.5v-1.9h2.4v1.7c0,0.9-0.2,1.7-0.6,2.6
				C243.3,425.3,242.7,426,242.1,426.5z M259.7,431.6c-2.1-0.6-3.7-1.4-4.6-2.2c-1-0.9-1.4-2-1.4-3.3c0-1.5,0.6-2.7,1.8-3.7
				c1.2-1,2.7-1.5,4.6-1.5c1.3,0,2.4,0.2,3.4,0.7s1.8,1.2,2.3,2.1c0.6,0.9,0.8,1.8,0.8,2.9h-2.5c0-1.1-0.4-2-1.1-2.7
				c-0.7-0.7-1.7-1-3.1-1c-1.2,0-2.2,0.3-2.9,0.8c-0.7,0.5-1,1.3-1,2.2c0,0.8,0.3,1.4,1,1.9s1.8,1,3.3,1.4c1.6,0.4,2.8,0.9,3.7,1.5
				c0.9,0.5,1.5,1.1,2,1.8c0.4,0.7,0.6,1.5,0.6,2.5c0,1.5-0.6,2.7-1.8,3.7c-1.2,0.9-2.8,1.4-4.8,1.4c-1.3,0-2.5-0.2-3.6-0.7
				s-2-1.2-2.6-2c-0.6-0.9-0.9-1.8-0.9-2.9h2.5c0,1.1,0.4,2,1.2,2.7c0.8,0.7,2,1,3.4,1c1.3,0,2.3-0.3,3-0.8s1-1.3,1-2.2
				c0-0.9-0.3-1.6-1-2.1C262.5,432.6,261.4,432.1,259.7,431.6z M269.8,440v-18.8h5.3c1.6,0,3.1,0.4,4.3,1.1c1.3,0.7,2.2,1.7,2.9,3.1
				c0.7,1.3,1,2.9,1,4.6v1.2c0,1.8-0.3,3.3-1,4.7c-0.7,1.3-1.7,2.4-2.9,3.1c-1.3,0.7-2.7,1.1-4.4,1.1h-5.2V440z M272.3,423.3V438
				h2.6c1.9,0,3.4-0.6,4.4-1.8c1.1-1.2,1.6-2.9,1.6-5.1V430c0-2.1-0.5-3.8-1.5-5s-2.4-1.8-4.3-1.8L272.3,423.3L272.3,423.3z
				 M289.8,440h-2.5v-18.8h2.5V440z M309.1,440h-3.7v-14.4L301,427v-3l7.8-2.8h0.4V440H309.1z M324.1,440h-1.5v-13.9h1.5V440z
				 M322.2,422c0-0.3,0.1-0.5,0.3-0.7c0.2-0.2,0.4-0.3,0.8-0.3c0.3,0,0.6,0.1,0.8,0.3c0.2,0.2,0.3,0.4,0.3,0.7s-0.1,0.5-0.3,0.7
				c-0.2,0.2-0.4,0.3-0.8,0.3c-0.3,0-0.6-0.1-0.8-0.3C322.3,422.6,322.2,422.3,322.2,422z M329.7,426.1l0.1,2.4c0.5-0.9,1.2-1.5,2-2
				c0.8-0.5,1.6-0.7,2.6-0.7c1.5,0,2.6,0.4,3.3,1.3c0.7,0.8,1.1,2.1,1.1,3.8v9.2h-1.6v-9.2c0-1.2-0.3-2.2-0.8-2.8
				c-0.5-0.6-1.3-0.9-2.5-0.9c-1,0-1.8,0.3-2.5,0.9s-1.3,1.4-1.6,2.4v9.6h-1.5v-13.9L329.7,426.1L329.7,426.1z M354,433.2
				c0,2.2-0.5,3.9-1.4,5.2c-1,1.3-2.3,1.9-3.9,1.9c-1.9,0-3.4-0.7-4.4-2v7.1h-1.5v-19.3h1.4l0.1,2c1-1.5,2.5-2.2,4.4-2.2
				c1.7,0,3,0.6,3.9,1.9c1,1.3,1.4,3,1.4,5.3V433.2z M352.4,432.9c0-1.8-0.4-3.2-1.1-4.2c-0.7-1-1.7-1.5-3.1-1.5
				c-0.9,0-1.8,0.2-2.4,0.7c-0.7,0.5-1.2,1.1-1.6,2v6.7c0.4,0.8,0.9,1.4,1.6,1.8c0.7,0.4,1.5,0.6,2.4,0.6c1.3,0,2.3-0.5,3-1.5
				C352.1,436.4,352.4,434.9,352.4,432.9z M366.4,438.2c-0.9,1.4-2.4,2-4.4,2c-1.5,0-2.6-0.4-3.4-1.3c-0.8-0.9-1.2-2.1-1.2-3.8V426
				h1.5v8.9c0,2.7,1.1,4,3.2,4c2.2,0,3.6-0.9,4.2-2.8V426h1.5v14h-1.5L366.4,438.2z M374.3,422.5v3.6h2.9v1.3h-2.9v9.3
				c0,0.8,0.1,1.3,0.4,1.7c0.3,0.4,0.8,0.6,1.4,0.6c0.3,0,0.7,0,1.2-0.1l0.1,1.3c-0.4,0.1-1,0.2-1.6,0.2c-1.1,0-1.8-0.3-2.3-0.9
				s-0.7-1.5-0.7-2.7v-9.3h-2.6v-1.3h2.6v-3.6h1.5V422.5z"/>
			<path d="M259.5,361.2c-2.1-0.6-3.7-1.4-4.6-2.2c-1-0.9-1.4-2-1.4-3.3c0-1.5,0.6-2.7,1.8-3.7c1.2-1,2.7-1.5,4.6-1.5
				c1.3,0,2.4,0.2,3.4,0.7s1.8,1.2,2.3,2.1c0.6,0.9,0.8,1.8,0.8,2.9h-2.5c0-1.1-0.4-2-1.1-2.7c-0.7-0.7-1.7-1-3.1-1
				c-1.2,0-2.2,0.3-2.9,0.8c-0.7,0.5-1,1.3-1,2.2c0,0.8,0.3,1.4,1,1.9c0.7,0.5,1.8,1,3.3,1.4c1.6,0.4,2.8,0.9,3.7,1.5
				c0.9,0.5,1.5,1.1,2,1.8c0.4,0.7,0.6,1.5,0.6,2.5c0,1.5-0.6,2.7-1.8,3.7c-1.2,0.9-2.8,1.4-4.8,1.4c-1.3,0-2.5-0.2-3.6-0.7
				c-1.1-0.5-2-1.2-2.6-2c-0.6-0.9-0.9-1.8-0.9-2.9h2.5c0,1.1,0.4,2,1.2,2.7c0.8,0.7,2,1,3.4,1c1.3,0,2.3-0.3,3-0.8
				c0.7-0.5,1-1.3,1-2.2s-0.3-1.6-1-2.1C262.4,362.2,261.2,361.7,259.5,361.2z M269.7,369.6v-18.8h5.3c1.6,0,3.1,0.4,4.3,1.1
				c1.3,0.7,2.2,1.7,2.9,3.1c0.7,1.3,1,2.9,1,4.6v1.2c0,1.8-0.3,3.3-1,4.7c-0.7,1.3-1.7,2.4-2.9,3.1c-1.3,0.7-2.7,1.1-4.4,1.1h-5.2
				V369.6z M272.1,352.9v14.7h2.6c1.9,0,3.4-0.6,4.4-1.8c1.1-1.2,1.6-2.9,1.6-5.1v-1.1c0-2.1-0.5-3.8-1.5-5s-2.4-1.8-4.3-1.8h-2.8
				V352.9z M289.6,369.6h-2.4v-18.8h2.5v18.8H289.6z M303.6,358.6h2c0.9,0,1.6-0.2,2.1-0.7s0.7-1.1,0.7-1.9s-0.2-1.3-0.7-1.8
				c-0.4-0.4-1.1-0.6-1.9-0.6c-0.7,0-1.3,0.2-1.8,0.6c-0.5,0.4-0.7,0.9-0.7,1.5h-3.7c0-1,0.3-1.9,0.8-2.6c0.5-0.8,1.3-1.4,2.2-1.8
				c1-0.4,2-0.7,3.1-0.7c2,0,3.5,0.5,4.7,1.4c1.1,0.9,1.7,2.3,1.7,3.9c0,0.9-0.3,1.7-0.8,2.4s-1.2,1.3-2.1,1.7
				c1.1,0.4,1.8,0.9,2.4,1.7c0.5,0.8,0.8,1.6,0.8,2.7c0,1.7-0.6,3-1.8,4c-1.2,1-2.8,1.5-4.8,1.5c-1.9,0-3.4-0.5-4.6-1.5
				c-1.2-1-1.8-2.3-1.8-3.9h3.7c0,0.7,0.3,1.3,0.8,1.7s1.2,0.7,2,0.7c0.9,0,1.6-0.2,2.1-0.7s0.8-1.1,0.8-1.9c0-1.9-1-2.8-3.1-2.8h-2
				L303.6,358.6L303.6,358.6z M324.1,369.6h-1.5v-13.9h1.5V369.6z M322.2,351.6c0-0.3,0.1-0.5,0.3-0.7c0.2-0.2,0.4-0.3,0.8-0.3
				c0.3,0,0.6,0.1,0.8,0.3c0.2,0.2,0.3,0.4,0.3,0.7s-0.1,0.5-0.3,0.7c-0.2,0.2-0.4,0.3-0.8,0.3c-0.3,0-0.6-0.1-0.8-0.3
				C322.3,352.2,322.2,351.9,322.2,351.6z M329.7,355.7l0.1,2.4c0.5-0.9,1.2-1.5,2-2c0.8-0.5,1.6-0.7,2.6-0.7c1.5,0,2.6,0.4,3.3,1.3
				c0.7,0.8,1.1,2.1,1.1,3.8v9.2h-1.6v-9.2c0-1.2-0.3-2.2-0.8-2.8c-0.5-0.6-1.3-0.9-2.5-0.9c-1,0-1.8,0.3-2.5,0.9
				c-0.7,0.6-1.3,1.4-1.6,2.4v9.6h-1.5v-13.9L329.7,355.7L329.7,355.7z M354,362.8c0,2.2-0.5,3.9-1.4,5.2c-1,1.3-2.3,1.9-3.9,1.9
				c-1.9,0-3.4-0.7-4.4-2v7.1h-1.5v-19.3h1.4l0.1,2c1-1.5,2.5-2.2,4.4-2.2c1.7,0,3,0.6,3.9,1.9C353.6,358.7,354,360.4,354,362.8
				L354,362.8z M352.4,362.5c0-1.8-0.4-3.2-1.1-4.2c-0.7-1-1.7-1.5-3.1-1.5c-0.9,0-1.8,0.2-2.4,0.7c-0.7,0.5-1.2,1.1-1.6,2v6.7
				c0.4,0.8,0.9,1.4,1.6,1.8c0.7,0.4,1.5,0.6,2.4,0.6c1.3,0,2.3-0.5,3-1.5C352.1,366,352.4,364.5,352.4,362.5z M366.4,367.8
				c-0.9,1.4-2.4,2-4.4,2c-1.5,0-2.6-0.4-3.4-1.3c-0.8-0.9-1.2-2.1-1.2-3.8v-9.1h1.5v8.9c0,2.7,1.1,4,3.2,4c2.2,0,3.6-0.9,4.2-2.8
				v-10.1h1.5v13.9h-1.5L366.4,367.8z M374.3,352.1v3.6h2.9v1.3h-2.9v9.3c0,0.8,0.1,1.3,0.4,1.7c0.3,0.4,0.8,0.6,1.4,0.6
				c0.3,0,0.7,0,1.2-0.1l0.1,1.3c-0.4,0.1-1,0.2-1.6,0.2c-1.1,0-1.8-0.3-2.3-0.9c-0.5-0.6-0.7-1.5-0.7-2.7v-9.3h-2.6v-1.3h2.6v-3.6
				h1.5V352.1z"/>
			<path d="M259.5,185.2c-2.1-0.6-3.7-1.4-4.6-2.2c-1-0.9-1.4-2-1.4-3.3c0-1.5,0.6-2.7,1.8-3.7c1.2-1,2.7-1.5,4.6-1.5
				c1.3,0,2.4,0.2,3.4,0.7s1.8,1.2,2.3,2.1c0.6,0.9,0.8,1.8,0.8,2.9h-2.5c0-1.1-0.4-2-1.1-2.7c-0.7-0.7-1.7-1-3.1-1
				c-1.2,0-2.2,0.3-2.9,0.8c-0.7,0.5-1,1.3-1,2.2c0,0.8,0.3,1.4,1,1.9c0.7,0.5,1.8,1,3.3,1.4c1.6,0.4,2.8,0.9,3.7,1.5
				c0.9,0.5,1.5,1.1,2,1.8c0.4,0.7,0.6,1.5,0.6,2.5c0,1.5-0.6,2.7-1.8,3.7c-1.2,0.9-2.8,1.4-4.8,1.4c-1.3,0-2.5-0.2-3.6-0.7
				c-1.1-0.5-2-1.2-2.6-2c-0.6-0.9-0.9-1.8-0.9-2.9h2.5c0,1.1,0.4,2,1.2,2.7c0.8,0.7,2,1,3.4,1c1.3,0,2.3-0.3,3-0.8
				c0.7-0.5,1-1.3,1-2.2c0-0.9-0.3-1.6-1-2.1C262.4,186.2,261.2,185.7,259.5,185.2z M269.7,193.6v-18.8h5.3c1.6,0,3.1,0.4,4.3,1.1
				c1.3,0.7,2.2,1.7,2.9,3.1c0.7,1.3,1,2.9,1,4.6v1.2c0,1.8-0.3,3.3-1,4.7c-0.7,1.3-1.7,2.4-2.9,3.1c-1.3,0.7-2.7,1.1-4.4,1.1
				L269.7,193.6L269.7,193.6z M272.1,176.9v14.7h2.6c1.9,0,3.4-0.6,4.4-1.8c1.1-1.2,1.6-2.9,1.6-5.1v-1.1c0-2.1-0.5-3.8-1.5-5
				c-1-1.2-2.4-1.8-4.3-1.8L272.1,176.9L272.1,176.9z M289.6,193.6h-2.4v-18.8h2.5v18.8H289.6z M312.1,179.8c0,0.9-0.2,1.7-0.7,2.4
				s-1.1,1.3-1.9,1.7c0.9,0.4,1.6,1,2.2,1.8c0.5,0.8,0.8,1.7,0.8,2.7c0,1.7-0.6,3-1.7,4c-1.1,1-2.7,1.4-4.6,1.4
				c-2,0-3.5-0.5-4.6-1.5s-1.7-2.3-1.7-3.9c0-1,0.3-1.9,0.8-2.7s1.2-1.4,2.2-1.8c-0.8-0.4-1.4-1-1.9-1.7c-0.4-0.7-0.7-1.5-0.7-2.4
				c0-1.6,0.5-2.9,1.6-3.8c1.1-1,2.5-1.4,4.3-1.4s3.3,0.5,4.3,1.4C311.6,176.9,312.1,178.2,312.1,179.8z M308.8,188.2
				c0-0.8-0.2-1.5-0.7-2s-1.1-0.7-1.9-0.7c-0.8,0-1.4,0.2-1.9,0.7s-0.7,1.1-0.7,2c0,0.8,0.2,1.4,0.7,1.9s1.1,0.7,1.9,0.7
				c0.8,0,1.4-0.2,1.9-0.7C308.5,189.7,308.8,189,308.8,188.2z M308.4,180c0-0.7-0.2-1.3-0.6-1.8c-0.4-0.4-0.9-0.7-1.6-0.7
				c-0.7,0-1.2,0.2-1.6,0.6c-0.4,0.4-0.6,1-0.6,1.8c0,0.7,0.2,1.3,0.6,1.8s0.9,0.7,1.6,0.7c0.7,0,1.2-0.2,1.6-0.7
				C308.2,181.3,308.4,180.7,308.4,180z M324.1,193.6h-1.5v-13.9h1.5V193.6z M322.2,175.6c0-0.3,0.1-0.5,0.3-0.7
				c0.2-0.2,0.4-0.3,0.8-0.3c0.3,0,0.6,0.1,0.8,0.3c0.2,0.2,0.3,0.4,0.3,0.7c0,0.3-0.1,0.5-0.3,0.7c-0.2,0.2-0.4,0.3-0.8,0.3
				c-0.3,0-0.6-0.1-0.8-0.3C322.3,176.2,322.2,175.9,322.2,175.6z M329.7,179.7l0.1,2.4c0.5-0.9,1.2-1.5,2-2
				c0.8-0.5,1.6-0.7,2.6-0.7c1.5,0,2.6,0.4,3.3,1.3c0.7,0.8,1.1,2.1,1.1,3.8v9.2h-1.6v-9.2c0-1.2-0.3-2.2-0.8-2.8
				c-0.5-0.6-1.3-0.9-2.5-0.9c-1,0-1.8,0.3-2.5,0.9c-0.7,0.6-1.3,1.4-1.6,2.4v9.6h-1.5v-14H329.7z M354,186.8c0,2.2-0.5,3.9-1.4,5.2
				c-1,1.3-2.3,1.9-3.9,1.9c-1.9,0-3.4-0.7-4.4-2v7.1h-1.5v-19.3h1.4l0.1,2c1-1.5,2.5-2.2,4.4-2.2c1.7,0,3,0.6,3.9,1.9
				c1,1.3,1.4,3,1.4,5.3V186.8z M352.4,186.5c0-1.8-0.4-3.2-1.1-4.2c-0.7-1-1.7-1.5-3.1-1.5c-0.9,0-1.8,0.2-2.4,0.7
				c-0.7,0.5-1.2,1.1-1.6,2v6.7c0.4,0.8,0.9,1.4,1.6,1.8c0.7,0.4,1.5,0.6,2.4,0.6c1.3,0,2.3-0.5,3-1.5
				C352.1,190,352.4,188.5,352.4,186.5z M366.4,191.8c-0.9,1.3-2.4,2-4.4,2c-1.5,0-2.6-0.4-3.4-1.3c-0.8-0.9-1.2-2.1-1.2-3.8v-9.1
				h1.5v8.9c0,2.7,1.1,4,3.2,4c2.2,0,3.6-0.9,4.2-2.8v-10h1.5v13.9h-1.5L366.4,191.8z M374.3,176.1v3.6h2.9v1.3h-2.9v9.3
				c0,0.8,0.1,1.3,0.4,1.7s0.8,0.6,1.4,0.6c0.3,0,0.7,0,1.2-0.1l0.1,1.3c-0.4,0.1-1,0.2-1.6,0.2c-1.1,0-1.8-0.3-2.3-0.9
				c-0.5-0.6-0.7-1.5-0.7-2.7v-9.3h-2.6v-1.3h2.6v-3.7H374.3z"/>
			<path d="M242.2,220.4c-2.1-0.6-3.7-1.4-4.6-2.2c-1-0.9-1.4-2-1.4-3.3c0-1.5,0.6-2.7,1.8-3.7s2.7-1.5,4.6-1.5
				c1.3,0,2.4,0.2,3.4,0.7s1.8,1.2,2.3,2.1c0.6,0.9,0.8,1.8,0.8,2.9h-2.5c0-1.1-0.4-2-1.1-2.7c-0.7-0.7-1.7-1-3.1-1
				c-1.2,0-2.2,0.3-2.9,0.8c-0.7,0.5-1,1.3-1,2.2c0,0.8,0.3,1.4,1,1.9c0.7,0.5,1.8,1,3.3,1.4c1.6,0.4,2.8,0.9,3.7,1.5
				c0.9,0.5,1.5,1.1,2,1.8c0.4,0.7,0.6,1.5,0.6,2.5c0,1.5-0.6,2.7-1.8,3.7c-1.2,0.9-2.8,1.4-4.8,1.4c-1.3,0-2.5-0.2-3.6-0.7
				s-2-1.2-2.6-2c-0.6-0.9-0.9-1.8-0.9-2.9h2.5c0,1.1,0.4,2,1.2,2.7c0.8,0.7,2,1,3.4,1c1.3,0,2.3-0.3,3-0.8s1-1.3,1-2.2
				c0-0.9-0.3-1.6-1-2.1C245,221.4,243.9,220.9,242.2,220.4z M252.3,228.8V210h5.3c1.6,0,3.1,0.4,4.3,1.1c1.3,0.7,2.2,1.7,2.9,3.1
				c0.7,1.3,1,2.9,1,4.6v1.2c0,1.8-0.3,3.3-1,4.7c-0.6,1.3-1.6,2.3-2.9,3c-1.3,0.7-2.7,1.1-4.4,1.1H252.3z M254.8,212.1v14.7h2.6
				c1.9,0,3.4-0.6,4.4-1.8c1.1-1.2,1.6-2.9,1.6-5.1v-1.1c0-2.1-0.5-3.8-1.5-5s-2.4-1.8-4.3-1.8h-2.8V212.1z M272.3,228.8h-2.5V210
				h2.5V228.8z M295.3,212.1l-7.3,16.7h-3.9l7.3-15.8h-9.3v-3h13.3v2.1H295.3z M304.1,221.6c0-1.3,0.3-2.5,0.8-3.6s1.3-1.9,2.2-2.5
				c1-0.6,2-0.9,3.2-0.9c1.9,0,3.4,0.7,4.5,2c1.2,1.3,1.7,3,1.7,5.2v0.2c0,1.3-0.3,2.6-0.8,3.6c-0.5,1.1-1.2,1.9-2.2,2.5
				c-0.9,0.6-2,0.9-3.2,0.9c-1.8,0-3.4-0.6-4.5-1.9c-1.2-1.3-1.7-3-1.7-5.2V221.6z M305.7,222c0,1.7,0.4,3,1.3,4.1
				c0.9,1.1,2,1.6,3.4,1.6s2.5-0.5,3.4-1.6c0.9-1.1,1.3-2.5,1.3-4.2v-0.3c0-1.1-0.2-2-0.6-2.9c-0.4-0.9-1-1.6-1.7-2
				c-0.7-0.5-1.5-0.7-2.5-0.7c-1.4,0-2.5,0.5-3.4,1.6c-0.9,1.1-1.3,2.5-1.3,4.2v0.2H305.7z M328.7,227c-0.9,1.4-2.4,2-4.4,2
				c-1.5,0-2.6-0.4-3.4-1.3c-0.8-0.9-1.2-2.1-1.2-3.8v-9.1h1.5v8.9c0,2.7,1.1,4,3.2,4c2.2,0,3.6-0.9,4.2-2.8v-10h1.5v13.9h-1.5
				L328.7,227z M336.7,211.3v3.6h2.9v1.3h-2.9v9.3c0,0.8,0.1,1.3,0.4,1.7c0.3,0.4,0.8,0.6,1.4,0.6c0.3,0,0.7,0,1.3-0.1l0.1,1.3
				c-0.4,0.1-1,0.2-1.6,0.2c-1.1,0-1.8-0.3-2.3-0.9c-0.5-0.6-0.7-1.5-0.7-2.7v-9.3h-2.6V215h2.6v-3.6L336.7,211.3L336.7,211.3z
				 M354,222c0,2.2-0.5,3.9-1.4,5.2c-1,1.3-2.3,1.9-3.9,1.9c-1.9,0-3.4-0.7-4.4-2v7.1h-1.5v-19.3h1.4l0.1,2c1-1.5,2.5-2.2,4.4-2.2
				c1.7,0,3,0.6,3.9,1.9c1,1.3,1.4,3,1.4,5.3V222z M352.4,221.7c0-1.8-0.4-3.2-1.1-4.2c-0.7-1-1.7-1.5-3.1-1.5
				c-0.9,0-1.8,0.2-2.4,0.7c-0.7,0.5-1.2,1.1-1.6,2v6.7c0.4,0.8,0.9,1.4,1.6,1.8c0.7,0.4,1.5,0.6,2.4,0.6c1.3,0,2.3-0.5,3-1.5
				C352.1,225.2,352.4,223.7,352.4,221.7z M366.4,227c-0.9,1.4-2.4,2-4.4,2c-1.5,0-2.6-0.4-3.4-1.3c-0.8-0.9-1.2-2.1-1.2-3.8v-9.1
				h1.5v8.9c0,2.7,1.1,4,3.2,4c2.2,0,3.6-0.9,4.2-2.8v-10h1.5v13.9h-1.5L366.4,227z M374.3,211.3v3.6h2.9v1.3h-2.9v9.3
				c0,0.8,0.1,1.3,0.4,1.7s0.8,0.6,1.4,0.6c0.3,0,0.7,0,1.2-0.1l0.1,1.3c-0.4,0.1-1,0.2-1.6,0.2c-1.1,0-1.8-0.3-2.3-0.9
				c-0.5-0.6-0.7-1.5-0.7-2.7v-9.3h-2.6V215h2.6v-3.6L374.3,211.3L374.3,211.3z"/>
			<path d="M102.2,384.8l1.4,0.9c-0.8,1.1-1.2,2.3-1.2,3.5v1.8H100v-1.5c0-0.9,0.2-1.7,0.6-2.6C101,386,101.5,385.3,102.2,384.8z
				 M106.2,384.8l1.4,0.9c-0.8,1.1-1.2,2.3-1.2,3.5v1.8H104v-1.5c0-0.9,0.2-1.7,0.6-2.6S105.6,385.3,106.2,384.8z M110.1,404.8V386
				h5.3c1.6,0,3.1,0.4,4.3,1.1s2.2,1.7,2.9,3.1c0.7,1.3,1,2.9,1,4.6v1.2c0,1.8-0.3,3.3-1,4.7c-0.7,1.3-1.7,2.4-2.9,3.1
				c-1.3,0.7-2.7,1.1-4.4,1.1h-5.2V404.8z M112.6,388.1v14.7h2.6c1.9,0,3.4-0.6,4.4-1.8c1.1-1.2,1.6-2.9,1.6-5.1v-1.1
				c0-2.1-0.5-3.8-1.5-5s-2.4-1.8-4.3-1.8h-2.8V388.1z M129.6,404.8h-2.4v-13.9h2.4V404.8z M127.1,387.2c0-0.4,0.1-0.7,0.3-1
				c0.2-0.3,0.6-0.4,1.1-0.4s0.8,0.1,1.1,0.4c0.2,0.3,0.4,0.6,0.4,1c0,0.4-0.1,0.7-0.4,1c-0.2,0.3-0.6,0.4-1.1,0.4s-0.8-0.1-1.1-0.4
				C127.2,387.9,127.1,387.5,127.1,387.2z M140.2,393c-0.4-0.1-0.8-0.1-1.2-0.1c-1.6,0-2.6,0.7-3.2,2v9.9h-2.4v-13.9h2.3v1.6
				c0.8-1.2,1.9-1.9,3.3-1.9c0.5,0,0.8,0.1,1.1,0.2L140.2,393L140.2,393z M146.3,387.5v3.4h2.6v1.8h-2.6v8.7c0,0.6,0.1,1,0.3,1.3
				c0.2,0.3,0.6,0.4,1.2,0.4c0.3,0,0.7-0.1,1.1-0.2v1.9c-0.6,0.2-1.2,0.3-1.8,0.3c-1.1,0-1.9-0.3-2.4-1c-0.5-0.6-0.8-1.6-0.8-2.7
				v-8.7h-2.5v-1.8h2.5v-3.4H146.3z M156.3,401.3l3.2-10.5h2.6l-5.6,16.1c-0.9,2.3-2.2,3.5-4.1,3.5h-0.5l-0.9-0.2v-1.9l0.6,0.1
				c0.8,0,1.4-0.2,1.9-0.5s0.8-0.9,1.1-1.8l0.5-1.4l-5-13.8h2.6L156.3,401.3z M164.7,391.3l-1.4-0.9c0.8-1.1,1.2-2.3,1.2-3.5V385
				h2.4v1.7c0,0.9-0.2,1.7-0.6,2.6C165.9,390.1,165.4,390.8,164.7,391.3z M168.7,391.3l-1.4-0.9c0.8-1.1,1.2-2.3,1.2-3.5V385h2.4
				v1.7c0,0.9-0.2,1.7-0.6,2.6C169.9,390.1,169.3,390.8,168.7,391.3z M186.3,396.4c-2.1-0.6-3.7-1.4-4.6-2.2c-1-0.9-1.4-2-1.4-3.3
				c0-1.5,0.6-2.7,1.8-3.7s2.7-1.5,4.6-1.5c1.3,0,2.4,0.2,3.4,0.7s1.8,1.2,2.3,2.1c0.6,0.9,0.8,1.8,0.8,2.9h-2.5
				c0-1.1-0.4-2-1.1-2.7c-0.7-0.7-1.7-1-3.1-1c-1.2,0-2.2,0.3-2.9,0.8s-1,1.3-1,2.2c0,0.8,0.3,1.4,1,1.9s1.8,1,3.3,1.4
				c1.6,0.4,2.8,0.9,3.7,1.5c0.9,0.5,1.5,1.1,2,1.8c0.4,0.7,0.6,1.5,0.6,2.5c0,1.5-0.6,2.7-1.8,3.7c-1.2,0.9-2.8,1.4-4.8,1.4
				c-1.3,0-2.5-0.2-3.6-0.7c-1.1-0.5-2-1.2-2.6-2c-0.6-0.9-0.9-1.8-0.9-2.9h2.5c0,1.1,0.4,2,1.3,2.7c0.8,0.7,2,1,3.4,1
				c1.3,0,2.3-0.3,3-0.8s1-1.3,1-2.2c0-0.9-0.3-1.6-1-2.1C189.2,397.4,188,396.9,186.3,396.4z M196.4,404.8V386h5.3
				c1.6,0,3.1,0.4,4.3,1.1c1.3,0.7,2.2,1.7,2.9,3.1c0.7,1.3,1,2.9,1,4.6v1.2c0,1.8-0.3,3.3-1,4.7c-0.7,1.3-1.7,2.4-2.9,3.1
				c-1.3,0.7-2.7,1.1-4.4,1.1h-5.2V404.8z M198.9,388.1v14.7h2.6c1.9,0,3.4-0.6,4.4-1.8c1.1-1.2,1.6-2.9,1.6-5.1v-1.1
				c0-2.1-0.5-3.8-1.5-5s-2.4-1.8-4.3-1.8h-2.8V388.1z M216.4,404.8h-2.5V386h2.5V404.8z M239.5,404.8h-12.9v-2.6l6.1-6.5
				c0.8-0.9,1.4-1.7,1.8-2.4c0.4-0.7,0.6-1.3,0.6-1.9c0-0.8-0.2-1.5-0.6-2c-0.4-0.5-1-0.7-1.8-0.7s-1.5,0.3-2,0.9s-0.7,1.3-0.7,2.3
				h-3.7c0-1.1,0.3-2.2,0.8-3.1c0.5-0.9,1.3-1.7,2.3-2.2s2.1-0.8,3.4-0.8c1.9,0,3.4,0.5,4.5,1.4c1.1,0.9,1.6,2.2,1.6,3.9
				c0,0.9-0.2,1.9-0.7,2.8c-0.5,1-1.3,2.1-2.5,3.4l-4.3,4.5h8.1C239.5,401.8,239.5,404.8,239.5,404.8z M249.3,404.8V386h5.2
				c1.5,0,2.9,0.4,4.1,1.1c1.2,0.7,2.2,1.7,2.8,3c0.7,1.3,1,2.8,1,4.5v1.7c0,1.7-0.3,3.2-1,4.5c-0.7,1.3-1.6,2.3-2.9,3
				c-1.2,0.7-2.6,1.1-4.2,1.1h-5V404.8z M250.9,387.4v16.1h3.6c2,0,3.6-0.7,4.8-2c1.2-1.3,1.8-3.1,1.8-5.3v-1.7
				c0-2.2-0.6-3.9-1.8-5.2c-1.2-1.3-2.7-2-4.7-2h-3.7V387.4z M277.2,400.2c0-1-0.4-1.9-1.1-2.5c-0.7-0.6-2.1-1.2-4-1.7
				c-1.9-0.6-3.4-1.1-4.3-1.8c-1.3-0.9-1.9-2.1-1.9-3.6c0-1.4,0.6-2.6,1.8-3.5c1.2-0.9,2.7-1.4,4.5-1.4c1.2,0,2.4,0.2,3.3,0.7
				c1,0.5,1.8,1.2,2.3,2c0.5,0.9,0.8,1.8,0.8,2.9H277c0-1.3-0.4-2.3-1.3-3.1c-0.9-0.8-2.1-1.2-3.5-1.2c-1.4,0-2.6,0.3-3.4,1
				c-0.9,0.6-1.3,1.5-1.3,2.5s0.4,1.7,1.1,2.3c0.8,0.6,2,1.1,3.7,1.6c1.7,0.5,3,0.9,3.8,1.4c0.9,0.5,1.5,1.1,2,1.8
				c0.4,0.7,0.7,1.5,0.7,2.4c0,1.5-0.6,2.7-1.8,3.6c-1.2,0.9-2.7,1.3-4.7,1.3c-1.3,0-2.5-0.2-3.6-0.7c-1.1-0.5-1.9-1.1-2.5-2
				c-0.6-0.9-0.9-1.8-0.9-2.9h1.6c0,1.3,0.5,2.4,1.5,3.1c1,0.8,2.3,1.1,3.9,1.1c1.5,0,2.6-0.3,3.5-1
				C276.8,402.1,277.2,401.3,277.2,400.2z M286.5,395.5l-2.6,2.6v6.7h-1.6V386h1.6v10.1l9.6-10.1h2l-7.9,8.4l8.5,10.4h-1.9
				L286.5,395.5z M304.1,397.6c0-1.3,0.3-2.5,0.8-3.6s1.3-1.9,2.2-2.5c1-0.6,2-0.9,3.2-0.9c1.9,0,3.4,0.7,4.5,2
				c1.2,1.3,1.7,3,1.7,5.2v0.3c0,1.3-0.3,2.6-0.8,3.6c-0.5,1.1-1.2,1.9-2.2,2.5c-0.9,0.6-2,0.9-3.2,0.9c-1.8,0-3.4-0.6-4.5-1.9
				c-1.2-1.3-1.7-3-1.7-5.2V397.6z M305.7,398c0,1.7,0.4,3,1.3,4.1s2,1.6,3.4,1.6s2.5-0.5,3.4-1.6c0.9-1.1,1.3-2.5,1.3-4.2v-0.3
				c0-1.1-0.2-2-0.6-2.9c-0.4-0.9-1-1.6-1.7-2c-0.7-0.5-1.5-0.7-2.5-0.7c-1.4,0-2.5,0.5-3.4,1.6c-0.9,1.1-1.3,2.5-1.3,4.2v0.2H305.7
				z M328.7,403c-0.9,1.4-2.4,2-4.4,2c-1.5,0-2.6-0.4-3.4-1.3c-0.8-0.9-1.2-2.1-1.2-3.8v-9.1h1.5v8.9c0,2.7,1.1,4,3.2,4
				c2.2,0,3.6-0.9,4.2-2.8v-10.1h1.5v13.9h-1.5L328.7,403z M336.7,387.3v3.6h2.9v1.3h-2.9v9.3c0,0.8,0.1,1.3,0.4,1.7
				c0.3,0.4,0.8,0.6,1.4,0.6c0.3,0,0.7,0,1.3-0.1l0.1,1.3c-0.4,0.1-1,0.2-1.6,0.2c-1.1,0-1.8-0.3-2.3-0.9s-0.7-1.5-0.7-2.7v-9.3
				h-2.6V391h2.6v-3.6h1.4V387.3z M354,398c0,2.2-0.5,3.9-1.4,5.2c-1,1.3-2.3,1.9-3.9,1.9c-1.9,0-3.4-0.7-4.4-2v7.1h-1.5v-19.3h1.4
				l0.1,2c1-1.5,2.5-2.2,4.4-2.2c1.7,0,3,0.6,3.9,1.9c1,1.3,1.4,3,1.4,5.3V398z M352.4,397.7c0-1.8-0.4-3.2-1.1-4.2
				c-0.7-1-1.7-1.5-3.1-1.5c-0.9,0-1.8,0.2-2.4,0.7c-0.7,0.5-1.2,1.1-1.6,2v6.7c0.4,0.8,0.9,1.4,1.6,1.8c0.7,0.4,1.5,0.6,2.4,0.6
				c1.3,0,2.3-0.5,3-1.5C352.1,401.2,352.4,399.7,352.4,397.7z M366.4,403c-0.9,1.4-2.4,2-4.4,2c-1.5,0-2.6-0.4-3.4-1.3
				c-0.8-0.9-1.2-2.1-1.2-3.8v-9.1h1.5v8.9c0,2.7,1.1,4,3.2,4c2.2,0,3.6-0.9,4.2-2.8v-10.1h1.5v13.9h-1.5L366.4,403z M374.3,387.3
				v3.6h2.9v1.3h-2.9v9.3c0,0.8,0.1,1.3,0.4,1.7s0.8,0.6,1.4,0.6c0.3,0,0.7,0,1.2-0.1l0.1,1.3c-0.4,0.1-1,0.2-1.6,0.2
				c-1.1,0-1.8-0.3-2.3-0.9s-0.7-1.5-0.7-2.7v-9.3h-2.6V391h2.6v-3.6h1.5V387.3z"/>
			
				<linearGradient id="SVGID_00000093145469730503210410000017721030001654531995_" gradientUnits="userSpaceOnUse" x1="389.4" y1="882" x2="460.6272" y2="882" gradientTransform="matrix(1 0 0 1 0 -486)">
				<stop  offset="0" style="stop-color:#000000"/>
				<stop  offset="1" style="stop-color:#000000;stop-opacity:0"/>
			</linearGradient>
			<path style="fill:url(#SVGID_00000093145469730503210410000017721030001654531995_);" d="M388.6,395.2c-0.4,0.4-0.4,1.1,0,1.6
				l7,7c0.4,0.4,1.1,0.4,1.6,0c0.4-0.4,0.4-1.1,0-1.6L391,396l6.2-6.2c0.4-0.4,0.4-1.1,0-1.6c-0.4-0.4-1.1-0.4-1.6,0L388.6,395.2z
				 M389.4,397.1h112.2v-2.2H389.4V397.1z"/>
			
				<linearGradient id="SVGID_00000119837578340605960310000007174980578786416793_" gradientUnits="userSpaceOnUse" x1="389.4" y1="706" x2="460.6272" y2="706" gradientTransform="matrix(1 0 0 1 0 -486)">
				<stop  offset="0" style="stop-color:#000000"/>
				<stop  offset="1" style="stop-color:#000000;stop-opacity:0"/>
			</linearGradient>
			<path style="fill:url(#SVGID_00000119837578340605960310000007174980578786416793_);" d="M388.6,219.2c-0.4,0.4-0.4,1.1,0,1.6
				l7,7c0.4,0.4,1.1,0.4,1.6,0c0.4-0.4,0.4-1.1,0-1.6L391,220l6.2-6.2c0.4-0.4,0.4-1.1,0-1.6c-0.4-0.4-1.1-0.4-1.6,0L388.6,219.2z
				 M389.4,221.1h112.2v-2.2H389.4V221.1z"/>
			
				<linearGradient id="SVGID_00000147937646699145665480000000174669683617689012_" gradientUnits="userSpaceOnUse" x1="389.4" y1="811.6" x2="460.6272" y2="811.6" gradientTransform="matrix(1 0 0 1 0 -486)">
				<stop  offset="0" style="stop-color:#000000"/>
				<stop  offset="1" style="stop-color:#000000;stop-opacity:0"/>
			</linearGradient>
			<path style="fill:url(#SVGID_00000147937646699145665480000000174669683617689012_);" d="M388.6,324.8c-0.4,0.4-0.4,1.1,0,1.6
				l7,7c0.4,0.4,1.1,0.4,1.6,0c0.4-0.4,0.4-1.1,0-1.6l-6.2-6.2l6.2-6.2c0.4-0.4,0.4-1.1,0-1.6c-0.4-0.4-1.1-0.4-1.6,0L388.6,324.8z
				 M389.4,326.7h112.2v-2.2H389.4V326.7z"/>
			
				<linearGradient id="SVGID_00000033339444788954356670000006178930140036424324_" gradientUnits="userSpaceOnUse" x1="455.4" y1="917.2" x2="384.1728" y2="917.2" gradientTransform="matrix(1 0 0 1 0 -486)">
				<stop  offset="0" style="stop-color:#000000"/>
				<stop  offset="1" style="stop-color:#000000;stop-opacity:0"/>
			</linearGradient>
			<path style="fill:url(#SVGID_00000033339444788954356670000006178930140036424324_);" d="M456.2,432c0.4-0.4,0.4-1.1,0-1.6l-7-7
				c-0.4-0.4-1.1-0.4-1.6,0c-0.4,0.4-0.4,1.1,0,1.6l6.2,6.2l-6.2,6.2c-0.4,0.4-0.4,1.1,0,1.6c0.4,0.4,1.1,0.4,1.6,0L456.2,432z
				 M455.4,430.1H343.2v2.2h112.2V430.1z"/>
			
				<linearGradient id="SVGID_00000106862946023215189040000012519229152932387715_" gradientUnits="userSpaceOnUse" x1="455.4" y1="846.8" x2="384.1728" y2="846.8" gradientTransform="matrix(1 0 0 1 0 -486)">
				<stop  offset="0" style="stop-color:#000000"/>
				<stop  offset="1" style="stop-color:#000000;stop-opacity:0"/>
			</linearGradient>
			<path style="fill:url(#SVGID_00000106862946023215189040000012519229152932387715_);" d="M456.2,361.6c0.4-0.4,0.4-1.1,0-1.6
				l-7-7c-0.4-0.4-1.1-0.4-1.6,0c-0.4,0.4-0.4,1.1,0,1.6l6.2,6.2l-6.2,6.2c-0.4,0.4-0.4,1.1,0,1.6c0.4,0.4,1.1,0.4,1.6,0
				L456.2,361.6z M455.4,359.7H343.2v2.2h112.2V359.7z"/>
			
				<linearGradient id="SVGID_00000031896787614843304220000015895053310127127961_" gradientUnits="userSpaceOnUse" x1="455.4" y1="670.8" x2="384.1728" y2="670.8" gradientTransform="matrix(1 0 0 1 0 -486)">
				<stop  offset="0" style="stop-color:#000000"/>
				<stop  offset="1" style="stop-color:#000000;stop-opacity:0"/>
			</linearGradient>
			<path style="fill:url(#SVGID_00000031896787614843304220000015895053310127127961_);" d="M456.2,185.6c0.4-0.4,0.4-1.1,0-1.6
				l-7-7c-0.4-0.4-1.1-0.4-1.6,0c-0.4,0.4-0.4,1.1,0,1.6l6.2,6.2l-6.2,6.2c-0.4,0.4-0.4,1.1,0,1.6c0.4,0.4,1.1,0.4,1.6,0
				L456.2,185.6z M455.4,183.7H343.2v2.2h112.2V183.7z"/>
			<path d="M242.2,328.2c-2.1-0.6-3.7-1.4-4.6-2.2c-1-0.9-1.4-2-1.4-3.3c0-1.5,0.6-2.7,1.8-3.7s2.7-1.5,4.6-1.5
				c1.3,0,2.4,0.2,3.4,0.7s1.8,1.2,2.3,2.1c0.6,0.9,0.8,1.8,0.8,2.9h-2.5c0-1.1-0.4-2-1.1-2.7c-0.7-0.7-1.7-1-3.1-1
				c-1.2,0-2.2,0.3-2.9,0.8c-0.7,0.5-1,1.3-1,2.2c0,0.8,0.3,1.4,1,1.9c0.7,0.5,1.8,1,3.3,1.4c1.6,0.4,2.8,0.9,3.7,1.5
				c0.9,0.5,1.5,1.1,2,1.8c0.4,0.7,0.6,1.5,0.6,2.5c0,1.5-0.6,2.7-1.8,3.7c-1.2,0.9-2.8,1.4-4.8,1.4c-1.3,0-2.5-0.2-3.6-0.7
				s-2-1.2-2.6-2c-0.6-0.9-0.9-1.8-0.9-2.9h2.5c0,1.1,0.4,2,1.2,2.7s2,1,3.4,1c1.3,0,2.3-0.3,3-0.8s1-1.3,1-2.2s-0.3-1.6-1-2.1
				C245,329.2,243.9,328.7,242.2,328.2z M252.3,336.6v-18.8h5.3c1.6,0,3.1,0.4,4.3,1.1c1.3,0.7,2.2,1.7,2.9,3.1c0.7,1.3,1,2.9,1,4.6
				v1.2c0,1.8-0.3,3.3-1,4.7c-0.7,1.3-1.7,2.4-2.9,3.1c-1.3,0.7-2.7,1.1-4.4,1.1h-5.2V336.6z M254.8,319.9v14.7h2.6
				c1.9,0,3.4-0.6,4.4-1.8c1.1-1.2,1.6-2.9,1.6-5.1v-1.1c0-2.1-0.5-3.8-1.5-5s-2.4-1.8-4.3-1.8h-2.8V319.9z M272.3,336.6h-2.5v-18.8
				h2.5V336.6z M293.5,329.5h2.1v3h-2.1v4.1h-3.7v-4.1h-7.7l-0.2-2.3l7.8-12.4h3.8V329.5z M285.7,329.5h4.2v-6.6l-0.2,0.4
				L285.7,329.5z M304.1,329.4c0-1.3,0.3-2.5,0.8-3.6s1.3-1.9,2.2-2.5c1-0.6,2-0.9,3.2-0.9c1.9,0,3.4,0.7,4.5,2
				c1.2,1.3,1.7,3,1.7,5.2v0.3c0,1.3-0.3,2.6-0.8,3.6c-0.5,1.1-1.2,1.9-2.2,2.5c-0.9,0.6-2,0.9-3.2,0.9c-1.8,0-3.4-0.6-4.5-1.9
				c-1.2-1.3-1.7-3-1.7-5.2V329.4z M305.7,329.8c0,1.7,0.4,3,1.3,4.1c0.9,1.1,2,1.6,3.4,1.6s2.5-0.5,3.4-1.6
				c0.9-1.1,1.3-2.5,1.3-4.2v-0.3c0-1.1-0.2-2-0.6-2.9c-0.4-0.9-1-1.6-1.7-2c-0.7-0.5-1.5-0.7-2.5-0.7c-1.4,0-2.5,0.5-3.4,1.6
				c-0.9,1.1-1.3,2.5-1.3,4.2v0.2H305.7z M328.7,334.8c-0.9,1.4-2.4,2-4.4,2c-1.5,0-2.6-0.4-3.4-1.3c-0.8-0.9-1.2-2.1-1.2-3.8v-9.1
				h1.5v8.9c0,2.7,1.1,4,3.2,4c2.2,0,3.6-0.9,4.2-2.8v-10.1h1.5v13.9h-1.5L328.7,334.8z M336.7,319.1v3.6h2.9v1.3h-2.9v9.3
				c0,0.8,0.1,1.3,0.4,1.7c0.3,0.4,0.8,0.6,1.4,0.6c0.3,0,0.7,0,1.3-0.1l0.1,1.3c-0.4,0.1-1,0.2-1.6,0.2c-1.1,0-1.8-0.3-2.3-0.9
				c-0.5-0.6-0.7-1.5-0.7-2.7v-9.3h-2.6v-1.3h2.6v-3.6h1.4V319.1z M354,329.8c0,2.2-0.5,3.9-1.4,5.2c-1,1.3-2.3,1.9-3.9,1.9
				c-1.9,0-3.4-0.7-4.4-2v7.1h-1.5v-19.3h1.4l0.1,2c1-1.5,2.5-2.2,4.4-2.2c1.7,0,3,0.6,3.9,1.9C353.6,325.7,354,327.4,354,329.8
				L354,329.8z M352.4,329.5c0-1.8-0.4-3.2-1.1-4.2c-0.7-1-1.7-1.5-3.1-1.5c-0.9,0-1.8,0.2-2.4,0.7c-0.7,0.5-1.2,1.1-1.6,2v6.7
				c0.4,0.8,0.9,1.4,1.6,1.8c0.7,0.4,1.5,0.6,2.4,0.6c1.3,0,2.3-0.5,3-1.5C352.1,333,352.4,331.5,352.4,329.5z M366.4,334.8
				c-0.9,1.4-2.4,2-4.4,2c-1.5,0-2.6-0.4-3.4-1.3c-0.8-0.9-1.2-2.1-1.2-3.8v-9.1h1.5v8.9c0,2.7,1.1,4,3.2,4c2.2,0,3.6-0.9,4.2-2.8
				v-10.1h1.5v13.9h-1.5L366.4,334.8z M374.3,319.1v3.6h2.9v1.3h-2.9v9.3c0,0.8,0.1,1.3,0.4,1.7c0.3,0.4,0.8,0.6,1.4,0.6
				c0.3,0,0.7,0,1.2-0.1l0.1,1.3c-0.4,0.1-1,0.2-1.6,0.2c-1.1,0-1.8-0.3-2.3-0.9c-0.5-0.6-0.7-1.5-0.7-2.7v-9.3h-2.6v-1.3h2.6v-3.6
				h1.5V319.1z"/>
			<path class="st17" d="M532.4,242h112.2c3.6,0,6.6,3,6.6,6.6V264c0,3.6-3,6.6-6.6,6.6H532.4V242z"/>
			<path class="st17" d="M532.4,277.2h112.2c3.6,0,6.6,3,6.6,6.6v15.4c0,3.6-3,6.6-6.6,6.6H532.4V277.2z"/>
			<path class="st17" d="M539,242h246.4c3.6,0,6.6,3,6.6,6.6v50.6c0,3.6-3,6.6-6.6,6.6H539V242z"/>
			<path class="st1" d="M549.8,281.6v-17.2h4.9c1.5,0,2.8,0.3,4,1c1.2,0.7,2,1.6,2.7,2.8c0.6,1.2,1,2.6,1,4.2v1.1
				c0,1.6-0.3,3-0.9,4.3c-0.6,1.2-1.5,2.2-2.7,2.8c-1.2,0.7-2.5,1-4.1,1C554.7,281.6,549.8,281.6,549.8,281.6z M552.1,266.3v13.5
				h2.4c1.7,0,3.1-0.5,4.1-1.6c1-1.1,1.5-2.6,1.5-4.6v-1c0-2-0.5-3.5-1.4-4.5c-0.9-1.1-2.2-1.6-3.9-1.7h-2.7V266.3z M570.6,281.8
				c-1.7,0-3.1-0.6-4.2-1.7c-1.1-1.1-1.6-2.7-1.6-4.6v-0.4c0-1.3,0.2-2.4,0.7-3.4s1.2-1.8,2-2.3c0.9-0.6,1.8-0.9,2.8-0.9
				c1.7,0,3,0.5,3.9,1.6c0.9,1.1,1.4,2.7,1.4,4.7v0.9h-8.7c0,1.3,0.4,2.3,1.1,3.1c0.7,0.8,1.6,1.2,2.7,1.2c0.8,0,1.4-0.2,2-0.5
				c0.5-0.3,1-0.7,1.4-1.3l1.3,1C574.4,281,572.8,281.8,570.6,281.8z M570.4,270.4c-0.9,0-1.6,0.3-2.2,1c-0.6,0.6-1,1.5-1.1,2.7h6.4
				v-0.2c-0.1-1.1-0.4-2-0.9-2.6C572,270.7,571.3,270.4,570.4,270.4z M582.2,278.6l3.2-9.8h2.2l-4.6,12.8h-1.7l-4.6-12.8h2.2
				L582.2,278.6z M592.1,281.6h-2.2v-12.8h2.2V281.6z M589.7,265.4c0-0.4,0.1-0.7,0.3-0.9s0.5-0.4,1-0.4c0.4,0,0.8,0.1,1,0.4
				c0.2,0.2,0.3,0.5,0.3,0.9s-0.1,0.6-0.3,0.9c-0.2,0.2-0.5,0.4-1,0.4c-0.4,0-0.7-0.1-1-0.4C589.8,266.1,589.7,265.8,589.7,265.4z
				 M600.7,280.1c0.8,0,1.5-0.2,2-0.7c0.6-0.5,0.9-1.1,1-1.8h2.1c0,0.7-0.3,1.4-0.8,2.1c-0.5,0.7-1.1,1.2-1.9,1.6
				c-0.8,0.4-1.6,0.6-2.5,0.6c-1.7,0-3.1-0.6-4.2-1.7c-1-1.2-1.5-2.8-1.5-4.8V275c0-1.2,0.2-2.3,0.7-3.3s1.1-1.7,2-2.3
				c0.9-0.5,1.9-0.8,3-0.8c1.4,0,2.6,0.4,3.6,1.3s1.5,2,1.5,3.3h-2.1c-0.1-0.8-0.4-1.5-0.9-2c-0.6-0.5-1.3-0.8-2.1-0.8
				c-1.1,0-2,0.4-2.6,1.2c-0.6,0.8-0.9,2-0.9,3.5v0.4c0,1.5,0.3,2.6,0.9,3.4C598.6,279.7,599.6,280.1,600.7,280.1z M613.6,281.8
				c-1.7,0-3.1-0.6-4.2-1.7c-1.1-1.1-1.6-2.7-1.6-4.6v-0.4c0-1.3,0.2-2.4,0.7-3.4s1.2-1.8,2-2.3c0.9-0.6,1.8-0.9,2.8-0.9
				c1.7,0,3,0.5,3.9,1.6c0.9,1.1,1.4,2.7,1.4,4.7v0.9h-8.7c0,1.3,0.4,2.3,1.1,3.1c0.7,0.8,1.6,1.2,2.7,1.2c0.8,0,1.4-0.2,2-0.5
				c0.5-0.3,1-0.7,1.4-1.3l1.3,1C617.3,281,615.7,281.8,613.6,281.8z M613.3,270.4c-0.9,0-1.6,0.3-2.2,1c-0.6,0.6-1,1.5-1.1,2.7h6.4
				v-0.2c-0.1-1.1-0.4-2-0.9-2.6C614.9,270.7,614.2,270.4,613.3,270.4z M630.1,271.5h1.8c0.9,0,1.5-0.2,1.9-0.6
				c0.4-0.4,0.6-1,0.6-1.7c0-0.7-0.2-1.2-0.6-1.6c-0.4-0.4-1-0.6-1.7-0.6s-1.2,0.2-1.6,0.5c-0.4,0.4-0.7,0.8-0.7,1.4h-3.4
				c0-0.9,0.2-1.7,0.7-2.4c0.5-0.7,1.2-1.3,2-1.7c0.9-0.4,1.8-0.6,2.9-0.6c1.8,0,3.2,0.4,4.3,1.3c1,0.9,1.5,2.1,1.5,3.6
				c0,0.8-0.2,1.5-0.7,2.2c-0.5,0.7-1.1,1.2-1.9,1.5c1,0.3,1.7,0.9,2.2,1.6c0.5,0.7,0.7,1.5,0.7,2.5c0,1.5-0.6,2.8-1.7,3.7
				c-1.1,0.9-2.6,1.4-4.4,1.4c-1.7,0-3.1-0.5-4.2-1.4c-1.1-0.9-1.6-2.1-1.6-3.6h3.4c0,0.6,0.2,1.2,0.7,1.6s1.1,0.6,1.8,0.6
				c0.8,0,1.4-0.2,1.9-0.6s0.7-1,0.7-1.7c0-1.7-0.9-2.6-2.8-2.6h-1.8V271.5L630.1,271.5z"/>
			<path class="st17" d="M532.4,382.8h112.2c3.6,0,6.6,3,6.6,6.6v15.4c0,3.6-3,6.6-6.6,6.6H532.4V382.8z"/>
			<path class="st17" d="M532.4,418h112.2c3.6,0,6.6,3,6.6,6.6V440c0,3.6-3,6.6-6.6,6.6H532.4V418z"/>
			<path class="st17" d="M539,382.8h246.4c3.6,0,6.6,3,6.6,6.6V440c0,3.6-3,6.6-6.6,6.6H539V382.8z"/>
			<path class="st1" d="M597.8,422.4v-17.2h4.9c1.5,0,2.8,0.3,4,1c1.2,0.7,2,1.6,2.7,2.8c0.6,1.2,0.9,2.6,1,4.2v1.1
				c0,1.6-0.3,3-0.9,4.3c-0.6,1.2-1.5,2.2-2.7,2.8c-1.2,0.7-2.5,1-4.1,1L597.8,422.4L597.8,422.4z M600.1,407.1v13.5h2.4
				c1.7,0,3.1-0.5,4.1-1.6s1.5-2.6,1.5-4.6v-1c0-2-0.5-3.5-1.4-4.5c-0.9-1.1-2.2-1.6-3.9-1.7h-2.7V407.1z M618.7,422.6
				c-1.7,0-3.1-0.6-4.2-1.7c-1.1-1.1-1.6-2.7-1.6-4.6V416c0-1.3,0.2-2.4,0.7-3.4s1.2-1.8,2-2.3c0.9-0.6,1.8-0.9,2.8-0.9
				c1.7,0,3,0.5,3.9,1.6c0.9,1.1,1.4,2.7,1.4,4.7v0.9H615c0,1.3,0.4,2.3,1.1,3.1s1.6,1.2,2.7,1.2c0.8,0,1.4-0.2,2-0.5
				c0.5-0.3,1-0.7,1.4-1.3l1.3,1C622.4,421.8,620.8,422.6,618.7,422.6z M618.4,411.2c-0.9,0-1.6,0.3-2.2,1c-0.6,0.6-1,1.5-1.1,2.7
				h6.4v-0.2c-0.1-1.1-0.4-2-0.9-2.6C620,411.5,619.3,411.2,618.4,411.2z M630.2,419.4l3.2-9.8h2.2l-4.6,12.8h-1.7l-4.6-12.8h2.2
				L630.2,419.4z M640.1,422.4h-2.2v-12.8h2.2V422.4z M637.8,406.2c0-0.4,0.1-0.7,0.3-0.9c0.2-0.2,0.5-0.4,1-0.4
				c0.4,0,0.7,0.1,1,0.4c0.2,0.2,0.3,0.5,0.3,0.9c0,0.4-0.1,0.6-0.3,0.9c-0.2,0.2-0.5,0.4-1,0.4c-0.4,0-0.8-0.1-1-0.4
				C637.9,406.9,637.8,406.6,637.8,406.2z M648.8,420.9c0.8,0,1.5-0.2,2-0.7c0.6-0.5,0.9-1.1,1-1.8h2.1c0,0.7-0.3,1.4-0.8,2.1
				s-1.1,1.2-1.9,1.6s-1.6,0.6-2.5,0.6c-1.7,0-3.1-0.6-4.2-1.7c-1-1.2-1.5-2.8-1.5-4.8v-0.4c0-1.2,0.2-2.3,0.7-3.3s1.1-1.7,2-2.3
				c0.9-0.5,1.9-0.8,3-0.8c1.4,0,2.6,0.4,3.6,1.3c1,0.9,1.5,2,1.5,3.3h-2.1c-0.1-0.8-0.4-1.5-0.9-2c-0.6-0.5-1.3-0.8-2.1-0.8
				c-1.1,0-2,0.4-2.6,1.2c-0.6,0.8-0.9,2-0.9,3.5v0.4c0,1.5,0.3,2.6,0.9,3.4C646.8,420.5,647.6,420.9,648.8,420.9z M661.6,422.6
				c-1.7,0-3.1-0.6-4.2-1.7c-1.1-1.1-1.6-2.7-1.6-4.6V416c0-1.3,0.2-2.4,0.7-3.4s1.2-1.8,2-2.3c0.9-0.6,1.8-0.9,2.8-0.9
				c1.7,0,3,0.5,3.9,1.6c0.9,1.1,1.4,2.7,1.4,4.7v0.9h-8.7c0,1.3,0.4,2.3,1.1,3.1s1.6,1.2,2.7,1.2c0.8,0,1.4-0.2,2-0.5
				c0.5-0.3,1-0.7,1.4-1.3l1.3,1C665.4,421.8,663.7,422.6,661.6,422.6z M661.3,411.2c-0.9,0-1.6,0.3-2.2,1c-0.6,0.6-1,1.5-1.1,2.7
				h6.4v-0.2c-0.1-1.1-0.4-2-0.9-2.6C663,411.5,662.2,411.2,661.3,411.2z M683,422.4h-3.4v-13.2l-4.1,1.3v-2.8l7.1-2.6h0.4V422.4z"
				/>
			<path d="M538.2,397.4c-0.4,0.4-0.4,1.1,0,1.6l7,7c0.4,0.4,1.1,0.4,1.6,0c0.4-0.4,0.4-1.1,0-1.6l-6.2-6.2l6.2-6.2
				c0.4-0.4,0.4-1.1,0-1.6c-0.4-0.4-1.1-0.4-1.6,0L538.2,397.4z M559.6,397.1H539v2.2h20.6V397.1z M539,434.5h20.6v-2.2H539V434.5z
				 M559.6,434.5c13.8,0,21.8-9.2,22.3-18.6c0.2-4.7-1.4-9.4-5.1-13c-3.7-3.5-9.4-5.8-17.2-5.8v2.2c7.3,0,12.4,2.1,15.6,5.2
				c3.2,3.1,4.7,7.1,4.4,11.2c-0.4,8.2-7.4,16.6-20.1,16.6v2.2H559.6z"/>
			<path class="st17" d="M532.4,171.6h253c3.6,0,6.6,3,6.6,6.6V194c0,3.6-3,6.6-6.6,6.6h-253V171.6z"/>
			<path class="st1" d="M549.8,193.6v-17.2h4.9c1.5,0,2.8,0.3,4,1c1.2,0.7,2,1.6,2.7,2.8c0.6,1.2,1,2.6,1,4.2v1.1
				c0,1.6-0.3,3-0.9,4.3c-0.6,1.2-1.5,2.2-2.7,2.8c-1.2,0.7-2.5,1-4.1,1C554.7,193.6,549.8,193.6,549.8,193.6z M552.1,178.3v13.5
				h2.4c1.7,0,3.1-0.5,4.1-1.6c1-1.1,1.5-2.6,1.5-4.6v-1c0-2-0.5-3.5-1.4-4.5c-0.9-1.1-2.2-1.6-3.9-1.7L552.1,178.3L552.1,178.3z
				 M570.6,193.8c-1.7,0-3.1-0.6-4.2-1.7c-1.1-1.1-1.6-2.7-1.6-4.6v-0.4c0-1.3,0.2-2.4,0.7-3.4s1.2-1.8,2-2.3
				c0.9-0.6,1.8-0.9,2.8-0.9c1.7,0,3,0.5,3.9,1.6c0.9,1.1,1.4,2.7,1.4,4.7v0.9h-8.7c0,1.3,0.4,2.3,1.1,3.1s1.6,1.2,2.7,1.2
				c0.8,0,1.4-0.2,2-0.5c0.5-0.3,1-0.7,1.4-1.3l1.3,1C574.4,193,572.8,193.8,570.6,193.8z M570.4,182.4c-0.9,0-1.6,0.3-2.2,1
				c-0.6,0.6-1,1.5-1.1,2.7h6.4v-0.2c-0.1-1.1-0.4-2-0.9-2.6C572,182.7,571.3,182.4,570.4,182.4z M582.2,190.6l3.2-9.8h2.2
				l-4.6,12.8h-1.7l-4.6-12.8h2.2L582.2,190.6z M592.1,193.6h-2.2v-12.8h2.2V193.6z M589.7,177.4c0-0.4,0.1-0.7,0.3-0.9
				s0.5-0.4,1-0.4c0.4,0,0.8,0.1,1,0.4c0.2,0.2,0.3,0.5,0.3,0.9c0,0.4-0.1,0.6-0.3,0.9c-0.2,0.2-0.5,0.4-1,0.4c-0.4,0-0.7-0.1-1-0.4
				C589.8,178.1,589.7,177.8,589.7,177.4z M600.7,192.1c0.8,0,1.5-0.2,2-0.7c0.6-0.5,0.9-1.1,1-1.8h2.1c0,0.7-0.3,1.4-0.8,2.1
				s-1.1,1.2-1.9,1.6c-0.8,0.4-1.6,0.6-2.5,0.6c-1.7,0-3.1-0.6-4.2-1.7c-1-1.2-1.5-2.8-1.5-4.8V187c0-1.2,0.2-2.4,0.7-3.3
				c0.5-1,1.1-1.7,2-2.3c0.9-0.5,1.9-0.8,3-0.8c1.4,0,2.6,0.4,3.6,1.3c1,0.9,1.5,2,1.5,3.3h-2.1c-0.1-0.8-0.4-1.5-0.9-2
				c-0.6-0.5-1.3-0.8-2.1-0.8c-1.1,0-2,0.4-2.6,1.2c-0.6,0.8-0.9,1.9-0.9,3.5v0.4c0,1.5,0.3,2.6,0.9,3.4
				C598.7,191.7,599.6,192.1,600.7,192.1z M613.6,193.8c-1.7,0-3.1-0.6-4.2-1.7c-1.1-1.1-1.6-2.7-1.6-4.6v-0.4
				c0-1.3,0.2-2.4,0.7-3.4s1.2-1.8,2-2.3c0.9-0.6,1.8-0.9,2.8-0.9c1.7,0,3,0.5,3.9,1.6c0.9,1.1,1.4,2.7,1.4,4.7v0.9h-8.7
				c0,1.3,0.4,2.3,1.1,3.1s1.6,1.2,2.7,1.2c0.8,0,1.4-0.2,2-0.5c0.5-0.3,1-0.7,1.4-1.3l1.3,1C617.3,193,615.7,193.8,613.6,193.8z
				 M613.3,182.4c-0.9,0-1.6,0.3-2.2,1c-0.6,0.6-1,1.5-1.1,2.7h6.4v-0.2c-0.1-1.1-0.4-2-0.9-2.6
				C614.9,182.7,614.2,182.4,613.3,182.4z M637.9,181c0,0.8-0.2,1.6-0.6,2.2c-0.4,0.6-1,1.2-1.7,1.5c0.8,0.4,1.5,1,2,1.7
				c0.5,0.7,0.7,1.5,0.7,2.5c0,1.5-0.5,2.7-1.6,3.6c-1,0.9-2.5,1.3-4.2,1.3c-1.8,0-3.2-0.4-4.3-1.3c-1-0.9-1.6-2.1-1.6-3.6
				c0-1,0.2-1.8,0.7-2.5c0.5-0.7,1.1-1.3,2-1.7c-0.7-0.4-1.3-0.9-1.7-1.5c-0.4-0.6-0.6-1.4-0.6-2.2c0-1.5,0.5-2.6,1.5-3.5
				s2.3-1.3,4-1.3s3,0.4,4,1.3C637.4,178.3,637.9,179.5,637.9,181z M634.8,188.6c0-0.7-0.2-1.3-0.6-1.8c-0.4-0.4-1-0.7-1.7-0.7
				s-1.3,0.2-1.7,0.7c-0.4,0.4-0.6,1-0.6,1.8c0,0.7,0.2,1.3,0.6,1.8c0.4,0.4,1,0.7,1.8,0.7c0.7,0,1.3-0.2,1.7-0.7
				C634.6,190,634.8,189.4,634.8,188.6z M634.4,181.1c0-0.7-0.2-1.2-0.5-1.6c-0.4-0.4-0.9-0.6-1.5-0.6c-0.6,0-1.1,0.2-1.5,0.6
				c-0.4,0.4-0.5,0.9-0.5,1.6c0,0.7,0.2,1.2,0.5,1.7c0.4,0.4,0.9,0.6,1.5,0.6c0.6,0,1.1-0.2,1.5-0.6
				C634.3,182.4,634.4,181.8,634.4,181.1z"/>
			<path class="st17" d="M532.4,206.8h253c3.6,0,6.6,3,6.6,6.6v15.8c0,3.6-3,6.6-6.6,6.6h-253V206.8z"/>
			<path class="st1" d="M549.8,228.8v-17.2h4.9c1.5,0,2.8,0.3,4,1c1.2,0.7,2,1.6,2.7,2.8c0.6,1.2,1,2.6,1,4.2v1.1
				c0,1.6-0.3,3-0.9,4.3c-0.6,1.2-1.5,2.2-2.7,2.8c-1.2,0.7-2.5,1-4.1,1C554.7,228.8,549.8,228.8,549.8,228.8z M552.1,213.5V227h2.4
				c1.7,0,3.1-0.5,4.1-1.6c1-1.1,1.5-2.6,1.5-4.6v-1c0-2-0.5-3.5-1.4-4.5c-0.9-1.1-2.2-1.6-3.9-1.7h-2.7V213.5z M570.6,229
				c-1.7,0-3.1-0.6-4.2-1.7c-1.1-1.1-1.6-2.7-1.6-4.6v-0.4c0-1.3,0.2-2.4,0.7-3.4s1.2-1.8,2-2.3c0.9-0.6,1.8-0.9,2.8-0.9
				c1.7,0,3,0.5,3.9,1.6c0.9,1.1,1.4,2.7,1.4,4.7v1h-8.7c0,1.3,0.4,2.3,1.1,3.1c0.7,0.8,1.6,1.2,2.7,1.2c0.8,0,1.4-0.2,2-0.5
				c0.5-0.3,1-0.7,1.4-1.3l1.3,1C574.4,228.2,572.8,229,570.6,229z M570.4,217.6c-0.9,0-1.6,0.3-2.2,1c-0.6,0.6-1,1.5-1.1,2.7h6.4
				v-0.2c-0.1-1.1-0.4-2-0.9-2.6C572,217.9,571.3,217.6,570.4,217.6z M582.2,225.8l3.2-9.8h2.2l-4.6,12.8h-1.7l-4.6-12.8h2.2
				L582.2,225.8z M592.1,228.8h-2.2V216h2.2V228.8z M589.7,212.6c0-0.4,0.1-0.7,0.3-0.9s0.5-0.4,1-0.4c0.4,0,0.8,0.1,1,0.4
				c0.2,0.2,0.3,0.5,0.3,0.9c0,0.4-0.1,0.6-0.3,0.9c-0.2,0.2-0.5,0.4-1,0.4c-0.4,0-0.7-0.1-1-0.4C589.8,213.3,589.7,213,589.7,212.6
				z M600.7,227.3c0.8,0,1.5-0.2,2-0.7c0.6-0.5,0.9-1.1,1-1.8h2.1c0,0.7-0.3,1.4-0.8,2.1c-0.5,0.7-1.1,1.2-1.9,1.6s-1.6,0.6-2.5,0.6
				c-1.7,0-3.1-0.6-4.2-1.7c-1-1.2-1.5-2.8-1.5-4.8v-0.4c0-1.2,0.2-2.4,0.7-3.3c0.5-1,1.1-1.7,2-2.3c0.9-0.5,1.9-0.8,3-0.8
				c1.4,0,2.6,0.4,3.6,1.3c1,0.9,1.5,2,1.5,3.3h-2.1c-0.1-0.8-0.4-1.5-0.9-2c-0.6-0.5-1.3-0.8-2.1-0.8c-1.1,0-2,0.4-2.6,1.2
				c-0.6,0.8-0.9,2-0.9,3.5v0.4c0,1.5,0.3,2.6,0.9,3.4C598.6,226.9,599.6,227.3,600.7,227.3z M613.6,229c-1.7,0-3.1-0.6-4.2-1.7
				c-1.1-1.1-1.6-2.7-1.6-4.6v-0.4c0-1.3,0.2-2.4,0.7-3.4s1.2-1.8,2-2.3c0.9-0.6,1.8-0.9,2.8-0.9c1.7,0,3,0.5,3.9,1.6
				c0.9,1.1,1.4,2.7,1.4,4.7v1h-8.7c0,1.3,0.4,2.3,1.1,3.1c0.7,0.8,1.6,1.2,2.7,1.2c0.8,0,1.4-0.2,2-0.5c0.5-0.3,1-0.7,1.4-1.3
				l1.3,1C617.3,228.2,615.7,229,613.6,229z M613.3,217.6c-0.9,0-1.6,0.3-2.2,1c-0.6,0.6-1,1.5-1.1,2.7h6.4v-0.2
				c-0.1-1.1-0.4-2-0.9-2.6C614.9,217.9,614.2,217.6,613.3,217.6z M636.8,222.3h1.9v2.8h-1.9v3.7h-3.4v-3.7h-7.1l-0.2-2.1l7.2-11.3
				h3.5V222.3z M629.5,222.3h3.8v-6.1l-0.2,0.4L629.5,222.3z"/>
			<path class="st17" d="M532.4,312.4h253c3.6,0,6.6,3,6.6,6.6v15.8c0,3.6-3,6.6-6.6,6.6h-253V312.4z"/>
			<path class="st1" d="M549.8,334.4v-17.2h4.9c1.5,0,2.8,0.3,4,1c1.2,0.7,2,1.6,2.7,2.8c0.6,1.2,1,2.6,1,4.2v1.1
				c0,1.6-0.3,3-0.9,4.3c-0.6,1.2-1.5,2.2-2.7,2.8c-1.2,0.7-2.5,1-4.1,1L549.8,334.4L549.8,334.4z M552.1,319.1v13.5h2.4
				c1.7,0,3.1-0.5,4.1-1.6s1.5-2.6,1.5-4.6v-1c0-2-0.5-3.5-1.4-4.5c-0.9-1.1-2.2-1.6-3.9-1.7h-2.7V319.1z M570.6,334.6
				c-1.7,0-3.1-0.6-4.2-1.7c-1.1-1.1-1.6-2.7-1.6-4.6V328c0-1.3,0.2-2.4,0.7-3.4s1.2-1.8,2-2.3c0.9-0.6,1.8-0.9,2.8-0.9
				c1.7,0,3,0.5,3.9,1.6c0.9,1.1,1.4,2.7,1.4,4.7v0.9h-8.7c0,1.3,0.4,2.3,1.1,3.1s1.6,1.2,2.7,1.2c0.8,0,1.4-0.2,2-0.5
				c0.5-0.3,1-0.7,1.4-1.3l1.3,1C574.4,333.8,572.8,334.6,570.6,334.6z M570.4,323.2c-0.9,0-1.6,0.3-2.2,1c-0.6,0.6-1,1.5-1.1,2.7
				h6.4v-0.2c-0.1-1.1-0.4-2-0.9-2.6C572,323.5,571.3,323.2,570.4,323.2z M582.2,331.4l3.2-9.8h2.2l-4.6,12.8h-1.7l-4.6-12.8h2.2
				L582.2,331.4z M592.1,334.4h-2.2v-12.8h2.2V334.4z M589.7,318.2c0-0.4,0.1-0.7,0.3-0.9c0.2-0.2,0.5-0.4,1-0.4
				c0.4,0,0.8,0.1,1,0.4c0.2,0.2,0.3,0.5,0.3,0.9c0,0.4-0.1,0.6-0.3,0.9c-0.2,0.2-0.5,0.4-1,0.4c-0.4,0-0.7-0.1-1-0.4
				C589.8,318.9,589.7,318.6,589.7,318.2z M600.7,332.9c0.8,0,1.5-0.2,2-0.7c0.6-0.5,0.9-1.1,1-1.8h2.1c0,0.7-0.3,1.4-0.8,2.1
				s-1.1,1.2-1.9,1.6s-1.6,0.6-2.5,0.6c-1.7,0-3.1-0.6-4.2-1.7c-1-1.2-1.5-2.8-1.5-4.8v-0.4c0-1.2,0.2-2.3,0.7-3.3s1.1-1.7,2-2.3
				c0.9-0.5,1.9-0.8,3-0.8c1.4,0,2.6,0.4,3.6,1.3c1,0.9,1.5,2,1.5,3.3h-2.1c-0.1-0.8-0.4-1.5-0.9-2c-0.6-0.5-1.3-0.8-2.1-0.8
				c-1.1,0-2,0.4-2.6,1.2c-0.6,0.8-0.9,2-0.9,3.5v0.4c0,1.5,0.3,2.6,0.9,3.4C598.6,332.5,599.6,332.9,600.7,332.9z M613.6,334.6
				c-1.7,0-3.1-0.6-4.2-1.7c-1.1-1.1-1.6-2.7-1.6-4.6V328c0-1.3,0.2-2.4,0.7-3.4s1.2-1.8,2-2.3c0.9-0.6,1.8-0.9,2.8-0.9
				c1.7,0,3,0.5,3.9,1.6c0.9,1.1,1.4,2.7,1.4,4.7v0.9h-8.7c0,1.3,0.4,2.3,1.1,3.1s1.6,1.2,2.7,1.2c0.8,0,1.4-0.2,2-0.5
				c0.5-0.3,1-0.7,1.4-1.3l1.3,1C617.3,333.8,615.7,334.6,613.6,334.6z M613.3,323.2c-0.9,0-1.6,0.3-2.2,1c-0.6,0.6-1,1.5-1.1,2.7
				h6.4v-0.2c-0.1-1.1-0.4-2-0.9-2.6C614.9,323.5,614.2,323.2,613.3,323.2z M635.9,317v2.8h-0.3c-1.5,0-2.8,0.4-3.7,1.2
				s-1.5,1.9-1.7,3.2c0.9-0.9,2.1-1.4,3.5-1.4c1.5,0,2.7,0.5,3.6,1.6c0.9,1.1,1.3,2.5,1.3,4.2c0,1.1-0.2,2.1-0.7,3s-1.2,1.6-2.1,2.1
				c-0.9,0.5-1.9,0.8-3,0.8c-1.8,0-3.3-0.6-4.4-1.9c-1.1-1.3-1.7-2.9-1.7-5v-1.2c0-1.9,0.3-3.5,1.1-4.9c0.7-1.4,1.7-2.5,3-3.3
				c1.3-0.8,2.9-1.2,4.6-1.2L635.9,317L635.9,317z M632.6,325.6c-0.6,0-1.1,0.1-1.5,0.4c-0.4,0.3-0.8,0.7-1,1.1v1
				c0,1.1,0.2,2,0.7,2.7c0.5,0.6,1.1,1,1.9,1c0.7,0,1.3-0.3,1.8-0.9c0.5-0.6,0.7-1.3,0.7-2.3c0-0.9-0.2-1.7-0.7-2.3
				C634,325.9,633.4,325.6,632.6,325.6z"/>
			<path class="st17" d="M532.4,347.6h253c3.6,0,6.6,3,6.6,6.6V370c0,3.6-3,6.6-6.6,6.6h-253V347.6z"/>
			<path class="st1" d="M549.8,369.6v-17.2h4.9c1.5,0,2.8,0.3,4,1c1.2,0.7,2,1.6,2.7,2.8c0.6,1.2,1,2.6,1,4.2v1.1
				c0,1.6-0.3,3-0.9,4.3c-0.6,1.2-1.5,2.2-2.7,2.8c-1.2,0.7-2.5,1-4.1,1L549.8,369.6L549.8,369.6z M552.1,354.3v13.5h2.4
				c1.7,0,3.1-0.5,4.1-1.6c1-1.1,1.5-2.6,1.5-4.6v-1c0-2-0.5-3.5-1.4-4.5c-0.9-1.1-2.2-1.6-3.9-1.7h-2.7V354.3z M570.6,369.8
				c-1.7,0-3.1-0.6-4.2-1.7c-1.1-1.1-1.6-2.7-1.6-4.6v-0.4c0-1.3,0.2-2.4,0.7-3.4s1.2-1.8,2-2.3c0.9-0.6,1.8-0.9,2.8-0.9
				c1.7,0,3,0.5,3.9,1.6c0.9,1.1,1.4,2.7,1.4,4.7v0.9h-8.7c0,1.3,0.4,2.3,1.1,3.1s1.6,1.2,2.7,1.2c0.8,0,1.4-0.2,2-0.5
				c0.5-0.3,1-0.7,1.4-1.3l1.3,1C574.4,369,572.8,369.8,570.6,369.8z M570.4,358.4c-0.9,0-1.6,0.3-2.2,1c-0.6,0.6-1,1.5-1.1,2.7h6.4
				v-0.2c-0.1-1.1-0.4-2-0.9-2.6C572,358.7,571.3,358.4,570.4,358.4z M582.2,366.6l3.2-9.8h2.2l-4.6,12.8h-1.7l-4.6-12.8h2.2
				L582.2,366.6z M592.1,369.6h-2.2v-12.8h2.2V369.6z M589.7,353.4c0-0.4,0.1-0.7,0.3-0.9s0.5-0.4,1-0.4c0.4,0,0.8,0.1,1,0.4
				c0.2,0.2,0.3,0.5,0.3,0.9s-0.1,0.6-0.3,0.9c-0.2,0.2-0.5,0.4-1,0.4c-0.4,0-0.7-0.1-1-0.4C589.8,354.1,589.7,353.8,589.7,353.4z
				 M600.7,368.1c0.8,0,1.5-0.2,2-0.7c0.6-0.5,0.9-1.1,1-1.8h2.1c0,0.7-0.3,1.4-0.8,2.1s-1.1,1.2-1.9,1.6s-1.6,0.6-2.5,0.6
				c-1.7,0-3.1-0.6-4.2-1.7c-1-1.2-1.5-2.8-1.5-4.8V363c0-1.2,0.2-2.3,0.7-3.3s1.1-1.7,2-2.3c0.9-0.5,1.9-0.8,3-0.8
				c1.4,0,2.6,0.4,3.6,1.3s1.5,2,1.5,3.3h-2.1c-0.1-0.8-0.4-1.5-0.9-2c-0.6-0.5-1.3-0.8-2.1-0.8c-1.1,0-2,0.4-2.6,1.2
				c-0.6,0.8-0.9,2-0.9,3.5v0.4c0,1.5,0.3,2.6,0.9,3.4C598.6,367.7,599.6,368.1,600.7,368.1z M613.6,369.8c-1.7,0-3.1-0.6-4.2-1.7
				c-1.1-1.1-1.6-2.7-1.6-4.6v-0.4c0-1.3,0.2-2.4,0.7-3.4s1.2-1.8,2-2.3c0.9-0.6,1.8-0.9,2.8-0.9c1.7,0,3,0.5,3.9,1.6
				c0.9,1.1,1.4,2.7,1.4,4.7v0.9h-8.7c0,1.3,0.4,2.3,1.1,3.1s1.6,1.2,2.7,1.2c0.8,0,1.4-0.2,2-0.5c0.5-0.3,1-0.7,1.4-1.3l1.3,1
				C617.3,369,615.7,369.8,613.6,369.8z M613.3,358.4c-0.9,0-1.6,0.3-2.2,1c-0.6,0.6-1,1.5-1.1,2.7h6.4v-0.2c-0.1-1.1-0.4-2-0.9-2.6
				C614.9,358.7,614.2,358.4,613.3,358.4z M638.4,369.6h-11.8v-2.3l5.6-5.9c0.8-0.8,1.3-1.6,1.7-2.2c0.4-0.6,0.6-1.2,0.6-1.8
				c0-0.8-0.2-1.4-0.6-1.8c-0.4-0.4-0.9-0.7-1.7-0.7c-0.8,0-1.4,0.3-1.8,0.8c-0.4,0.5-0.7,1.2-0.7,2.1h-3.4c0-1,0.2-2,0.7-2.9
				s1.2-1.5,2.1-2c0.9-0.5,1.9-0.7,3.1-0.7c1.8,0,3.1,0.4,4.1,1.3s1.5,2.1,1.5,3.6c0,0.8-0.2,1.7-0.7,2.6c-0.4,0.9-1.2,1.9-2.3,3.1
				l-3.9,4.1h7.4L638.4,369.6L638.4,369.6z"/>
			<path d="M194.4,293c-2.1-0.6-3.7-1.4-4.6-2.2c-1-0.9-1.4-2-1.4-3.3c0-1.5,0.6-2.7,1.8-3.7s2.7-1.5,4.6-1.5c1.3,0,2.4,0.2,3.4,0.7
				s1.8,1.2,2.3,2.1c0.6,0.9,0.8,1.8,0.8,2.9h-2.5c0-1.1-0.4-2-1.1-2.7c-0.7-0.7-1.7-1-3.1-1c-1.2,0-2.2,0.3-2.9,0.8s-1,1.3-1,2.2
				c0,0.8,0.3,1.4,1,1.9s1.8,1,3.3,1.4c1.6,0.4,2.8,0.9,3.7,1.5c0.9,0.5,1.5,1.1,2,1.8c0.4,0.7,0.6,1.5,0.6,2.5
				c0,1.5-0.6,2.7-1.8,3.7c-1.2,0.9-2.8,1.4-4.8,1.4c-1.3,0-2.5-0.2-3.6-0.7c-1.1-0.5-2-1.2-2.6-2c-0.6-0.9-0.9-1.8-0.9-2.9h2.5
				c0,1.1,0.4,2,1.3,2.7c0.8,0.7,2,1,3.4,1c1.3,0,2.3-0.3,3-0.8c0.7-0.5,1-1.3,1-2.2s-0.3-1.6-1-2.1
				C197.3,294,196.1,293.5,194.4,293z M204.5,301.4v-18.8h5.3c1.6,0,3.1,0.4,4.3,1.1c1.3,0.7,2.2,1.7,2.9,3.1c0.7,1.3,1,2.9,1,4.6
				v1.2c0,1.8-0.3,3.3-1,4.7c-0.7,1.3-1.7,2.4-2.9,3.1c-1.3,0.7-2.7,1.1-4.4,1.1h-5.2V301.4z M207,284.7v14.7h2.6
				c1.9,0,3.4-0.6,4.4-1.8c1.1-1.2,1.6-2.9,1.6-5.1v-1.1c0-2.1-0.5-3.8-1.5-5s-2.4-1.8-4.3-1.8H207V284.7z M224.5,301.4H222v-18.8
				h2.5V301.4z M235.3,292.2l1.1-9.5h10.5v3.1h-7.5l-0.5,4c0.9-0.5,1.8-0.7,2.8-0.7c1.8,0,3.2,0.6,4.2,1.7c1,1.1,1.5,2.7,1.5,4.7
				c0,1.2-0.3,2.3-0.8,3.3s-1.2,1.7-2.2,2.2s-2.1,0.8-3.4,0.8c-1.1,0-2.2-0.2-3.2-0.7s-1.7-1.1-2.3-1.9c-0.6-0.8-0.9-1.8-0.9-2.8
				h3.7c0.1,0.8,0.3,1.4,0.8,1.8c0.5,0.4,1.1,0.6,1.8,0.6c0.8,0,1.5-0.3,1.9-0.9c0.5-0.6,0.7-1.5,0.7-2.6s-0.3-1.9-0.8-2.4
				c-0.5-0.6-1.3-0.9-2.2-0.9s-1.6,0.2-2.2,0.7l-0.4,0.3L235.3,292.2z M261.7,295.8l-1.3,1.3v4.3h-3.7v-19.8h3.7v11l0.7-0.9l3.6-4.2
				h4.5l-5,5.8l5.5,8.1h-4.3L261.7,295.8z M276.9,301.7c-2,0-3.7-0.6-5-1.9c-1.3-1.3-1.9-2.9-1.9-5v-0.4c0-1.4,0.3-2.7,0.8-3.8
				s1.3-2,2.3-2.6s2.1-0.9,3.4-0.9c1.9,0,3.4,0.6,4.5,1.8c1.1,1.2,1.7,2.9,1.7,5.1v1.5h-8.9c0.1,0.9,0.5,1.6,1.1,2.2
				c0.6,0.6,1.4,0.8,2.3,0.8c1.4,0,2.6-0.5,3.4-1.6l1.8,2.1c-0.6,0.8-1.3,1.4-2.3,1.9S278,301.7,276.9,301.7z M276.5,290.2
				c-0.7,0-1.3,0.2-1.8,0.7s-0.7,1.2-0.9,2.1h5.2v-0.3c0-0.8-0.2-1.5-0.7-1.9C277.9,290.4,277.3,290.2,276.5,290.2z M289.8,296.1
				l2.6-8.7h4l-5.6,16.1l-0.3,0.7c-0.8,1.8-2.2,2.7-4.1,2.7c-0.5,0-1.1-0.1-1.7-0.2V304h0.6c0.7,0,1.2-0.1,1.6-0.3
				c0.4-0.2,0.6-0.6,0.8-1.1l0.4-1.1l-4.9-14h4L289.8,296.1z M304.1,294.2c0-1.3,0.3-2.5,0.8-3.6s1.3-1.9,2.2-2.5
				c1-0.6,2-0.9,3.2-0.9c1.9,0,3.4,0.7,4.5,2c1.2,1.3,1.7,3,1.7,5.2v0.3c0,1.3-0.3,2.6-0.8,3.6c-0.5,1.1-1.2,1.9-2.2,2.5
				c-0.9,0.6-2,0.9-3.2,0.9c-1.8,0-3.4-0.6-4.5-1.9c-1.2-1.3-1.7-3-1.7-5.2V294.2z M305.7,294.6c0,1.7,0.4,3,1.3,4.1
				c0.9,1.1,2,1.6,3.4,1.6s2.5-0.5,3.4-1.6c0.9-1.1,1.3-2.5,1.3-4.2v-0.3c0-1.1-0.2-2-0.6-2.9c-0.4-0.9-1-1.6-1.7-2
				c-0.7-0.5-1.5-0.7-2.5-0.7c-1.4,0-2.5,0.5-3.4,1.6c-0.9,1.1-1.3,2.5-1.3,4.2v0.2H305.7z M328.7,299.6c-0.9,1.4-2.4,2-4.4,2
				c-1.5,0-2.6-0.4-3.4-1.3c-0.8-0.9-1.2-2.1-1.2-3.8v-9.1h1.5v8.9c0,2.7,1.1,4,3.2,4c2.2,0,3.6-0.9,4.2-2.8v-10.1h1.5v13.9h-1.5
				L328.7,299.6z M336.7,283.9v3.6h2.9v1.3h-2.9v9.3c0,0.8,0.1,1.3,0.4,1.7c0.3,0.4,0.8,0.6,1.4,0.6c0.3,0,0.7,0,1.3-0.1l0.1,1.3
				c-0.4,0.1-1,0.2-1.6,0.2c-1.1,0-1.8-0.3-2.3-0.9c-0.5-0.6-0.7-1.5-0.7-2.7v-9.3h-2.6v-1.3h2.6V284h1.4V283.9z M354,294.6
				c0,2.2-0.5,3.9-1.4,5.2c-1,1.3-2.3,1.9-3.9,1.9c-1.9,0-3.4-0.7-4.4-2v7.1h-1.5v-19.3h1.4l0.1,2c1-1.5,2.5-2.2,4.4-2.2
				c1.7,0,3,0.6,3.9,1.9c1,1.3,1.4,3,1.4,5.3V294.6z M352.4,294.3c0-1.8-0.4-3.2-1.1-4.2c-0.7-1-1.7-1.5-3.1-1.5
				c-0.9,0-1.8,0.2-2.4,0.7c-0.7,0.5-1.2,1.1-1.6,2v6.7c0.4,0.8,0.9,1.4,1.6,1.8c0.7,0.4,1.5,0.6,2.4,0.6c1.3,0,2.3-0.5,3-1.5
				C352.1,297.8,352.4,296.3,352.4,294.3z M366.4,299.6c-0.9,1.4-2.4,2-4.4,2c-1.5,0-2.6-0.4-3.4-1.3c-0.8-0.9-1.2-2.1-1.2-3.8v-9.1
				h1.5v8.9c0,2.7,1.1,4,3.2,4c2.2,0,3.6-0.9,4.2-2.8v-10.1h1.5v13.9h-1.5L366.4,299.6z M374.3,283.9v3.6h2.9v1.3h-2.9v9.3
				c0,0.8,0.1,1.3,0.4,1.7c0.3,0.4,0.8,0.6,1.4,0.6c0.3,0,0.7,0,1.2-0.1l0.1,1.3c-0.4,0.1-1,0.2-1.6,0.2c-1.1,0-1.8-0.3-2.3-0.9
				c-0.5-0.6-0.7-1.5-0.7-2.7v-9.3h-2.6v-1.3h2.6V284h1.5V283.9z"/>
			<path d="M205.5,257.8c-2.1-0.6-3.7-1.4-4.6-2.2c-1-0.9-1.4-2-1.4-3.3c0-1.5,0.6-2.7,1.8-3.7c1.2-1,2.7-1.5,4.6-1.5
				c1.3,0,2.4,0.2,3.4,0.7s1.8,1.2,2.3,2.1c0.6,0.9,0.8,1.8,0.8,2.9h-2.5c0-1.1-0.4-2-1.1-2.7c-0.7-0.7-1.7-1-3.1-1
				c-1.2,0-2.2,0.3-2.9,0.8c-0.7,0.5-1,1.3-1,2.2c0,0.8,0.3,1.4,1,1.9c0.7,0.5,1.8,1,3.3,1.4c1.6,0.4,2.8,0.9,3.7,1.5
				c0.9,0.5,1.5,1.1,2,1.8c0.4,0.7,0.6,1.5,0.6,2.5c0,1.5-0.6,2.7-1.8,3.7c-1.2,0.9-2.8,1.4-4.8,1.4c-1.3,0-2.5-0.2-3.6-0.7
				c-1.1-0.5-2-1.2-2.6-2c-0.6-0.9-0.9-1.8-0.9-2.9h2.5c0,1.1,0.4,2,1.3,2.7c0.8,0.7,2,1,3.4,1c1.3,0,2.3-0.3,3-0.8s1-1.3,1-2.2
				c0-0.9-0.3-1.6-1-2.1C208.4,258.8,207.2,258.3,205.5,257.8z M215.7,266.2v-18.8h5.3c1.6,0,3.1,0.4,4.3,1.1
				c1.3,0.7,2.2,1.7,2.9,3.1c0.7,1.3,1,2.9,1,4.6v1.2c0,1.8-0.3,3.3-1,4.7c-0.7,1.3-1.7,2.4-2.9,3.1c-1.3,0.7-2.7,1.1-4.4,1.1
				L215.7,266.2L215.7,266.2z M218.1,249.5v14.7h2.6c1.9,0,3.4-0.6,4.4-1.8c1.1-1.2,1.6-2.9,1.6-5.1v-1.1c0-2.1-0.5-3.8-1.5-5
				s-2.4-1.8-4.3-1.8h-2.8V249.5z M235.6,266.2h-2.4v-18.8h2.5v18.8H235.6z M256,247.2v3.1h-0.4c-1.7,0-3,0.5-4.1,1.3
				c-1,0.9-1.6,2-1.8,3.5c1-1,2.3-1.5,3.8-1.5c1.6,0,2.9,0.6,3.9,1.8c1,1.2,1.4,2.7,1.4,4.6c0,1.2-0.3,2.3-0.8,3.3s-1.3,1.8-2.2,2.3
				c-1,0.6-2.1,0.8-3.3,0.8c-2,0-3.6-0.7-4.8-2.1s-1.8-3.2-1.8-5.5v-1.3c0-2,0.4-3.8,1.1-5.4c0.8-1.6,1.9-2.8,3.3-3.6
				c1.4-0.9,3.1-1.3,5-1.3C255.3,247.2,256,247.2,256,247.2z M252.3,256.6c-0.6,0-1.1,0.2-1.6,0.5c-0.5,0.3-0.8,0.7-1.1,1.2v1.1
				c0,1.2,0.2,2.2,0.7,2.9s1.2,1,2.1,1c0.8,0,1.4-0.3,1.9-0.9s0.7-1.5,0.7-2.5s-0.2-1.8-0.7-2.5
				C253.8,256.9,253.2,256.6,252.3,256.6z M268.6,266.2V255h-2.1v-2.7h2.1v-0.6c0-1.8,0.6-3.1,1.6-4c1.1-1,2.6-1.4,4.5-1.4
				c1.2,0,2.6,0.3,4.2,0.8l-0.5,2.9c-0.8-0.2-1.5-0.4-2-0.5s-1-0.1-1.5-0.1c-1.7,0-2.6,0.8-2.6,2.3v0.6h2.7v2.7h-2.7v11.2H268.6z
				 M280.7,266.2H277v-13.9h3.7V266.2z M287.7,266.2H284v-19.8h3.7V266.2z M294.7,266.2H291v-19.8h3.7V266.2z M304.1,259
				c0-1.3,0.3-2.5,0.8-3.6c0.5-1.1,1.3-1.9,2.2-2.5c1-0.6,2-0.9,3.2-0.9c1.9,0,3.4,0.7,4.5,2c1.2,1.3,1.7,3,1.7,5.2v0.3
				c0,1.3-0.3,2.6-0.8,3.6c-0.5,1.1-1.2,1.9-2.2,2.5c-0.9,0.6-2,0.9-3.2,0.9c-1.8,0-3.4-0.6-4.5-1.9c-1.2-1.3-1.7-3-1.7-5.2V259z
				 M305.7,259.4c0,1.7,0.4,3,1.3,4.1s2,1.6,3.4,1.6s2.5-0.5,3.4-1.6c0.9-1.1,1.3-2.5,1.3-4.2V259c0-1.1-0.2-2-0.6-2.9
				c-0.4-0.9-1-1.6-1.7-2c-0.7-0.5-1.5-0.7-2.5-0.7c-1.4,0-2.5,0.5-3.4,1.6c-0.9,1.1-1.3,2.5-1.3,4.2v0.2H305.7z M328.7,264.4
				c-0.9,1.4-2.4,2-4.4,2c-1.5,0-2.6-0.4-3.4-1.3s-1.2-2.1-1.2-3.8v-9.1h1.5v8.9c0,2.7,1.1,4,3.2,4c2.2,0,3.6-0.9,4.2-2.8v-10h1.5
				v13.9h-1.5L328.7,264.4z M336.7,248.7v3.6h2.9v1.3h-2.9v9.3c0,0.8,0.1,1.3,0.4,1.7c0.3,0.4,0.8,0.6,1.4,0.6c0.3,0,0.7,0,1.3-0.1
				l0.1,1.3c-0.4,0.1-1,0.2-1.6,0.2c-1.1,0-1.8-0.3-2.3-0.9c-0.5-0.6-0.7-1.5-0.7-2.7v-9.3h-2.6v-1.3h2.6v-3.6L336.7,248.7
				L336.7,248.7z M354,259.4c0,2.2-0.5,3.9-1.4,5.2c-1,1.3-2.3,1.9-3.9,1.9c-1.9,0-3.4-0.7-4.4-2v7.1h-1.5v-19.3h1.4l0.1,2
				c1-1.5,2.5-2.2,4.4-2.2c1.7,0,3,0.6,3.9,1.9C353.6,255.3,354,257,354,259.4L354,259.4z M352.4,259.1c0-1.8-0.4-3.2-1.1-4.2
				c-0.7-1-1.7-1.5-3.1-1.5c-0.9,0-1.8,0.2-2.4,0.7c-0.7,0.5-1.2,1.1-1.6,2v6.7c0.4,0.8,0.9,1.4,1.6,1.8c0.7,0.4,1.5,0.6,2.4,0.6
				c1.3,0,2.3-0.5,3-1.5C352.1,262.6,352.4,261.1,352.4,259.1z M366.4,264.4c-0.9,1.4-2.4,2-4.4,2c-1.5,0-2.6-0.4-3.4-1.3
				c-0.8-0.9-1.2-2.1-1.2-3.8v-9.1h1.5v8.9c0,2.7,1.1,4,3.2,4c2.2,0,3.6-0.9,4.2-2.8v-10h1.5v13.9h-1.5L366.4,264.4z M374.3,248.7
				v3.6h2.9v1.3h-2.9v9.3c0,0.8,0.1,1.3,0.4,1.7s0.8,0.6,1.4,0.6c0.3,0,0.7,0,1.2-0.1l0.1,1.3c-0.4,0.1-1,0.2-1.6,0.2
				c-1.1,0-1.8-0.3-2.3-0.9c-0.5-0.6-0.7-1.5-0.7-2.7v-9.3h-2.6v-1.3h2.6v-3.6L374.3,248.7L374.3,248.7z"/>
			<path d="M388.6,289.6c-0.4,0.4-0.4,1.1,0,1.6l7,7c0.4,0.4,1.1,0.4,1.6,0c0.4-0.4,0.4-1.1,0-1.6l-6.2-6.2l6.2-6.2
				c0.4-0.4,0.4-1.1,0-1.6c-0.4-0.4-1.1-0.4-1.6,0L388.6,289.6z M389.4,291.5h2.1v-2.2h-2.1V291.5z M395.6,291.5h4.1v-2.2h-4.1
				V291.5z M403.8,291.5h4.1v-2.2h-4.1V291.5z M412.1,291.5h4.1v-2.2h-4.1V291.5z M420.3,291.5h4.1v-2.2h-4.1V291.5z M428.6,291.5
				h4.1v-2.2h-4.1V291.5z M436.8,291.5h4.1v-2.2h-4.1V291.5z M445.1,291.5h4.1v-2.2h-4.1V291.5z M453.3,291.5h2.1v-2.2h-2.1V291.5z"
				/>
			<line class="st18" x1="391.3" y1="254.1" x2="455.4" y2="254.1"/>
			<line class="st19" x1="391.3" y1="256.3" x2="455.4" y2="256.3"/>
			<line class="st20" x1="391.3" y1="258.5" x2="455.4" y2="258.5"/>
			<path d="M388.6,255.5c-0.4,0.4-0.4,1.1,0,1.6l7,7c0.4,0.4,1.1,0.4,1.6,0c0.4-0.4,0.4-1.1,0-1.6l-6.2-6.2l6.2-6.2
				c0.4-0.4,0.4-1.1,0-1.6c-0.4-0.4-1.1-0.4-1.6,0L388.6,255.5z M389.4,257.4h1.4v-2.2h-1.4V257.4z"/>
		</g>
	</g>
</g>
</svg>
