<?xml version="1.0" encoding="utf-8"?>
<!-- Generator: Adobe Illustrator 25.4.1, SVG Export Plug-In . SVG Version: 6.00 Build 0)  -->
<svg version="1.1" id="Layer_1" xmlns="http://www.w3.org/2000/svg" xmlns:xlink="http://www.w3.org/1999/xlink" x="0px" y="0px"
	 viewBox="0 0 840.6 614.8" style="enable-background:new 0 0 840.6 614.8;" xml:space="preserve">
<style type="text/css">
	.st0{clip-path:url(#SVGID_00000047058926522650033170000015214127421924322217_);}
	.st1{fill:#FFFFFF;}
	.st2{fill:#C4C4C4;stroke:#000000;stroke-width:2.2;}
	.st3{fill:#DEDEDE;}
	.st4{fill:none;stroke:#515151;stroke-width:1.1;}
	.st5{fill:none;stroke:#000000;stroke-width:2.2;}
	.st6{fill:#FFFFFF;stroke:#000000;stroke-width:2.2;}
	.st7{opacity:0.7;}
	.st8{fill:url(#SVGID_00000145031859975125745750000002152317453599480461_);}
	.st9{fill:url(#SVGID_00000036245317428531485770000016193393924150254472_);}
	.st10{fill:url(#SVGID_00000058561437629906561860000005414209530545120142_);}
	.st11{fill:url(#SVGID_00000142172296432803097160000005655759630362377136_);}
	.st12{fill:url(#SVGID_00000018212164163696457870000014965506470149401780_);}
	.st13{fill:url(#SVGID_00000108289905183186446440000000403849967377794693_);}
	.st14{fill:url(#SVGID_00000127039634826593670150000002100430616441801377_);}
	.st15{fill:url(#SVGID_00000088844528681957300890000010693668321192671367_);}
	.st16{fill:url(#SVGID_00000011739926545633134050000001376779766838494355_);}
	.st17{fill:url(#SVGID_00000159458720842012083920000017848203876134600869_);}
	.st18{fill:url(#SVGID_00000159458177665483789600000008845014763167330704_);}
	.st19{fill:url(#SVGID_00000023966741266386738520000001618945733853947574_);}
	.st20{fill:url(#SVGID_00000174567116649891506090000010600415916794601386_);}
	.st21{fill:url(#SVGID_00000106113039734996535400000011577164608857832100_);}
	.st22{fill:url(#SVGID_00000042013593582584954980000014345273419566132864_);}
	.st23{fill:url(#SVGID_00000144316151480777401100000006190692377696563367_);}
	.st24{fill:url(#SVGID_00000111169285518845682060000008822990034208856471_);}
	.st25{fill:url(#SVGID_00000085212590811164295790000002104999645312627868_);}
	.st26{fill:url(#SVGID_00000026123465506390356360000012585601757079339914_);}
	.st27{fill:#919191;}
</style>
<g>
	<defs>
		<rect id="SVGID_1_" width="840.4" height="616"/>
	</defs>
	<clipPath id="SVGID_00000018235518387919873990000014459015263038297999_">
		<use xlink:href="#SVGID_1_"  style="overflow:visible;"/>
	</clipPath>
	<g style="clip-path:url(#SVGID_00000018235518387919873990000014459015263038297999_);">
		<rect class="st1" width="840.4" height="616"/>
		<path d="M57.7,51.9c0,1.4-0.3,2.6-1,3.6c-0.7,1.1-1.6,1.9-2.8,2.5c1.4,0.7,2.4,1.6,3.2,2.7c0.8,1.1,1.2,2.5,1.2,4.1
			c0,2.5-0.9,4.5-2.6,5.9c-1.7,1.4-4,2.2-6.9,2.2c-2.9,0-5.2-0.7-7-2.2c-1.7-1.5-2.6-3.4-2.6-5.9c0-1.6,0.4-2.9,1.2-4.1
			c0.8-1.2,1.9-2.1,3.2-2.7c-1.2-0.6-2.1-1.5-2.8-2.5c-0.7-1.1-1-2.3-1-3.6c0-2.4,0.8-4.3,2.4-5.7c1.6-1.4,3.8-2.1,6.5-2.1
			c2.7,0,4.9,0.7,6.5,2.1C56.9,47.6,57.7,49.5,57.7,51.9z M52.7,64.5c0-1.2-0.4-2.2-1.1-2.9c-0.7-0.7-1.7-1.1-2.9-1.1
			c-1.2,0-2.1,0.4-2.8,1.1c-0.7,0.7-1.1,1.7-1.1,2.9c0,1.2,0.3,2.2,1,2.9c0.7,0.7,1.7,1.1,2.9,1.1c1.2,0,2.2-0.4,2.8-1.1
			C52.3,66.7,52.7,65.7,52.7,64.5z M52.1,52.2c0-1.1-0.3-2-0.9-2.6c-0.6-0.7-1.4-1-2.5-1c-1,0-1.9,0.3-2.4,1
			c-0.6,0.6-0.9,1.5-0.9,2.7c0,1.1,0.3,2,0.9,2.7c0.6,0.7,1.4,1,2.5,1c1.1,0,1.9-0.3,2.4-1C51.8,54.2,52.1,53.3,52.1,52.2z M71.3,62
			c0-3.3,0.7-5.9,2.2-7.8c1.5-1.9,3.5-2.9,6-2.9c2,0,3.7,0.8,5,2.3V42.9h5.6v29.7h-5l-0.3-2.2c-1.4,1.7-3.2,2.6-5.4,2.6
			c-2.5,0-4.4-1-5.9-2.9C72,68.1,71.3,65.4,71.3,62z M76.9,62.4c0,2,0.3,3.5,1,4.5c0.7,1,1.7,1.6,3,1.6c1.7,0,2.9-0.7,3.7-2.2V58
			c-0.7-1.5-1.9-2.2-3.6-2.2C78.2,55.8,76.9,58,76.9,62.4z M104.1,73c-3.1,0-5.6-0.9-7.5-2.8c-1.9-1.9-2.9-4.4-2.9-7.5v-0.5
			c0-2.1,0.4-4,1.2-5.6c0.8-1.7,2-2.9,3.4-3.8c1.5-0.9,3.2-1.4,5.1-1.4c2.9,0,5.1,0.9,6.7,2.7c1.7,1.8,2.5,4.4,2.5,7.7V64H99.4
			c0.2,1.4,0.7,2.5,1.6,3.3c0.9,0.8,2.1,1.2,3.5,1.2c2.2,0,3.8-0.8,5-2.3l2.7,3.1c-0.8,1.2-2,2.1-3.4,2.8
			C107.4,72.7,105.8,73,104.1,73z M103.5,55.8c-1.1,0-2,0.4-2.7,1.1c-0.7,0.7-1.1,1.8-1.3,3.2h7.8v-0.4c0-1.2-0.4-2.2-1-2.9
			C105.6,56.2,104.6,55.8,103.5,55.8z M123.4,65.8l3.9-14.1h5.8l-7.1,20.9h-5.3l-7.1-20.9h5.8L123.4,65.8z M141.5,72.6h-5.6V51.7
			h5.6V72.6z M135.6,46.3c0-0.8,0.3-1.5,0.8-2.1c0.6-0.5,1.3-0.8,2.3-0.8c1,0,1.7,0.3,2.3,0.8s0.9,1.2,0.9,2.1
			c0,0.9-0.3,1.5-0.9,2.1c-0.6,0.5-1.3,0.8-2.3,0.8c-0.9,0-1.7-0.3-2.3-0.8C135.9,47.8,135.6,47.1,135.6,46.3z M154.9,68.5
			c1,0,1.9-0.3,2.5-0.9c0.6-0.6,1-1.3,1-2.3h5.2c0,1.4-0.4,2.7-1.2,3.9c-0.8,1.2-1.8,2.1-3.1,2.7c-1.3,0.6-2.8,1-4.4,1
			c-3,0-5.3-0.9-7.1-2.8c-1.7-1.9-2.6-4.5-2.6-7.9v-0.4c0-3.2,0.9-5.8,2.6-7.7c1.7-1.9,4.1-2.9,7.1-2.9c2.6,0,4.7,0.7,6.3,2.2
			c1.6,1.5,2.4,3.5,2.4,5.9h-5.2c0-1.1-0.4-2-1-2.6c-0.6-0.7-1.5-1-2.6-1c-1.3,0-2.3,0.5-3,1.4c-0.7,0.9-1,2.5-1,4.6v0.6
			c0,2.2,0.3,3.7,1,4.6C152.5,68,153.5,68.5,154.9,68.5z M176.4,73c-3.1,0-5.6-0.9-7.5-2.8c-1.9-1.9-2.9-4.4-2.9-7.5v-0.5
			c0-2.1,0.4-4,1.2-5.6c0.8-1.7,2-2.9,3.4-3.8c1.5-0.9,3.2-1.4,5.1-1.4c2.9,0,5.1,0.9,6.7,2.7c1.7,1.8,2.5,4.4,2.5,7.7V64h-13.3
			c0.2,1.4,0.7,2.5,1.6,3.3c0.9,0.8,2.1,1.2,3.5,1.2c2.2,0,3.8-0.8,5-2.3l2.7,3.1c-0.8,1.2-2,2.1-3.4,2.8
			C179.8,72.7,178.2,73,176.4,73z M175.8,55.8c-1.1,0-2,0.4-2.7,1.1c-0.7,0.7-1.1,1.8-1.3,3.2h7.8v-0.4c0-1.2-0.4-2.2-1-2.9
			C177.9,56.2,177,55.8,175.8,55.8z M199.6,66.8c0-0.7-0.3-1.2-1-1.6c-0.7-0.4-1.8-0.8-3.2-1.1c-5-1-7.5-3.2-7.5-6.3
			c0-1.9,0.8-3.4,2.3-4.6c1.5-1.3,3.6-1.9,6.1-1.9c2.7,0,4.8,0.6,6.4,1.9c1.6,1.3,2.4,2.9,2.4,4.9h-5.6c0-0.8-0.3-1.5-0.8-2
			c-0.5-0.5-1.3-0.8-2.4-0.8c-0.9,0-1.7,0.2-2.2,0.6c-0.5,0.4-0.8,1-0.8,1.6c0,0.6,0.3,1.1,0.9,1.5c0.6,0.4,1.6,0.7,3,1
			c1.4,0.3,2.6,0.6,3.5,0.9c3,1.1,4.4,3,4.4,5.6c0,1.9-0.8,3.5-2.5,4.6c-1.6,1.2-3.8,1.8-6.3,1.8c-1.8,0-3.3-0.3-4.7-0.9
			c-1.4-0.6-2.4-1.5-3.2-2.6c-0.8-1.1-1.2-2.3-1.2-3.5h5.3c0.1,1,0.4,1.8,1.1,2.3c0.7,0.5,1.6,0.8,2.7,0.8c1.1,0,1.9-0.2,2.4-0.6
			C199.3,68,199.6,67.5,199.6,66.8z M210.1,79.7l-2.9-1.5l0.7-1.3c0.9-1.6,1.3-3.1,1.3-4.7v-4.3h4.7l0,3.9c0,1.4-0.4,2.9-1.1,4.3
			C212.1,77.5,211.2,78.7,210.1,79.7z M234,72.6h-5.6V51.7h5.6V72.6z M228.1,46.3c0-0.8,0.3-1.5,0.8-2.1c0.6-0.5,1.3-0.8,2.3-0.8
			c1,0,1.7,0.3,2.3,0.8c0.6,0.5,0.9,1.2,0.9,2.1c0,0.9-0.3,1.5-0.9,2.1c-0.6,0.5-1.3,0.8-2.3,0.8c-0.9,0-1.7-0.3-2.3-0.8
			C228.4,47.8,228.1,47.1,228.1,46.3z M243.8,51.7l0.2,2.4c1.5-1.9,3.5-2.8,6-2.8c2.2,0,3.9,0.7,4.9,2c1.1,1.3,1.6,3.2,1.7,5.8v13.5
			H251V59.2c0-1.2-0.3-2-0.8-2.6c-0.5-0.5-1.4-0.8-2.6-0.8c-1.6,0-2.8,0.7-3.5,2v14.8h-5.6V51.7H243.8z M279.7,62.3
			c0,3.2-0.7,5.8-2.2,7.8c-1.5,1.9-3.4,2.9-5.9,2.9c-2.1,0-3.8-0.7-5.1-2.2v9.9h-5.6v-29h5.2l0.2,2c1.4-1.6,3.1-2.4,5.3-2.4
			c2.6,0,4.6,1,6,2.9c1.4,1.9,2.1,4.5,2.1,7.9V62.3z M274.1,61.9c0-1.9-0.3-3.4-1-4.5c-0.7-1.1-1.7-1.6-3-1.6c-1.8,0-3,0.7-3.6,2
			v8.6c0.7,1.4,1.9,2.1,3.7,2.1C272.8,68.5,274.1,66.3,274.1,61.9z M295.7,70.5c-1.4,1.7-3.3,2.5-5.7,2.5c-2.2,0-4-0.6-5.1-1.9
			c-1.2-1.3-1.8-3.2-1.8-5.7V51.7h5.6v13.5c0,2.2,1,3.3,3,3.3c1.9,0,3.2-0.7,3.9-2V51.7h5.6v20.9h-5.3L295.7,70.5z M312,46.5v5.1
			h3.6v4.1H312v10.4c0,0.8,0.1,1.3,0.4,1.7c0.3,0.3,0.9,0.5,1.7,0.5c0.6,0,1.2,0,1.6-0.1v4.2c-1.1,0.3-2.2,0.5-3.4,0.5
			c-3.9,0-5.9-2-6-5.9V55.8h-3.1v-4.1h3.1v-5.1H312z M330,66.8c0-0.7-0.3-1.2-1-1.6c-0.7-0.4-1.8-0.8-3.2-1.1c-5-1-7.5-3.2-7.5-6.3
			c0-1.9,0.8-3.4,2.3-4.6c1.5-1.3,3.6-1.9,6.1-1.9c2.7,0,4.8,0.6,6.4,1.9c1.6,1.3,2.4,2.9,2.4,4.9h-5.6c0-0.8-0.3-1.5-0.8-2
			c-0.5-0.5-1.3-0.8-2.4-0.8c-0.9,0-1.7,0.2-2.2,0.6c-0.5,0.4-0.8,1-0.8,1.6c0,0.6,0.3,1.1,0.9,1.5c0.6,0.4,1.6,0.7,3,1
			c1.4,0.3,2.6,0.6,3.5,0.9c3,1.1,4.4,3,4.4,5.6c0,1.9-0.8,3.5-2.5,4.6c-1.6,1.2-3.8,1.8-6.3,1.8c-1.8,0-3.3-0.3-4.7-0.9
			c-1.4-0.6-2.4-1.5-3.2-2.6c-0.8-1.1-1.2-2.3-1.2-3.5h5.3c0.1,1,0.4,1.8,1.1,2.3c0.7,0.5,1.6,0.8,2.7,0.8c1.1,0,1.9-0.2,2.4-0.6
			C329.8,68,330,67.5,330,66.8z M348.1,61.9c0-2.1,0.4-3.9,1.2-5.5c0.8-1.6,1.9-2.9,3.4-3.8c1.5-0.9,3.3-1.3,5.2-1.3
			c2.8,0,5.1,0.9,6.9,2.6c1.8,1.7,2.8,4.1,3,7l0,1.4c0,3.2-0.9,5.8-2.7,7.7C363.4,72,361,73,358,73c-3,0-5.4-1-7.2-2.9
			c-1.8-1.9-2.7-4.6-2.7-7.9V61.9z M353.7,62.4c0,2,0.4,3.5,1.1,4.6c0.7,1,1.8,1.6,3.2,1.6c1.4,0,2.4-0.5,3.2-1.5
			c0.8-1,1.1-2.7,1.1-5c0-1.9-0.4-3.5-1.1-4.5c-0.8-1.1-1.8-1.6-3.2-1.6c-1.4,0-2.4,0.5-3.2,1.6C354.1,58.5,353.7,60.1,353.7,62.4z
			 M383.1,56.9c-0.8-0.1-1.4-0.2-2-0.2c-2.1,0-3.5,0.7-4.2,2.1v13.7h-5.6V51.7h5.3l0.2,2.5c1.1-1.9,2.7-2.9,4.7-2.9
			c0.6,0,1.2,0.1,1.7,0.3L383.1,56.9z M394.8,61.9c0-2.1,0.4-3.9,1.2-5.5c0.8-1.6,1.9-2.9,3.4-3.8c1.5-0.9,3.3-1.3,5.2-1.3
			c2.8,0,5.1,0.9,6.9,2.6c1.8,1.7,2.8,4.1,3,7l0,1.4c0,3.2-0.9,5.8-2.7,7.7c-1.8,1.9-4.2,2.9-7.2,2.9s-5.4-1-7.2-2.9
			c-1.8-1.9-2.7-4.6-2.7-7.9V61.9z M400.4,62.4c0,2,0.4,3.5,1.1,4.6c0.7,1,1.8,1.6,3.2,1.6c1.4,0,2.4-0.5,3.2-1.5
			c0.8-1,1.1-2.7,1.1-5c0-1.9-0.4-3.5-1.1-4.5c-0.8-1.1-1.8-1.6-3.2-1.6c-1.4,0-2.4,0.5-3.2,1.6C400.8,58.5,400.4,60.1,400.4,62.4z
			 M430.6,70.5c-1.4,1.7-3.3,2.5-5.7,2.5c-2.2,0-4-0.6-5.1-1.9c-1.2-1.3-1.8-3.2-1.8-5.7V51.7h5.6v13.5c0,2.2,1,3.3,3,3.3
			c1.9,0,3.2-0.7,3.9-2V51.7h5.6v20.9h-5.3L430.6,70.5z M446.9,46.5v5.1h3.6v4.1h-3.6v10.4c0,0.8,0.1,1.3,0.4,1.7
			c0.3,0.3,0.9,0.5,1.7,0.5c0.6,0,1.2,0,1.6-0.1v4.2c-1.1,0.3-2.2,0.5-3.4,0.5c-3.9,0-5.9-2-6-5.9V55.8h-3.1v-4.1h3.1v-5.1H446.9z
			 M472.4,62.3c0,3.2-0.7,5.8-2.2,7.8c-1.5,1.9-3.4,2.9-5.9,2.9c-2.1,0-3.8-0.7-5.1-2.2v9.9h-5.6v-29h5.2l0.2,2
			c1.4-1.6,3.1-2.4,5.3-2.4c2.6,0,4.6,1,6,2.9c1.4,1.9,2.1,4.5,2.1,7.9V62.3z M466.9,61.9c0-1.9-0.3-3.4-1-4.5
			c-0.7-1.1-1.7-1.6-3-1.6c-1.8,0-3,0.7-3.6,2v8.6c0.7,1.4,1.9,2.1,3.7,2.1C465.5,68.5,466.9,66.3,466.9,61.9z M488.4,70.5
			c-1.4,1.7-3.3,2.5-5.7,2.5c-2.2,0-4-0.6-5.1-1.9c-1.2-1.3-1.8-3.2-1.8-5.7V51.7h5.6v13.5c0,2.2,1,3.3,3,3.3c1.9,0,3.2-0.7,3.9-2
			V51.7h5.6v20.9h-5.3L488.4,70.5z M504.8,46.5v5.1h3.6v4.1h-3.6v10.4c0,0.8,0.1,1.3,0.4,1.7c0.3,0.3,0.9,0.5,1.7,0.5
			c0.6,0,1.2,0,1.6-0.1v4.2c-1.1,0.3-2.2,0.5-3.4,0.5c-3.9,0-5.9-2-6-5.9V55.8h-3.1v-4.1h3.1v-5.1H504.8z M522.8,66.8
			c0-0.7-0.3-1.2-1-1.6c-0.7-0.4-1.8-0.8-3.2-1.1c-5-1-7.5-3.2-7.5-6.3c0-1.9,0.8-3.4,2.3-4.6c1.5-1.3,3.6-1.9,6.1-1.9
			c2.7,0,4.8,0.6,6.4,1.9c1.6,1.3,2.4,2.9,2.4,4.9h-5.6c0-0.8-0.3-1.5-0.8-2c-0.5-0.5-1.3-0.8-2.4-0.8c-0.9,0-1.7,0.2-2.2,0.6
			c-0.5,0.4-0.8,1-0.8,1.6c0,0.6,0.3,1.1,0.9,1.5c0.6,0.4,1.6,0.7,3,1c1.4,0.3,2.6,0.6,3.5,0.9c3,1.1,4.4,3,4.4,5.6
			c0,1.9-0.8,3.5-2.5,4.6c-1.6,1.2-3.8,1.8-6.3,1.8c-1.8,0-3.3-0.3-4.7-0.9c-1.4-0.6-2.4-1.5-3.2-2.6c-0.8-1.1-1.2-2.3-1.2-3.5h5.3
			c0.1,1,0.4,1.8,1.1,2.3c0.7,0.5,1.6,0.8,2.7,0.8c1.1,0,1.9-0.2,2.4-0.6C522.5,68,522.8,67.5,522.8,66.8z"/>
		<path class="st2" d="M1255.1,482.9v-352c0-4.9-3.9-8.8-8.8-8.8h-34.9c-2.3,0-4.6-0.9-6.2-2.6l-0.3-0.3c-1.7-1.7-3.9-2.6-6.2-2.6
			h-575c0,3-2.5,5.5-5.5,5.5h-92.4v26.4c0,1.8-1.5,3.3-3.3,3.3s-3.3,1.5-3.3,3.3V528h62.7c4.9,0,8.8-3.9,8.8-8.8v-20.9
			c0-3.6,3-6.6,6.6-6.6h53.9c3.6,0,6.6,3,6.6,6.6v20.9c0,4.9,3.9,8.8,8.8,8.8h14.3c4.9,0,8.8-3.9,8.8-8.8v-17.6c0,0,0-9.9,9.9-9.9
			c9.9,0,9.9,9.9,9.9,9.9v42.9c0,2.4,2,4.4,4.4,4.4h38.5c2.4,0,4.4-2,4.4-4.4V517c0,0,0-5.5,5.5-5.5s5.5,5.5,5.5,5.5v27.5
			c0,2.4,2,4.4,4.4,4.4h132c2.4,0,4.4-2,4.4-4.4v-44c0-4.9,3.9-8.8,8.8-8.8h328.9C1251.2,491.7,1255.1,487.8,1255.1,482.9z"/>
		<path class="st3" d="M492.8,173.8c0-1.2,1-2.2,2.2-2.2h19.8v28.6H495c-1.2,0-2.2-1-2.2-2.2V173.8z"/>
		<line class="st4" x1="499.9" y1="171.6" x2="502.1" y2="200.2"/>
		<line class="st4" x1="497.7" y1="171.6" x2="499.9" y2="200.2"/>
		<line class="st4" x1="502.1" y1="171.6" x2="504.3" y2="200.2"/>
		<line class="st4" x1="504.3" y1="171.6" x2="506.5" y2="200.2"/>
		<line class="st4" x1="506.5" y1="171.6" x2="508.7" y2="200.2"/>
		<line class="st4" x1="508.7" y1="171.6" x2="510.9" y2="200.2"/>
		<line class="st4" x1="510.9" y1="171.6" x2="513.1" y2="200.2"/>
		<line class="st4" x1="513.1" y1="171.6" x2="515.3" y2="200.2"/>
		<path class="st5" d="M492.8,173.8c0-1.2,1-2.2,2.2-2.2h19.8v28.6H495c-1.2,0-2.2-1-2.2-2.2V173.8z"/>
		<path class="st6" d="M466.4,178.2c0-1.2,1-2.2,2.2-2.2h24.2v19.8h-24.2c-1.2,0-2.2-1-2.2-2.2V178.2z"/>
		<line class="st5" x1="474.1" y1="176" x2="474.1" y2="195.8"/>
		<path class="st3" d="M492.8,209c0-1.2,1-2.2,2.2-2.2h19.8v28.6H495c-1.2,0-2.2-1-2.2-2.2V209z"/>
		<line class="st4" x1="499.9" y1="206.8" x2="502.1" y2="235.4"/>
		<line class="st4" x1="497.7" y1="206.8" x2="499.9" y2="235.4"/>
		<line class="st4" x1="502.1" y1="206.8" x2="504.3" y2="235.4"/>
		<line class="st4" x1="504.3" y1="206.8" x2="506.5" y2="235.4"/>
		<line class="st4" x1="506.5" y1="206.8" x2="508.7" y2="235.4"/>
		<line class="st4" x1="508.7" y1="206.8" x2="510.9" y2="235.4"/>
		<line class="st4" x1="510.9" y1="206.8" x2="513.1" y2="235.4"/>
		<line class="st4" x1="513.1" y1="206.8" x2="515.3" y2="235.4"/>
		<path class="st5" d="M492.8,209c0-1.2,1-2.2,2.2-2.2h19.8v28.6H495c-1.2,0-2.2-1-2.2-2.2V209z"/>
		<path class="st6" d="M466.4,213.4c0-1.2,1-2.2,2.2-2.2h24.2V231h-24.2c-1.2,0-2.2-1-2.2-2.2V213.4z"/>
		<line class="st5" x1="474.1" y1="211.2" x2="474.1" y2="231"/>
		<path class="st3" d="M492.8,244.2c0-1.2,1-2.2,2.2-2.2h19.8v28.6H495c-1.2,0-2.2-1-2.2-2.2V244.2z"/>
		<line class="st4" x1="499.9" y1="242" x2="502.1" y2="270.6"/>
		<line class="st4" x1="497.7" y1="242" x2="499.9" y2="270.6"/>
		<line class="st4" x1="502.1" y1="242" x2="504.3" y2="270.6"/>
		<line class="st4" x1="504.3" y1="242" x2="506.5" y2="270.6"/>
		<line class="st4" x1="506.5" y1="242" x2="508.7" y2="270.6"/>
		<line class="st4" x1="508.7" y1="242" x2="510.9" y2="270.6"/>
		<line class="st4" x1="510.9" y1="242" x2="513.1" y2="270.6"/>
		<line class="st4" x1="513.1" y1="242" x2="515.3" y2="270.6"/>
		<path class="st5" d="M492.8,244.2c0-1.2,1-2.2,2.2-2.2h19.8v28.6H495c-1.2,0-2.2-1-2.2-2.2V244.2z"/>
		<path class="st6" d="M466.4,248.6c0-1.2,1-2.2,2.2-2.2h24.2v19.8h-24.2c-1.2,0-2.2-1-2.2-2.2V248.6z"/>
		<line class="st5" x1="474.1" y1="246.4" x2="474.1" y2="266.2"/>
		<path class="st3" d="M492.8,279.4c0-1.2,1-2.2,2.2-2.2h19.8v28.6H495c-1.2,0-2.2-1-2.2-2.2V279.4z"/>
		<line class="st4" x1="499.9" y1="277.2" x2="502.1" y2="305.8"/>
		<line class="st4" x1="497.7" y1="277.2" x2="499.9" y2="305.8"/>
		<line class="st4" x1="502.1" y1="277.2" x2="504.3" y2="305.8"/>
		<line class="st4" x1="504.3" y1="277.2" x2="506.5" y2="305.8"/>
		<line class="st4" x1="506.5" y1="277.2" x2="508.7" y2="305.8"/>
		<line class="st4" x1="508.7" y1="277.2" x2="510.9" y2="305.8"/>
		<line class="st4" x1="510.9" y1="277.2" x2="513.1" y2="305.8"/>
		<line class="st4" x1="513.1" y1="277.2" x2="515.3" y2="305.8"/>
		<path class="st5" d="M492.8,279.4c0-1.2,1-2.2,2.2-2.2h19.8v28.6H495c-1.2,0-2.2-1-2.2-2.2V279.4z"/>
		<path class="st6" d="M466.4,283.8c0-1.2,1-2.2,2.2-2.2h24.2v19.8h-24.2c-1.2,0-2.2-1-2.2-2.2V283.8z"/>
		<line class="st5" x1="474.1" y1="281.6" x2="474.1" y2="301.4"/>
		<path class="st3" d="M492.8,314.6c0-1.2,1-2.2,2.2-2.2h19.8V341H495c-1.2,0-2.2-1-2.2-2.2V314.6z"/>
		<line class="st4" x1="499.9" y1="312.4" x2="502.1" y2="341"/>
		<line class="st4" x1="497.7" y1="312.4" x2="499.9" y2="341"/>
		<line class="st4" x1="502.1" y1="312.4" x2="504.3" y2="341"/>
		<line class="st4" x1="504.3" y1="312.4" x2="506.5" y2="341"/>
		<line class="st4" x1="506.5" y1="312.4" x2="508.7" y2="341"/>
		<line class="st4" x1="508.7" y1="312.4" x2="510.9" y2="341"/>
		<line class="st4" x1="510.9" y1="312.4" x2="513.1" y2="341"/>
		<line class="st4" x1="513.1" y1="312.4" x2="515.3" y2="341"/>
		<path class="st5" d="M492.8,314.6c0-1.2,1-2.2,2.2-2.2h19.8V341H495c-1.2,0-2.2-1-2.2-2.2V314.6z"/>
		<path class="st6" d="M466.4,319c0-1.2,1-2.2,2.2-2.2h24.2v19.8h-24.2c-1.2,0-2.2-1-2.2-2.2V319z"/>
		<line class="st5" x1="474.1" y1="316.8" x2="474.1" y2="336.6"/>
		<path class="st3" d="M492.8,349.8c0-1.2,1-2.2,2.2-2.2h19.8v28.6H495c-1.2,0-2.2-1-2.2-2.2V349.8z"/>
		<line class="st4" x1="499.9" y1="347.6" x2="502.1" y2="376.2"/>
		<line class="st4" x1="497.7" y1="347.6" x2="499.9" y2="376.2"/>
		<line class="st4" x1="502.1" y1="347.6" x2="504.3" y2="376.2"/>
		<line class="st4" x1="504.3" y1="347.6" x2="506.5" y2="376.2"/>
		<line class="st4" x1="506.5" y1="347.6" x2="508.7" y2="376.2"/>
		<line class="st4" x1="508.7" y1="347.6" x2="510.9" y2="376.2"/>
		<line class="st4" x1="510.9" y1="347.6" x2="513.1" y2="376.2"/>
		<line class="st4" x1="513.1" y1="347.6" x2="515.3" y2="376.2"/>
		<path class="st5" d="M492.8,349.8c0-1.2,1-2.2,2.2-2.2h19.8v28.6H495c-1.2,0-2.2-1-2.2-2.2V349.8z"/>
		<path class="st6" d="M466.4,354.2c0-1.2,1-2.2,2.2-2.2h24.2v19.8h-24.2c-1.2,0-2.2-1-2.2-2.2V354.2z"/>
		<line class="st5" x1="474.1" y1="352" x2="474.1" y2="371.8"/>
		<path class="st3" d="M492.8,385c0-1.2,1-2.2,2.2-2.2h19.8v28.6H495c-1.2,0-2.2-1-2.2-2.2V385z"/>
		<line class="st4" x1="499.9" y1="382.8" x2="502.1" y2="411.4"/>
		<line class="st4" x1="497.7" y1="382.8" x2="499.9" y2="411.4"/>
		<line class="st4" x1="502.1" y1="382.8" x2="504.3" y2="411.4"/>
		<line class="st4" x1="504.3" y1="382.8" x2="506.5" y2="411.4"/>
		<line class="st4" x1="506.5" y1="382.8" x2="508.7" y2="411.4"/>
		<line class="st4" x1="508.7" y1="382.8" x2="510.9" y2="411.4"/>
		<line class="st4" x1="510.9" y1="382.8" x2="513.1" y2="411.4"/>
		<line class="st4" x1="513.1" y1="382.8" x2="515.3" y2="411.4"/>
		<path class="st5" d="M492.8,385c0-1.2,1-2.2,2.2-2.2h19.8v28.6H495c-1.2,0-2.2-1-2.2-2.2V385z"/>
		<path class="st6" d="M466.4,389.4c0-1.2,1-2.2,2.2-2.2h24.2V407h-24.2c-1.2,0-2.2-1-2.2-2.2V389.4z"/>
		<line class="st5" x1="474.1" y1="387.2" x2="474.1" y2="407"/>
		<path class="st3" d="M492.8,420.2c0-1.2,1-2.2,2.2-2.2h19.8v28.6H495c-1.2,0-2.2-1-2.2-2.2V420.2z"/>
		<line class="st4" x1="499.9" y1="418" x2="502.1" y2="446.6"/>
		<line class="st4" x1="497.7" y1="418" x2="499.9" y2="446.6"/>
		<line class="st4" x1="502.1" y1="418" x2="504.3" y2="446.6"/>
		<line class="st4" x1="504.3" y1="418" x2="506.5" y2="446.6"/>
		<line class="st4" x1="506.5" y1="418" x2="508.7" y2="446.6"/>
		<line class="st4" x1="508.7" y1="418" x2="510.9" y2="446.6"/>
		<line class="st4" x1="510.9" y1="418" x2="513.1" y2="446.6"/>
		<line class="st4" x1="513.1" y1="418" x2="515.3" y2="446.6"/>
		<path class="st5" d="M492.8,420.2c0-1.2,1-2.2,2.2-2.2h19.8v28.6H495c-1.2,0-2.2-1-2.2-2.2V420.2z"/>
		<path class="st6" d="M466.4,424.6c0-1.2,1-2.2,2.2-2.2h24.2v19.8h-24.2c-1.2,0-2.2-1-2.2-2.2V424.6z"/>
		<line class="st5" x1="474.1" y1="422.4" x2="474.1" y2="442.2"/>
		<path class="st3" d="M492.8,455.4c0-1.2,1-2.2,2.2-2.2h19.8v28.6H495c-1.2,0-2.2-1-2.2-2.2V455.4z"/>
		<line class="st4" x1="499.9" y1="453.2" x2="502.1" y2="481.8"/>
		<line class="st4" x1="497.7" y1="453.2" x2="499.9" y2="481.8"/>
		<line class="st4" x1="502.1" y1="453.2" x2="504.3" y2="481.8"/>
		<line class="st4" x1="504.3" y1="453.2" x2="506.5" y2="481.8"/>
		<line class="st4" x1="506.5" y1="453.2" x2="508.7" y2="481.8"/>
		<line class="st4" x1="508.7" y1="453.2" x2="510.9" y2="481.8"/>
		<line class="st4" x1="510.9" y1="453.2" x2="513.1" y2="481.8"/>
		<line class="st4" x1="513.1" y1="453.2" x2="515.3" y2="481.8"/>
		<path class="st5" d="M492.8,455.4c0-1.2,1-2.2,2.2-2.2h19.8v28.6H495c-1.2,0-2.2-1-2.2-2.2V455.4z"/>
		<path class="st6" d="M466.4,459.8c0-1.2,1-2.2,2.2-2.2h24.2v19.8h-24.2c-1.2,0-2.2-1-2.2-2.2V459.8z"/>
		<line class="st5" x1="474.1" y1="457.6" x2="474.1" y2="477.4"/>
		<g class="st7">
			
				<linearGradient id="SVGID_00000036241837709611630810000003986965938346111421_" gradientUnits="userSpaceOnUse" x1="457.6" y1="151.6" x2="386.3728" y2="151.6" gradientTransform="matrix(1 0 0 -1 0 618)">
				<stop  offset="0" style="stop-color:#000000"/>
				<stop  offset="1" style="stop-color:#000000;stop-opacity:0"/>
			</linearGradient>
			<path style="fill:url(#SVGID_00000036241837709611630810000003986965938346111421_);" d="M458.4,467.2c0.4-0.4,0.4-1.1,0-1.6
				l-7-7c-0.4-0.4-1.1-0.4-1.6,0c-0.4,0.4-0.4,1.1,0,1.6l6.2,6.2l-6.2,6.2c-0.4,0.4-0.4,1.1,0,1.6c0.4,0.4,1.1,0.4,1.6,0
				L458.4,467.2z M457.6,465.3H345.4v2.2h112.2V465.3z"/>
		</g>
		<g class="st7">
			<path d="M285.6,467.6h-4.4v7.6h-2.5v-18.8h6.2c2.1,0,3.7,0.5,4.9,1.4c1.1,1,1.7,2.4,1.7,4.2c0,1.2-0.3,2.2-1,3.1
				c-0.6,0.9-1.5,1.5-2.6,1.9l4.4,8v0.2h-2.7L285.6,467.6z M281.2,465.6h3.8c1.2,0,2.2-0.3,2.9-1c0.7-0.6,1.1-1.5,1.1-2.6
				c0-1.2-0.3-2-1-2.7c-0.7-0.6-1.7-0.9-3-0.9h-3.8V465.6z M300.4,475.5c-1.9,0-3.4-0.6-4.6-1.9c-1.2-1.2-1.8-2.9-1.8-5v-0.4
				c0-1.4,0.3-2.6,0.8-3.7c0.5-1.1,1.3-1.9,2.2-2.6c1-0.6,2-0.9,3.1-0.9c1.8,0,3.2,0.6,4.2,1.8c1,1.2,1.5,2.9,1.5,5.1v1h-9.4
				c0,1.4,0.4,2.5,1.2,3.3c0.8,0.8,1.8,1.3,2.9,1.3c0.8,0,1.6-0.2,2.1-0.5c0.6-0.3,1.1-0.8,1.5-1.4l1.5,1.1
				C304.5,474.6,302.7,475.5,300.4,475.5z M300.1,463c-1,0-1.8,0.4-2.4,1.1c-0.7,0.7-1.1,1.7-1.2,2.9h7v-0.2c-0.1-1.2-0.4-2.1-1-2.8
				C301.9,463.3,301.1,463,300.1,463z M309.8,475.2v-12.1h-2.2v-1.8h2.2v-1.4c0-1.5,0.4-2.7,1.2-3.5c0.8-0.8,1.9-1.2,3.4-1.2
				c0.6,0,1.1,0.1,1.6,0.2l-0.1,1.9c-0.4-0.1-0.8-0.1-1.3-0.1c-0.8,0-1.4,0.2-1.8,0.7c-0.4,0.4-0.6,1.1-0.6,1.9v1.5h3v1.8h-3v12.1
				H309.8z M326.3,475.2h-1.5v-13.9h1.5V475.2z M324.4,457.2c0-0.3,0.1-0.5,0.3-0.7c0.2-0.2,0.4-0.3,0.8-0.3c0.3,0,0.6,0.1,0.8,0.3
				c0.2,0.2,0.3,0.4,0.3,0.7c0,0.3-0.1,0.5-0.3,0.7c-0.2,0.2-0.4,0.3-0.8,0.3c-0.3,0-0.6-0.1-0.8-0.3
				C324.5,457.8,324.4,457.5,324.4,457.2z M331.9,461.3l0.1,2.4c0.5-0.9,1.2-1.5,2-2c0.8-0.5,1.6-0.7,2.6-0.7c1.5,0,2.6,0.4,3.3,1.3
				c0.7,0.8,1.1,2.1,1.1,3.8v9.2h-1.5V466c0-1.2-0.3-2.2-0.8-2.8c-0.5-0.6-1.3-0.9-2.5-0.9c-1,0-1.8,0.3-2.5,0.9
				c-0.7,0.6-1.3,1.4-1.6,2.4v9.6h-1.5v-13.9H331.9z M356.2,468.4c0,2.2-0.5,3.9-1.4,5.2c-1,1.3-2.3,1.9-3.9,1.9
				c-1.9,0-3.4-0.7-4.4-2v7.1H345v-19.3h1.4l0.1,2c1-1.5,2.5-2.2,4.4-2.2c1.7,0,3,0.6,3.9,1.9c1,1.3,1.4,3,1.4,5.3V468.4z
				 M354.6,468.1c0-1.8-0.4-3.2-1.1-4.2c-0.7-1-1.7-1.5-3.1-1.5c-0.9,0-1.8,0.2-2.4,0.7c-0.7,0.5-1.2,1.1-1.6,2v6.7
				c0.4,0.8,0.9,1.4,1.6,1.8c0.7,0.4,1.5,0.6,2.4,0.6c1.3,0,2.3-0.5,3-1.5C354.3,471.6,354.6,470.1,354.6,468.1z M368.6,473.4
				c-0.9,1.4-2.4,2-4.4,2c-1.5,0-2.6-0.4-3.4-1.3c-0.8-0.9-1.2-2.1-1.2-3.8v-9.1h1.5v8.9c0,2.7,1.1,4,3.2,4c2.2,0,3.6-0.9,4.2-2.8
				v-10.1h1.5v13.9h-1.5L368.6,473.4z M376.5,457.7v3.6h2.9v1.3h-2.9v9.3c0,0.8,0.1,1.3,0.4,1.7c0.3,0.4,0.8,0.6,1.4,0.6
				c0.3,0,0.7,0,1.2-0.1l0.1,1.3c-0.4,0.1-1,0.2-1.6,0.2c-1.1,0-1.8-0.3-2.3-0.9c-0.5-0.6-0.7-1.5-0.7-2.7v-9.3h-2.6v-1.3h2.6v-3.6
				H376.5z"/>
		</g>
		<path class="st1" d="M513.7,105.6v490.6h5.5v-74.8h4.4l9.9-9.9V150.7l-5.3-5.3l-1.2-1.2l-2.3-2.3l-0.1-0.1h-1.1
			c-1.8,0-3.3-1.5-3.3-3.3v-35.2c0-3.6-3-6.6-6.6-6.6h-53.9v6.6h51.7C512.7,103.4,513.7,104.4,513.7,105.6z"/>
		<path d="M513.7,596.2h-1.1c0,0.6,0.5,1.1,1.1,1.1V596.2z M459.8,103.4h-1.1c0,0.6,0.5,1.1,1.1,1.1V103.4z M459.8,96.8v-1.1
			c-0.6,0-1.1,0.5-1.1,1.1H459.8z M533.5,150.7h1.1c0-0.3-0.1-0.6-0.3-0.8L533.5,150.7z M533.5,511.5l0.8,0.8
			c0.2-0.2,0.3-0.5,0.3-0.8H533.5z M523.6,521.4v1.1c0.3,0,0.6-0.1,0.8-0.3L523.6,521.4z M519.2,521.4v-1.1c-0.6,0-1.1,0.5-1.1,1.1
			H519.2z M519.2,596.2v1.1c0.6,0,1.1-0.5,1.1-1.1H519.2z M524.7,141.9l0.8-0.8c-0.2-0.2-0.5-0.3-0.8-0.3V141.9z M514.8,596.2V105.6
			h-2.2v490.6H514.8z M511.5,102.3h-51.7v2.2h51.7V102.3z M460.9,103.4v-6.6h-2.2v6.6H460.9z M532.4,150.7v360.8h2.2V150.7H532.4z
			 M532.7,510.7l-9.9,9.9l1.6,1.6l9.9-9.9L532.7,510.7z M523.6,520.3h-4.4v2.2h4.4V520.3z M518.1,521.4v74.8h2.2v-74.8H518.1z
			 M519.2,595.1h-5.5v2.2h5.5V595.1z M519.2,103.4v35.2h2.2v-35.2H519.2z M459.8,97.9h53.9v-2.2h-53.9V97.9z M523.9,142.7
			L523.9,142.7l1.6-1.5l-0.1-0.1L523.9,142.7z M524,142.8l2.3,2.3l1.6-1.6l-2.3-2.3L524,142.8z M526.3,145l1.2,1.2l1.6-1.6l-1.2-1.2
			L526.3,145z M527.4,146.2l5.3,5.3l1.6-1.6l-5.3-5.3L527.4,146.2z M523.6,143h1.1v-2.2h-1.1V143z M519.2,138.6c0,2.4,2,4.4,4.4,4.4
			v-2.2c-1.2,0-2.2-1-2.2-2.2H519.2z M521.4,103.4c0-4.3-3.4-7.7-7.7-7.7v2.2c3,0,5.5,2.5,5.5,5.5H521.4z M514.8,105.6
			c0-1.8-1.5-3.3-3.3-3.3v2.2c0.6,0,1.1,0.5,1.1,1.1H514.8z"/>
		
			<linearGradient id="SVGID_00000030479914400284765680000011034577785106850743_" gradientUnits="userSpaceOnUse" x1="838.2" y1="85.0698" x2="838.2" y2="109.4964" gradientTransform="matrix(1 0 0 -1 0 618)">
			<stop  offset="0" style="stop-color:#AFAFAF"/>
			<stop  offset="1" style="stop-color:#C2C2C2;stop-opacity:0"/>
		</linearGradient>
		<path style="fill:url(#SVGID_00000030479914400284765680000011034577785106850743_);" d="M904.2,547.8V517h-132v30.8H904.2z"/>
		
			<linearGradient id="SVGID_00000096775734453624872870000001673560552982287509_" gradientUnits="userSpaceOnUse" x1="733.7" y1="85.0698" x2="733.7" y2="109.4964" gradientTransform="matrix(1 0 0 -1 0 618)">
			<stop  offset="0" style="stop-color:#AFAFAF"/>
			<stop  offset="1" style="stop-color:#C2C2C2;stop-opacity:0"/>
		</linearGradient>
		<path style="fill:url(#SVGID_00000096775734453624872870000001673560552982287509_);" d="M752.4,547.8V517H715v30.8H752.4z"/>
		<path d="M150.5,431.6c-2.1-0.6-3.7-1.4-4.6-2.2c-1-0.9-1.4-2-1.4-3.3c0-1.5,0.6-2.7,1.8-3.7c1.2-1,2.7-1.5,4.6-1.5
			c1.3,0,2.4,0.2,3.4,0.7c1,0.5,1.8,1.2,2.3,2.1c0.6,0.9,0.8,1.8,0.8,2.9h-2.5c0-1.1-0.4-2-1.1-2.7c-0.7-0.7-1.7-1-3.1-1
			c-1.2,0-2.2,0.3-2.9,0.8c-0.7,0.5-1,1.3-1,2.2c0,0.8,0.3,1.4,1,1.9c0.7,0.5,1.8,1,3.3,1.4c1.6,0.4,2.8,0.9,3.7,1.5
			c0.9,0.5,1.5,1.1,2,1.8c0.4,0.7,0.6,1.5,0.6,2.5c0,1.5-0.6,2.7-1.8,3.7c-1.2,0.9-2.8,1.4-4.8,1.4c-1.3,0-2.5-0.2-3.6-0.7
			c-1.1-0.5-2-1.2-2.6-2c-0.6-0.9-0.9-1.8-0.9-2.9h2.5c0,1.1,0.4,2,1.3,2.7c0.8,0.7,2,1,3.4,1c1.3,0,2.3-0.3,3-0.8s1-1.3,1-2.2
			c0-0.9-0.3-1.6-1-2.1C153.3,432.6,152.2,432.1,150.5,431.6z M160.6,440v-18.8h5.3c1.6,0,3.1,0.4,4.3,1.1c1.3,0.7,2.2,1.7,2.9,3.1
			c0.7,1.3,1,2.9,1,4.6v1.2c0,1.8-0.3,3.3-1,4.7c-0.7,1.3-1.7,2.4-2.9,3.1c-1.3,0.7-2.7,1.1-4.4,1.1H160.6z M163.1,423.3V438h2.6
			c1.9,0,3.4-0.6,4.4-1.8c1.1-1.2,1.6-2.9,1.6-5.1V430c0-2.1-0.5-3.8-1.5-5c-1-1.2-2.4-1.8-4.3-1.8H163.1z M180.6,440h-2.5v-18.8
			h2.5V440z M199.8,440h-3.7v-14.4l-4.4,1.4v-3l7.8-2.8h0.4V440z M215,440h-1.5v-13.9h1.5V440z M213.2,422c0-0.3,0.1-0.5,0.3-0.7
			c0.2-0.2,0.4-0.3,0.8-0.3s0.6,0.1,0.8,0.3c0.2,0.2,0.3,0.4,0.3,0.7c0,0.3-0.1,0.5-0.3,0.7c-0.2,0.2-0.4,0.3-0.8,0.3
			s-0.6-0.1-0.8-0.3C213.3,422.6,213.2,422.3,213.2,422z M220.7,426.1l0.1,2.4c0.5-0.9,1.2-1.5,2-2c0.8-0.5,1.6-0.7,2.6-0.7
			c1.5,0,2.6,0.4,3.3,1.3c0.7,0.8,1.1,2.1,1.1,3.8v9.2h-1.5v-9.2c0-1.2-0.3-2.2-0.8-2.8c-0.5-0.6-1.3-0.9-2.5-0.9
			c-1,0-1.8,0.3-2.5,0.9c-0.7,0.6-1.3,1.4-1.6,2.4v9.6h-1.5v-13.9H220.7z M244.9,433.2c0,2.2-0.5,3.9-1.4,5.2
			c-1,1.3-2.3,1.9-3.9,1.9c-1.9,0-3.4-0.7-4.4-2v7.1h-1.5v-19.3h1.4l0.1,2c1-1.5,2.5-2.2,4.4-2.2c1.7,0,3,0.6,3.9,1.9
			c1,1.3,1.4,3,1.4,5.3V433.2z M243.4,432.9c0-1.8-0.4-3.2-1.1-4.2c-0.7-1-1.7-1.5-3.1-1.5c-0.9,0-1.8,0.2-2.4,0.7
			c-0.7,0.5-1.2,1.1-1.6,2v6.7c0.4,0.8,0.9,1.4,1.6,1.8c0.7,0.4,1.5,0.6,2.4,0.6c1.3,0,2.3-0.5,3-1.5
			C243,436.4,243.4,434.9,243.4,432.9z M257.3,438.2c-0.9,1.4-2.4,2-4.4,2c-1.5,0-2.6-0.4-3.4-1.3c-0.8-0.9-1.2-2.1-1.2-3.8v-9.1
			h1.5v8.9c0,2.7,1.1,4,3.2,4c2.2,0,3.6-0.9,4.2-2.8v-10.1h1.5V440h-1.5L257.3,438.2z M265.3,422.5v3.6h2.9v1.3h-2.9v9.3
			c0,0.8,0.1,1.3,0.4,1.7c0.3,0.4,0.8,0.6,1.4,0.6c0.3,0,0.7,0,1.3-0.1l0.1,1.3c-0.4,0.1-1,0.2-1.6,0.2c-1.1,0-1.8-0.3-2.3-0.9
			c-0.5-0.6-0.7-1.5-0.7-2.7v-9.3h-2.6v-1.3h2.6v-3.6H265.3z M276.7,432.9c0.2-1.3,0.6-2.6,1.2-3.7c0.7-1.1,1.5-2,2.5-2.6
			c1-0.6,2.1-0.9,3.3-0.8c1.2,0,2.1,0.3,2.9,1c0.8,0.6,1.4,1.4,1.8,2.5c0.4,1.1,0.5,2.2,0.4,3.5l0,0.2c-0.3,2.2-1,4-2.3,5.3
			c-1.3,1.3-2.9,2-4.7,1.9c-1.6,0-2.8-0.6-3.8-1.7c-0.9-1.1-1.4-2.6-1.4-4.5l0-0.7L276.7,432.9z M278.2,433.3c-0.1,1,0,2,0.2,2.8
			c0.3,0.9,0.7,1.5,1.3,2c0.6,0.5,1.3,0.7,2.2,0.8c0.9,0,1.8-0.2,2.5-0.7c0.8-0.5,1.4-1.2,1.9-2.1c0.5-0.9,0.8-1.9,1-3l0-0.4
			c0.2-1.7-0.1-3-0.8-4.1c-0.7-1.1-1.6-1.6-2.9-1.6c-1.4,0-2.6,0.5-3.6,1.6c-1,1.1-1.6,2.6-1.8,4.4L278.2,433.3z M299.4,427.4
			c-0.3-0.1-0.7-0.1-1-0.1c-1,0-1.9,0.3-2.7,0.9c-0.8,0.6-1.4,1.4-1.6,2.3l-1.6,9.6h-1.5l2.4-13.9h1.5l-0.5,2.2
			c0.5-0.8,1.1-1.5,1.8-1.9c0.7-0.4,1.5-0.6,2.4-0.6c0.3,0,0.7,0.1,1.1,0.2L299.4,427.4z M306.6,432.8c0-1.3,0.3-2.5,0.8-3.6
			c0.5-1.1,1.3-1.9,2.2-2.5c1-0.6,2-0.9,3.2-0.9c1.9,0,3.4,0.7,4.5,2c1.2,1.3,1.7,3,1.7,5.2v0.3c0,1.3-0.3,2.6-0.8,3.6
			c-0.5,1.1-1.2,1.9-2.2,2.5c-0.9,0.6-2,0.9-3.2,0.9c-1.8,0-3.4-0.6-4.5-1.9c-1.2-1.3-1.7-3-1.7-5.2V432.8z M308.1,433.2
			c0,1.7,0.4,3,1.3,4.1c0.9,1.1,2,1.6,3.4,1.6c1.4,0,2.5-0.5,3.4-1.6c0.9-1.1,1.3-2.5,1.3-4.2v-0.3c0-1.1-0.2-2-0.6-2.9
			c-0.4-0.9-1-1.6-1.7-2c-0.7-0.5-1.5-0.7-2.4-0.7c-1.4,0-2.5,0.5-3.4,1.6c-0.9,1.1-1.3,2.5-1.3,4.2V433.2z M331.2,438.2
			c-0.9,1.4-2.4,2-4.4,2c-1.5,0-2.6-0.4-3.4-1.3c-0.8-0.9-1.2-2.1-1.2-3.8v-9.1h1.5v8.9c0,2.7,1.1,4,3.2,4c2.2,0,3.6-0.9,4.2-2.8
			v-10.1h1.5V440h-1.5L331.2,438.2z M339.1,422.5v3.6h2.9v1.3h-2.9v9.3c0,0.8,0.1,1.3,0.4,1.7c0.3,0.4,0.8,0.6,1.4,0.6
			c0.3,0,0.7,0,1.2-0.1l0.1,1.3c-0.4,0.1-1,0.2-1.6,0.2c-1.1,0-1.8-0.3-2.3-0.9c-0.5-0.6-0.7-1.5-0.7-2.7v-9.3H335v-1.3h2.6v-3.6
			H339.1z M356.4,433.2c0,2.2-0.5,3.9-1.4,5.2c-1,1.3-2.3,1.9-3.9,1.9c-1.9,0-3.4-0.7-4.4-2v7.1h-1.5v-19.3h1.4l0.1,2
			c1-1.5,2.5-2.2,4.4-2.2c1.7,0,3,0.6,3.9,1.9c1,1.3,1.4,3,1.4,5.3V433.2z M354.9,432.9c0-1.8-0.4-3.2-1.1-4.2
			c-0.7-1-1.7-1.5-3.1-1.5c-0.9,0-1.8,0.2-2.4,0.7c-0.7,0.5-1.2,1.1-1.6,2v6.7c0.4,0.8,0.9,1.4,1.6,1.8c0.7,0.4,1.5,0.6,2.4,0.6
			c1.3,0,2.3-0.5,3-1.5C354.5,436.4,354.9,434.9,354.9,432.9z M368.8,438.2c-0.9,1.4-2.4,2-4.4,2c-1.5,0-2.6-0.4-3.4-1.3
			c-0.8-0.9-1.2-2.1-1.2-3.8v-9.1h1.5v8.9c0,2.7,1.1,4,3.2,4c2.2,0,3.6-0.9,4.2-2.8v-10.1h1.5V440h-1.5L368.8,438.2z M376.8,422.5
			v3.6h2.9v1.3h-2.9v9.3c0,0.8,0.1,1.3,0.4,1.7c0.3,0.4,0.8,0.6,1.4,0.6c0.3,0,0.7,0,1.2-0.1l0.1,1.3c-0.4,0.1-1,0.2-1.6,0.2
			c-1.1,0-1.8-0.3-2.3-0.9c-0.5-0.6-0.7-1.5-0.7-2.7v-9.3h-2.6v-1.3h2.6v-3.6H376.8z"/>
		
			<linearGradient id="SVGID_00000031202696763528108510000012995178025249343402_" gradientUnits="userSpaceOnUse" x1="68.2" y1="186.8" x2="139.427" y2="186.8" gradientTransform="matrix(1 0 0 -1 0 618)">
			<stop  offset="0" style="stop-color:#000000"/>
			<stop  offset="1" style="stop-color:#000000;stop-opacity:0"/>
		</linearGradient>
		<path style="fill:url(#SVGID_00000031202696763528108510000012995178025249343402_);" d="M67.4,430.4c-0.4,0.4-0.4,1.1,0,1.6l7,7
			c0.4,0.4,1.1,0.4,1.6,0c0.4-0.4,0.4-1.1,0-1.6l-6.2-6.2L76,425c0.4-0.4,0.4-1.1,0-1.6c-0.4-0.4-1.1-0.4-1.6,0L67.4,430.4z
			 M68.2,432.3h112.2v-2.2H68.2V432.3z"/>
		
			<linearGradient id="SVGID_00000047762531912451744740000003214350752579251888_" gradientUnits="userSpaceOnUse" x1="457.6" y1="186.8" x2="386.3728" y2="186.8" gradientTransform="matrix(1 0 0 -1 0 618)">
			<stop  offset="0" style="stop-color:#000000"/>
			<stop  offset="1" style="stop-color:#000000;stop-opacity:0"/>
		</linearGradient>
		<path style="fill:url(#SVGID_00000047762531912451744740000003214350752579251888_);" d="M458.4,432c0.4-0.4,0.4-1.1,0-1.6l-7-7
			c-0.4-0.4-1.1-0.4-1.6,0c-0.4,0.4-0.4,1.1,0,1.6l6.2,6.2l-6.2,6.2c-0.4,0.4-0.4,1.1,0,1.6c0.4,0.4,1.1,0.4,1.6,0L458.4,432z
			 M457.6,430.1H345.4v2.2h112.2V430.1z"/>
		<path d="M150.5,396.4c-2.1-0.6-3.7-1.4-4.6-2.2c-1-0.9-1.4-2-1.4-3.3c0-1.5,0.6-2.7,1.8-3.7c1.2-1,2.7-1.5,4.6-1.5
			c1.3,0,2.4,0.2,3.4,0.7c1,0.5,1.8,1.2,2.3,2.1c0.6,0.9,0.8,1.8,0.8,2.9h-2.5c0-1.1-0.4-2-1.1-2.7c-0.7-0.7-1.7-1-3.1-1
			c-1.2,0-2.2,0.3-2.9,0.8c-0.7,0.5-1,1.3-1,2.2c0,0.8,0.3,1.4,1,1.9c0.7,0.5,1.8,1,3.3,1.4c1.6,0.4,2.8,0.9,3.7,1.5
			c0.9,0.5,1.5,1.1,2,1.8c0.4,0.7,0.6,1.5,0.6,2.5c0,1.5-0.6,2.7-1.8,3.7c-1.2,0.9-2.8,1.4-4.8,1.4c-1.3,0-2.5-0.2-3.6-0.7
			c-1.1-0.5-2-1.2-2.6-2c-0.6-0.9-0.9-1.8-0.9-2.9h2.5c0,1.1,0.4,2,1.3,2.7c0.8,0.7,2,1,3.4,1c1.3,0,2.3-0.3,3-0.8s1-1.3,1-2.2
			c0-0.9-0.3-1.6-1-2.1C153.3,397.4,152.2,396.9,150.5,396.4z M160.6,404.8V386h5.3c1.6,0,3.1,0.4,4.3,1.1c1.3,0.7,2.2,1.7,2.9,3.1
			c0.7,1.3,1,2.9,1,4.6v1.2c0,1.8-0.3,3.3-1,4.7c-0.7,1.3-1.7,2.4-2.9,3.1c-1.3,0.7-2.7,1.1-4.4,1.1H160.6z M163.1,388.1v14.7h2.6
			c1.9,0,3.4-0.6,4.4-1.8c1.1-1.2,1.6-2.9,1.6-5.1v-1.1c0-2.1-0.5-3.8-1.5-5c-1-1.2-2.4-1.8-4.3-1.8H163.1z M180.6,404.8h-2.5V386
			h2.5V404.8z M203.7,404.8h-12.9v-2.6l6.1-6.5c0.8-0.9,1.4-1.7,1.8-2.4c0.4-0.7,0.6-1.3,0.6-1.9c0-0.8-0.2-1.5-0.6-2
			c-0.4-0.5-1-0.7-1.8-0.7c-0.8,0-1.5,0.3-2,0.9c-0.5,0.6-0.7,1.3-0.7,2.3h-3.7c0-1.1,0.3-2.2,0.8-3.1c0.6-0.9,1.3-1.7,2.3-2.2
			c1-0.5,2.1-0.8,3.4-0.8c1.9,0,3.4,0.5,4.5,1.4c1.1,0.9,1.6,2.2,1.6,3.9c0,0.9-0.2,1.9-0.7,2.8c-0.5,1-1.3,2.1-2.5,3.4l-4.3,4.5
			h8.1V404.8z M215,404.8h-1.5v-13.9h1.5V404.8z M213.2,386.8c0-0.3,0.1-0.5,0.3-0.7c0.2-0.2,0.4-0.3,0.8-0.3s0.6,0.1,0.8,0.3
			c0.2,0.2,0.3,0.4,0.3,0.7s-0.1,0.5-0.3,0.7c-0.2,0.2-0.4,0.3-0.8,0.3s-0.6-0.1-0.8-0.3C213.3,387.4,213.2,387.1,213.2,386.8z
			 M220.7,390.9l0.1,2.4c0.5-0.9,1.2-1.5,2-2c0.8-0.5,1.6-0.7,2.6-0.7c1.5,0,2.6,0.4,3.3,1.3c0.7,0.8,1.1,2.1,1.1,3.8v9.2h-1.5v-9.2
			c0-1.2-0.3-2.2-0.8-2.8c-0.5-0.6-1.3-0.9-2.5-0.9c-1,0-1.8,0.3-2.5,0.9c-0.7,0.6-1.3,1.4-1.6,2.4v9.6h-1.5v-13.9H220.7z
			 M244.9,398c0,2.2-0.5,3.9-1.4,5.2c-1,1.3-2.3,1.9-3.9,1.9c-1.9,0-3.4-0.7-4.4-2v7.1h-1.5v-19.3h1.4l0.1,2c1-1.5,2.5-2.2,4.4-2.2
			c1.7,0,3,0.6,3.9,1.9c1,1.3,1.4,3,1.4,5.3V398z M243.4,397.7c0-1.8-0.4-3.2-1.1-4.2c-0.7-1-1.7-1.5-3.1-1.5
			c-0.9,0-1.8,0.2-2.4,0.7c-0.7,0.5-1.2,1.1-1.6,2v6.7c0.4,0.8,0.9,1.4,1.6,1.8c0.7,0.4,1.5,0.6,2.4,0.6c1.3,0,2.3-0.5,3-1.5
			C243,401.2,243.4,399.7,243.4,397.7z M257.3,403c-0.9,1.4-2.4,2-4.4,2c-1.5,0-2.6-0.4-3.4-1.3c-0.8-0.9-1.2-2.1-1.2-3.8v-9.1h1.5
			v8.9c0,2.7,1.1,4,3.2,4c2.2,0,3.6-0.9,4.2-2.8v-10.1h1.5v13.9h-1.5L257.3,403z M265.3,387.3v3.6h2.9v1.3h-2.9v9.3
			c0,0.8,0.1,1.3,0.4,1.7c0.3,0.4,0.8,0.6,1.4,0.6c0.3,0,0.7,0,1.3-0.1l0.1,1.3c-0.4,0.1-1,0.2-1.6,0.2c-1.1,0-1.8-0.3-2.3-0.9
			c-0.5-0.6-0.7-1.5-0.7-2.7v-9.3h-2.6v-1.3h2.6v-3.6H265.3z M276.7,397.7c0.2-1.3,0.6-2.6,1.2-3.7c0.7-1.1,1.5-2,2.5-2.6
			c1-0.6,2.1-0.9,3.3-0.8c1.2,0,2.1,0.3,2.9,1c0.8,0.6,1.4,1.4,1.8,2.5c0.4,1.1,0.5,2.2,0.4,3.5l0,0.2c-0.3,2.2-1,4-2.3,5.3
			c-1.3,1.3-2.9,2-4.7,1.9c-1.6,0-2.8-0.6-3.8-1.7c-0.9-1.1-1.4-2.6-1.4-4.5l0-0.7L276.7,397.7z M278.2,398.1c-0.1,1,0,2,0.2,2.8
			c0.3,0.9,0.7,1.5,1.3,2c0.6,0.5,1.3,0.7,2.2,0.8c0.9,0,1.8-0.2,2.5-0.7c0.8-0.5,1.4-1.2,1.9-2.1c0.5-0.9,0.8-1.9,1-3l0-0.4
			c0.2-1.7-0.1-3-0.8-4.1c-0.7-1.1-1.6-1.6-2.9-1.6c-1.4,0-2.6,0.5-3.6,1.6c-1,1.1-1.6,2.6-1.8,4.4L278.2,398.1z M299.4,392.2
			c-0.3-0.1-0.7-0.1-1-0.1c-1,0-1.9,0.3-2.7,0.9c-0.8,0.6-1.4,1.4-1.6,2.3l-1.6,9.6h-1.5l2.4-13.9h1.5l-0.5,2.2
			c0.5-0.8,1.1-1.5,1.8-1.9c0.7-0.4,1.5-0.6,2.4-0.6c0.3,0,0.7,0.1,1.1,0.2L299.4,392.2z M306.6,397.6c0-1.3,0.3-2.5,0.8-3.6
			c0.5-1.1,1.3-1.9,2.2-2.5c1-0.6,2-0.9,3.2-0.9c1.9,0,3.4,0.7,4.5,2c1.2,1.3,1.7,3,1.7,5.2v0.3c0,1.3-0.3,2.6-0.8,3.6
			c-0.5,1.1-1.2,1.9-2.2,2.5c-0.9,0.6-2,0.9-3.2,0.9c-1.8,0-3.4-0.6-4.5-1.9c-1.2-1.3-1.7-3-1.7-5.2V397.6z M308.1,398
			c0,1.7,0.4,3,1.3,4.1c0.9,1.1,2,1.6,3.4,1.6c1.4,0,2.5-0.5,3.4-1.6c0.9-1.1,1.3-2.5,1.3-4.2v-0.3c0-1.1-0.2-2-0.6-2.9
			c-0.4-0.9-1-1.6-1.7-2c-0.7-0.5-1.5-0.7-2.4-0.7c-1.4,0-2.5,0.5-3.4,1.6c-0.9,1.1-1.3,2.5-1.3,4.2V398z M331.2,403
			c-0.9,1.4-2.4,2-4.4,2c-1.5,0-2.6-0.4-3.4-1.3c-0.8-0.9-1.2-2.1-1.2-3.8v-9.1h1.5v8.9c0,2.7,1.1,4,3.2,4c2.2,0,3.6-0.9,4.2-2.8
			v-10.1h1.5v13.9h-1.5L331.2,403z M339.1,387.3v3.6h2.9v1.3h-2.9v9.3c0,0.8,0.1,1.3,0.4,1.7c0.3,0.4,0.8,0.6,1.4,0.6
			c0.3,0,0.7,0,1.2-0.1l0.1,1.3c-0.4,0.1-1,0.2-1.6,0.2c-1.1,0-1.8-0.3-2.3-0.9c-0.5-0.6-0.7-1.5-0.7-2.7v-9.3H335v-1.3h2.6v-3.6
			H339.1z M356.4,398c0,2.2-0.5,3.9-1.4,5.2c-1,1.3-2.3,1.9-3.9,1.9c-1.9,0-3.4-0.7-4.4-2v7.1h-1.5v-19.3h1.4l0.1,2
			c1-1.5,2.5-2.2,4.4-2.2c1.7,0,3,0.6,3.9,1.9c1,1.3,1.4,3,1.4,5.3V398z M354.9,397.7c0-1.8-0.4-3.2-1.1-4.2c-0.7-1-1.7-1.5-3.1-1.5
			c-0.9,0-1.8,0.2-2.4,0.7c-0.7,0.5-1.2,1.1-1.6,2v6.7c0.4,0.8,0.9,1.4,1.6,1.8c0.7,0.4,1.5,0.6,2.4,0.6c1.3,0,2.3-0.5,3-1.5
			C354.5,401.2,354.9,399.7,354.9,397.7z M368.8,403c-0.9,1.4-2.4,2-4.4,2c-1.5,0-2.6-0.4-3.4-1.3c-0.8-0.9-1.2-2.1-1.2-3.8v-9.1
			h1.5v8.9c0,2.7,1.1,4,3.2,4c2.2,0,3.6-0.9,4.2-2.8v-10.1h1.5v13.9h-1.5L368.8,403z M376.8,387.3v3.6h2.9v1.3h-2.9v9.3
			c0,0.8,0.1,1.3,0.4,1.7c0.3,0.4,0.8,0.6,1.4,0.6c0.3,0,0.7,0,1.2-0.1l0.1,1.3c-0.4,0.1-1,0.2-1.6,0.2c-1.1,0-1.8-0.3-2.3-0.9
			c-0.5-0.6-0.7-1.5-0.7-2.7v-9.3h-2.6v-1.3h2.6v-3.6H376.8z"/>
		
			<linearGradient id="SVGID_00000052101261994821694590000000648164599960387258_" gradientUnits="userSpaceOnUse" x1="68.2" y1="222" x2="139.427" y2="222" gradientTransform="matrix(1 0 0 -1 0 618)">
			<stop  offset="0" style="stop-color:#000000"/>
			<stop  offset="1" style="stop-color:#000000;stop-opacity:0"/>
		</linearGradient>
		<path style="fill:url(#SVGID_00000052101261994821694590000000648164599960387258_);" d="M67.4,395.2c-0.4,0.4-0.4,1.1,0,1.6l7,7
			c0.4,0.4,1.1,0.4,1.6,0c0.4-0.4,0.4-1.1,0-1.6l-6.2-6.2l6.2-6.2c0.4-0.4,0.4-1.1,0-1.6c-0.4-0.4-1.1-0.4-1.6,0L67.4,395.2z
			 M68.2,397.1h112.2v-2.2H68.2V397.1z"/>
		
			<linearGradient id="SVGID_00000016055156715181082110000008066229271707108264_" gradientUnits="userSpaceOnUse" x1="457.6" y1="222" x2="386.3728" y2="222" gradientTransform="matrix(1 0 0 -1 0 618)">
			<stop  offset="0" style="stop-color:#000000"/>
			<stop  offset="1" style="stop-color:#000000;stop-opacity:0"/>
		</linearGradient>
		<path style="fill:url(#SVGID_00000016055156715181082110000008066229271707108264_);" d="M458.4,396.8c0.4-0.4,0.4-1.1,0-1.6l-7-7
			c-0.4-0.4-1.1-0.4-1.6,0c-0.4,0.4-0.4,1.1,0,1.6l6.2,6.2l-6.2,6.2c-0.4,0.4-0.4,1.1,0,1.6c0.4,0.4,1.1,0.4,1.6,0L458.4,396.8z
			 M457.6,394.9H345.4v2.2h112.2V394.9z"/>
		<path d="M150.5,361.2c-2.1-0.6-3.7-1.4-4.6-2.2c-1-0.9-1.4-2-1.4-3.3c0-1.5,0.6-2.7,1.8-3.7c1.2-1,2.7-1.5,4.6-1.5
			c1.3,0,2.4,0.2,3.4,0.7c1,0.5,1.8,1.2,2.3,2.1c0.6,0.9,0.8,1.8,0.8,2.9h-2.5c0-1.1-0.4-2-1.1-2.7c-0.7-0.7-1.7-1-3.1-1
			c-1.2,0-2.2,0.3-2.9,0.8c-0.7,0.5-1,1.3-1,2.2c0,0.8,0.3,1.4,1,1.9c0.7,0.5,1.8,1,3.3,1.4c1.6,0.4,2.8,0.9,3.7,1.5
			c0.9,0.5,1.5,1.1,2,1.8c0.4,0.7,0.6,1.5,0.6,2.5c0,1.5-0.6,2.7-1.8,3.7c-1.2,0.9-2.8,1.4-4.8,1.4c-1.3,0-2.5-0.2-3.6-0.7
			c-1.1-0.5-2-1.2-2.6-2c-0.6-0.9-0.9-1.8-0.9-2.9h2.5c0,1.1,0.4,2,1.3,2.7c0.8,0.7,2,1,3.4,1c1.3,0,2.3-0.3,3-0.8s1-1.3,1-2.2
			c0-0.9-0.3-1.6-1-2.1C153.3,362.2,152.2,361.7,150.5,361.2z M160.6,369.6v-18.8h5.3c1.6,0,3.1,0.4,4.3,1.1
			c1.3,0.7,2.2,1.7,2.9,3.1c0.7,1.3,1,2.9,1,4.6v1.2c0,1.8-0.3,3.3-1,4.7c-0.7,1.3-1.7,2.4-2.9,3.1c-1.3,0.7-2.7,1.1-4.4,1.1H160.6z
			 M163.1,352.9v14.7h2.6c1.9,0,3.4-0.6,4.4-1.8c1.1-1.2,1.6-2.9,1.6-5.1v-1.1c0-2.1-0.5-3.8-1.5-5c-1-1.2-2.4-1.8-4.3-1.8H163.1z
			 M180.6,369.6h-2.5v-18.8h2.5V369.6z M194.6,358.6h2c0.9,0,1.6-0.2,2.1-0.7c0.5-0.5,0.7-1.1,0.7-1.9c0-0.8-0.2-1.3-0.7-1.8
			c-0.4-0.4-1.1-0.6-1.9-0.6c-0.7,0-1.3,0.2-1.8,0.6c-0.5,0.4-0.7,0.9-0.7,1.5h-3.7c0-1,0.3-1.9,0.8-2.6c0.5-0.8,1.3-1.4,2.2-1.8
			c1-0.4,2-0.7,3.1-0.7c2,0,3.5,0.5,4.7,1.4c1.1,0.9,1.7,2.3,1.7,3.9c0,0.9-0.3,1.6-0.8,2.4c-0.5,0.7-1.2,1.3-2.1,1.7
			c1.1,0.4,1.8,0.9,2.4,1.7c0.5,0.8,0.8,1.6,0.8,2.7c0,1.7-0.6,3-1.8,4c-1.2,1-2.8,1.5-4.8,1.5c-1.9,0-3.4-0.5-4.6-1.5
			c-1.2-1-1.8-2.3-1.8-3.9h3.7c0,0.7,0.3,1.3,0.8,1.7c0.5,0.4,1.2,0.7,2,0.7c0.9,0,1.6-0.2,2.1-0.7c0.5-0.5,0.8-1.1,0.8-1.9
			c0-1.9-1-2.8-3.1-2.8h-2V358.6z M215,369.6h-1.5v-13.9h1.5V369.6z M213.2,351.6c0-0.3,0.1-0.5,0.3-0.7c0.2-0.2,0.4-0.3,0.8-0.3
			s0.6,0.1,0.8,0.3c0.2,0.2,0.3,0.4,0.3,0.7c0,0.3-0.1,0.5-0.3,0.7c-0.2,0.2-0.4,0.3-0.8,0.3s-0.6-0.1-0.8-0.3
			C213.3,352.2,213.2,351.9,213.2,351.6z M220.7,355.7l0.1,2.4c0.5-0.9,1.2-1.5,2-2c0.8-0.5,1.6-0.7,2.6-0.7c1.5,0,2.6,0.4,3.3,1.3
			c0.7,0.8,1.1,2.1,1.1,3.8v9.2h-1.5v-9.2c0-1.2-0.3-2.2-0.8-2.8c-0.5-0.6-1.3-0.9-2.5-0.9c-1,0-1.8,0.3-2.5,0.9
			c-0.7,0.6-1.3,1.4-1.6,2.4v9.6h-1.5v-13.9H220.7z M244.9,362.8c0,2.2-0.5,3.9-1.4,5.2c-1,1.3-2.3,1.9-3.9,1.9
			c-1.9,0-3.4-0.7-4.4-2v7.1h-1.5v-19.3h1.4l0.1,2c1-1.5,2.5-2.2,4.4-2.2c1.7,0,3,0.6,3.9,1.9c1,1.3,1.4,3,1.4,5.3V362.8z
			 M243.4,362.5c0-1.8-0.4-3.2-1.1-4.2c-0.7-1-1.7-1.5-3.1-1.5c-0.9,0-1.8,0.2-2.4,0.7c-0.7,0.5-1.2,1.1-1.6,2v6.7
			c0.4,0.8,0.9,1.4,1.6,1.8c0.7,0.4,1.5,0.6,2.4,0.6c1.3,0,2.3-0.5,3-1.5C243,366,243.4,364.5,243.4,362.5z M257.3,367.8
			c-0.9,1.4-2.4,2-4.4,2c-1.5,0-2.6-0.4-3.4-1.3c-0.8-0.9-1.2-2.1-1.2-3.8v-9.1h1.5v8.9c0,2.7,1.1,4,3.2,4c2.2,0,3.6-0.9,4.2-2.8
			v-10.1h1.5v13.9h-1.5L257.3,367.8z M265.3,352.1v3.6h2.9v1.3h-2.9v9.3c0,0.8,0.1,1.3,0.4,1.7c0.3,0.4,0.8,0.6,1.4,0.6
			c0.3,0,0.7,0,1.3-0.1l0.1,1.3c-0.4,0.1-1,0.2-1.6,0.2c-1.1,0-1.8-0.3-2.3-0.9c-0.5-0.6-0.7-1.5-0.7-2.7v-9.3h-2.6v-1.3h2.6v-3.6
			H265.3z M276.7,362.5c0.2-1.3,0.6-2.6,1.2-3.7c0.7-1.1,1.5-2,2.5-2.6c1-0.6,2.1-0.9,3.3-0.8c1.2,0,2.1,0.3,2.9,1
			c0.8,0.6,1.4,1.4,1.8,2.5c0.4,1.1,0.5,2.2,0.4,3.5l0,0.2c-0.3,2.2-1,4-2.3,5.3c-1.3,1.3-2.9,2-4.7,1.9c-1.6,0-2.8-0.6-3.8-1.7
			c-0.9-1.1-1.4-2.6-1.4-4.5l0-0.7L276.7,362.5z M278.2,362.9c-0.1,1,0,2,0.2,2.8c0.3,0.9,0.7,1.5,1.3,2c0.6,0.5,1.3,0.7,2.2,0.8
			c0.9,0,1.8-0.2,2.5-0.7c0.8-0.5,1.4-1.2,1.9-2.1c0.5-0.9,0.8-1.9,1-3l0-0.4c0.2-1.7-0.1-3-0.8-4.1c-0.7-1.1-1.6-1.6-2.9-1.6
			c-1.4,0-2.6,0.5-3.6,1.6c-1,1.1-1.6,2.6-1.8,4.4L278.2,362.9z M299.4,357c-0.3-0.1-0.7-0.1-1-0.1c-1,0-1.9,0.3-2.7,0.9
			c-0.8,0.6-1.4,1.4-1.6,2.3l-1.6,9.6h-1.5l2.4-13.9h1.5l-0.5,2.2c0.5-0.8,1.1-1.5,1.8-1.9c0.7-0.4,1.5-0.6,2.4-0.6
			c0.3,0,0.7,0.1,1.1,0.2L299.4,357z M306.6,362.4c0-1.3,0.3-2.5,0.8-3.6c0.5-1.1,1.3-1.9,2.2-2.5c1-0.6,2-0.9,3.2-0.9
			c1.9,0,3.4,0.7,4.5,2c1.2,1.3,1.7,3,1.7,5.2v0.3c0,1.3-0.3,2.6-0.8,3.6c-0.5,1.1-1.2,1.9-2.2,2.5c-0.9,0.6-2,0.9-3.2,0.9
			c-1.8,0-3.4-0.6-4.5-1.9c-1.2-1.3-1.7-3-1.7-5.2V362.4z M308.1,362.8c0,1.7,0.4,3,1.3,4.1c0.9,1.1,2,1.6,3.4,1.6
			c1.4,0,2.5-0.5,3.4-1.6c0.9-1.1,1.3-2.5,1.3-4.2v-0.3c0-1.1-0.2-2-0.6-2.9c-0.4-0.9-1-1.6-1.7-2c-0.7-0.5-1.5-0.7-2.4-0.7
			c-1.4,0-2.5,0.5-3.4,1.6c-0.9,1.1-1.3,2.5-1.3,4.2V362.8z M331.2,367.8c-0.9,1.4-2.4,2-4.4,2c-1.5,0-2.6-0.4-3.4-1.3
			c-0.8-0.9-1.2-2.1-1.2-3.8v-9.1h1.5v8.9c0,2.7,1.1,4,3.2,4c2.2,0,3.6-0.9,4.2-2.8v-10.1h1.5v13.9h-1.5L331.2,367.8z M339.1,352.1
			v3.6h2.9v1.3h-2.9v9.3c0,0.8,0.1,1.3,0.4,1.7c0.3,0.4,0.8,0.6,1.4,0.6c0.3,0,0.7,0,1.2-0.1l0.1,1.3c-0.4,0.1-1,0.2-1.6,0.2
			c-1.1,0-1.8-0.3-2.3-0.9c-0.5-0.6-0.7-1.5-0.7-2.7v-9.3H335v-1.3h2.6v-3.6H339.1z M356.4,362.8c0,2.2-0.5,3.9-1.4,5.2
			c-1,1.3-2.3,1.9-3.9,1.9c-1.9,0-3.4-0.7-4.4-2v7.1h-1.5v-19.3h1.4l0.1,2c1-1.5,2.5-2.2,4.4-2.2c1.7,0,3,0.6,3.9,1.9
			c1,1.3,1.4,3,1.4,5.3V362.8z M354.9,362.5c0-1.8-0.4-3.2-1.1-4.2c-0.7-1-1.7-1.5-3.1-1.5c-0.9,0-1.8,0.2-2.4,0.7
			c-0.7,0.5-1.2,1.1-1.6,2v6.7c0.4,0.8,0.9,1.4,1.6,1.8c0.7,0.4,1.5,0.6,2.4,0.6c1.3,0,2.3-0.5,3-1.5
			C354.5,366,354.9,364.5,354.9,362.5z M368.8,367.8c-0.9,1.4-2.4,2-4.4,2c-1.5,0-2.6-0.4-3.4-1.3c-0.8-0.9-1.2-2.1-1.2-3.8v-9.1
			h1.5v8.9c0,2.7,1.1,4,3.2,4c2.2,0,3.6-0.9,4.2-2.8v-10.1h1.5v13.9h-1.5L368.8,367.8z M376.8,352.1v3.6h2.9v1.3h-2.9v9.3
			c0,0.8,0.1,1.3,0.4,1.7c0.3,0.4,0.8,0.6,1.4,0.6c0.3,0,0.7,0,1.2-0.1l0.1,1.3c-0.4,0.1-1,0.2-1.6,0.2c-1.1,0-1.8-0.3-2.3-0.9
			c-0.5-0.6-0.7-1.5-0.7-2.7v-9.3h-2.6v-1.3h2.6v-3.6H376.8z"/>
		
			<linearGradient id="SVGID_00000086652160384971407890000012011285149005725057_" gradientUnits="userSpaceOnUse" x1="68.2" y1="257.2" x2="139.427" y2="257.2" gradientTransform="matrix(1 0 0 -1 0 618)">
			<stop  offset="0" style="stop-color:#000000"/>
			<stop  offset="1" style="stop-color:#000000;stop-opacity:0"/>
		</linearGradient>
		<path style="fill:url(#SVGID_00000086652160384971407890000012011285149005725057_);" d="M67.4,360c-0.4,0.4-0.4,1.1,0,1.6l7,7
			c0.4,0.4,1.1,0.4,1.6,0c0.4-0.4,0.4-1.1,0-1.6l-6.2-6.2l6.2-6.2c0.4-0.4,0.4-1.1,0-1.6c-0.4-0.4-1.1-0.4-1.6,0L67.4,360z
			 M68.2,361.9h112.2v-2.2H68.2V361.9z"/>
		
			<linearGradient id="SVGID_00000056396844711749346830000014137776866312071867_" gradientUnits="userSpaceOnUse" x1="457.6" y1="257.2" x2="386.3728" y2="257.2" gradientTransform="matrix(1 0 0 -1 0 618)">
			<stop  offset="0" style="stop-color:#000000"/>
			<stop  offset="1" style="stop-color:#000000;stop-opacity:0"/>
		</linearGradient>
		<path style="fill:url(#SVGID_00000056396844711749346830000014137776866312071867_);" d="M458.4,361.6c0.4-0.4,0.4-1.1,0-1.6l-7-7
			c-0.4-0.4-1.1-0.4-1.6,0c-0.4,0.4-0.4,1.1,0,1.6l6.2,6.2l-6.2,6.2c-0.4,0.4-0.4,1.1,0,1.6c0.4,0.4,1.1,0.4,1.6,0L458.4,361.6z
			 M457.6,359.7H345.4v2.2h112.2V359.7z"/>
		<path d="M150.5,326c-2.1-0.6-3.7-1.4-4.6-2.2c-1-0.9-1.4-2-1.4-3.3c0-1.5,0.6-2.7,1.8-3.7c1.2-1,2.7-1.5,4.6-1.5
			c1.3,0,2.4,0.2,3.4,0.7c1,0.5,1.8,1.2,2.3,2.1c0.6,0.9,0.8,1.8,0.8,2.9h-2.5c0-1.1-0.4-2-1.1-2.7c-0.7-0.7-1.7-1-3.1-1
			c-1.2,0-2.2,0.3-2.9,0.8c-0.7,0.5-1,1.3-1,2.2c0,0.8,0.3,1.4,1,1.9c0.7,0.5,1.8,1,3.3,1.4c1.6,0.4,2.8,0.9,3.7,1.5
			c0.9,0.5,1.5,1.1,2,1.8c0.4,0.7,0.6,1.5,0.6,2.5c0,1.5-0.6,2.7-1.8,3.7c-1.2,0.9-2.8,1.4-4.8,1.4c-1.3,0-2.5-0.2-3.6-0.7
			c-1.1-0.5-2-1.2-2.6-2c-0.6-0.9-0.9-1.8-0.9-2.9h2.5c0,1.1,0.4,2,1.3,2.7c0.8,0.7,2,1,3.4,1c1.3,0,2.3-0.3,3-0.8s1-1.3,1-2.2
			c0-0.9-0.3-1.6-1-2.1C153.3,327,152.2,326.5,150.5,326z M160.6,334.4v-18.8h5.3c1.6,0,3.1,0.4,4.3,1.1c1.3,0.7,2.2,1.7,2.9,3.1
			c0.7,1.3,1,2.9,1,4.6v1.2c0,1.8-0.3,3.3-1,4.7c-0.7,1.3-1.7,2.4-2.9,3.1c-1.3,0.7-2.7,1.1-4.4,1.1H160.6z M163.1,317.7v14.7h2.6
			c1.9,0,3.4-0.6,4.4-1.8c1.1-1.2,1.6-2.9,1.6-5.1v-1.1c0-2.1-0.5-3.8-1.5-5c-1-1.2-2.4-1.8-4.3-1.8H163.1z M180.6,334.4h-2.5v-18.8
			h2.5V334.4z M201.8,327.3h2.1v3h-2.1v4.1h-3.7v-4.1h-7.7l-0.2-2.3l7.8-12.4h3.8V327.3z M193.9,327.3h4.2v-6.6l-0.2,0.4
			L193.9,327.3z M215,334.4h-1.5v-13.9h1.5V334.4z M213.2,316.4c0-0.3,0.1-0.5,0.3-0.7c0.2-0.2,0.4-0.3,0.8-0.3s0.6,0.1,0.8,0.3
			c0.2,0.2,0.3,0.4,0.3,0.7c0,0.3-0.1,0.5-0.3,0.7c-0.2,0.2-0.4,0.3-0.8,0.3s-0.6-0.1-0.8-0.3C213.3,317,213.2,316.7,213.2,316.4z
			 M220.7,320.5l0.1,2.4c0.5-0.9,1.2-1.5,2-2c0.8-0.5,1.6-0.7,2.6-0.7c1.5,0,2.6,0.4,3.3,1.3c0.7,0.8,1.1,2.1,1.1,3.8v9.2h-1.5v-9.2
			c0-1.2-0.3-2.2-0.8-2.8c-0.5-0.6-1.3-0.9-2.5-0.9c-1,0-1.8,0.3-2.5,0.9c-0.7,0.6-1.3,1.4-1.6,2.4v9.6h-1.5v-13.9H220.7z
			 M244.9,327.6c0,2.2-0.5,3.9-1.4,5.2c-1,1.3-2.3,1.9-3.9,1.9c-1.9,0-3.4-0.7-4.4-2v7.1h-1.5v-19.3h1.4l0.1,2
			c1-1.5,2.5-2.2,4.4-2.2c1.7,0,3,0.6,3.9,1.9c1,1.3,1.4,3,1.4,5.3V327.6z M243.4,327.3c0-1.8-0.4-3.2-1.1-4.2
			c-0.7-1-1.7-1.5-3.1-1.5c-0.9,0-1.8,0.2-2.4,0.7c-0.7,0.5-1.2,1.1-1.6,2v6.7c0.4,0.8,0.9,1.4,1.6,1.8c0.7,0.4,1.5,0.6,2.4,0.6
			c1.3,0,2.3-0.5,3-1.5C243,330.8,243.4,329.3,243.4,327.3z M257.3,332.6c-0.9,1.4-2.4,2-4.4,2c-1.5,0-2.6-0.4-3.4-1.3
			c-0.8-0.9-1.2-2.1-1.2-3.8v-9.1h1.5v8.9c0,2.7,1.1,4,3.2,4c2.2,0,3.6-0.9,4.2-2.8v-10.1h1.5v13.9h-1.5L257.3,332.6z M265.3,316.9
			v3.6h2.9v1.3h-2.9v9.3c0,0.8,0.1,1.3,0.4,1.7c0.3,0.4,0.8,0.6,1.4,0.6c0.3,0,0.7,0,1.3-0.1l0.1,1.3c-0.4,0.1-1,0.2-1.6,0.2
			c-1.1,0-1.8-0.3-2.3-0.9c-0.5-0.6-0.7-1.5-0.7-2.7v-9.3h-2.6v-1.3h2.6v-3.6H265.3z M276.7,327.3c0.2-1.3,0.6-2.6,1.2-3.7
			c0.7-1.1,1.5-2,2.5-2.6c1-0.6,2.1-0.9,3.3-0.8c1.2,0,2.1,0.3,2.9,1c0.8,0.6,1.4,1.4,1.8,2.5c0.4,1.1,0.5,2.2,0.4,3.5l0,0.2
			c-0.3,2.2-1,4-2.3,5.3c-1.3,1.3-2.9,2-4.7,1.9c-1.6,0-2.8-0.6-3.8-1.7c-0.9-1.1-1.4-2.6-1.4-4.5l0-0.7L276.7,327.3z M278.2,327.7
			c-0.1,1,0,2,0.2,2.8c0.3,0.9,0.7,1.5,1.3,2c0.6,0.5,1.3,0.7,2.2,0.8c0.9,0,1.8-0.2,2.5-0.7c0.8-0.5,1.4-1.2,1.9-2.1
			c0.5-0.9,0.8-1.9,1-3l0-0.4c0.2-1.7-0.1-3-0.8-4.1c-0.7-1.1-1.6-1.6-2.9-1.6c-1.4,0-2.6,0.5-3.6,1.6c-1,1.1-1.6,2.6-1.8,4.4
			L278.2,327.7z M299.4,321.8c-0.3-0.1-0.7-0.1-1-0.1c-1,0-1.9,0.3-2.7,0.9c-0.8,0.6-1.4,1.4-1.6,2.3l-1.6,9.6h-1.5l2.4-13.9h1.5
			l-0.5,2.2c0.5-0.8,1.1-1.5,1.8-1.9c0.7-0.4,1.5-0.6,2.4-0.6c0.3,0,0.7,0.1,1.1,0.2L299.4,321.8z M306.6,327.2
			c0-1.3,0.3-2.5,0.8-3.6c0.5-1.1,1.3-1.9,2.2-2.5c1-0.6,2-0.9,3.2-0.9c1.9,0,3.4,0.7,4.5,2c1.2,1.3,1.7,3,1.7,5.2v0.3
			c0,1.3-0.3,2.6-0.8,3.6c-0.5,1.1-1.2,1.9-2.2,2.5c-0.9,0.6-2,0.9-3.2,0.9c-1.8,0-3.4-0.6-4.5-1.9c-1.2-1.3-1.7-3-1.7-5.2V327.2z
			 M308.1,327.6c0,1.7,0.4,3,1.3,4.1c0.9,1.1,2,1.6,3.4,1.6c1.4,0,2.5-0.5,3.4-1.6c0.9-1.1,1.3-2.5,1.3-4.2v-0.3
			c0-1.1-0.2-2-0.6-2.9c-0.4-0.9-1-1.6-1.7-2c-0.7-0.5-1.5-0.7-2.4-0.7c-1.4,0-2.5,0.5-3.4,1.6c-0.9,1.1-1.3,2.5-1.3,4.2V327.6z
			 M331.2,332.6c-0.9,1.4-2.4,2-4.4,2c-1.5,0-2.6-0.4-3.4-1.3c-0.8-0.9-1.2-2.1-1.2-3.8v-9.1h1.5v8.9c0,2.7,1.1,4,3.2,4
			c2.2,0,3.6-0.9,4.2-2.8v-10.1h1.5v13.9h-1.5L331.2,332.6z M339.1,316.9v3.6h2.9v1.3h-2.9v9.3c0,0.8,0.1,1.3,0.4,1.7
			c0.3,0.4,0.8,0.6,1.4,0.6c0.3,0,0.7,0,1.2-0.1l0.1,1.3c-0.4,0.1-1,0.2-1.6,0.2c-1.1,0-1.8-0.3-2.3-0.9c-0.5-0.6-0.7-1.5-0.7-2.7
			v-9.3H335v-1.3h2.6v-3.6H339.1z M356.4,327.6c0,2.2-0.5,3.9-1.4,5.2c-1,1.3-2.3,1.9-3.9,1.9c-1.9,0-3.4-0.7-4.4-2v7.1h-1.5v-19.3
			h1.4l0.1,2c1-1.5,2.5-2.2,4.4-2.2c1.7,0,3,0.6,3.9,1.9c1,1.3,1.4,3,1.4,5.3V327.6z M354.9,327.3c0-1.8-0.4-3.2-1.1-4.2
			c-0.7-1-1.7-1.5-3.1-1.5c-0.9,0-1.8,0.2-2.4,0.7c-0.7,0.5-1.2,1.1-1.6,2v6.7c0.4,0.8,0.9,1.4,1.6,1.8c0.7,0.4,1.5,0.6,2.4,0.6
			c1.3,0,2.3-0.5,3-1.5C354.5,330.8,354.9,329.3,354.9,327.3z M368.8,332.6c-0.9,1.4-2.4,2-4.4,2c-1.5,0-2.6-0.4-3.4-1.3
			c-0.8-0.9-1.2-2.1-1.2-3.8v-9.1h1.5v8.9c0,2.7,1.1,4,3.2,4c2.2,0,3.6-0.9,4.2-2.8v-10.1h1.5v13.9h-1.5L368.8,332.6z M376.8,316.9
			v3.6h2.9v1.3h-2.9v9.3c0,0.8,0.1,1.3,0.4,1.7c0.3,0.4,0.8,0.6,1.4,0.6c0.3,0,0.7,0,1.2-0.1l0.1,1.3c-0.4,0.1-1,0.2-1.6,0.2
			c-1.1,0-1.8-0.3-2.3-0.9c-0.5-0.6-0.7-1.5-0.7-2.7v-9.3h-2.6v-1.3h2.6v-3.6H376.8z"/>
		
			<linearGradient id="SVGID_00000142159163975163068200000014960683354812810669_" gradientUnits="userSpaceOnUse" x1="68.2" y1="292.4" x2="139.427" y2="292.4" gradientTransform="matrix(1 0 0 -1 0 618)">
			<stop  offset="0" style="stop-color:#000000"/>
			<stop  offset="1" style="stop-color:#000000;stop-opacity:0"/>
		</linearGradient>
		<path style="fill:url(#SVGID_00000142159163975163068200000014960683354812810669_);" d="M67.4,324.8c-0.4,0.4-0.4,1.1,0,1.6l7,7
			c0.4,0.4,1.1,0.4,1.6,0c0.4-0.4,0.4-1.1,0-1.6l-6.2-6.2l6.2-6.2c0.4-0.4,0.4-1.1,0-1.6c-0.4-0.4-1.1-0.4-1.6,0L67.4,324.8z
			 M68.2,326.7h112.2v-2.2H68.2V326.7z"/>
		
			<linearGradient id="SVGID_00000021081461604817441210000005161237635029414313_" gradientUnits="userSpaceOnUse" x1="457.6" y1="292.4" x2="386.3728" y2="292.4" gradientTransform="matrix(1 0 0 -1 0 618)">
			<stop  offset="0" style="stop-color:#000000"/>
			<stop  offset="1" style="stop-color:#000000;stop-opacity:0"/>
		</linearGradient>
		<path style="fill:url(#SVGID_00000021081461604817441210000005161237635029414313_);" d="M458.4,326.4c0.4-0.4,0.4-1.1,0-1.6l-7-7
			c-0.4-0.4-1.1-0.4-1.6,0c-0.4,0.4-0.4,1.1,0,1.6l6.2,6.2l-6.2,6.2c-0.4,0.4-0.4,1.1,0,1.6c0.4,0.4,1.1,0.4,1.6,0L458.4,326.4z
			 M457.6,324.5H345.4v2.2h112.2V324.5z"/>
		<path d="M150.5,290.8c-2.1-0.6-3.7-1.4-4.6-2.2c-1-0.9-1.4-2-1.4-3.3c0-1.5,0.6-2.7,1.8-3.7c1.2-1,2.7-1.5,4.6-1.5
			c1.3,0,2.4,0.2,3.4,0.7c1,0.5,1.8,1.2,2.3,2.1c0.6,0.9,0.8,1.8,0.8,2.9h-2.5c0-1.1-0.4-2-1.1-2.7c-0.7-0.7-1.7-1-3.1-1
			c-1.2,0-2.2,0.3-2.9,0.8c-0.7,0.5-1,1.3-1,2.2c0,0.8,0.3,1.4,1,1.9c0.7,0.5,1.8,1,3.3,1.4c1.6,0.4,2.8,0.9,3.7,1.5
			c0.9,0.5,1.5,1.1,2,1.8c0.4,0.7,0.6,1.5,0.6,2.5c0,1.5-0.6,2.7-1.8,3.7c-1.2,0.9-2.8,1.4-4.8,1.4c-1.3,0-2.5-0.2-3.6-0.7
			c-1.1-0.5-2-1.2-2.6-2c-0.6-0.9-0.9-1.8-0.9-2.9h2.5c0,1.1,0.4,2,1.3,2.7c0.8,0.7,2,1,3.4,1c1.3,0,2.3-0.3,3-0.8s1-1.3,1-2.2
			s-0.3-1.6-1-2.1C153.3,291.8,152.2,291.3,150.5,290.8z M160.6,299.2v-18.8h5.3c1.6,0,3.1,0.4,4.3,1.1c1.3,0.7,2.2,1.7,2.9,3.1
			c0.7,1.3,1,2.9,1,4.6v1.2c0,1.8-0.3,3.3-1,4.7c-0.7,1.3-1.7,2.4-2.9,3.1c-1.3,0.7-2.7,1.1-4.4,1.1H160.6z M163.1,282.5v14.7h2.6
			c1.9,0,3.4-0.6,4.4-1.8c1.1-1.2,1.6-2.9,1.6-5.1v-1.1c0-2.1-0.5-3.8-1.5-5c-1-1.2-2.4-1.8-4.3-1.8H163.1z M180.6,299.2h-2.5v-18.8
			h2.5V299.2z M191.4,290l1.1-9.5H203v3.1h-7.5l-0.5,4c0.9-0.5,1.8-0.7,2.8-0.7c1.8,0,3.2,0.6,4.2,1.7c1,1.1,1.5,2.7,1.5,4.7
			c0,1.2-0.3,2.3-0.8,3.3c-0.5,1-1.2,1.7-2.2,2.2c-1,0.5-2.1,0.8-3.4,0.8c-1.1,0-2.2-0.2-3.2-0.7c-1-0.5-1.7-1.1-2.3-1.9
			c-0.6-0.8-0.9-1.8-0.9-2.8h3.7c0.1,0.8,0.3,1.4,0.8,1.8c0.5,0.4,1.1,0.6,1.8,0.6c0.8,0,1.5-0.3,1.9-0.9c0.5-0.6,0.7-1.5,0.7-2.6
			c0-1.1-0.3-1.9-0.8-2.4c-0.5-0.6-1.3-0.9-2.2-0.9c-0.9,0-1.6,0.2-2.2,0.7l-0.4,0.3L191.4,290z M215,299.2h-1.5v-13.9h1.5V299.2z
			 M213.2,281.2c0-0.3,0.1-0.5,0.3-0.7c0.2-0.2,0.4-0.3,0.8-0.3s0.6,0.1,0.8,0.3c0.2,0.2,0.3,0.4,0.3,0.7s-0.1,0.5-0.3,0.7
			c-0.2,0.2-0.4,0.3-0.8,0.3s-0.6-0.1-0.8-0.3C213.3,281.8,213.2,281.5,213.2,281.2z M220.7,285.3l0.1,2.4c0.5-0.9,1.2-1.5,2-2
			c0.8-0.5,1.6-0.7,2.6-0.7c1.5,0,2.6,0.4,3.3,1.3c0.7,0.8,1.1,2.1,1.1,3.8v9.2h-1.5V290c0-1.2-0.3-2.2-0.8-2.8
			c-0.5-0.6-1.3-0.9-2.5-0.9c-1,0-1.8,0.3-2.5,0.9c-0.7,0.6-1.3,1.4-1.6,2.4v9.6h-1.5v-13.9H220.7z M244.9,292.4
			c0,2.2-0.5,3.9-1.4,5.2c-1,1.3-2.3,1.9-3.9,1.9c-1.9,0-3.4-0.7-4.4-2v7.1h-1.5v-19.3h1.4l0.1,2c1-1.5,2.5-2.2,4.4-2.2
			c1.7,0,3,0.6,3.9,1.9c1,1.3,1.4,3,1.4,5.3V292.4z M243.4,292.1c0-1.8-0.4-3.2-1.1-4.2c-0.7-1-1.7-1.5-3.1-1.5
			c-0.9,0-1.8,0.2-2.4,0.7c-0.7,0.5-1.2,1.1-1.6,2v6.7c0.4,0.8,0.9,1.4,1.6,1.8c0.7,0.4,1.5,0.6,2.4,0.6c1.3,0,2.3-0.5,3-1.5
			C243,295.6,243.4,294.1,243.4,292.1z M257.3,297.4c-0.9,1.4-2.4,2-4.4,2c-1.5,0-2.6-0.4-3.4-1.3c-0.8-0.9-1.2-2.1-1.2-3.8v-9.1
			h1.5v8.9c0,2.7,1.1,4,3.2,4c2.2,0,3.6-0.9,4.2-2.8v-10.1h1.5v13.9h-1.5L257.3,297.4z M265.3,281.7v3.6h2.9v1.3h-2.9v9.3
			c0,0.8,0.1,1.3,0.4,1.7c0.3,0.4,0.8,0.6,1.4,0.6c0.3,0,0.7,0,1.3-0.1l0.1,1.3c-0.4,0.1-1,0.2-1.6,0.2c-1.1,0-1.8-0.3-2.3-0.9
			c-0.5-0.6-0.7-1.5-0.7-2.7v-9.3h-2.6v-1.3h2.6v-3.6H265.3z M276.7,292.1c0.2-1.3,0.6-2.6,1.2-3.7c0.7-1.1,1.5-2,2.5-2.6
			c1-0.6,2.1-0.9,3.3-0.8c1.2,0,2.1,0.3,2.9,1c0.8,0.6,1.4,1.4,1.8,2.5c0.4,1.1,0.5,2.2,0.4,3.5l0,0.2c-0.3,2.2-1,4-2.3,5.3
			c-1.3,1.3-2.9,2-4.7,1.9c-1.6,0-2.8-0.6-3.8-1.7c-0.9-1.1-1.4-2.6-1.4-4.5l0-0.7L276.7,292.1z M278.2,292.5c-0.1,1,0,2,0.2,2.8
			c0.3,0.9,0.7,1.5,1.3,2c0.6,0.5,1.3,0.7,2.2,0.8c0.9,0,1.8-0.2,2.5-0.7c0.8-0.5,1.4-1.2,1.9-2.1c0.5-0.9,0.8-1.9,1-3l0-0.4
			c0.2-1.7-0.1-3-0.8-4.1c-0.7-1.1-1.6-1.6-2.9-1.6c-1.4,0-2.6,0.5-3.6,1.6c-1,1.1-1.6,2.6-1.8,4.4L278.2,292.5z M299.4,286.6
			c-0.3-0.1-0.7-0.1-1-0.1c-1,0-1.9,0.3-2.7,0.9c-0.8,0.6-1.4,1.4-1.6,2.3l-1.6,9.6h-1.5l2.4-13.9h1.5l-0.5,2.2
			c0.5-0.8,1.1-1.5,1.8-1.9c0.7-0.4,1.5-0.6,2.4-0.6c0.3,0,0.7,0.1,1.1,0.2L299.4,286.6z M306.6,292c0-1.3,0.3-2.5,0.8-3.6
			c0.5-1.1,1.3-1.9,2.2-2.5c1-0.6,2-0.9,3.2-0.9c1.9,0,3.4,0.7,4.5,2c1.2,1.3,1.7,3,1.7,5.2v0.3c0,1.3-0.3,2.6-0.8,3.6
			c-0.5,1.1-1.2,1.9-2.2,2.5c-0.9,0.6-2,0.9-3.2,0.9c-1.8,0-3.4-0.6-4.5-1.9c-1.2-1.3-1.7-3-1.7-5.2V292z M308.1,292.4
			c0,1.7,0.4,3,1.3,4.1c0.9,1.1,2,1.6,3.4,1.6c1.4,0,2.5-0.5,3.4-1.6c0.9-1.1,1.3-2.5,1.3-4.2V292c0-1.1-0.2-2-0.6-2.9
			c-0.4-0.9-1-1.6-1.7-2c-0.7-0.5-1.5-0.7-2.4-0.7c-1.4,0-2.5,0.5-3.4,1.6c-0.9,1.1-1.3,2.5-1.3,4.2V292.4z M331.2,297.4
			c-0.9,1.4-2.4,2-4.4,2c-1.5,0-2.6-0.4-3.4-1.3c-0.8-0.9-1.2-2.1-1.2-3.8v-9.1h1.5v8.9c0,2.7,1.1,4,3.2,4c2.2,0,3.6-0.9,4.2-2.8
			v-10.1h1.5v13.9h-1.5L331.2,297.4z M339.1,281.7v3.6h2.9v1.3h-2.9v9.3c0,0.8,0.1,1.3,0.4,1.7c0.3,0.4,0.8,0.6,1.4,0.6
			c0.3,0,0.7,0,1.2-0.1l0.1,1.3c-0.4,0.1-1,0.2-1.6,0.2c-1.1,0-1.8-0.3-2.3-0.9c-0.5-0.6-0.7-1.5-0.7-2.7v-9.3H335v-1.3h2.6v-3.6
			H339.1z M356.4,292.4c0,2.2-0.5,3.9-1.4,5.2c-1,1.3-2.3,1.9-3.9,1.9c-1.9,0-3.4-0.7-4.4-2v7.1h-1.5v-19.3h1.4l0.1,2
			c1-1.5,2.5-2.2,4.4-2.2c1.7,0,3,0.6,3.9,1.9c1,1.3,1.4,3,1.4,5.3V292.4z M354.9,292.1c0-1.8-0.4-3.2-1.1-4.2
			c-0.7-1-1.7-1.5-3.1-1.5c-0.9,0-1.8,0.2-2.4,0.7c-0.7,0.5-1.2,1.1-1.6,2v6.7c0.4,0.8,0.9,1.4,1.6,1.8c0.7,0.4,1.5,0.6,2.4,0.6
			c1.3,0,2.3-0.5,3-1.5C354.5,295.6,354.9,294.1,354.9,292.1z M368.8,297.4c-0.9,1.4-2.4,2-4.4,2c-1.5,0-2.6-0.4-3.4-1.3
			c-0.8-0.9-1.2-2.1-1.2-3.8v-9.1h1.5v8.9c0,2.7,1.1,4,3.2,4c2.2,0,3.6-0.9,4.2-2.8v-10.1h1.5v13.9h-1.5L368.8,297.4z M376.8,281.7
			v3.6h2.9v1.3h-2.9v9.3c0,0.8,0.1,1.3,0.4,1.7c0.3,0.4,0.8,0.6,1.4,0.6c0.3,0,0.7,0,1.2-0.1l0.1,1.3c-0.4,0.1-1,0.2-1.6,0.2
			c-1.1,0-1.8-0.3-2.3-0.9c-0.5-0.6-0.7-1.5-0.7-2.7v-9.3h-2.6v-1.3h2.6v-3.6H376.8z"/>
		
			<linearGradient id="SVGID_00000106861305912032847830000017748753888425942915_" gradientUnits="userSpaceOnUse" x1="68.2" y1="327.6" x2="139.427" y2="327.6" gradientTransform="matrix(1 0 0 -1 0 618)">
			<stop  offset="0" style="stop-color:#000000"/>
			<stop  offset="1" style="stop-color:#000000;stop-opacity:0"/>
		</linearGradient>
		<path style="fill:url(#SVGID_00000106861305912032847830000017748753888425942915_);" d="M67.4,289.6c-0.4,0.4-0.4,1.1,0,1.6l7,7
			c0.4,0.4,1.1,0.4,1.6,0c0.4-0.4,0.4-1.1,0-1.6l-6.2-6.2l6.2-6.2c0.4-0.4,0.4-1.1,0-1.6c-0.4-0.4-1.1-0.4-1.6,0L67.4,289.6z
			 M68.2,291.5h112.2v-2.2H68.2V291.5z"/>
		
			<linearGradient id="SVGID_00000097481948084477889210000005207856855049869756_" gradientUnits="userSpaceOnUse" x1="457.6" y1="327.6" x2="386.3728" y2="327.6" gradientTransform="matrix(1 0 0 -1 0 618)">
			<stop  offset="0" style="stop-color:#000000"/>
			<stop  offset="1" style="stop-color:#000000;stop-opacity:0"/>
		</linearGradient>
		<path style="fill:url(#SVGID_00000097481948084477889210000005207856855049869756_);" d="M458.4,291.2c0.4-0.4,0.4-1.1,0-1.6l-7-7
			c-0.4-0.4-1.1-0.4-1.6,0c-0.4,0.4-0.4,1.1,0,1.6l6.2,6.2l-6.2,6.2c-0.4,0.4-0.4,1.1,0,1.6c0.4,0.4,1.1,0.4,1.6,0L458.4,291.2z
			 M457.6,289.3H345.4v2.2h112.2V289.3z"/>
		<path d="M150.5,255.6c-2.1-0.6-3.7-1.4-4.6-2.2c-1-0.9-1.4-2-1.4-3.3c0-1.5,0.6-2.7,1.8-3.7c1.2-1,2.7-1.5,4.6-1.5
			c1.3,0,2.4,0.2,3.4,0.7c1,0.5,1.8,1.2,2.3,2.1c0.6,0.9,0.8,1.8,0.8,2.9h-2.5c0-1.1-0.4-2-1.1-2.7c-0.7-0.7-1.7-1-3.1-1
			c-1.2,0-2.2,0.3-2.9,0.8c-0.7,0.5-1,1.3-1,2.2c0,0.8,0.3,1.4,1,1.9c0.7,0.5,1.8,1,3.3,1.4c1.6,0.4,2.8,0.9,3.7,1.5
			c0.9,0.5,1.5,1.1,2,1.8c0.4,0.7,0.6,1.5,0.6,2.5c0,1.5-0.6,2.7-1.8,3.7c-1.2,0.9-2.8,1.4-4.8,1.4c-1.3,0-2.5-0.2-3.6-0.7
			c-1.1-0.5-2-1.2-2.6-2c-0.6-0.9-0.9-1.8-0.9-2.9h2.5c0,1.1,0.4,2,1.3,2.7c0.8,0.7,2,1,3.4,1c1.3,0,2.3-0.3,3-0.8
			c0.7-0.5,1-1.3,1-2.2s-0.3-1.6-1-2.1C153.3,256.6,152.2,256.1,150.5,255.6z M160.6,264v-18.8h5.3c1.6,0,3.1,0.4,4.3,1.1
			c1.3,0.7,2.2,1.7,2.9,3.1c0.7,1.3,1,2.9,1,4.6v1.2c0,1.8-0.3,3.3-1,4.7c-0.7,1.3-1.7,2.4-2.9,3.1c-1.3,0.7-2.7,1.1-4.4,1.1H160.6z
			 M163.1,247.3V262h2.6c1.9,0,3.4-0.6,4.4-1.8c1.1-1.2,1.6-2.9,1.6-5.1V254c0-2.1-0.5-3.8-1.5-5c-1-1.2-2.4-1.8-4.3-1.8H163.1z
			 M180.6,264h-2.5v-18.8h2.5V264z M200.9,245v3.1h-0.4c-1.7,0-3,0.5-4.1,1.3c-1,0.9-1.6,2-1.8,3.5c1-1,2.3-1.5,3.8-1.5
			c1.6,0,2.9,0.6,3.9,1.8c1,1.2,1.4,2.7,1.4,4.6c0,1.2-0.3,2.3-0.8,3.3c-0.5,1-1.3,1.8-2.2,2.3c-1,0.5-2.1,0.8-3.3,0.8
			c-2,0-3.6-0.7-4.8-2.1c-1.2-1.4-1.8-3.2-1.8-5.5v-1.3c0-2,0.4-3.8,1.1-5.4c0.8-1.6,1.9-2.8,3.3-3.6c1.4-0.9,3.1-1.3,5-1.3H200.9z
			 M197.3,254.4c-0.6,0-1.1,0.2-1.6,0.5c-0.5,0.3-0.9,0.7-1.1,1.2v1.1c0,1.2,0.2,2.2,0.7,2.9c0.5,0.7,1.2,1,2.1,1
			c0.8,0,1.4-0.3,1.9-0.9c0.5-0.6,0.7-1.5,0.7-2.5c0-1-0.2-1.8-0.7-2.5C198.8,254.7,198.1,254.4,197.3,254.4z M215,264h-1.5v-13.9
			h1.5V264z M213.2,246c0-0.3,0.1-0.5,0.3-0.7c0.2-0.2,0.4-0.3,0.8-0.3s0.6,0.1,0.8,0.3c0.2,0.2,0.3,0.4,0.3,0.7
			c0,0.3-0.1,0.5-0.3,0.7c-0.2,0.2-0.4,0.3-0.8,0.3s-0.6-0.1-0.8-0.3C213.3,246.6,213.2,246.3,213.2,246z M220.7,250.1l0.1,2.4
			c0.5-0.9,1.2-1.5,2-2c0.8-0.5,1.6-0.7,2.6-0.7c1.5,0,2.6,0.4,3.3,1.3c0.7,0.8,1.1,2.1,1.1,3.8v9.2h-1.5v-9.2
			c0-1.2-0.3-2.2-0.8-2.8c-0.5-0.6-1.3-0.9-2.5-0.9c-1,0-1.8,0.3-2.5,0.9c-0.7,0.6-1.3,1.4-1.6,2.4v9.6h-1.5v-13.9H220.7z
			 M244.9,257.2c0,2.2-0.5,3.9-1.4,5.2c-1,1.3-2.3,1.9-3.9,1.9c-1.9,0-3.4-0.7-4.4-2v7.1h-1.5v-19.3h1.4l0.1,2
			c1-1.5,2.5-2.2,4.4-2.2c1.7,0,3,0.6,3.9,1.9c1,1.3,1.4,3,1.4,5.3V257.2z M243.4,256.9c0-1.8-0.4-3.2-1.1-4.2
			c-0.7-1-1.7-1.5-3.1-1.5c-0.9,0-1.8,0.2-2.4,0.7c-0.7,0.5-1.2,1.1-1.6,2v6.7c0.4,0.8,0.9,1.4,1.6,1.8c0.7,0.4,1.5,0.6,2.4,0.6
			c1.3,0,2.3-0.5,3-1.5C243,260.4,243.4,258.9,243.4,256.9z M257.3,262.2c-0.9,1.4-2.4,2-4.4,2c-1.5,0-2.6-0.4-3.4-1.3
			c-0.8-0.9-1.2-2.1-1.2-3.8v-9.1h1.5v8.9c0,2.7,1.1,4,3.2,4c2.2,0,3.6-0.9,4.2-2.8v-10.1h1.5V264h-1.5L257.3,262.2z M265.3,246.5
			v3.6h2.9v1.3h-2.9v9.3c0,0.8,0.1,1.3,0.4,1.7c0.3,0.4,0.8,0.6,1.4,0.6c0.3,0,0.7,0,1.3-0.1l0.1,1.3c-0.4,0.1-1,0.2-1.6,0.2
			c-1.1,0-1.8-0.3-2.3-0.9c-0.5-0.6-0.7-1.5-0.7-2.7v-9.3h-2.6v-1.3h2.6v-3.6H265.3z M276.7,256.9c0.2-1.3,0.6-2.6,1.2-3.7
			c0.7-1.1,1.5-2,2.5-2.6c1-0.6,2.1-0.9,3.3-0.8c1.2,0,2.1,0.3,2.9,1c0.8,0.6,1.4,1.4,1.8,2.5c0.4,1.1,0.5,2.2,0.4,3.5l0,0.2
			c-0.3,2.2-1,4-2.3,5.3c-1.3,1.3-2.9,2-4.7,1.9c-1.6,0-2.8-0.6-3.8-1.7c-0.9-1.1-1.4-2.6-1.4-4.5l0-0.7L276.7,256.9z M278.2,257.3
			c-0.1,1,0,2,0.2,2.8c0.3,0.9,0.7,1.5,1.3,2c0.6,0.5,1.3,0.7,2.2,0.8c0.9,0,1.8-0.2,2.5-0.7c0.8-0.5,1.4-1.2,1.9-2.1
			c0.5-0.9,0.8-1.9,1-3l0-0.4c0.2-1.7-0.1-3-0.8-4.1c-0.7-1.1-1.6-1.6-2.9-1.6c-1.4,0-2.6,0.5-3.6,1.6c-1,1.1-1.6,2.6-1.8,4.4
			L278.2,257.3z M299.4,251.4c-0.3-0.1-0.7-0.1-1-0.1c-1,0-1.9,0.3-2.7,0.9c-0.8,0.6-1.4,1.4-1.6,2.3l-1.6,9.6h-1.5l2.4-13.9h1.5
			l-0.5,2.2c0.5-0.8,1.1-1.5,1.8-1.9c0.7-0.4,1.5-0.6,2.4-0.6c0.3,0,0.7,0.1,1.1,0.2L299.4,251.4z M306.6,256.8
			c0-1.3,0.3-2.5,0.8-3.6c0.5-1.1,1.3-1.9,2.2-2.5c1-0.6,2-0.9,3.2-0.9c1.9,0,3.4,0.7,4.5,2c1.2,1.3,1.7,3,1.7,5.2v0.3
			c0,1.3-0.3,2.6-0.8,3.6c-0.5,1.1-1.2,1.9-2.2,2.5c-0.9,0.6-2,0.9-3.2,0.9c-1.8,0-3.4-0.6-4.5-1.9c-1.2-1.3-1.7-3-1.7-5.2V256.8z
			 M308.1,257.2c0,1.7,0.4,3,1.3,4.1c0.9,1.1,2,1.6,3.4,1.6c1.4,0,2.5-0.5,3.4-1.6c0.9-1.1,1.3-2.5,1.3-4.2v-0.3
			c0-1.1-0.2-2-0.6-2.9c-0.4-0.9-1-1.6-1.7-2c-0.7-0.5-1.5-0.7-2.4-0.7c-1.4,0-2.5,0.5-3.4,1.6c-0.9,1.1-1.3,2.5-1.3,4.2V257.2z
			 M331.2,262.2c-0.9,1.4-2.4,2-4.4,2c-1.5,0-2.6-0.4-3.4-1.3c-0.8-0.9-1.2-2.1-1.2-3.8v-9.1h1.5v8.9c0,2.7,1.1,4,3.2,4
			c2.2,0,3.6-0.9,4.2-2.8v-10.1h1.5V264h-1.5L331.2,262.2z M339.1,246.5v3.6h2.9v1.3h-2.9v9.3c0,0.8,0.1,1.3,0.4,1.7
			c0.3,0.4,0.8,0.6,1.4,0.6c0.3,0,0.7,0,1.2-0.1l0.1,1.3c-0.4,0.1-1,0.2-1.6,0.2c-1.1,0-1.8-0.3-2.3-0.9c-0.5-0.6-0.7-1.5-0.7-2.7
			v-9.3H335v-1.3h2.6v-3.6H339.1z M356.4,257.2c0,2.2-0.5,3.9-1.4,5.2c-1,1.3-2.3,1.9-3.9,1.9c-1.9,0-3.4-0.7-4.4-2v7.1h-1.5v-19.3
			h1.4l0.1,2c1-1.5,2.5-2.2,4.4-2.2c1.7,0,3,0.6,3.9,1.9c1,1.3,1.4,3,1.4,5.3V257.2z M354.9,256.9c0-1.8-0.4-3.2-1.1-4.2
			c-0.7-1-1.7-1.5-3.1-1.5c-0.9,0-1.8,0.2-2.4,0.7c-0.7,0.5-1.2,1.1-1.6,2v6.7c0.4,0.8,0.9,1.4,1.6,1.8c0.7,0.4,1.5,0.6,2.4,0.6
			c1.3,0,2.3-0.5,3-1.5C354.5,260.4,354.9,258.9,354.9,256.9z M368.8,262.2c-0.9,1.4-2.4,2-4.4,2c-1.5,0-2.6-0.4-3.4-1.3
			c-0.8-0.9-1.2-2.1-1.2-3.8v-9.1h1.5v8.9c0,2.7,1.1,4,3.2,4c2.2,0,3.6-0.9,4.2-2.8v-10.1h1.5V264h-1.5L368.8,262.2z M376.8,246.5
			v3.6h2.9v1.3h-2.9v9.3c0,0.8,0.1,1.3,0.4,1.7c0.3,0.4,0.8,0.6,1.4,0.6c0.3,0,0.7,0,1.2-0.1l0.1,1.3c-0.4,0.1-1,0.2-1.6,0.2
			c-1.1,0-1.8-0.3-2.3-0.9c-0.5-0.6-0.7-1.5-0.7-2.7v-9.3h-2.6v-1.3h2.6v-3.6H376.8z"/>
		
			<linearGradient id="SVGID_00000078761881730248823500000015423499410757468598_" gradientUnits="userSpaceOnUse" x1="68.2" y1="362.8" x2="139.427" y2="362.8" gradientTransform="matrix(1 0 0 -1 0 618)">
			<stop  offset="0" style="stop-color:#000000"/>
			<stop  offset="1" style="stop-color:#000000;stop-opacity:0"/>
		</linearGradient>
		<path style="fill:url(#SVGID_00000078761881730248823500000015423499410757468598_);" d="M67.4,254.4c-0.4,0.4-0.4,1.1,0,1.6l7,7
			c0.4,0.4,1.1,0.4,1.6,0c0.4-0.4,0.4-1.1,0-1.6l-6.2-6.2L76,249c0.4-0.4,0.4-1.1,0-1.6c-0.4-0.4-1.1-0.4-1.6,0L67.4,254.4z
			 M68.2,256.3h112.2v-2.2H68.2V256.3z"/>
		
			<linearGradient id="SVGID_00000048462721375561565860000016215742272775388580_" gradientUnits="userSpaceOnUse" x1="457.6" y1="362.8" x2="386.3728" y2="362.8" gradientTransform="matrix(1 0 0 -1 0 618)">
			<stop  offset="0" style="stop-color:#000000"/>
			<stop  offset="1" style="stop-color:#000000;stop-opacity:0"/>
		</linearGradient>
		<path style="fill:url(#SVGID_00000048462721375561565860000016215742272775388580_);" d="M458.4,256c0.4-0.4,0.4-1.1,0-1.6l-7-7
			c-0.4-0.4-1.1-0.4-1.6,0c-0.4,0.4-0.4,1.1,0,1.6l6.2,6.2l-6.2,6.2c-0.4,0.4-0.4,1.1,0,1.6c0.4,0.4,1.1,0.4,1.6,0L458.4,256z
			 M457.6,254.1H345.4v2.2h112.2V254.1z"/>
		<path d="M150.5,220.4c-2.1-0.6-3.7-1.4-4.6-2.2c-1-0.9-1.4-2-1.4-3.3c0-1.5,0.6-2.7,1.8-3.7c1.2-1,2.7-1.5,4.6-1.5
			c1.3,0,2.4,0.2,3.4,0.7c1,0.5,1.8,1.2,2.3,2.1c0.6,0.9,0.8,1.8,0.8,2.9h-2.5c0-1.1-0.4-2-1.1-2.7c-0.7-0.7-1.7-1-3.1-1
			c-1.2,0-2.2,0.3-2.9,0.8c-0.7,0.5-1,1.3-1,2.2c0,0.8,0.3,1.4,1,1.9c0.7,0.5,1.8,1,3.3,1.4c1.6,0.4,2.8,0.9,3.7,1.5
			c0.9,0.5,1.5,1.1,2,1.8c0.4,0.7,0.6,1.5,0.6,2.5c0,1.5-0.6,2.7-1.8,3.7c-1.2,0.9-2.8,1.4-4.8,1.4c-1.3,0-2.5-0.2-3.6-0.7
			c-1.1-0.5-2-1.2-2.6-2c-0.6-0.9-0.9-1.8-0.9-2.9h2.5c0,1.1,0.4,2,1.3,2.7c0.8,0.7,2,1,3.4,1c1.3,0,2.3-0.3,3-0.8s1-1.3,1-2.2
			s-0.3-1.6-1-2.1C153.3,221.4,152.2,220.9,150.5,220.4z M160.6,228.8V210h5.3c1.6,0,3.1,0.4,4.3,1.1c1.3,0.7,2.2,1.7,2.9,3.1
			c0.7,1.3,1,2.9,1,4.6v1.2c0,1.8-0.3,3.3-1,4.7c-0.7,1.3-1.7,2.4-2.9,3.1c-1.3,0.7-2.7,1.1-4.4,1.1H160.6z M163.1,212.1v14.7h2.6
			c1.9,0,3.4-0.6,4.4-1.8c1.1-1.2,1.6-2.9,1.6-5.1v-1.1c0-2.1-0.5-3.8-1.5-5c-1-1.2-2.4-1.8-4.3-1.8H163.1z M180.6,228.8h-2.5V210
			h2.5V228.8z M203.6,212.1l-7.3,16.7h-3.9l7.3-15.8h-9.3v-3h13.3V212.1z M215,228.8h-1.5v-13.9h1.5V228.8z M213.2,210.8
			c0-0.3,0.1-0.5,0.3-0.7c0.2-0.2,0.4-0.3,0.8-0.3s0.6,0.1,0.8,0.3c0.2,0.2,0.3,0.4,0.3,0.7s-0.1,0.5-0.3,0.7
			c-0.2,0.2-0.4,0.3-0.8,0.3s-0.6-0.1-0.8-0.3C213.3,211.4,213.2,211.1,213.2,210.8z M220.7,214.9l0.1,2.4c0.5-0.9,1.2-1.5,2-2
			c0.8-0.5,1.6-0.7,2.6-0.7c1.5,0,2.6,0.4,3.3,1.3c0.7,0.8,1.1,2.1,1.1,3.8v9.2h-1.5v-9.2c0-1.2-0.3-2.2-0.8-2.8
			c-0.5-0.6-1.3-0.9-2.5-0.9c-1,0-1.8,0.3-2.5,0.9c-0.7,0.6-1.3,1.4-1.6,2.4v9.6h-1.5v-13.9H220.7z M244.9,222
			c0,2.2-0.5,3.9-1.4,5.2c-1,1.3-2.3,1.9-3.9,1.9c-1.9,0-3.4-0.7-4.4-2v7.1h-1.5v-19.3h1.4l0.1,2c1-1.5,2.5-2.2,4.4-2.2
			c1.7,0,3,0.6,3.9,1.9c1,1.3,1.4,3,1.4,5.3V222z M243.4,221.7c0-1.8-0.4-3.2-1.1-4.2c-0.7-1-1.7-1.5-3.1-1.5
			c-0.9,0-1.8,0.2-2.4,0.7c-0.7,0.5-1.2,1.1-1.6,2v6.7c0.4,0.8,0.9,1.4,1.6,1.8c0.7,0.4,1.5,0.6,2.4,0.6c1.3,0,2.3-0.5,3-1.5
			C243,225.2,243.4,223.7,243.4,221.7z M257.3,227c-0.9,1.4-2.4,2-4.4,2c-1.5,0-2.6-0.4-3.4-1.3c-0.8-0.9-1.2-2.1-1.2-3.8v-9.1h1.5
			v8.9c0,2.7,1.1,4,3.2,4c2.2,0,3.6-0.9,4.2-2.8v-10.1h1.5v13.9h-1.5L257.3,227z M265.3,211.3v3.6h2.9v1.3h-2.9v9.3
			c0,0.8,0.1,1.3,0.4,1.7c0.3,0.4,0.8,0.6,1.4,0.6c0.3,0,0.7,0,1.3-0.1l0.1,1.3c-0.4,0.1-1,0.2-1.6,0.2c-1.1,0-1.8-0.3-2.3-0.9
			c-0.5-0.6-0.7-1.5-0.7-2.7v-9.3h-2.6v-1.3h2.6v-3.6H265.3z M276.7,221.7c0.2-1.3,0.6-2.6,1.2-3.7c0.7-1.1,1.5-2,2.5-2.6
			c1-0.6,2.1-0.9,3.3-0.8c1.2,0,2.1,0.3,2.9,1c0.8,0.6,1.4,1.4,1.8,2.5c0.4,1.1,0.5,2.2,0.4,3.5l0,0.2c-0.3,2.2-1,4-2.3,5.3
			c-1.3,1.3-2.9,2-4.7,1.9c-1.6,0-2.8-0.6-3.8-1.7c-0.9-1.1-1.4-2.6-1.4-4.5l0-0.7L276.7,221.7z M278.2,222.1c-0.1,1,0,2,0.2,2.8
			c0.3,0.9,0.7,1.5,1.3,2c0.6,0.5,1.3,0.7,2.2,0.8c0.9,0,1.8-0.2,2.5-0.7c0.8-0.5,1.4-1.2,1.9-2.1c0.5-0.9,0.8-1.9,1-3l0-0.4
			c0.2-1.7-0.1-3-0.8-4.1c-0.7-1.1-1.6-1.6-2.9-1.6c-1.4,0-2.6,0.5-3.6,1.6c-1,1.1-1.6,2.6-1.8,4.4L278.2,222.1z M299.4,216.2
			c-0.3-0.1-0.7-0.1-1-0.1c-1,0-1.9,0.3-2.7,0.9c-0.8,0.6-1.4,1.3-1.6,2.3l-1.6,9.6h-1.5l2.4-13.9h1.5l-0.5,2.2
			c0.5-0.8,1.1-1.5,1.8-1.9c0.7-0.4,1.5-0.6,2.4-0.6c0.3,0,0.7,0.1,1.1,0.2L299.4,216.2z M306.6,221.6c0-1.3,0.3-2.5,0.8-3.6
			c0.5-1.1,1.3-1.9,2.2-2.5c1-0.6,2-0.9,3.2-0.9c1.9,0,3.4,0.7,4.5,2c1.2,1.3,1.7,3,1.7,5.2v0.3c0,1.3-0.3,2.6-0.8,3.6
			c-0.5,1.1-1.2,1.9-2.2,2.5c-0.9,0.6-2,0.9-3.2,0.9c-1.8,0-3.4-0.6-4.5-1.9c-1.2-1.3-1.7-3-1.7-5.2V221.6z M308.1,222
			c0,1.7,0.4,3,1.3,4.1c0.9,1.1,2,1.6,3.4,1.6c1.4,0,2.5-0.5,3.4-1.6c0.9-1.1,1.3-2.5,1.3-4.2v-0.3c0-1.1-0.2-2-0.6-2.9
			c-0.4-0.9-1-1.6-1.7-2c-0.7-0.5-1.5-0.7-2.4-0.7c-1.4,0-2.5,0.5-3.4,1.6c-0.9,1.1-1.3,2.5-1.3,4.2V222z M331.2,227
			c-0.9,1.4-2.4,2-4.4,2c-1.5,0-2.6-0.4-3.4-1.3c-0.8-0.9-1.2-2.1-1.2-3.8v-9.1h1.5v8.9c0,2.7,1.1,4,3.2,4c2.2,0,3.6-0.9,4.2-2.8
			v-10.1h1.5v13.9h-1.5L331.2,227z M339.1,211.3v3.6h2.9v1.3h-2.9v9.3c0,0.8,0.1,1.3,0.4,1.7c0.3,0.4,0.8,0.6,1.4,0.6
			c0.3,0,0.7,0,1.2-0.1l0.1,1.3c-0.4,0.1-1,0.2-1.6,0.2c-1.1,0-1.8-0.3-2.3-0.9c-0.5-0.6-0.7-1.5-0.7-2.7v-9.3H335v-1.3h2.6v-3.6
			H339.1z M356.4,222c0,2.2-0.5,3.9-1.4,5.2c-1,1.3-2.3,1.9-3.9,1.9c-1.9,0-3.4-0.7-4.4-2v7.1h-1.5v-19.3h1.4l0.1,2
			c1-1.5,2.5-2.2,4.4-2.2c1.7,0,3,0.6,3.9,1.9c1,1.3,1.4,3,1.4,5.3V222z M354.9,221.7c0-1.8-0.4-3.2-1.1-4.2c-0.7-1-1.7-1.5-3.1-1.5
			c-0.9,0-1.8,0.2-2.4,0.7c-0.7,0.5-1.2,1.1-1.6,2v6.7c0.4,0.8,0.9,1.4,1.6,1.8c0.7,0.4,1.5,0.6,2.4,0.6c1.3,0,2.3-0.5,3-1.5
			C354.5,225.2,354.9,223.7,354.9,221.7z M368.8,227c-0.9,1.4-2.4,2-4.4,2c-1.5,0-2.6-0.4-3.4-1.3c-0.8-0.9-1.2-2.1-1.2-3.8v-9.1
			h1.5v8.9c0,2.7,1.1,4,3.2,4c2.2,0,3.6-0.9,4.2-2.8v-10.1h1.5v13.9h-1.5L368.8,227z M376.8,211.3v3.6h2.9v1.3h-2.9v9.3
			c0,0.8,0.1,1.3,0.4,1.7c0.3,0.4,0.8,0.6,1.4,0.6c0.3,0,0.7,0,1.2-0.1l0.1,1.3c-0.4,0.1-1,0.2-1.6,0.2c-1.1,0-1.8-0.3-2.3-0.9
			c-0.5-0.6-0.7-1.5-0.7-2.7v-9.3h-2.6v-1.3h2.6v-3.6H376.8z"/>
		
			<linearGradient id="SVGID_00000142159952706911260240000017179316909575696003_" gradientUnits="userSpaceOnUse" x1="68.2" y1="397.9997" x2="139.427" y2="397.9997" gradientTransform="matrix(1 0 0 -1 0 618)">
			<stop  offset="0" style="stop-color:#000000"/>
			<stop  offset="1" style="stop-color:#000000;stop-opacity:0"/>
		</linearGradient>
		<path style="fill:url(#SVGID_00000142159952706911260240000017179316909575696003_);" d="M67.4,219.2c-0.4,0.4-0.4,1.1,0,1.6l7,7
			c0.4,0.4,1.1,0.4,1.6,0c0.4-0.4,0.4-1.1,0-1.6l-6.2-6.2l6.2-6.2c0.4-0.4,0.4-1.1,0-1.6c-0.4-0.4-1.1-0.4-1.6,0L67.4,219.2z
			 M68.2,221.1h112.2v-2.2H68.2V221.1z"/>
		
			<linearGradient id="SVGID_00000094615210383528520120000007117993672823082887_" gradientUnits="userSpaceOnUse" x1="457.6" y1="397.9997" x2="386.3728" y2="397.9997" gradientTransform="matrix(1 0 0 -1 0 618)">
			<stop  offset="0" style="stop-color:#000000"/>
			<stop  offset="1" style="stop-color:#000000;stop-opacity:0"/>
		</linearGradient>
		<path style="fill:url(#SVGID_00000094615210383528520120000007117993672823082887_);" d="M458.4,220.8c0.4-0.4,0.4-1.1,0-1.6l-7-7
			c-0.4-0.4-1.1-0.4-1.6,0c-0.4,0.4-0.4,1.1,0,1.6l6.2,6.2l-6.2,6.2c-0.4,0.4-0.4,1.1,0,1.6c0.4,0.4,1.1,0.4,1.6,0L458.4,220.8z
			 M457.6,218.9H345.4v2.2h112.2V218.9z"/>
		<path d="M150.5,185.2c-2.1-0.6-3.7-1.4-4.6-2.2c-1-0.9-1.4-2-1.4-3.3c0-1.5,0.6-2.7,1.8-3.7c1.2-1,2.7-1.5,4.6-1.5
			c1.3,0,2.4,0.2,3.4,0.7c1,0.5,1.8,1.2,2.3,2.1c0.6,0.9,0.8,1.8,0.8,2.9h-2.5c0-1.1-0.4-2-1.1-2.7c-0.7-0.7-1.7-1-3.1-1
			c-1.2,0-2.2,0.3-2.9,0.8c-0.7,0.5-1,1.3-1,2.2c0,0.8,0.3,1.4,1,1.9c0.7,0.5,1.8,1,3.3,1.4c1.6,0.4,2.8,0.9,3.7,1.5
			c0.9,0.5,1.5,1.1,2,1.8c0.4,0.7,0.6,1.5,0.6,2.5c0,1.5-0.6,2.7-1.8,3.7c-1.2,0.9-2.8,1.4-4.8,1.4c-1.3,0-2.5-0.2-3.6-0.7
			c-1.1-0.5-2-1.2-2.6-2c-0.6-0.9-0.9-1.8-0.9-2.9h2.5c0,1.1,0.4,2,1.3,2.7c0.8,0.7,2,1,3.4,1c1.3,0,2.3-0.3,3-0.8
			c0.7-0.5,1-1.3,1-2.2c0-0.9-0.3-1.6-1-2.1C153.3,186.2,152.2,185.7,150.5,185.2z M160.6,193.6v-18.8h5.3c1.6,0,3.1,0.4,4.3,1.1
			c1.3,0.7,2.2,1.7,2.9,3.1c0.7,1.3,1,2.9,1,4.6v1.2c0,1.8-0.3,3.3-1,4.7c-0.7,1.3-1.7,2.4-2.9,3.1c-1.3,0.7-2.7,1.1-4.4,1.1H160.6z
			 M163.1,176.9v14.7h2.6c1.9,0,3.4-0.6,4.4-1.8c1.1-1.2,1.6-2.9,1.6-5.1v-1.1c0-2.1-0.5-3.8-1.5-5c-1-1.2-2.4-1.8-4.3-1.8H163.1z
			 M180.6,193.6h-2.5v-18.8h2.5V193.6z M203,179.8c0,0.9-0.2,1.7-0.7,2.4c-0.5,0.7-1.1,1.3-1.9,1.7c0.9,0.4,1.6,1,2.2,1.8
			c0.5,0.8,0.8,1.7,0.8,2.7c0,1.7-0.6,3-1.7,4c-1.1,1-2.7,1.4-4.6,1.4s-3.5-0.5-4.6-1.5c-1.1-1-1.7-2.3-1.7-3.9c0-1,0.3-1.9,0.8-2.7
			c0.5-0.8,1.3-1.4,2.2-1.8c-0.8-0.4-1.4-1-1.9-1.7c-0.4-0.7-0.7-1.5-0.7-2.4c0-1.6,0.5-2.9,1.6-3.8c1.1-1,2.5-1.4,4.3-1.4
			c1.8,0,3.3,0.5,4.3,1.4C202.5,176.9,203,178.2,203,179.8z M199.7,188.2c0-0.8-0.2-1.5-0.7-2c-0.5-0.5-1.1-0.7-1.9-0.7
			c-0.8,0-1.4,0.2-1.9,0.7c-0.5,0.5-0.7,1.1-0.7,2c0,0.8,0.2,1.4,0.7,1.9c0.5,0.5,1.1,0.7,1.9,0.7c0.8,0,1.4-0.2,1.9-0.7
			C199.5,189.7,199.7,189,199.7,188.2z M199.3,180c0-0.7-0.2-1.3-0.6-1.8c-0.4-0.4-0.9-0.7-1.6-0.7c-0.7,0-1.2,0.2-1.6,0.6
			c-0.4,0.4-0.6,1-0.6,1.8c0,0.7,0.2,1.3,0.6,1.8c0.4,0.5,0.9,0.7,1.6,0.7s1.2-0.2,1.6-0.7C199.1,181.3,199.3,180.7,199.3,180z
			 M215,193.6h-1.5v-13.9h1.5V193.6z M213.2,175.6c0-0.3,0.1-0.5,0.3-0.7c0.2-0.2,0.4-0.3,0.8-0.3s0.6,0.1,0.8,0.3
			c0.2,0.2,0.3,0.4,0.3,0.7c0,0.3-0.1,0.5-0.3,0.7c-0.2,0.2-0.4,0.3-0.8,0.3s-0.6-0.1-0.8-0.3C213.3,176.2,213.2,175.9,213.2,175.6z
			 M220.7,179.7l0.1,2.4c0.5-0.9,1.2-1.5,2-2c0.8-0.5,1.6-0.7,2.6-0.7c1.5,0,2.6,0.4,3.3,1.3c0.7,0.8,1.1,2.1,1.1,3.8v9.2h-1.5v-9.2
			c0-1.2-0.3-2.2-0.8-2.8c-0.5-0.6-1.3-0.9-2.5-0.9c-1,0-1.8,0.3-2.5,0.9c-0.7,0.6-1.3,1.4-1.6,2.4v9.6h-1.5v-13.9H220.7z
			 M244.9,186.8c0,2.2-0.5,3.9-1.4,5.2c-1,1.3-2.3,1.9-3.9,1.9c-1.9,0-3.4-0.7-4.4-2v7.1h-1.5v-19.3h1.4l0.1,2
			c1-1.5,2.5-2.2,4.4-2.2c1.7,0,3,0.6,3.9,1.9c1,1.3,1.4,3,1.4,5.3V186.8z M243.4,186.5c0-1.8-0.4-3.2-1.1-4.2
			c-0.7-1-1.7-1.5-3.1-1.5c-0.9,0-1.8,0.2-2.4,0.7c-0.7,0.5-1.2,1.1-1.6,2v6.7c0.4,0.8,0.9,1.4,1.6,1.8c0.7,0.4,1.5,0.6,2.4,0.6
			c1.3,0,2.3-0.5,3-1.5C243,190,243.4,188.5,243.4,186.5z M257.3,191.8c-0.9,1.3-2.4,2-4.4,2c-1.5,0-2.6-0.4-3.4-1.3
			c-0.8-0.9-1.2-2.1-1.2-3.8v-9.1h1.5v8.9c0,2.7,1.1,4,3.2,4c2.2,0,3.6-0.9,4.2-2.8v-10.1h1.5v13.9h-1.5L257.3,191.8z M265.3,176.1
			v3.6h2.9v1.3h-2.9v9.3c0,0.8,0.1,1.3,0.4,1.7c0.3,0.4,0.8,0.6,1.4,0.6c0.3,0,0.7,0,1.3-0.1l0.1,1.3c-0.4,0.1-1,0.2-1.6,0.2
			c-1.1,0-1.8-0.3-2.3-0.9c-0.5-0.6-0.7-1.5-0.7-2.7v-9.3h-2.6v-1.3h2.6v-3.6H265.3z M276.7,186.5c0.2-1.3,0.6-2.6,1.2-3.7
			c0.7-1.1,1.5-2,2.5-2.6c1-0.6,2.1-0.9,3.3-0.8c1.2,0,2.1,0.3,2.9,1c0.8,0.6,1.4,1.4,1.8,2.5c0.4,1.1,0.5,2.2,0.4,3.5l0,0.2
			c-0.3,2.2-1,4-2.3,5.3c-1.3,1.3-2.9,2-4.7,1.9c-1.6,0-2.8-0.6-3.8-1.7c-0.9-1.1-1.4-2.6-1.4-4.5l0-0.7L276.7,186.5z M278.2,186.9
			c-0.1,1,0,2,0.2,2.8c0.3,0.9,0.7,1.5,1.3,2c0.6,0.5,1.3,0.7,2.2,0.8c0.9,0,1.8-0.2,2.5-0.7c0.8-0.5,1.4-1.2,1.9-2.1
			c0.5-0.9,0.8-1.9,1-3l0-0.4c0.2-1.7-0.1-3-0.8-4.1c-0.7-1.1-1.6-1.6-2.9-1.6c-1.4,0-2.6,0.5-3.6,1.6c-1,1.1-1.6,2.6-1.8,4.4
			L278.2,186.9z M299.4,181c-0.3-0.1-0.7-0.1-1-0.1c-1,0-1.9,0.3-2.7,0.9c-0.8,0.6-1.4,1.3-1.6,2.3l-1.6,9.6h-1.5l2.4-13.9h1.5
			l-0.5,2.2c0.5-0.8,1.1-1.5,1.8-1.9c0.7-0.4,1.5-0.6,2.4-0.6c0.3,0,0.7,0.1,1.1,0.2L299.4,181z M306.6,186.4c0-1.3,0.3-2.5,0.8-3.6
			c0.5-1.1,1.3-1.9,2.2-2.5c1-0.6,2-0.9,3.2-0.9c1.9,0,3.4,0.7,4.5,2c1.2,1.3,1.7,3,1.7,5.2v0.3c0,1.3-0.3,2.6-0.8,3.6
			c-0.5,1.1-1.2,1.9-2.2,2.5c-0.9,0.6-2,0.9-3.2,0.9c-1.8,0-3.4-0.6-4.5-1.9c-1.2-1.3-1.7-3-1.7-5.2V186.4z M308.1,186.8
			c0,1.7,0.4,3,1.3,4.1c0.9,1.1,2,1.6,3.4,1.6c1.4,0,2.5-0.5,3.4-1.6c0.9-1.1,1.3-2.5,1.3-4.2v-0.3c0-1.1-0.2-2-0.6-2.9
			c-0.4-0.9-1-1.6-1.7-2c-0.7-0.5-1.5-0.7-2.4-0.7c-1.4,0-2.5,0.5-3.4,1.6c-0.9,1.1-1.3,2.5-1.3,4.2V186.8z M331.2,191.8
			c-0.9,1.3-2.4,2-4.4,2c-1.5,0-2.6-0.4-3.4-1.3c-0.8-0.9-1.2-2.1-1.2-3.8v-9.1h1.5v8.9c0,2.7,1.1,4,3.2,4c2.2,0,3.6-0.9,4.2-2.8
			v-10.1h1.5v13.9h-1.5L331.2,191.8z M339.1,176.1v3.6h2.9v1.3h-2.9v9.3c0,0.8,0.1,1.3,0.4,1.7c0.3,0.4,0.8,0.6,1.4,0.6
			c0.3,0,0.7,0,1.2-0.1l0.1,1.3c-0.4,0.1-1,0.2-1.6,0.2c-1.1,0-1.8-0.3-2.3-0.9c-0.5-0.6-0.7-1.5-0.7-2.7v-9.3H335v-1.3h2.6v-3.6
			H339.1z M356.4,186.8c0,2.2-0.5,3.9-1.4,5.2c-1,1.3-2.3,1.9-3.9,1.9c-1.9,0-3.4-0.7-4.4-2v7.1h-1.5v-19.3h1.4l0.1,2
			c1-1.5,2.5-2.2,4.4-2.2c1.7,0,3,0.6,3.9,1.9c1,1.3,1.4,3,1.4,5.3V186.8z M354.9,186.5c0-1.8-0.4-3.2-1.1-4.2
			c-0.7-1-1.7-1.5-3.1-1.5c-0.9,0-1.8,0.2-2.4,0.7c-0.7,0.5-1.2,1.1-1.6,2v6.7c0.4,0.8,0.9,1.4,1.6,1.8c0.7,0.4,1.5,0.6,2.4,0.6
			c1.3,0,2.3-0.5,3-1.5C354.5,190,354.9,188.5,354.9,186.5z M368.8,191.8c-0.9,1.3-2.4,2-4.4,2c-1.5,0-2.6-0.4-3.4-1.3
			c-0.8-0.9-1.2-2.1-1.2-3.8v-9.1h1.5v8.9c0,2.7,1.1,4,3.2,4c2.2,0,3.6-0.9,4.2-2.8v-10.1h1.5v13.9h-1.5L368.8,191.8z M376.8,176.1
			v3.6h2.9v1.3h-2.9v9.3c0,0.8,0.1,1.3,0.4,1.7c0.3,0.4,0.8,0.6,1.4,0.6c0.3,0,0.7,0,1.2-0.1l0.1,1.3c-0.4,0.1-1,0.2-1.6,0.2
			c-1.1,0-1.8-0.3-2.3-0.9c-0.5-0.6-0.7-1.5-0.7-2.7v-9.3h-2.6v-1.3h2.6v-3.6H376.8z"/>
		
			<linearGradient id="SVGID_00000094593327247253018480000005860062689748855177_" gradientUnits="userSpaceOnUse" x1="68.2" y1="433.2" x2="139.427" y2="433.2" gradientTransform="matrix(1 0 0 -1 0 618)">
			<stop  offset="0" style="stop-color:#000000"/>
			<stop  offset="1" style="stop-color:#000000;stop-opacity:0"/>
		</linearGradient>
		<path style="fill:url(#SVGID_00000094593327247253018480000005860062689748855177_);" d="M67.4,184c-0.4,0.4-0.4,1.1,0,1.6l7,7
			c0.4,0.4,1.1,0.4,1.6,0c0.4-0.4,0.4-1.1,0-1.6l-6.2-6.2l6.2-6.2c0.4-0.4,0.4-1.1,0-1.6c-0.4-0.4-1.1-0.4-1.6,0L67.4,184z
			 M68.2,185.9h112.2v-2.2H68.2V185.9z"/>
		
			<linearGradient id="SVGID_00000076570926317140330300000003599678683462846853_" gradientUnits="userSpaceOnUse" x1="457.6" y1="433.2" x2="386.3728" y2="433.2" gradientTransform="matrix(1 0 0 -1 0 618)">
			<stop  offset="0" style="stop-color:#000000"/>
			<stop  offset="1" style="stop-color:#000000;stop-opacity:0"/>
		</linearGradient>
		<path style="fill:url(#SVGID_00000076570926317140330300000003599678683462846853_);" d="M458.4,185.6c0.4-0.4,0.4-1.1,0-1.6l-7-7
			c-0.4-0.4-1.1-0.4-1.6,0c-0.4,0.4-0.4,1.1,0,1.6l6.2,6.2l-6.2,6.2c-0.4,0.4-0.4,1.1,0,1.6c0.4,0.4,1.1,0.4,1.6,0L458.4,185.6z
			 M457.6,183.7H345.4v2.2h112.2V183.7z"/>
		<path class="st27" d="M534.6,171.6h253c3.6,0,6.6,3,6.6,6.6V194c0,3.6-3,6.6-6.6,6.6h-253V171.6z"/>
		<path class="st1" d="M552,193.6v-17.2h4.9c1.5,0,2.8,0.3,4,1c1.2,0.7,2,1.6,2.7,2.8c0.6,1.2,1,2.6,1,4.2v1.1c0,1.6-0.3,3-0.9,4.3
			c-0.6,1.2-1.5,2.2-2.7,2.8c-1.2,0.7-2.5,1-4.1,1H552z M554.3,178.3v13.5h2.4c1.7,0,3.1-0.5,4.1-1.6c1-1.1,1.5-2.6,1.5-4.6v-1
			c0-2-0.5-3.5-1.4-4.5c-0.9-1.1-2.2-1.6-3.9-1.7H554.3z M572.8,193.8c-1.7,0-3.1-0.6-4.2-1.7c-1.1-1.1-1.6-2.7-1.6-4.6v-0.4
			c0-1.3,0.2-2.4,0.7-3.4c0.5-1,1.2-1.8,2-2.3c0.9-0.6,1.8-0.9,2.8-0.9c1.7,0,3,0.5,3.9,1.6c0.9,1.1,1.4,2.7,1.4,4.7v0.9h-8.7
			c0,1.3,0.4,2.3,1.1,3.1c0.7,0.8,1.6,1.2,2.7,1.2c0.8,0,1.4-0.2,2-0.5c0.5-0.3,1-0.7,1.4-1.3l1.3,1
			C576.6,193,575,193.8,572.8,193.8z M572.6,182.4c-0.9,0-1.6,0.3-2.2,1c-0.6,0.6-1,1.5-1.1,2.7h6.4v-0.2c-0.1-1.1-0.4-2-0.9-2.6
			C574.2,182.7,573.5,182.4,572.6,182.4z M584.4,190.6l3.2-9.8h2.2l-4.6,12.8h-1.7l-4.6-12.8h2.2L584.4,190.6z M594.3,193.6h-2.2
			v-12.8h2.2V193.6z M591.9,177.4c0-0.4,0.1-0.7,0.3-0.9c0.2-0.2,0.5-0.4,1-0.4c0.4,0,0.8,0.1,1,0.4s0.3,0.5,0.3,0.9
			c0,0.4-0.1,0.6-0.3,0.9c-0.2,0.2-0.5,0.4-1,0.4c-0.4,0-0.7-0.1-1-0.4C592,178.1,591.9,177.8,591.9,177.4z M602.9,192.1
			c0.8,0,1.5-0.2,2-0.7c0.6-0.5,0.9-1.1,1-1.8h2.1c0,0.7-0.3,1.4-0.8,2.1c-0.5,0.7-1.1,1.2-1.9,1.6c-0.8,0.4-1.6,0.6-2.5,0.6
			c-1.7,0-3.1-0.6-4.2-1.7c-1-1.2-1.5-2.8-1.5-4.8V187c0-1.2,0.2-2.4,0.7-3.3c0.5-1,1.1-1.7,2-2.3c0.9-0.5,1.9-0.8,3-0.8
			c1.4,0,2.6,0.4,3.6,1.3c1,0.9,1.5,2,1.5,3.3H606c-0.1-0.8-0.4-1.5-0.9-2c-0.6-0.5-1.3-0.8-2.1-0.8c-1.1,0-2,0.4-2.6,1.2
			c-0.6,0.8-0.9,1.9-0.9,3.5v0.4c0,1.5,0.3,2.6,0.9,3.4C600.9,191.7,601.8,192.1,602.9,192.1z M615.8,193.8c-1.7,0-3.1-0.6-4.2-1.7
			c-1.1-1.1-1.6-2.7-1.6-4.6v-0.4c0-1.3,0.2-2.4,0.7-3.4c0.5-1,1.2-1.8,2-2.3c0.9-0.6,1.8-0.9,2.8-0.9c1.7,0,3,0.5,3.9,1.6
			c0.9,1.1,1.4,2.7,1.4,4.7v0.9h-8.7c0,1.3,0.4,2.3,1.1,3.1c0.7,0.8,1.6,1.2,2.7,1.2c0.8,0,1.4-0.2,2-0.5c0.5-0.3,1-0.7,1.4-1.3
			l1.3,1C619.5,193,617.9,193.8,615.8,193.8z M615.5,182.4c-0.9,0-1.6,0.3-2.2,1c-0.6,0.6-1,1.5-1.1,2.7h6.4v-0.2
			c-0.1-1.1-0.4-2-0.9-2.6C617.1,182.7,616.4,182.4,615.5,182.4z M640.1,181c0,0.8-0.2,1.6-0.6,2.2c-0.4,0.6-1,1.2-1.7,1.5
			c0.8,0.4,1.5,1,2,1.7c0.5,0.7,0.7,1.5,0.7,2.5c0,1.5-0.5,2.7-1.6,3.6c-1,0.9-2.5,1.3-4.2,1.3c-1.8,0-3.2-0.4-4.3-1.3
			c-1-0.9-1.6-2.1-1.6-3.6c0-1,0.2-1.8,0.7-2.5c0.5-0.7,1.1-1.3,2-1.7c-0.7-0.4-1.3-0.9-1.7-1.5c-0.4-0.6-0.6-1.4-0.6-2.2
			c0-1.5,0.5-2.6,1.5-3.5c1-0.9,2.3-1.3,4-1.3c1.7,0,3,0.4,4,1.3C639.6,178.3,640.1,179.5,640.1,181z M637,188.6
			c0-0.7-0.2-1.3-0.6-1.8c-0.4-0.4-1-0.7-1.7-0.7c-0.7,0-1.3,0.2-1.7,0.7c-0.4,0.4-0.6,1-0.6,1.8c0,0.7,0.2,1.3,0.6,1.8
			c0.4,0.4,1,0.7,1.8,0.7c0.7,0,1.3-0.2,1.7-0.7C636.8,190,637,189.4,637,188.6z M636.6,181.1c0-0.7-0.2-1.2-0.5-1.6
			c-0.4-0.4-0.9-0.6-1.5-0.6c-0.6,0-1.1,0.2-1.5,0.6c-0.4,0.4-0.5,0.9-0.5,1.6c0,0.7,0.2,1.2,0.5,1.7c0.4,0.4,0.9,0.6,1.5,0.6
			c0.6,0,1.1-0.2,1.5-0.6C636.5,182.4,636.6,181.8,636.6,181.1z"/>
		<path class="st27" d="M534.6,206.8h253c3.6,0,6.6,3,6.6,6.6v15.8c0,3.6-3,6.6-6.6,6.6h-253V206.8z"/>
		<path class="st1" d="M552,228.8v-17.2h4.9c1.5,0,2.8,0.3,4,1c1.2,0.7,2,1.6,2.7,2.8c0.6,1.2,1,2.6,1,4.2v1.1c0,1.6-0.3,3-0.9,4.3
			c-0.6,1.2-1.5,2.2-2.7,2.8c-1.2,0.7-2.5,1-4.1,1H552z M554.3,213.5v13.5h2.4c1.7,0,3.1-0.5,4.1-1.6c1-1.1,1.5-2.6,1.5-4.6v-1
			c0-2-0.5-3.5-1.4-4.5c-0.9-1.1-2.2-1.6-3.9-1.7H554.3z M572.8,229c-1.7,0-3.1-0.6-4.2-1.7c-1.1-1.1-1.6-2.7-1.6-4.6v-0.4
			c0-1.3,0.2-2.4,0.7-3.4c0.5-1,1.2-1.8,2-2.3c0.9-0.6,1.8-0.9,2.8-0.9c1.7,0,3,0.5,3.9,1.6c0.9,1.1,1.4,2.7,1.4,4.7v0.9h-8.7
			c0,1.3,0.4,2.3,1.1,3.1c0.7,0.8,1.6,1.2,2.7,1.2c0.8,0,1.4-0.2,2-0.5c0.5-0.3,1-0.7,1.4-1.3l1.3,1C576.6,228.2,575,229,572.8,229z
			 M572.6,217.6c-0.9,0-1.6,0.3-2.2,1c-0.6,0.6-1,1.5-1.1,2.7h6.4v-0.2c-0.1-1.1-0.4-2-0.9-2.6C574.2,217.9,573.5,217.6,572.6,217.6
			z M584.4,225.8l3.2-9.8h2.2l-4.6,12.8h-1.7l-4.6-12.8h2.2L584.4,225.8z M594.3,228.8h-2.2V216h2.2V228.8z M591.9,212.6
			c0-0.4,0.1-0.7,0.3-0.9c0.2-0.2,0.5-0.4,1-0.4c0.4,0,0.8,0.1,1,0.4s0.3,0.5,0.3,0.9c0,0.4-0.1,0.6-0.3,0.9c-0.2,0.2-0.5,0.4-1,0.4
			c-0.4,0-0.7-0.1-1-0.4C592,213.3,591.9,213,591.9,212.6z M602.9,227.3c0.8,0,1.5-0.2,2-0.7c0.6-0.5,0.9-1.1,1-1.8h2.1
			c0,0.7-0.3,1.4-0.8,2.1c-0.5,0.7-1.1,1.2-1.9,1.6c-0.8,0.4-1.6,0.6-2.5,0.6c-1.7,0-3.1-0.6-4.2-1.7c-1-1.2-1.5-2.8-1.5-4.8v-0.4
			c0-1.2,0.2-2.4,0.7-3.3c0.5-1,1.1-1.7,2-2.3c0.9-0.5,1.9-0.8,3-0.8c1.4,0,2.6,0.4,3.6,1.3c1,0.9,1.5,2,1.5,3.3H606
			c-0.1-0.8-0.4-1.5-0.9-2c-0.6-0.5-1.3-0.8-2.1-0.8c-1.1,0-2,0.4-2.6,1.2c-0.6,0.8-0.9,2-0.9,3.5v0.4c0,1.5,0.3,2.6,0.9,3.4
			C600.9,226.9,601.8,227.3,602.9,227.3z M615.8,229c-1.7,0-3.1-0.6-4.2-1.7c-1.1-1.1-1.6-2.7-1.6-4.6v-0.4c0-1.3,0.2-2.4,0.7-3.4
			c0.5-1,1.2-1.8,2-2.3c0.9-0.6,1.8-0.9,2.8-0.9c1.7,0,3,0.5,3.9,1.6c0.9,1.1,1.4,2.7,1.4,4.7v0.9h-8.7c0,1.3,0.4,2.3,1.1,3.1
			c0.7,0.8,1.6,1.2,2.7,1.2c0.8,0,1.4-0.2,2-0.5c0.5-0.3,1-0.7,1.4-1.3l1.3,1C619.5,228.2,617.9,229,615.8,229z M615.5,217.6
			c-0.9,0-1.6,0.3-2.2,1c-0.6,0.6-1,1.5-1.1,2.7h6.4v-0.2c-0.1-1.1-0.4-2-0.9-2.6C617.1,217.9,616.4,217.6,615.5,217.6z M639,222.3
			h1.9v2.8H639v3.7h-3.4v-3.7h-7.1l-0.2-2.1l7.2-11.3h3.5V222.3z M631.7,222.3h3.8v-6.1l-0.2,0.4L631.7,222.3z"/>
		<path class="st27" d="M534.6,242h253c3.6,0,6.6,3,6.6,6.6v15.8c0,3.6-3,6.6-6.6,6.6h-253V242z"/>
		<path class="st1" d="M552,264v-17.2h4.9c1.5,0,2.8,0.3,4,1c1.2,0.7,2,1.6,2.7,2.8c0.6,1.2,1,2.6,1,4.2v1.1c0,1.6-0.3,3-0.9,4.3
			c-0.6,1.2-1.5,2.2-2.7,2.8c-1.2,0.7-2.5,1-4.1,1H552z M554.3,248.7v13.5h2.4c1.7,0,3.1-0.5,4.1-1.6c1-1.1,1.5-2.6,1.5-4.6v-1
			c0-2-0.5-3.5-1.4-4.5c-0.9-1.1-2.2-1.6-3.9-1.7H554.3z M572.8,264.2c-1.7,0-3.1-0.6-4.2-1.7c-1.1-1.1-1.6-2.7-1.6-4.6v-0.4
			c0-1.3,0.2-2.4,0.7-3.4c0.5-1,1.2-1.8,2-2.3c0.9-0.6,1.8-0.9,2.8-0.9c1.7,0,3,0.5,3.9,1.6c0.9,1.1,1.4,2.7,1.4,4.7v0.9h-8.7
			c0,1.3,0.4,2.3,1.1,3.1c0.7,0.8,1.6,1.2,2.7,1.2c0.8,0,1.4-0.2,2-0.5c0.5-0.3,1-0.7,1.4-1.3l1.3,1
			C576.6,263.4,575,264.2,572.8,264.2z M572.6,252.8c-0.9,0-1.6,0.3-2.2,1c-0.6,0.6-1,1.5-1.1,2.7h6.4v-0.2c-0.1-1.1-0.4-2-0.9-2.6
			C574.2,253.1,573.5,252.8,572.6,252.8z M584.4,261l3.2-9.8h2.2l-4.6,12.8h-1.7l-4.6-12.8h2.2L584.4,261z M594.3,264h-2.2v-12.8
			h2.2V264z M591.9,247.8c0-0.4,0.1-0.7,0.3-0.9c0.2-0.2,0.5-0.4,1-0.4c0.4,0,0.8,0.1,1,0.4s0.3,0.5,0.3,0.9c0,0.4-0.1,0.6-0.3,0.9
			c-0.2,0.2-0.5,0.4-1,0.4c-0.4,0-0.7-0.1-1-0.4C592,248.5,591.9,248.2,591.9,247.8z M602.9,262.5c0.8,0,1.5-0.2,2-0.7
			c0.6-0.5,0.9-1.1,1-1.8h2.1c0,0.7-0.3,1.4-0.8,2.1c-0.5,0.7-1.1,1.2-1.9,1.6c-0.8,0.4-1.6,0.6-2.5,0.6c-1.7,0-3.1-0.6-4.2-1.7
			c-1-1.2-1.5-2.8-1.5-4.8v-0.4c0-1.2,0.2-2.3,0.7-3.3c0.5-1,1.1-1.7,2-2.3c0.9-0.5,1.9-0.8,3-0.8c1.4,0,2.6,0.4,3.6,1.3
			c1,0.9,1.5,2,1.5,3.3H606c-0.1-0.8-0.4-1.5-0.9-2c-0.6-0.5-1.3-0.8-2.1-0.8c-1.1,0-2,0.4-2.6,1.2c-0.6,0.8-0.9,2-0.9,3.5v0.4
			c0,1.5,0.3,2.6,0.9,3.4C600.9,262.1,601.8,262.5,602.9,262.5z M615.8,264.2c-1.7,0-3.1-0.6-4.2-1.7c-1.1-1.1-1.6-2.7-1.6-4.6v-0.4
			c0-1.3,0.2-2.4,0.7-3.4c0.5-1,1.2-1.8,2-2.3c0.9-0.6,1.8-0.9,2.8-0.9c1.7,0,3,0.5,3.9,1.6c0.9,1.1,1.4,2.7,1.4,4.7v0.9h-8.7
			c0,1.3,0.4,2.3,1.1,3.1c0.7,0.8,1.6,1.2,2.7,1.2c0.8,0,1.4-0.2,2-0.5c0.5-0.3,1-0.7,1.4-1.3l1.3,1
			C619.5,263.4,617.9,264.2,615.8,264.2z M615.5,252.8c-0.9,0-1.6,0.3-2.2,1c-0.6,0.6-1,1.5-1.1,2.7h6.4v-0.2
			c-0.1-1.1-0.4-2-0.9-2.6C617.1,253.1,616.4,252.8,615.5,252.8z M640.5,248.7l-6.7,15.3h-3.6l6.7-14.4h-8.6v-2.8h12.1V248.7z"/>
		<path class="st27" d="M534.6,277.2h253c3.6,0,6.6,3,6.6,6.6v15.8c0,3.6-3,6.6-6.6,6.6h-253V277.2z"/>
		<path class="st1" d="M552,299.2V282h4.9c1.5,0,2.8,0.3,4,1c1.2,0.7,2,1.6,2.7,2.8c0.6,1.2,1,2.6,1,4.2v1.1c0,1.6-0.3,3-0.9,4.3
			c-0.6,1.2-1.5,2.2-2.7,2.8c-1.2,0.7-2.5,1-4.1,1H552z M554.3,283.9v13.5h2.4c1.7,0,3.1-0.5,4.1-1.6c1-1.1,1.5-2.6,1.5-4.6v-1
			c0-2-0.5-3.5-1.4-4.5c-0.9-1.1-2.2-1.6-3.9-1.7H554.3z M572.8,299.4c-1.7,0-3.1-0.6-4.2-1.7c-1.1-1.1-1.6-2.7-1.6-4.6v-0.4
			c0-1.3,0.2-2.4,0.7-3.4c0.5-1,1.2-1.8,2-2.3c0.9-0.6,1.8-0.9,2.8-0.9c1.7,0,3,0.5,3.9,1.6c0.9,1.1,1.4,2.7,1.4,4.7v0.9h-8.7
			c0,1.3,0.4,2.3,1.1,3.1c0.7,0.8,1.6,1.2,2.7,1.2c0.8,0,1.4-0.2,2-0.5c0.5-0.3,1-0.7,1.4-1.3l1.3,1
			C576.6,298.6,575,299.4,572.8,299.4z M572.6,288c-0.9,0-1.6,0.3-2.2,1c-0.6,0.6-1,1.5-1.1,2.7h6.4v-0.2c-0.1-1.1-0.4-2-0.9-2.6
			C574.2,288.3,573.5,288,572.6,288z M584.4,296.2l3.2-9.8h2.2l-4.6,12.8h-1.7l-4.6-12.8h2.2L584.4,296.2z M594.3,299.2h-2.2v-12.8
			h2.2V299.2z M591.9,283c0-0.4,0.1-0.7,0.3-0.9c0.2-0.2,0.5-0.4,1-0.4c0.4,0,0.8,0.1,1,0.4c0.2,0.2,0.3,0.5,0.3,0.9
			c0,0.4-0.1,0.6-0.3,0.9c-0.2,0.2-0.5,0.4-1,0.4c-0.4,0-0.7-0.1-1-0.4C592,283.7,591.9,283.4,591.9,283z M602.9,297.7
			c0.8,0,1.5-0.2,2-0.7c0.6-0.5,0.9-1.1,1-1.8h2.1c0,0.7-0.3,1.4-0.8,2.1c-0.5,0.7-1.1,1.2-1.9,1.6c-0.8,0.4-1.6,0.6-2.5,0.6
			c-1.7,0-3.1-0.6-4.2-1.7c-1-1.2-1.5-2.8-1.5-4.8v-0.4c0-1.2,0.2-2.3,0.7-3.3c0.5-1,1.1-1.7,2-2.3c0.9-0.5,1.9-0.8,3-0.8
			c1.4,0,2.6,0.4,3.6,1.3c1,0.9,1.5,2,1.5,3.3H606c-0.1-0.8-0.4-1.5-0.9-2c-0.6-0.5-1.3-0.8-2.1-0.8c-1.1,0-2,0.4-2.6,1.2
			c-0.6,0.8-0.9,2-0.9,3.5v0.4c0,1.5,0.3,2.6,0.9,3.4C600.9,297.3,601.8,297.7,602.9,297.7z M615.8,299.4c-1.7,0-3.1-0.6-4.2-1.7
			c-1.1-1.1-1.6-2.7-1.6-4.6v-0.4c0-1.3,0.2-2.4,0.7-3.4c0.5-1,1.2-1.8,2-2.3c0.9-0.6,1.8-0.9,2.8-0.9c1.7,0,3,0.5,3.9,1.6
			c0.9,1.1,1.4,2.7,1.4,4.7v0.9h-8.7c0,1.3,0.4,2.3,1.1,3.1c0.7,0.8,1.6,1.2,2.7,1.2c0.8,0,1.4-0.2,2-0.5c0.5-0.3,1-0.7,1.4-1.3
			l1.3,1C619.5,298.6,617.9,299.4,615.8,299.4z M615.5,288c-0.9,0-1.6,0.3-2.2,1c-0.6,0.6-1,1.5-1.1,2.7h6.4v-0.2
			c-0.1-1.1-0.4-2-0.9-2.6C617.1,288.3,616.4,288,615.5,288z M632.3,289.1h1.8c0.9,0,1.5-0.2,1.9-0.6c0.4-0.4,0.6-1,0.6-1.7
			c0-0.7-0.2-1.2-0.6-1.6c-0.4-0.4-1-0.6-1.7-0.6c-0.7,0-1.2,0.2-1.6,0.5c-0.4,0.4-0.7,0.8-0.7,1.4h-3.4c0-0.9,0.2-1.7,0.7-2.4
			c0.5-0.7,1.2-1.3,2-1.7c0.9-0.4,1.8-0.6,2.9-0.6c1.8,0,3.2,0.4,4.3,1.3c1,0.9,1.5,2.1,1.5,3.6c0,0.8-0.2,1.5-0.7,2.2
			c-0.5,0.7-1.1,1.2-1.9,1.5c1,0.3,1.7,0.9,2.2,1.6c0.5,0.7,0.7,1.5,0.7,2.5c0,1.5-0.6,2.8-1.7,3.7c-1.1,0.9-2.6,1.4-4.4,1.4
			c-1.7,0-3.1-0.5-4.2-1.4c-1.1-0.9-1.6-2.1-1.6-3.6h3.4c0,0.6,0.2,1.2,0.7,1.6c0.5,0.4,1.1,0.6,1.8,0.6c0.8,0,1.4-0.2,1.9-0.6
			c0.5-0.4,0.7-1,0.7-1.7c0-1.7-0.9-2.6-2.8-2.6h-1.8V289.1z"/>
		<path class="st27" d="M534.6,312.4h253c3.6,0,6.6,3,6.6,6.6v15.8c0,3.6-3,6.6-6.6,6.6h-253V312.4z"/>
		<path class="st1" d="M552,334.4v-17.2h4.9c1.5,0,2.8,0.3,4,1c1.2,0.7,2,1.6,2.7,2.8c0.6,1.2,1,2.6,1,4.2v1.1c0,1.6-0.3,3-0.9,4.3
			c-0.6,1.2-1.5,2.2-2.7,2.8c-1.2,0.7-2.5,1-4.1,1H552z M554.3,319.1v13.5h2.4c1.7,0,3.1-0.5,4.1-1.6c1-1.1,1.5-2.6,1.5-4.6v-1
			c0-2-0.5-3.5-1.4-4.5c-0.9-1.1-2.2-1.6-3.9-1.7H554.3z M572.8,334.6c-1.7,0-3.1-0.6-4.2-1.7c-1.1-1.1-1.6-2.7-1.6-4.6V328
			c0-1.3,0.2-2.4,0.7-3.4c0.5-1,1.2-1.8,2-2.3c0.9-0.6,1.8-0.9,2.8-0.9c1.7,0,3,0.5,3.9,1.6c0.9,1.1,1.4,2.7,1.4,4.7v0.9h-8.7
			c0,1.3,0.4,2.3,1.1,3.1c0.7,0.8,1.6,1.2,2.7,1.2c0.8,0,1.4-0.2,2-0.5c0.5-0.3,1-0.7,1.4-1.3l1.3,1
			C576.6,333.8,575,334.6,572.8,334.6z M572.6,323.2c-0.9,0-1.6,0.3-2.2,1c-0.6,0.6-1,1.5-1.1,2.7h6.4v-0.2c-0.1-1.1-0.4-2-0.9-2.6
			C574.2,323.5,573.5,323.2,572.6,323.2z M584.4,331.4l3.2-9.8h2.2l-4.6,12.8h-1.7l-4.6-12.8h2.2L584.4,331.4z M594.3,334.4h-2.2
			v-12.8h2.2V334.4z M591.9,318.2c0-0.4,0.1-0.7,0.3-0.9c0.2-0.2,0.5-0.4,1-0.4c0.4,0,0.8,0.1,1,0.4s0.3,0.5,0.3,0.9
			c0,0.4-0.1,0.6-0.3,0.9c-0.2,0.2-0.5,0.4-1,0.4c-0.4,0-0.7-0.1-1-0.4C592,318.9,591.9,318.6,591.9,318.2z M602.9,332.9
			c0.8,0,1.5-0.2,2-0.7c0.6-0.5,0.9-1.1,1-1.8h2.1c0,0.7-0.3,1.4-0.8,2.1c-0.5,0.7-1.1,1.2-1.9,1.6c-0.8,0.4-1.6,0.6-2.5,0.6
			c-1.7,0-3.1-0.6-4.2-1.7c-1-1.2-1.5-2.8-1.5-4.8v-0.4c0-1.2,0.2-2.3,0.7-3.3c0.5-1,1.1-1.7,2-2.3c0.9-0.5,1.9-0.8,3-0.8
			c1.4,0,2.6,0.4,3.6,1.3c1,0.9,1.5,2,1.5,3.3H606c-0.1-0.8-0.4-1.5-0.9-2c-0.6-0.5-1.3-0.8-2.1-0.8c-1.1,0-2,0.4-2.6,1.2
			c-0.6,0.8-0.9,2-0.9,3.5v0.4c0,1.5,0.3,2.6,0.9,3.4C600.9,332.5,601.8,332.9,602.9,332.9z M615.8,334.6c-1.7,0-3.1-0.6-4.2-1.7
			c-1.1-1.1-1.6-2.7-1.6-4.6V328c0-1.3,0.2-2.4,0.7-3.4c0.5-1,1.2-1.8,2-2.3c0.9-0.6,1.8-0.9,2.8-0.9c1.7,0,3,0.5,3.9,1.6
			c0.9,1.1,1.4,2.7,1.4,4.7v0.9h-8.7c0,1.3,0.4,2.3,1.1,3.1c0.7,0.8,1.6,1.2,2.7,1.2c0.8,0,1.4-0.2,2-0.5c0.5-0.3,1-0.7,1.4-1.3
			l1.3,1C619.5,333.8,617.9,334.6,615.8,334.6z M615.5,323.2c-0.9,0-1.6,0.3-2.2,1c-0.6,0.6-1,1.5-1.1,2.7h6.4v-0.2
			c-0.1-1.1-0.4-2-0.9-2.6C617.1,323.5,616.4,323.2,615.5,323.2z M638.1,317v2.8h-0.3c-1.5,0-2.8,0.4-3.7,1.2
			c-0.9,0.8-1.5,1.9-1.7,3.2c0.9-0.9,2.1-1.4,3.5-1.4c1.5,0,2.7,0.5,3.6,1.6c0.9,1.1,1.3,2.5,1.3,4.2c0,1.1-0.2,2.1-0.7,3
			c-0.5,0.9-1.2,1.6-2.1,2.1c-0.9,0.5-1.9,0.8-3,0.8c-1.8,0-3.3-0.6-4.4-1.9c-1.1-1.3-1.7-2.9-1.7-5v-1.2c0-1.9,0.3-3.5,1.1-4.9
			c0.7-1.4,1.7-2.5,3-3.3c1.3-0.8,2.9-1.2,4.6-1.2H638.1z M634.8,325.6c-0.6,0-1.1,0.1-1.5,0.4c-0.4,0.3-0.8,0.7-1,1.1v1
			c0,1.1,0.2,2,0.7,2.7c0.5,0.6,1.1,1,1.9,1c0.7,0,1.3-0.3,1.8-0.9c0.5-0.6,0.7-1.3,0.7-2.3c0-0.9-0.2-1.7-0.7-2.3
			C636.2,325.9,635.6,325.6,634.8,325.6z"/>
		<path class="st27" d="M534.6,347.6h253c3.6,0,6.6,3,6.6,6.6V370c0,3.6-3,6.6-6.6,6.6h-253V347.6z"/>
		<path class="st1" d="M552,369.6v-17.2h4.9c1.5,0,2.8,0.3,4,1c1.2,0.7,2,1.6,2.7,2.8c0.6,1.2,1,2.6,1,4.2v1.1c0,1.6-0.3,3-0.9,4.3
			c-0.6,1.2-1.5,2.2-2.7,2.8c-1.2,0.7-2.5,1-4.1,1H552z M554.3,354.3v13.5h2.4c1.7,0,3.1-0.5,4.1-1.6c1-1.1,1.5-2.6,1.5-4.6v-1
			c0-2-0.5-3.5-1.4-4.5c-0.9-1.1-2.2-1.6-3.9-1.7H554.3z M572.8,369.8c-1.7,0-3.1-0.6-4.2-1.7c-1.1-1.1-1.6-2.7-1.6-4.6v-0.4
			c0-1.3,0.2-2.4,0.7-3.4c0.5-1,1.2-1.8,2-2.3c0.9-0.6,1.8-0.9,2.8-0.9c1.7,0,3,0.5,3.9,1.6c0.9,1.1,1.4,2.7,1.4,4.7v0.9h-8.7
			c0,1.3,0.4,2.3,1.1,3.1c0.7,0.8,1.6,1.2,2.7,1.2c0.8,0,1.4-0.2,2-0.5c0.5-0.3,1-0.7,1.4-1.3l1.3,1
			C576.6,369,575,369.8,572.8,369.8z M572.6,358.4c-0.9,0-1.6,0.3-2.2,1c-0.6,0.6-1,1.5-1.1,2.7h6.4v-0.2c-0.1-1.1-0.4-2-0.9-2.6
			C574.2,358.7,573.5,358.4,572.6,358.4z M584.4,366.6l3.2-9.8h2.2l-4.6,12.8h-1.7l-4.6-12.8h2.2L584.4,366.6z M594.3,369.6h-2.2
			v-12.8h2.2V369.6z M591.9,353.4c0-0.4,0.1-0.7,0.3-0.9c0.2-0.2,0.5-0.4,1-0.4c0.4,0,0.8,0.1,1,0.4c0.2,0.2,0.3,0.5,0.3,0.9
			c0,0.4-0.1,0.6-0.3,0.9c-0.2,0.2-0.5,0.4-1,0.4c-0.4,0-0.7-0.1-1-0.4C592,354.1,591.9,353.8,591.9,353.4z M602.9,368.1
			c0.8,0,1.5-0.2,2-0.7c0.6-0.5,0.9-1.1,1-1.8h2.1c0,0.7-0.3,1.4-0.8,2.1c-0.5,0.7-1.1,1.2-1.9,1.6c-0.8,0.4-1.6,0.6-2.5,0.6
			c-1.7,0-3.1-0.6-4.2-1.7c-1-1.2-1.5-2.8-1.5-4.8V363c0-1.2,0.2-2.3,0.7-3.3c0.5-1,1.1-1.7,2-2.3c0.9-0.5,1.9-0.8,3-0.8
			c1.4,0,2.6,0.4,3.6,1.3c1,0.9,1.5,2,1.5,3.3H606c-0.1-0.8-0.4-1.5-0.9-2c-0.6-0.5-1.3-0.8-2.1-0.8c-1.1,0-2,0.4-2.6,1.2
			c-0.6,0.8-0.9,2-0.9,3.5v0.4c0,1.5,0.3,2.6,0.9,3.4C600.9,367.7,601.8,368.1,602.9,368.1z M615.8,369.8c-1.7,0-3.1-0.6-4.2-1.7
			c-1.1-1.1-1.6-2.7-1.6-4.6v-0.4c0-1.3,0.2-2.4,0.7-3.4c0.5-1,1.2-1.8,2-2.3c0.9-0.6,1.8-0.9,2.8-0.9c1.7,0,3,0.5,3.9,1.6
			c0.9,1.1,1.4,2.7,1.4,4.7v0.9h-8.7c0,1.3,0.4,2.3,1.1,3.1c0.7,0.8,1.6,1.2,2.7,1.2c0.8,0,1.4-0.2,2-0.5c0.5-0.3,1-0.7,1.4-1.3
			l1.3,1C619.5,369,617.9,369.8,615.8,369.8z M615.5,358.4c-0.9,0-1.6,0.3-2.2,1c-0.6,0.6-1,1.5-1.1,2.7h6.4v-0.2
			c-0.1-1.1-0.4-2-0.9-2.6C617.1,358.7,616.4,358.4,615.5,358.4z M640.6,369.6h-11.8v-2.3l5.6-5.9c0.8-0.8,1.3-1.6,1.7-2.2
			c0.4-0.6,0.6-1.2,0.6-1.8c0-0.8-0.2-1.4-0.6-1.8c-0.4-0.4-0.9-0.7-1.7-0.7c-0.8,0-1.4,0.3-1.8,0.8c-0.4,0.5-0.7,1.2-0.7,2.1h-3.4
			c0-1,0.2-2,0.7-2.9c0.5-0.9,1.2-1.5,2.1-2c0.9-0.5,1.9-0.7,3.1-0.7c1.8,0,3.1,0.4,4.1,1.3c1,0.9,1.5,2.1,1.5,3.6
			c0,0.8-0.2,1.7-0.7,2.6c-0.4,0.9-1.2,1.9-2.3,3.1l-3.9,4.1h7.4V369.6z"/>
		<path class="st27" d="M534.6,382.8h253c3.6,0,6.6,3,6.6,6.6v15.8c0,3.6-3,6.6-6.6,6.6h-253V382.8z"/>
		<path class="st1" d="M552,404.8v-17.2h4.9c1.5,0,2.8,0.3,4,1c1.2,0.7,2,1.6,2.7,2.8c0.6,1.2,1,2.6,1,4.2v1.1c0,1.6-0.3,3-0.9,4.3
			c-0.6,1.2-1.5,2.2-2.7,2.8c-1.2,0.7-2.5,1-4.1,1H552z M554.3,389.5v13.5h2.4c1.7,0,3.1-0.5,4.1-1.6c1-1.1,1.5-2.6,1.5-4.6v-1
			c0-2-0.5-3.5-1.4-4.5c-0.9-1.1-2.2-1.6-3.9-1.7H554.3z M572.8,405c-1.7,0-3.1-0.6-4.2-1.7c-1.1-1.1-1.6-2.7-1.6-4.6v-0.4
			c0-1.3,0.2-2.4,0.7-3.4c0.5-1,1.2-1.8,2-2.3c0.9-0.6,1.8-0.9,2.8-0.9c1.7,0,3,0.5,3.9,1.6c0.9,1.1,1.4,2.7,1.4,4.7v0.9h-8.7
			c0,1.3,0.4,2.3,1.1,3.1c0.7,0.8,1.6,1.2,2.7,1.2c0.8,0,1.4-0.2,2-0.5c0.5-0.3,1-0.7,1.4-1.3l1.3,1C576.6,404.2,575,405,572.8,405z
			 M572.6,393.6c-0.9,0-1.6,0.3-2.2,1c-0.6,0.6-1,1.5-1.1,2.7h6.4v-0.2c-0.1-1.1-0.4-2-0.9-2.6C574.2,393.9,573.5,393.6,572.6,393.6
			z M584.4,401.8l3.2-9.8h2.2l-4.6,12.8h-1.7l-4.6-12.8h2.2L584.4,401.8z M594.3,404.8h-2.2V392h2.2V404.8z M591.9,388.6
			c0-0.4,0.1-0.7,0.3-0.9c0.2-0.2,0.5-0.4,1-0.4c0.4,0,0.8,0.1,1,0.4c0.2,0.2,0.3,0.5,0.3,0.9c0,0.4-0.1,0.6-0.3,0.9
			c-0.2,0.2-0.5,0.4-1,0.4c-0.4,0-0.7-0.1-1-0.4C592,389.3,591.9,389,591.9,388.6z M602.9,403.3c0.8,0,1.5-0.2,2-0.7
			c0.6-0.5,0.9-1.1,1-1.8h2.1c0,0.7-0.3,1.4-0.8,2.1c-0.5,0.7-1.1,1.2-1.9,1.6c-0.8,0.4-1.6,0.6-2.5,0.6c-1.7,0-3.1-0.6-4.2-1.7
			c-1-1.2-1.5-2.8-1.5-4.8v-0.4c0-1.2,0.2-2.3,0.7-3.3c0.5-1,1.1-1.7,2-2.3c0.9-0.5,1.9-0.8,3-0.8c1.4,0,2.6,0.4,3.6,1.3
			c1,0.9,1.5,2,1.5,3.3H606c-0.1-0.8-0.4-1.5-0.9-2c-0.6-0.5-1.3-0.8-2.1-0.8c-1.1,0-2,0.4-2.6,1.2c-0.6,0.8-0.9,2-0.9,3.5v0.4
			c0,1.5,0.3,2.6,0.9,3.4C600.9,402.9,601.8,403.3,602.9,403.3z M615.8,405c-1.7,0-3.1-0.6-4.2-1.7c-1.1-1.1-1.6-2.7-1.6-4.6v-0.4
			c0-1.3,0.2-2.4,0.7-3.4c0.5-1,1.2-1.8,2-2.3c0.9-0.6,1.8-0.9,2.8-0.9c1.7,0,3,0.5,3.9,1.6c0.9,1.1,1.4,2.7,1.4,4.7v0.9h-8.7
			c0,1.3,0.4,2.3,1.1,3.1c0.7,0.8,1.6,1.2,2.7,1.2c0.8,0,1.4-0.2,2-0.5c0.5-0.3,1-0.7,1.4-1.3l1.3,1
			C619.5,404.2,617.9,405,615.8,405z M615.5,393.6c-0.9,0-1.6,0.3-2.2,1c-0.6,0.6-1,1.5-1.1,2.7h6.4v-0.2c-0.1-1.1-0.4-2-0.9-2.6
			C617.1,393.9,616.4,393.6,615.5,393.6z M629.4,396.3l1-8.7h9.6v2.8h-6.8l-0.4,3.7c0.8-0.4,1.7-0.6,2.6-0.6c1.6,0,2.9,0.5,3.9,1.5
			c0.9,1,1.4,2.4,1.4,4.3c0,1.1-0.2,2.1-0.7,3c-0.5,0.9-1.1,1.6-2,2c-0.9,0.5-1.9,0.7-3.1,0.7c-1,0-2-0.2-2.9-0.6
			c-0.9-0.4-1.6-1-2.1-1.8c-0.5-0.8-0.8-1.6-0.8-2.6h3.4c0.1,0.7,0.3,1.3,0.7,1.7c0.4,0.4,1,0.6,1.7,0.6c0.8,0,1.4-0.3,1.8-0.8
			c0.4-0.6,0.6-1.3,0.6-2.4c0-1-0.2-1.7-0.7-2.2c-0.5-0.5-1.2-0.8-2-0.8c-0.8,0-1.5,0.2-2,0.6l-0.3,0.3L629.4,396.3z"/>
		<path class="st27" d="M534.6,418h253c3.6,0,6.6,3,6.6,6.6v15.8c0,3.6-3,6.6-6.6,6.6h-253V418z"/>
		<path class="st1" d="M552,440v-17.2h4.9c1.5,0,2.8,0.3,4,1c1.2,0.7,2,1.6,2.7,2.8c0.6,1.2,1,2.6,1,4.2v1.1c0,1.6-0.3,3-0.9,4.3
			c-0.6,1.2-1.5,2.2-2.7,2.8c-1.2,0.7-2.5,1-4.1,1H552z M554.3,424.7v13.5h2.4c1.7,0,3.1-0.5,4.1-1.6c1-1.1,1.5-2.6,1.5-4.6v-1
			c0-2-0.5-3.5-1.4-4.5c-0.9-1.1-2.2-1.6-3.9-1.7H554.3z M572.8,440.2c-1.7,0-3.1-0.6-4.2-1.7c-1.1-1.1-1.6-2.7-1.6-4.6v-0.4
			c0-1.3,0.2-2.4,0.7-3.4c0.5-1,1.2-1.8,2-2.3c0.9-0.6,1.8-0.9,2.8-0.9c1.7,0,3,0.5,3.9,1.6c0.9,1.1,1.4,2.7,1.4,4.7v0.9h-8.7
			c0,1.3,0.4,2.3,1.1,3.1c0.7,0.8,1.6,1.2,2.7,1.2c0.8,0,1.4-0.2,2-0.5c0.5-0.3,1-0.7,1.4-1.3l1.3,1
			C576.6,439.4,575,440.2,572.8,440.2z M572.6,428.8c-0.9,0-1.6,0.3-2.2,1c-0.6,0.6-1,1.5-1.1,2.7h6.4v-0.2c-0.1-1.1-0.4-2-0.9-2.6
			C574.2,429.1,573.5,428.8,572.6,428.8z M584.4,437l3.2-9.8h2.2l-4.6,12.8h-1.7l-4.6-12.8h2.2L584.4,437z M594.3,440h-2.2v-12.8
			h2.2V440z M591.9,423.8c0-0.4,0.1-0.7,0.3-0.9c0.2-0.2,0.5-0.4,1-0.4c0.4,0,0.8,0.1,1,0.4c0.2,0.2,0.3,0.5,0.3,0.9
			s-0.1,0.6-0.3,0.9c-0.2,0.2-0.5,0.4-1,0.4c-0.4,0-0.7-0.1-1-0.4C592,424.5,591.9,424.2,591.9,423.8z M602.9,438.5
			c0.8,0,1.5-0.2,2-0.7c0.6-0.5,0.9-1.1,1-1.8h2.1c0,0.7-0.3,1.4-0.8,2.1c-0.5,0.7-1.1,1.2-1.9,1.6c-0.8,0.4-1.6,0.6-2.5,0.6
			c-1.7,0-3.1-0.6-4.2-1.7c-1-1.2-1.5-2.8-1.5-4.8v-0.4c0-1.2,0.2-2.3,0.7-3.3c0.5-1,1.1-1.7,2-2.3c0.9-0.5,1.9-0.8,3-0.8
			c1.4,0,2.6,0.4,3.6,1.3c1,0.9,1.5,2,1.5,3.3H606c-0.1-0.8-0.4-1.5-0.9-2c-0.6-0.5-1.3-0.8-2.1-0.8c-1.1,0-2,0.4-2.6,1.2
			c-0.6,0.8-0.9,2-0.9,3.5v0.4c0,1.5,0.3,2.6,0.9,3.4C600.9,438.1,601.8,438.5,602.9,438.5z M615.8,440.2c-1.7,0-3.1-0.6-4.2-1.7
			c-1.1-1.1-1.6-2.7-1.6-4.6v-0.4c0-1.3,0.2-2.4,0.7-3.4c0.5-1,1.2-1.8,2-2.3c0.9-0.6,1.8-0.9,2.8-0.9c1.7,0,3,0.5,3.9,1.6
			c0.9,1.1,1.4,2.7,1.4,4.7v0.9h-8.7c0,1.3,0.4,2.3,1.1,3.1c0.7,0.8,1.6,1.2,2.7,1.2c0.8,0,1.4-0.2,2-0.5c0.5-0.3,1-0.7,1.4-1.3
			l1.3,1C619.5,439.4,617.9,440.2,615.8,440.2z M615.5,428.8c-0.9,0-1.6,0.3-2.2,1c-0.6,0.6-1,1.5-1.1,2.7h6.4v-0.2
			c-0.1-1.1-0.4-2-0.9-2.6C617.1,429.1,616.4,428.8,615.5,428.8z M637.1,440h-3.4v-13.2l-4.1,1.3v-2.8l7.1-2.6h0.4V440z"/>
	</g>
</g>
</svg>
