<?xml version="1.0" encoding="utf-8"?>
<!-- Generator: Adobe Illustrator 25.4.1, SVG Export Plug-In . SVG Version: 6.00 Build 0)  -->
<svg version="1.1" id="Layer_1" xmlns="http://www.w3.org/2000/svg" xmlns:xlink="http://www.w3.org/1999/xlink" x="0px" y="0px"
	 viewBox="0 0 838.4 615.2" style="enable-background:new 0 0 838.4 615.2;" xml:space="preserve">
<style type="text/css">
	.st0{clip-path:url(#SVGID_00000038382529185572996060000014875001992296542632_);}
	.st1{fill:#FFFFFF;}
	.st2{fill:#C4C4C4;stroke:#000000;stroke-width:2.2;}
	.st3{fill:#DEDEDE;}
	.st4{fill:none;stroke:#515151;stroke-width:1.1;}
	.st5{fill:none;stroke:#000000;stroke-width:2.2;}
	.st6{fill:#FFFFFF;stroke:#000000;stroke-width:2.2;}
	.st7{opacity:0.7;}
	.st8{fill:url(#SVGID_00000101791191575421353150000010035614586474992313_);}
	.st9{fill:url(#SVGID_00000183226348050884648820000011358118009765610915_);}
	.st10{fill:url(#SVGID_00000025431124402443216650000018137421862582740887_);}
	.st11{fill:none;stroke:#FF0000;stroke-width:2.2;}
	.st12{fill:none;stroke:#00FF00;stroke-width:2.2;}
	.st13{fill:none;stroke:#0000FF;stroke-width:2.2;}
	.st14{fill:#919191;}
</style>
<g>
	<defs>
		<rect id="SVGID_1_" x="-2" y="-2.2" width="840.4" height="616"/>
	</defs>
	<clipPath id="SVGID_00000128453958841363242580000003873071408388829877_">
		<use xlink:href="#SVGID_1_"  style="overflow:visible;"/>
	</clipPath>
	<g style="clip-path:url(#SVGID_00000128453958841363242580000003873071408388829877_);">
		<rect x="-2" y="-2.2" class="st1" width="840.4" height="616"/>
		<path d="M53.8,59.8H57v4.5h-3.2v6.1h-5.6v-6.1H36.7l-0.3-3.5l11.7-18.5h5.6V59.8z M42,59.8h6.2v-9.9l-0.4,0.6L42,59.8z M69.2,59.8
			c0-3.3,0.7-5.9,2.2-7.8c1.5-1.9,3.5-2.9,6-2.9c2,0,3.7,0.8,5,2.3V40.7h5.6v29.7h-5l-0.3-2.2c-1.4,1.7-3.2,2.6-5.4,2.6
			c-2.5,0-4.4-1-5.9-2.9C70,66,69.2,63.3,69.2,59.8z M74.8,60.2c0,2,0.3,3.5,1,4.5c0.7,1,1.7,1.6,3,1.6c1.7,0,2.9-0.7,3.7-2.2v-8.3
			c-0.7-1.5-1.9-2.2-3.6-2.2C76.2,53.7,74.8,55.9,74.8,60.2z M102.1,70.8c-3.1,0-5.6-0.9-7.5-2.8c-1.9-1.9-2.9-4.4-2.9-7.5v-0.5
			c0-2.1,0.4-4,1.2-5.6c0.8-1.7,2-2.9,3.4-3.8c1.5-0.9,3.2-1.4,5.1-1.4c2.9,0,5.1,0.9,6.7,2.7c1.7,1.8,2.5,4.4,2.5,7.7v2.3H97.3
			c0.2,1.4,0.7,2.5,1.6,3.3c0.9,0.8,2.1,1.2,3.5,1.2c2.2,0,3.8-0.8,5-2.3l2.7,3.1c-0.8,1.2-2,2.1-3.4,2.8
			C105.4,70.5,103.8,70.8,102.1,70.8z M101.4,53.6c-1.1,0-2,0.4-2.7,1.1c-0.7,0.7-1.1,1.8-1.3,3.2h7.8v-0.4c0-1.2-0.4-2.2-1-2.9
			C103.5,54,102.6,53.6,101.4,53.6z M121.4,63.6l3.9-14.1h5.8l-7.1,20.9h-5.3l-7.1-20.9h5.8L121.4,63.6z M139.5,70.4h-5.6V49.5h5.6
			V70.4z M133.6,44.1c0-0.8,0.3-1.5,0.8-2.1c0.6-0.5,1.3-0.8,2.3-0.8c1,0,1.7,0.3,2.3,0.8c0.6,0.5,0.9,1.2,0.9,2.1
			c0,0.9-0.3,1.5-0.9,2.1c-0.6,0.5-1.3,0.8-2.3,0.8c-0.9,0-1.7-0.3-2.3-0.8C133.9,45.6,133.6,44.9,133.6,44.1z M152.8,66.3
			c1,0,1.9-0.3,2.5-0.9c0.6-0.6,1-1.3,1-2.3h5.2c0,1.4-0.4,2.7-1.2,3.9c-0.8,1.2-1.8,2.1-3.1,2.7c-1.3,0.6-2.8,1-4.4,1
			c-3,0-5.3-0.9-7.1-2.8c-1.7-1.9-2.6-4.5-2.6-7.9v-0.4c0-3.2,0.9-5.8,2.6-7.7c1.7-1.9,4.1-2.9,7.1-2.9c2.6,0,4.7,0.7,6.3,2.2
			c1.6,1.5,2.4,3.5,2.4,5.9h-5.2c0-1.1-0.4-2-1-2.6c-0.6-0.7-1.5-1-2.6-1c-1.3,0-2.3,0.5-3,1.4c-0.7,0.9-1,2.5-1,4.6v0.6
			c0,2.2,0.3,3.7,1,4.6C150.5,65.8,151.5,66.3,152.8,66.3z M174.4,70.8c-3.1,0-5.6-0.9-7.5-2.8c-1.9-1.9-2.9-4.4-2.9-7.5v-0.5
			c0-2.1,0.4-4,1.2-5.6c0.8-1.7,2-2.9,3.4-3.8c1.5-0.9,3.2-1.4,5.1-1.4c2.9,0,5.1,0.9,6.7,2.7c1.7,1.8,2.5,4.4,2.5,7.7v2.3h-13.3
			c0.2,1.4,0.7,2.5,1.6,3.3c0.9,0.8,2.1,1.2,3.5,1.2c2.2,0,3.8-0.8,5-2.3l2.7,3.1c-0.8,1.2-2,2.1-3.4,2.8
			C177.7,70.5,176.1,70.8,174.4,70.8z M173.8,53.6c-1.1,0-2,0.4-2.7,1.1c-0.7,0.7-1.1,1.8-1.3,3.2h7.8v-0.4c0-1.2-0.4-2.2-1-2.9
			C175.9,54,175,53.6,173.8,53.6z M197.5,64.6c0-0.7-0.3-1.2-1-1.6c-0.7-0.4-1.8-0.8-3.2-1.1c-5-1-7.5-3.2-7.5-6.3
			c0-1.9,0.8-3.4,2.3-4.6c1.5-1.3,3.6-1.9,6.1-1.9c2.7,0,4.8,0.6,6.4,1.9c1.6,1.3,2.4,2.9,2.4,4.9h-5.6c0-0.8-0.3-1.5-0.8-2
			c-0.5-0.5-1.3-0.8-2.4-0.8c-0.9,0-1.7,0.2-2.2,0.6c-0.5,0.4-0.8,1-0.8,1.6c0,0.6,0.3,1.1,0.9,1.5c0.6,0.4,1.6,0.7,3,1
			c1.4,0.3,2.6,0.6,3.5,0.9c3,1.1,4.4,3,4.4,5.6c0,1.9-0.8,3.5-2.5,4.6c-1.6,1.2-3.8,1.8-6.3,1.8c-1.8,0-3.3-0.3-4.7-0.9
			c-1.4-0.6-2.4-1.5-3.2-2.6c-0.8-1.1-1.2-2.3-1.2-3.5h5.3c0.1,1,0.4,1.8,1.1,2.3c0.7,0.5,1.6,0.8,2.7,0.8c1.1,0,1.9-0.2,2.4-0.6
			C197.3,65.8,197.5,65.3,197.5,64.6z M208,77.5l-2.9-1.5l0.7-1.3c0.9-1.6,1.3-3.1,1.3-4.7v-4.3h4.7l0,3.9c0,1.4-0.4,2.9-1.1,4.3
			C210,75.3,209.1,76.5,208,77.5z M233.7,62l-2,2v6.4h-5.6V40.7h5.6v16.5l1.1-1.4l5.4-6.3h6.7l-7.6,8.7l8.2,12.2h-6.4L233.7,62z
			 M256.5,70.8c-3.1,0-5.6-0.9-7.5-2.8c-1.9-1.9-2.9-4.4-2.9-7.5v-0.5c0-2.1,0.4-4,1.2-5.6c0.8-1.7,2-2.9,3.4-3.8
			c1.5-0.9,3.2-1.4,5.1-1.4c2.9,0,5.1,0.9,6.7,2.7c1.6,1.8,2.5,4.4,2.5,7.7v2.3h-13.3c0.2,1.4,0.7,2.5,1.6,3.3
			c0.9,0.8,2.1,1.2,3.5,1.2c2.2,0,3.8-0.8,5-2.3l2.7,3.1c-0.8,1.2-2,2.1-3.4,2.8C259.8,70.5,258.2,70.8,256.5,70.8z M255.9,53.6
			c-1.1,0-2,0.4-2.7,1.1c-0.7,0.7-1.1,1.8-1.3,3.2h7.8v-0.4c0-1.2-0.4-2.2-1-2.9C258,54,257.1,53.6,255.9,53.6z M275.8,62.5l3.9-13
			h6l-8.4,24.2l-0.5,1.1c-1.3,2.7-3.3,4.1-6.2,4.1c-0.8,0-1.6-0.1-2.5-0.4v-4.2l0.9,0c1.1,0,1.8-0.2,2.4-0.5
			c0.5-0.3,0.9-0.9,1.2-1.6l0.7-1.7l-7.3-21h6L275.8,62.5z M299.2,54.7h7v5h-7v7.9h-5.3v-7.9h-7v-5h7v-7.6h5.3V54.7z M310.9,70.4
			V53.6h-3.1v-4.1h3.1v-1c0-2.6,0.8-4.7,2.4-6.1c1.6-1.4,3.8-2.1,6.7-2.1c1.7,0,3.9,0.4,6.3,1.1l-0.8,4.6c-1.3-0.4-2.2-0.6-2.9-0.7
			c-0.7-0.1-1.4-0.2-2.2-0.2c-2.6,0-3.9,1.2-3.9,3.5v0.9h4.1v4.1h-4.1v16.8H310.9z M329,70.4h-5.6V49.5h5.6V70.4z M339.5,70.4h-5.6
			V40.7h5.6V70.4z M350,70.4h-5.6V40.7h5.6V70.4z M383.3,60.2c0,3.2-0.7,5.8-2.2,7.8c-1.5,1.9-3.4,2.9-5.9,2.9
			c-2.1,0-3.8-0.7-5.1-2.2v9.9h-5.6v-29h5.2l0.2,2c1.4-1.6,3.1-2.4,5.3-2.4c2.6,0,4.6,1,6,2.9c1.4,1.9,2.1,4.5,2.1,7.9V60.2z
			 M377.8,59.8c0-1.9-0.3-3.4-1-4.5c-0.7-1.1-1.7-1.6-3-1.6c-1.8,0-3,0.7-3.6,2v8.6c0.7,1.4,1.9,2.1,3.7,2.1
			C376.4,66.3,377.8,64.1,377.8,59.8z M399,70.4c-0.3-0.5-0.4-1.1-0.6-1.9c-1.4,1.5-3.1,2.3-5.3,2.3c-2,0-3.8-0.6-5.1-1.8
			c-1.3-1.2-2-2.7-2-4.5c0-2.2,0.8-3.9,2.5-5.1c1.6-1.2,4-1.8,7.1-1.8h2.6v-1.2c0-1-0.3-1.7-0.8-2.3c-0.5-0.6-1.3-0.9-2.3-0.9
			c-0.9,0-1.7,0.2-2.2,0.7c-0.5,0.5-0.8,1.1-0.8,1.9h-5.6c0-1.2,0.4-2.3,1.1-3.4c0.7-1,1.8-1.8,3.2-2.4c1.4-0.6,2.9-0.9,4.6-0.9
			c2.6,0,4.6,0.7,6.1,2c1.5,1.3,2.3,3.1,2.3,5.5v9.1c0,2,0.3,3.5,0.8,4.5v0.3H399z M394.3,66.5c0.8,0,1.6-0.2,2.3-0.5
			c0.7-0.4,1.2-0.9,1.5-1.5v-3.6h-2.1c-2.8,0-4.3,1-4.5,2.9l0,0.3c0,0.7,0.2,1.3,0.7,1.7S393.5,66.5,394.3,66.5z M414,70.4h-5.6
			V49.5h5.6V70.4z M408,44.1c0-0.8,0.3-1.5,0.8-2.1c0.6-0.5,1.3-0.8,2.3-0.8c1,0,1.7,0.3,2.3,0.8c0.6,0.5,0.8,1.2,0.8,2.1
			c0,0.9-0.3,1.5-0.9,2.1c-0.6,0.5-1.3,0.8-2.3,0.8c-0.9,0-1.7-0.3-2.3-0.8C408.3,45.6,408,44.9,408,44.1z M430.3,54.7
			c-0.8-0.1-1.4-0.2-2-0.2c-2.1,0-3.5,0.7-4.2,2.1v13.7h-5.6V49.5h5.3L424,52c1.1-1.9,2.7-2.9,4.7-2.9c0.6,0,1.2,0.1,1.7,0.3
			L430.3,54.7z M444.4,64.6c0-0.7-0.3-1.2-1-1.6c-0.7-0.4-1.8-0.8-3.2-1.1c-5-1-7.5-3.2-7.5-6.3c0-1.9,0.8-3.4,2.3-4.6
			c1.5-1.3,3.6-1.9,6.1-1.9c2.7,0,4.8,0.6,6.4,1.9c1.6,1.3,2.4,2.9,2.4,4.9h-5.6c0-0.8-0.3-1.5-0.8-2c-0.5-0.5-1.3-0.8-2.4-0.8
			c-0.9,0-1.7,0.2-2.2,0.6c-0.5,0.4-0.8,1-0.8,1.6c0,0.6,0.3,1.1,0.9,1.5c0.6,0.4,1.6,0.7,3,1c1.4,0.3,2.6,0.6,3.5,0.9
			c3,1.1,4.4,3,4.4,5.6c0,1.9-0.8,3.5-2.5,4.6c-1.6,1.2-3.8,1.8-6.3,1.8c-1.8,0-3.3-0.3-4.7-0.9c-1.4-0.6-2.4-1.5-3.2-2.6
			c-0.8-1.1-1.2-2.3-1.2-3.5h5.3c0.1,1,0.4,1.8,1.1,2.3c0.7,0.5,1.6,0.8,2.7,0.8c1.1,0,1.9-0.2,2.4-0.6
			C444.1,65.8,444.4,65.3,444.4,64.6z"/>
		<path class="st2" d="M1253.1,480.7v-352c0-4.9-3.9-8.8-8.8-8.8h-34.9c-2.3,0-4.6-0.9-6.2-2.6l-0.3-0.3c-1.7-1.7-3.9-2.6-6.2-2.6
			h-575c0,3-2.5,5.5-5.5,5.5h-92.4v26.4c0,1.8-1.5,3.3-3.3,3.3s-3.3,1.5-3.3,3.3v372.9h62.7c4.9,0,8.8-3.9,8.8-8.8v-20.9
			c0-3.6,3-6.6,6.6-6.6h53.9c3.6,0,6.6,3,6.6,6.6V517c0,4.9,3.9,8.8,8.8,8.8h14.3c4.9,0,8.8-3.9,8.8-8.8v-17.6c0,0,0-9.9,9.9-9.9
			c9.9,0,9.9,9.9,9.9,9.9v42.9c0,2.4,2,4.4,4.4,4.4h38.5c2.4,0,4.4-2,4.4-4.4v-27.5c0,0,0-5.5,5.5-5.5s5.5,5.5,5.5,5.5v27.5
			c0,2.4,2,4.4,4.4,4.4h132c2.4,0,4.4-2,4.4-4.4v-44c0-4.9,3.9-8.8,8.8-8.8h328.9C1249.1,489.5,1253.1,485.6,1253.1,480.7z"/>
		<path class="st3" d="M490.8,171.6c0-1.2,1-2.2,2.2-2.2h19.8V198H493c-1.2,0-2.2-1-2.2-2.2V171.6z"/>
		<line class="st4" x1="497.9" y1="169.4" x2="500.1" y2="198"/>
		<line class="st4" x1="495.7" y1="169.4" x2="497.9" y2="198"/>
		<line class="st4" x1="500.1" y1="169.4" x2="502.3" y2="198"/>
		<line class="st4" x1="502.3" y1="169.4" x2="504.5" y2="198"/>
		<line class="st4" x1="504.5" y1="169.4" x2="506.7" y2="198"/>
		<line class="st4" x1="506.7" y1="169.4" x2="508.9" y2="198"/>
		<line class="st4" x1="508.9" y1="169.4" x2="511.1" y2="198"/>
		<line class="st4" x1="511.1" y1="169.4" x2="513.3" y2="198"/>
		<path class="st5" d="M490.8,171.6c0-1.2,1-2.2,2.2-2.2h19.8V198H493c-1.2,0-2.2-1-2.2-2.2V171.6z"/>
		<path class="st6" d="M464.4,176c0-1.2,1-2.2,2.2-2.2h24.2v19.8h-24.2c-1.2,0-2.2-1-2.2-2.2V176z"/>
		<line class="st5" x1="472.1" y1="173.8" x2="472.1" y2="193.6"/>
		<path class="st3" d="M490.8,206.8c0-1.2,1-2.2,2.2-2.2h19.8v28.6H493c-1.2,0-2.2-1-2.2-2.2V206.8z"/>
		<line class="st4" x1="497.9" y1="204.6" x2="500.1" y2="233.2"/>
		<line class="st4" x1="495.7" y1="204.6" x2="497.9" y2="233.2"/>
		<line class="st4" x1="500.1" y1="204.6" x2="502.3" y2="233.2"/>
		<line class="st4" x1="502.3" y1="204.6" x2="504.5" y2="233.2"/>
		<line class="st4" x1="504.5" y1="204.6" x2="506.7" y2="233.2"/>
		<line class="st4" x1="506.7" y1="204.6" x2="508.9" y2="233.2"/>
		<line class="st4" x1="508.9" y1="204.6" x2="511.1" y2="233.2"/>
		<line class="st4" x1="511.1" y1="204.6" x2="513.3" y2="233.2"/>
		<path class="st5" d="M490.8,206.8c0-1.2,1-2.2,2.2-2.2h19.8v28.6H493c-1.2,0-2.2-1-2.2-2.2V206.8z"/>
		<path class="st6" d="M464.4,211.2c0-1.2,1-2.2,2.2-2.2h24.2v19.8h-24.2c-1.2,0-2.2-1-2.2-2.2V211.2z"/>
		<line class="st5" x1="472.1" y1="209" x2="472.1" y2="228.8"/>
		<path class="st3" d="M490.8,242c0-1.2,1-2.2,2.2-2.2h19.8v28.6H493c-1.2,0-2.2-1-2.2-2.2V242z"/>
		<line class="st4" x1="497.9" y1="239.8" x2="500.1" y2="268.4"/>
		<line class="st4" x1="495.7" y1="239.8" x2="497.9" y2="268.4"/>
		<line class="st4" x1="500.1" y1="239.8" x2="502.3" y2="268.4"/>
		<line class="st4" x1="502.3" y1="239.8" x2="504.5" y2="268.4"/>
		<line class="st4" x1="504.5" y1="239.8" x2="506.7" y2="268.4"/>
		<line class="st4" x1="506.7" y1="239.8" x2="508.9" y2="268.4"/>
		<line class="st4" x1="508.9" y1="239.8" x2="511.1" y2="268.4"/>
		<line class="st4" x1="511.1" y1="239.8" x2="513.3" y2="268.4"/>
		<path class="st5" d="M490.8,242c0-1.2,1-2.2,2.2-2.2h19.8v28.6H493c-1.2,0-2.2-1-2.2-2.2V242z"/>
		<path class="st6" d="M464.4,246.4c0-1.2,1-2.2,2.2-2.2h24.2V264h-24.2c-1.2,0-2.2-1-2.2-2.2V246.4z"/>
		<line class="st5" x1="472.1" y1="244.2" x2="472.1" y2="264"/>
		<path class="st3" d="M490.8,277.2c0-1.2,1-2.2,2.2-2.2h19.8v28.6H493c-1.2,0-2.2-1-2.2-2.2V277.2z"/>
		<line class="st4" x1="497.9" y1="275" x2="500.1" y2="303.6"/>
		<line class="st4" x1="495.7" y1="275" x2="497.9" y2="303.6"/>
		<line class="st4" x1="500.1" y1="275" x2="502.3" y2="303.6"/>
		<line class="st4" x1="502.3" y1="275" x2="504.5" y2="303.6"/>
		<line class="st4" x1="504.5" y1="275" x2="506.7" y2="303.6"/>
		<line class="st4" x1="506.7" y1="275" x2="508.9" y2="303.6"/>
		<line class="st4" x1="508.9" y1="275" x2="511.1" y2="303.6"/>
		<line class="st4" x1="511.1" y1="275" x2="513.3" y2="303.6"/>
		<path class="st5" d="M490.8,277.2c0-1.2,1-2.2,2.2-2.2h19.8v28.6H493c-1.2,0-2.2-1-2.2-2.2V277.2z"/>
		<path class="st6" d="M464.4,281.6c0-1.2,1-2.2,2.2-2.2h24.2v19.8h-24.2c-1.2,0-2.2-1-2.2-2.2V281.6z"/>
		<line class="st5" x1="472.1" y1="279.4" x2="472.1" y2="299.2"/>
		<path class="st3" d="M490.8,312.4c0-1.2,1-2.2,2.2-2.2h19.8v28.6H493c-1.2,0-2.2-1-2.2-2.2V312.4z"/>
		<line class="st4" x1="497.9" y1="310.2" x2="500.1" y2="338.8"/>
		<line class="st4" x1="495.7" y1="310.2" x2="497.9" y2="338.8"/>
		<line class="st4" x1="500.1" y1="310.2" x2="502.3" y2="338.8"/>
		<line class="st4" x1="502.3" y1="310.2" x2="504.5" y2="338.8"/>
		<line class="st4" x1="504.5" y1="310.2" x2="506.7" y2="338.8"/>
		<line class="st4" x1="506.7" y1="310.2" x2="508.9" y2="338.8"/>
		<line class="st4" x1="508.9" y1="310.2" x2="511.1" y2="338.8"/>
		<line class="st4" x1="511.1" y1="310.2" x2="513.3" y2="338.8"/>
		<path class="st5" d="M490.8,312.4c0-1.2,1-2.2,2.2-2.2h19.8v28.6H493c-1.2,0-2.2-1-2.2-2.2V312.4z"/>
		<path class="st6" d="M464.4,316.8c0-1.2,1-2.2,2.2-2.2h24.2v19.8h-24.2c-1.2,0-2.2-1-2.2-2.2V316.8z"/>
		<line class="st5" x1="472.1" y1="314.6" x2="472.1" y2="334.4"/>
		<path class="st3" d="M490.8,347.6c0-1.2,1-2.2,2.2-2.2h19.8V374H493c-1.2,0-2.2-1-2.2-2.2V347.6z"/>
		<line class="st4" x1="497.9" y1="345.4" x2="500.1" y2="374"/>
		<line class="st4" x1="495.7" y1="345.4" x2="497.9" y2="374"/>
		<line class="st4" x1="500.1" y1="345.4" x2="502.3" y2="374"/>
		<line class="st4" x1="502.3" y1="345.4" x2="504.5" y2="374"/>
		<line class="st4" x1="504.5" y1="345.4" x2="506.7" y2="374"/>
		<line class="st4" x1="506.7" y1="345.4" x2="508.9" y2="374"/>
		<line class="st4" x1="508.9" y1="345.4" x2="511.1" y2="374"/>
		<line class="st4" x1="511.1" y1="345.4" x2="513.3" y2="374"/>
		<path class="st5" d="M490.8,347.6c0-1.2,1-2.2,2.2-2.2h19.8V374H493c-1.2,0-2.2-1-2.2-2.2V347.6z"/>
		<path class="st6" d="M464.4,352c0-1.2,1-2.2,2.2-2.2h24.2v19.8h-24.2c-1.2,0-2.2-1-2.2-2.2V352z"/>
		<line class="st5" x1="472.1" y1="349.8" x2="472.1" y2="369.6"/>
		<path class="st3" d="M490.8,382.8c0-1.2,1-2.2,2.2-2.2h19.8v28.6H493c-1.2,0-2.2-1-2.2-2.2V382.8z"/>
		<line class="st4" x1="497.9" y1="380.6" x2="500.1" y2="409.2"/>
		<line class="st4" x1="495.7" y1="380.6" x2="497.9" y2="409.2"/>
		<line class="st4" x1="500.1" y1="380.6" x2="502.3" y2="409.2"/>
		<line class="st4" x1="502.3" y1="380.6" x2="504.5" y2="409.2"/>
		<line class="st4" x1="504.5" y1="380.6" x2="506.7" y2="409.2"/>
		<line class="st4" x1="506.7" y1="380.6" x2="508.9" y2="409.2"/>
		<line class="st4" x1="508.9" y1="380.6" x2="511.1" y2="409.2"/>
		<line class="st4" x1="511.1" y1="380.6" x2="513.3" y2="409.2"/>
		<path class="st5" d="M490.8,382.8c0-1.2,1-2.2,2.2-2.2h19.8v28.6H493c-1.2,0-2.2-1-2.2-2.2V382.8z"/>
		<path class="st6" d="M464.4,387.2c0-1.2,1-2.2,2.2-2.2h24.2v19.8h-24.2c-1.2,0-2.2-1-2.2-2.2V387.2z"/>
		<line class="st5" x1="472.1" y1="385" x2="472.1" y2="404.8"/>
		<path class="st3" d="M490.8,418c0-1.2,1-2.2,2.2-2.2h19.8v28.6H493c-1.2,0-2.2-1-2.2-2.2V418z"/>
		<line class="st4" x1="497.9" y1="415.8" x2="500.1" y2="444.4"/>
		<line class="st4" x1="495.7" y1="415.8" x2="497.9" y2="444.4"/>
		<line class="st4" x1="500.1" y1="415.8" x2="502.3" y2="444.4"/>
		<line class="st4" x1="502.3" y1="415.8" x2="504.5" y2="444.4"/>
		<line class="st4" x1="504.5" y1="415.8" x2="506.7" y2="444.4"/>
		<line class="st4" x1="506.7" y1="415.8" x2="508.9" y2="444.4"/>
		<line class="st4" x1="508.9" y1="415.8" x2="511.1" y2="444.4"/>
		<line class="st4" x1="511.1" y1="415.8" x2="513.3" y2="444.4"/>
		<path class="st5" d="M490.8,418c0-1.2,1-2.2,2.2-2.2h19.8v28.6H493c-1.2,0-2.2-1-2.2-2.2V418z"/>
		<path class="st6" d="M464.4,422.4c0-1.2,1-2.2,2.2-2.2h24.2V440h-24.2c-1.2,0-2.2-1-2.2-2.2V422.4z"/>
		<line class="st5" x1="472.1" y1="420.2" x2="472.1" y2="440"/>
		<path class="st3" d="M490.8,453.2c0-1.2,1-2.2,2.2-2.2h19.8v28.6H493c-1.2,0-2.2-1-2.2-2.2V453.2z"/>
		<line class="st4" x1="497.9" y1="451" x2="500.1" y2="479.6"/>
		<line class="st4" x1="495.7" y1="451" x2="497.9" y2="479.6"/>
		<line class="st4" x1="500.1" y1="451" x2="502.3" y2="479.6"/>
		<line class="st4" x1="502.3" y1="451" x2="504.5" y2="479.6"/>
		<line class="st4" x1="504.5" y1="451" x2="506.7" y2="479.6"/>
		<line class="st4" x1="506.7" y1="451" x2="508.9" y2="479.6"/>
		<line class="st4" x1="508.9" y1="451" x2="511.1" y2="479.6"/>
		<line class="st4" x1="511.1" y1="451" x2="513.3" y2="479.6"/>
		<path class="st5" d="M490.8,453.2c0-1.2,1-2.2,2.2-2.2h19.8v28.6H493c-1.2,0-2.2-1-2.2-2.2V453.2z"/>
		<path class="st6" d="M464.4,457.6c0-1.2,1-2.2,2.2-2.2h24.2v19.8h-24.2c-1.2,0-2.2-1-2.2-2.2V457.6z"/>
		<line class="st5" x1="472.1" y1="455.4" x2="472.1" y2="475.2"/>
		<g class="st7">
			
				<linearGradient id="SVGID_00000064337009143816256630000010636251406608013241_" gradientUnits="userSpaceOnUse" x1="455.5604" y1="149.4314" x2="384.3332" y2="149.4314" gradientTransform="matrix(1 0 0 -1 0 613.6627)">
				<stop  offset="0" style="stop-color:#000000"/>
				<stop  offset="1" style="stop-color:#000000;stop-opacity:0"/>
			</linearGradient>
			<path style="fill:url(#SVGID_00000064337009143816256630000010636251406608013241_);" d="M456.3,465c0.4-0.4,0.4-1.1,0-1.6l-7-7
				c-0.4-0.4-1.1-0.4-1.6,0c-0.4,0.4-0.4,1.1,0,1.6l6.2,6.2l-6.2,6.2c-0.4,0.4-0.4,1.1,0,1.6c0.4,0.4,1.1,0.4,1.6,0L456.3,465z
				 M455.6,463.1H343.4v2.2h112.2V463.1z"/>
		</g>
		<g class="st7">
			<path d="M283.5,465.4h-4.4v7.6h-2.5v-18.8h6.2c2.1,0,3.7,0.5,4.9,1.4c1.1,1,1.7,2.4,1.7,4.2c0,1.2-0.3,2.2-1,3.1
				c-0.6,0.9-1.5,1.5-2.6,1.9l4.4,8v0.2h-2.7L283.5,465.4z M279.1,463.4h3.8c1.2,0,2.2-0.3,2.9-1c0.7-0.6,1.1-1.5,1.1-2.6
				c0-1.2-0.3-2-1-2.7c-0.7-0.6-1.7-0.9-3-0.9h-3.8V463.4z M298.3,473.3c-1.9,0-3.4-0.6-4.6-1.9c-1.2-1.2-1.8-2.9-1.8-5V466
				c0-1.4,0.3-2.6,0.8-3.7c0.5-1.1,1.3-1.9,2.2-2.6c1-0.6,2-0.9,3.1-0.9c1.8,0,3.2,0.6,4.2,1.8c1,1.2,1.5,2.9,1.5,5.1v1h-9.4
				c0,1.4,0.4,2.5,1.2,3.3c0.8,0.8,1.8,1.3,2.9,1.3c0.8,0,1.6-0.2,2.1-0.5c0.6-0.3,1.1-0.8,1.5-1.4l1.5,1.1
				C302.4,472.4,300.7,473.3,298.3,473.3z M298,460.8c-1,0-1.8,0.4-2.4,1.1c-0.7,0.7-1.1,1.7-1.2,2.9h7v-0.2c-0.1-1.2-0.4-2.1-1-2.8
				C299.8,461.1,299,460.8,298,460.8z M307.7,473v-12.1h-2.2v-1.8h2.2v-1.4c0-1.5,0.4-2.7,1.2-3.5c0.8-0.8,1.9-1.2,3.4-1.2
				c0.5,0,1.1,0.1,1.6,0.2l-0.1,1.9c-0.4-0.1-0.8-0.1-1.3-0.1c-0.8,0-1.4,0.2-1.8,0.7c-0.4,0.4-0.6,1.1-0.6,1.9v1.5h3v1.8h-3V473
				H307.7z M324.2,473h-1.5v-13.9h1.5V473z M322.4,455c0-0.3,0.1-0.5,0.3-0.7c0.2-0.2,0.4-0.3,0.8-0.3c0.3,0,0.6,0.1,0.8,0.3
				c0.2,0.2,0.3,0.4,0.3,0.7c0,0.3-0.1,0.5-0.3,0.7c-0.2,0.2-0.4,0.3-0.8,0.3c-0.3,0-0.6-0.1-0.8-0.3
				C322.5,455.6,322.4,455.3,322.4,455z M329.9,459.1l0.1,2.4c0.5-0.9,1.2-1.5,2-2c0.8-0.5,1.6-0.7,2.6-0.7c1.5,0,2.6,0.4,3.3,1.3
				c0.7,0.8,1.1,2.1,1.1,3.8v9.2h-1.5v-9.2c0-1.2-0.3-2.2-0.8-2.8c-0.5-0.6-1.3-0.9-2.5-0.9c-1,0-1.8,0.3-2.5,0.9
				c-0.7,0.6-1.3,1.4-1.6,2.4v9.6h-1.5v-13.9H329.9z M354.1,466.2c0,2.2-0.5,3.9-1.4,5.2c-1,1.3-2.3,1.9-3.9,1.9
				c-1.9,0-3.4-0.7-4.4-2v7.1h-1.5v-19.3h1.4l0.1,2c1-1.5,2.5-2.2,4.4-2.2c1.7,0,3,0.6,3.9,1.9c1,1.3,1.4,3,1.4,5.3V466.2z
				 M352.6,465.9c0-1.8-0.4-3.2-1.1-4.2c-0.7-1-1.7-1.5-3.1-1.5c-0.9,0-1.8,0.2-2.4,0.7c-0.7,0.5-1.2,1.1-1.6,2v6.7
				c0.4,0.8,0.9,1.4,1.6,1.8c0.7,0.4,1.5,0.6,2.4,0.6c1.3,0,2.3-0.5,3-1.5C352.2,469.4,352.6,467.9,352.6,465.9z M366.5,471.3
				c-0.9,1.4-2.4,2-4.4,2c-1.5,0-2.6-0.4-3.4-1.3c-0.8-0.9-1.2-2.1-1.2-3.8v-9.1h1.5v8.9c0,2.7,1.1,4,3.2,4c2.2,0,3.6-0.9,4.2-2.8
				v-10.1h1.5V473h-1.5L366.5,471.3z M374.5,455.5v3.6h2.9v1.3h-2.9v9.3c0,0.8,0.1,1.3,0.4,1.7c0.3,0.4,0.8,0.6,1.4,0.6
				c0.3,0,0.7,0,1.2-0.1l0.1,1.3c-0.4,0.1-1,0.2-1.6,0.2c-1.1,0-1.8-0.3-2.3-0.9c-0.5-0.6-0.7-1.5-0.7-2.7v-9.3h-2.6v-1.3h2.6v-3.6
				H374.5z"/>
		</g>
		<path class="st1" d="M511.7,103.4V594h5.5v-74.8h4.4l9.9-9.9V148.5l-5.3-5.3l-1.2-1.2l-2.3-2.3l-0.1-0.1h-1.1
			c-1.8,0-3.3-1.5-3.3-3.3v-35.2c0-3.6-3-6.6-6.6-6.6h-53.9v6.6h51.7C510.7,101.2,511.7,102.2,511.7,103.4z"/>
		<path d="M511.7,594h-1.1c0,0.6,0.5,1.1,1.1,1.1V594z M457.8,101.2h-1.1c0,0.6,0.5,1.1,1.1,1.1V101.2z M457.8,94.6v-1.1
			c-0.6,0-1.1,0.5-1.1,1.1H457.8z M531.5,148.5h1.1c0-0.3-0.1-0.6-0.3-0.8L531.5,148.5z M531.5,509.3l0.8,0.8
			c0.2-0.2,0.3-0.5,0.3-0.8H531.5z M521.6,519.2v1.1c0.3,0,0.6-0.1,0.8-0.3L521.6,519.2z M517.2,519.2v-1.1c-0.6,0-1.1,0.5-1.1,1.1
			H517.2z M517.2,594v1.1c0.6,0,1.1-0.5,1.1-1.1H517.2z M522.7,139.7l0.8-0.8c-0.2-0.2-0.5-0.3-0.8-0.3V139.7z M512.8,594V103.4
			h-2.2V594H512.8z M509.5,100.1h-51.7v2.2h51.7V100.1z M458.9,101.2v-6.6h-2.2v6.6H458.9z M530.4,148.5v360.8h2.2V148.5H530.4z
			 M530.7,508.6l-9.9,9.9l1.6,1.6l9.9-9.9L530.7,508.6z M521.6,518.1h-4.4v2.2h4.4V518.1z M516.1,519.2V594h2.2v-74.8H516.1z
			 M517.2,592.9h-5.5v2.2h5.5V592.9z M517.2,101.2v35.2h2.2v-35.2H517.2z M457.8,95.7h53.9v-2.2h-53.9V95.7z M521.9,140.5
			L521.9,140.5l1.6-1.5l-0.1-0.1L521.9,140.5z M522,140.6l2.3,2.3l1.6-1.6l-2.3-2.3L522,140.6z M524.2,142.8l1.2,1.2l1.6-1.6
			l-1.2-1.2L524.2,142.8z M525.4,144l5.3,5.3l1.6-1.6l-5.3-5.3L525.4,144z M521.6,140.8h1.1v-2.2h-1.1V140.8z M517.2,136.4
			c0,2.4,2,4.4,4.4,4.4v-2.2c-1.2,0-2.2-1-2.2-2.2H517.2z M519.4,101.2c0-4.3-3.4-7.7-7.7-7.7v2.2c3,0,5.5,2.5,5.5,5.5H519.4z
			 M512.8,103.4c0-1.8-1.5-3.3-3.3-3.3v2.2c0.6,0,1.1,0.5,1.1,1.1H512.8z"/>
		
			<linearGradient id="SVGID_00000098178645527409365190000014178878204261545914_" gradientUnits="userSpaceOnUse" x1="836.1604" y1="82.9012" x2="836.1604" y2="107.3278" gradientTransform="matrix(1 0 0 -1 0 613.6627)">
			<stop  offset="0" style="stop-color:#AFAFAF"/>
			<stop  offset="1" style="stop-color:#C2C2C2;stop-opacity:0"/>
		</linearGradient>
		<path style="fill:url(#SVGID_00000098178645527409365190000014178878204261545914_);" d="M902.2,545.6v-30.8h-132v30.8H902.2z"/>
		
			<linearGradient id="SVGID_00000152944820091135503010000005522746981254395567_" gradientUnits="userSpaceOnUse" x1="731.6604" y1="82.9012" x2="731.6604" y2="107.3278" gradientTransform="matrix(1 0 0 -1 0 613.6627)">
			<stop  offset="0" style="stop-color:#AFAFAF"/>
			<stop  offset="1" style="stop-color:#C2C2C2;stop-opacity:0"/>
		</linearGradient>
		<path style="fill:url(#SVGID_00000152944820091135503010000005522746981254395567_);" d="M750.4,545.6v-30.8H713v30.8H750.4z"/>
		<path d="M194.6,429.5c-2.1-0.6-3.7-1.4-4.6-2.2c-1-0.9-1.4-2-1.4-3.3c0-1.5,0.6-2.7,1.8-3.7c1.2-1,2.7-1.5,4.6-1.5
			c1.3,0,2.4,0.2,3.4,0.7c1,0.5,1.8,1.2,2.3,2.1c0.6,0.9,0.8,1.8,0.8,2.9H199c0-1.1-0.4-2-1.1-2.7c-0.7-0.7-1.7-1-3.1-1
			c-1.2,0-2.2,0.3-2.9,0.8c-0.7,0.5-1,1.3-1,2.2c0,0.8,0.3,1.4,1,1.9c0.7,0.5,1.8,1,3.3,1.4c1.6,0.4,2.8,0.9,3.7,1.5
			c0.9,0.5,1.5,1.1,2,1.8c0.4,0.7,0.6,1.5,0.6,2.5c0,1.5-0.6,2.7-1.8,3.7c-1.2,0.9-2.8,1.4-4.8,1.4c-1.3,0-2.5-0.2-3.6-0.7
			c-1.1-0.5-2-1.2-2.6-2c-0.6-0.9-0.9-1.8-0.9-2.9h2.5c0,1.1,0.4,2,1.3,2.7c0.8,0.7,2,1,3.4,1c1.3,0,2.3-0.3,3-0.8s1-1.3,1-2.2
			c0-0.9-0.3-1.6-1-2.1C197.4,430.5,196.3,430,194.6,429.5z M204.7,437.8v-18.8h5.3c1.6,0,3.1,0.4,4.3,1.1c1.3,0.7,2.2,1.7,2.9,3.1
			c0.7,1.3,1,2.9,1,4.6v1.2c0,1.8-0.3,3.3-1,4.7c-0.7,1.3-1.7,2.4-2.9,3.1c-1.3,0.7-2.7,1.1-4.4,1.1H204.7z M207.2,421.1v14.7h2.6
			c1.9,0,3.4-0.6,4.4-1.8c1.1-1.2,1.6-2.9,1.6-5.1v-1.1c0-2.1-0.5-3.8-1.5-5c-1-1.2-2.4-1.8-4.3-1.8H207.2z M224.7,437.8h-2.5v-18.8
			h2.5V437.8z M243.9,437.8h-3.7v-14.4l-4.4,1.4v-3l7.8-2.8h0.4V437.8z M261.8,432.2l-1.3,1.3v4.3h-3.7V418h3.7v11l0.7-0.9l3.6-4.2
			h4.5l-5,5.8l5.5,8.1h-4.3L261.8,432.2z M277,438.1c-2,0-3.7-0.6-5-1.9c-1.3-1.3-1.9-2.9-1.9-5v-0.4c0-1.4,0.3-2.7,0.8-3.8
			c0.5-1.1,1.3-2,2.3-2.6c1-0.6,2.1-0.9,3.4-0.9c1.9,0,3.4,0.6,4.5,1.8c1.1,1.2,1.6,2.9,1.6,5.1v1.5h-8.9c0.1,0.9,0.5,1.6,1.1,2.2
			c0.6,0.5,1.4,0.8,2.3,0.8c1.4,0,2.6-0.5,3.4-1.6l1.8,2.1c-0.6,0.8-1.3,1.4-2.3,1.9C279.3,437.9,278.2,438.1,277,438.1z
			 M276.6,426.6c-0.7,0-1.3,0.2-1.8,0.7c-0.5,0.5-0.7,1.2-0.9,2.1h5.2v-0.3c0-0.8-0.2-1.5-0.7-1.9
			C278,426.9,277.4,426.6,276.6,426.6z M289.9,432.6l2.6-8.7h4l-5.6,16.1l-0.3,0.7c-0.8,1.8-2.2,2.7-4.1,2.7c-0.5,0-1.1-0.1-1.6-0.2
			v-2.8l0.6,0c0.7,0,1.2-0.1,1.6-0.3c0.4-0.2,0.6-0.6,0.8-1.1l0.4-1.1l-4.9-14h4L289.9,432.6z M304.3,430.7c0-1.3,0.3-2.5,0.8-3.6
			c0.5-1.1,1.3-1.9,2.2-2.5c1-0.6,2-0.9,3.2-0.9c1.9,0,3.4,0.7,4.5,2c1.2,1.3,1.7,3,1.7,5.2v0.3c0,1.3-0.3,2.6-0.8,3.6
			c-0.5,1.1-1.2,1.9-2.2,2.5c-0.9,0.6-2,0.9-3.2,0.9c-1.8,0-3.4-0.6-4.5-1.9c-1.2-1.3-1.7-3-1.7-5.2V430.7z M305.8,431.1
			c0,1.7,0.4,3,1.3,4.1c0.9,1.1,2,1.6,3.4,1.6c1.4,0,2.5-0.5,3.4-1.6c0.9-1.1,1.3-2.5,1.3-4.2v-0.3c0-1.1-0.2-2-0.6-2.9
			c-0.4-0.9-1-1.6-1.7-2c-0.7-0.5-1.5-0.7-2.5-0.7c-1.4,0-2.5,0.5-3.4,1.6c-0.9,1.1-1.3,2.5-1.3,4.2V431.1z M328.9,436.1
			c-0.9,1.4-2.4,2-4.4,2c-1.5,0-2.6-0.4-3.4-1.3c-0.8-0.9-1.2-2.1-1.2-3.8v-9.1h1.5v8.9c0,2.7,1.1,4,3.2,4c2.2,0,3.6-0.9,4.2-2.8
			v-10.1h1.5v13.9h-1.5L328.9,436.1z M336.8,420.3v3.6h2.9v1.3h-2.9v9.3c0,0.8,0.1,1.3,0.4,1.7c0.3,0.4,0.8,0.6,1.4,0.6
			c0.3,0,0.7,0,1.3-0.1l0.1,1.3c-0.4,0.1-1,0.2-1.6,0.2c-1.1,0-1.8-0.3-2.3-0.9c-0.5-0.6-0.7-1.5-0.7-2.7v-9.3h-2.6v-1.3h2.6v-3.6
			H336.8z M354.1,431c0,2.2-0.5,3.9-1.4,5.2c-1,1.3-2.3,1.9-3.9,1.9c-1.9,0-3.4-0.7-4.4-2v7.1h-1.5v-19.3h1.4l0.1,2
			c1-1.5,2.5-2.2,4.4-2.2c1.7,0,3,0.6,3.9,1.9c1,1.3,1.4,3,1.4,5.3V431z M352.6,430.7c0-1.8-0.4-3.2-1.1-4.2c-0.7-1-1.7-1.5-3.1-1.5
			c-0.9,0-1.8,0.2-2.4,0.7s-1.2,1.1-1.6,2v6.7c0.4,0.8,0.9,1.4,1.6,1.8c0.7,0.4,1.5,0.6,2.4,0.6c1.3,0,2.3-0.5,3-1.5
			C352.2,434.2,352.6,432.7,352.6,430.7z M366.5,436.1c-0.9,1.4-2.4,2-4.4,2c-1.5,0-2.6-0.4-3.4-1.3c-0.8-0.9-1.2-2.1-1.2-3.8v-9.1
			h1.5v8.9c0,2.7,1.1,4,3.2,4c2.2,0,3.6-0.9,4.2-2.8v-10.1h1.5v13.9h-1.5L366.5,436.1z M374.5,420.3v3.6h2.9v1.3h-2.9v9.3
			c0,0.8,0.1,1.3,0.4,1.7c0.3,0.4,0.8,0.6,1.4,0.6c0.3,0,0.7,0,1.2-0.1l0.1,1.3c-0.4,0.1-1,0.2-1.6,0.2c-1.1,0-1.8-0.3-2.3-0.9
			c-0.5-0.6-0.7-1.5-0.7-2.7v-9.3h-2.6v-1.3h2.6v-3.6H374.5z"/>
		<path d="M205.7,394.3c-2.1-0.6-3.7-1.4-4.6-2.2c-1-0.9-1.4-2-1.4-3.3c0-1.5,0.6-2.7,1.8-3.7c1.2-1,2.7-1.5,4.6-1.5
			c1.3,0,2.4,0.2,3.4,0.7c1,0.5,1.8,1.2,2.3,2.1c0.6,0.9,0.8,1.8,0.8,2.9h-2.5c0-1.1-0.4-2-1.1-2.7c-0.7-0.7-1.7-1-3.1-1
			c-1.2,0-2.2,0.3-2.9,0.8c-0.7,0.5-1,1.3-1,2.2c0,0.8,0.3,1.4,1,1.9c0.7,0.5,1.8,1,3.3,1.4c1.6,0.4,2.8,0.9,3.7,1.5
			c0.9,0.5,1.5,1.1,2,1.8c0.4,0.7,0.6,1.5,0.6,2.5c0,1.5-0.6,2.7-1.8,3.7c-1.2,0.9-2.8,1.4-4.8,1.4c-1.3,0-2.5-0.2-3.6-0.7
			c-1.1-0.5-2-1.2-2.6-2c-0.6-0.9-0.9-1.8-0.9-2.9h2.5c0,1.1,0.4,2,1.3,2.7c0.8,0.7,2,1,3.4,1c1.3,0,2.3-0.3,3-0.8
			c0.7-0.5,1-1.3,1-2.2s-0.3-1.6-1-2.1C208.5,395.3,207.4,394.8,205.7,394.3z M215.8,402.6v-18.8h5.3c1.6,0,3.1,0.4,4.3,1.1
			c1.3,0.7,2.2,1.7,2.9,3.1c0.7,1.3,1,2.9,1,4.6v1.2c0,1.8-0.3,3.3-1,4.7c-0.7,1.3-1.7,2.4-2.9,3.1c-1.3,0.7-2.7,1.1-4.4,1.1H215.8z
			 M218.3,385.9v14.7h2.6c1.9,0,3.4-0.6,4.4-1.8c1.1-1.2,1.6-2.9,1.6-5.1v-1.1c0-2.1-0.5-3.8-1.5-5c-1-1.2-2.4-1.8-4.3-1.8H218.3z
			 M235.8,402.6h-2.5v-18.8h2.5V402.6z M258.9,402.6H246v-2.6l6.1-6.5c0.8-0.9,1.4-1.7,1.8-2.4c0.4-0.7,0.6-1.3,0.6-1.9
			c0-0.8-0.2-1.5-0.6-2c-0.4-0.5-1-0.7-1.8-0.7c-0.8,0-1.5,0.3-2,0.9c-0.5,0.6-0.7,1.3-0.7,2.3h-3.7c0-1.1,0.3-2.2,0.8-3.1
			c0.6-0.9,1.3-1.7,2.3-2.2c1-0.5,2.1-0.8,3.4-0.8c1.9,0,3.4,0.5,4.5,1.4c1.1,0.9,1.6,2.2,1.6,3.9c0,0.9-0.2,1.9-0.7,2.8
			c-0.5,1-1.3,2.1-2.5,3.4l-4.3,4.5h8.1V402.6z M268.8,402.6v-11.2h-2.1v-2.7h2.1V388c0-1.8,0.6-3.1,1.6-4c1.1-1,2.6-1.4,4.5-1.4
			c1.2,0,2.6,0.3,4.2,0.8l-0.5,3.1c-0.8-0.2-1.5-0.4-2-0.5c-0.5-0.1-1-0.1-1.5-0.1c-1.7,0-2.6,0.8-2.6,2.3v0.6h2.7v2.7h-2.7v11.2
			H268.8z M280.9,402.6h-3.7v-13.9h3.7V402.6z M287.9,402.6h-3.7v-19.8h3.7V402.6z M294.9,402.6h-3.7v-19.8h3.7V402.6z M304.3,395.5
			c0-1.3,0.3-2.5,0.8-3.6c0.5-1.1,1.3-1.9,2.2-2.5c1-0.6,2-0.9,3.2-0.9c1.9,0,3.4,0.7,4.5,2c1.2,1.3,1.7,3,1.7,5.2v0.3
			c0,1.3-0.3,2.6-0.8,3.6c-0.5,1.1-1.2,1.9-2.2,2.5c-0.9,0.6-2,0.9-3.2,0.9c-1.8,0-3.4-0.6-4.5-1.9c-1.2-1.3-1.7-3-1.7-5.2V395.5z
			 M305.8,395.9c0,1.7,0.4,3,1.3,4.1c0.9,1.1,2,1.6,3.4,1.6c1.4,0,2.5-0.5,3.4-1.6c0.9-1.1,1.3-2.5,1.3-4.2v-0.3
			c0-1.1-0.2-2-0.6-2.9c-0.4-0.9-1-1.6-1.7-2c-0.7-0.5-1.5-0.7-2.5-0.7c-1.4,0-2.5,0.5-3.4,1.6c-0.9,1.1-1.3,2.5-1.3,4.2V395.9z
			 M328.9,400.9c-0.9,1.4-2.4,2-4.4,2c-1.5,0-2.6-0.4-3.4-1.3c-0.8-0.9-1.2-2.1-1.2-3.8v-9.1h1.5v8.9c0,2.7,1.1,4,3.2,4
			c2.2,0,3.6-0.9,4.2-2.8v-10.1h1.5v13.9h-1.5L328.9,400.9z M336.8,385.1v3.6h2.9v1.3h-2.9v9.3c0,0.8,0.1,1.3,0.4,1.7
			c0.3,0.4,0.8,0.6,1.4,0.6c0.3,0,0.7,0,1.3-0.1l0.1,1.3c-0.4,0.1-1,0.2-1.6,0.2c-1.1,0-1.8-0.3-2.3-0.9c-0.5-0.6-0.7-1.5-0.7-2.7
			v-9.3h-2.6v-1.3h2.6v-3.6H336.8z M354.1,395.8c0,2.2-0.5,3.9-1.4,5.2c-1,1.3-2.3,1.9-3.9,1.9c-1.9,0-3.4-0.7-4.4-2v7.1h-1.5v-19.3
			h1.4l0.1,2c1-1.5,2.5-2.2,4.4-2.2c1.7,0,3,0.6,3.9,1.9c1,1.3,1.4,3,1.4,5.3V395.8z M352.6,395.5c0-1.8-0.4-3.2-1.1-4.2
			c-0.7-1-1.7-1.5-3.1-1.5c-0.9,0-1.8,0.2-2.4,0.7c-0.7,0.5-1.2,1.1-1.6,2v6.7c0.4,0.8,0.9,1.4,1.6,1.8c0.7,0.4,1.5,0.6,2.4,0.6
			c1.3,0,2.3-0.5,3-1.5C352.2,399,352.6,397.5,352.6,395.5z M366.5,400.9c-0.9,1.4-2.4,2-4.4,2c-1.5,0-2.6-0.4-3.4-1.3
			c-0.8-0.9-1.2-2.1-1.2-3.8v-9.1h1.5v8.9c0,2.7,1.1,4,3.2,4c2.2,0,3.6-0.9,4.2-2.8v-10.1h1.5v13.9h-1.5L366.5,400.9z M374.5,385.1
			v3.6h2.9v1.3h-2.9v9.3c0,0.8,0.1,1.3,0.4,1.7c0.3,0.4,0.8,0.6,1.4,0.6c0.3,0,0.7,0,1.2-0.1l0.1,1.3c-0.4,0.1-1,0.2-1.6,0.2
			c-1.1,0-1.8-0.3-2.3-0.9c-0.5-0.6-0.7-1.5-0.7-2.7v-9.3h-2.6v-1.3h2.6v-3.6H374.5z"/>
		<path d="M194.6,359.1c-2.1-0.6-3.7-1.4-4.6-2.2c-1-0.9-1.4-2-1.4-3.3c0-1.5,0.6-2.7,1.8-3.7c1.2-1,2.7-1.5,4.6-1.5
			c1.3,0,2.4,0.2,3.4,0.7c1,0.5,1.8,1.2,2.3,2.1c0.6,0.9,0.8,1.8,0.8,2.9H199c0-1.1-0.4-2-1.1-2.7c-0.7-0.7-1.7-1-3.1-1
			c-1.2,0-2.2,0.3-2.9,0.8c-0.7,0.5-1,1.3-1,2.2c0,0.8,0.3,1.4,1,1.9c0.7,0.5,1.8,1,3.3,1.4c1.6,0.4,2.8,0.9,3.7,1.5
			c0.9,0.5,1.5,1.1,2,1.8c0.4,0.7,0.6,1.5,0.6,2.5c0,1.5-0.6,2.7-1.8,3.7c-1.2,0.9-2.8,1.4-4.8,1.4c-1.3,0-2.5-0.2-3.6-0.7
			c-1.1-0.5-2-1.2-2.6-2c-0.6-0.9-0.9-1.8-0.9-2.9h2.5c0,1.1,0.4,2,1.3,2.7c0.8,0.7,2,1,3.4,1c1.3,0,2.3-0.3,3-0.8s1-1.3,1-2.2
			c0-0.9-0.3-1.6-1-2.1C197.4,360.1,196.3,359.6,194.6,359.1z M204.7,367.4v-18.8h5.3c1.6,0,3.1,0.4,4.3,1.1
			c1.3,0.7,2.2,1.7,2.9,3.1c0.7,1.3,1,2.9,1,4.6v1.2c0,1.8-0.3,3.3-1,4.7c-0.7,1.3-1.7,2.4-2.9,3.1c-1.3,0.7-2.7,1.1-4.4,1.1H204.7z
			 M207.2,350.7v14.7h2.6c1.9,0,3.4-0.6,4.4-1.8c1.1-1.2,1.6-2.9,1.6-5.1v-1.1c0-2.1-0.5-3.8-1.5-5c-1-1.2-2.4-1.8-4.3-1.8H207.2z
			 M224.7,367.4h-2.5v-18.8h2.5V367.4z M238.7,356.4h2c0.9,0,1.6-0.2,2.1-0.7s0.7-1.1,0.7-1.9c0-0.8-0.2-1.3-0.7-1.8
			c-0.4-0.4-1.1-0.6-1.9-0.6c-0.7,0-1.3,0.2-1.8,0.6c-0.5,0.4-0.7,0.9-0.7,1.5h-3.7c0-1,0.3-1.9,0.8-2.6c0.5-0.8,1.3-1.4,2.2-1.8
			c1-0.4,2-0.7,3.1-0.7c2,0,3.5,0.5,4.7,1.4c1.1,0.9,1.7,2.3,1.7,3.9c0,0.9-0.3,1.7-0.8,2.4c-0.5,0.7-1.2,1.3-2.1,1.7
			c1.1,0.4,1.8,0.9,2.4,1.7c0.5,0.8,0.8,1.6,0.8,2.7c0,1.7-0.6,3-1.8,4c-1.2,1-2.8,1.5-4.8,1.5c-1.9,0-3.4-0.5-4.6-1.5
			c-1.2-1-1.8-2.3-1.8-3.9h3.7c0,0.7,0.3,1.3,0.8,1.7c0.5,0.4,1.2,0.7,2,0.7c0.9,0,1.6-0.2,2.1-0.7c0.5-0.5,0.8-1.1,0.8-1.9
			c0-1.9-1-2.8-3.1-2.8h-2V356.4z M261.8,361.8l-1.3,1.3v4.3h-3.7v-19.8h3.7v11l0.7-0.9l3.6-4.2h4.5l-5,5.8l5.5,8.1h-4.3
			L261.8,361.8z M277,367.7c-2,0-3.7-0.6-5-1.9c-1.3-1.3-1.9-2.9-1.9-5v-0.4c0-1.4,0.3-2.7,0.8-3.8c0.5-1.1,1.3-2,2.3-2.6
			c1-0.6,2.1-0.9,3.4-0.9c1.9,0,3.4,0.6,4.5,1.8c1.1,1.2,1.6,2.9,1.6,5.1v1.5h-8.9c0.1,0.9,0.5,1.6,1.1,2.2c0.6,0.5,1.4,0.8,2.3,0.8
			c1.4,0,2.6-0.5,3.4-1.6l1.8,2.1c-0.6,0.8-1.3,1.4-2.3,1.9C279.3,367.5,278.2,367.7,277,367.7z M276.6,356.2
			c-0.7,0-1.3,0.2-1.8,0.7c-0.5,0.5-0.7,1.2-0.9,2.1h5.2v-0.3c0-0.8-0.2-1.5-0.7-1.9C278,356.5,277.4,356.2,276.6,356.2z
			 M289.9,362.2l2.6-8.7h4l-5.6,16.1l-0.3,0.7c-0.8,1.8-2.2,2.7-4.1,2.7c-0.5,0-1.1-0.1-1.6-0.2V370l0.6,0c0.7,0,1.2-0.1,1.6-0.3
			c0.4-0.2,0.6-0.6,0.8-1.1l0.4-1.1l-4.9-14h4L289.9,362.2z M304.3,360.3c0-1.3,0.3-2.5,0.8-3.6c0.5-1.1,1.3-1.9,2.2-2.5
			c1-0.6,2-0.9,3.2-0.9c1.9,0,3.4,0.7,4.5,2c1.2,1.3,1.7,3,1.7,5.2v0.3c0,1.3-0.3,2.6-0.8,3.6c-0.5,1.1-1.2,1.9-2.2,2.5
			c-0.9,0.6-2,0.9-3.2,0.9c-1.8,0-3.4-0.6-4.5-1.9c-1.2-1.3-1.7-3-1.7-5.2V360.3z M305.8,360.7c0,1.7,0.4,3,1.3,4.1
			c0.9,1.1,2,1.6,3.4,1.6c1.4,0,2.5-0.5,3.4-1.6c0.9-1.1,1.3-2.5,1.3-4.2v-0.3c0-1.1-0.2-2-0.6-2.9c-0.4-0.9-1-1.6-1.7-2
			c-0.7-0.5-1.5-0.7-2.5-0.7c-1.4,0-2.5,0.5-3.4,1.6c-0.9,1.1-1.3,2.5-1.3,4.2V360.7z M328.9,365.7c-0.9,1.4-2.4,2-4.4,2
			c-1.5,0-2.6-0.4-3.4-1.3c-0.8-0.9-1.2-2.1-1.2-3.8v-9.1h1.5v8.9c0,2.7,1.1,4,3.2,4c2.2,0,3.6-0.9,4.2-2.8v-10.1h1.5v13.9h-1.5
			L328.9,365.7z M336.8,349.9v3.6h2.9v1.3h-2.9v9.3c0,0.8,0.1,1.3,0.4,1.7c0.3,0.4,0.8,0.6,1.4,0.6c0.3,0,0.7,0,1.3-0.1l0.1,1.3
			c-0.4,0.1-1,0.2-1.6,0.2c-1.1,0-1.8-0.3-2.3-0.9c-0.5-0.6-0.7-1.5-0.7-2.7v-9.3h-2.6v-1.3h2.6v-3.6H336.8z M354.1,360.6
			c0,2.2-0.5,3.9-1.4,5.2c-1,1.3-2.3,1.9-3.9,1.9c-1.9,0-3.4-0.7-4.4-2v7.1h-1.5v-19.3h1.4l0.1,2c1-1.5,2.5-2.2,4.4-2.2
			c1.7,0,3,0.6,3.9,1.9c1,1.3,1.4,3,1.4,5.3V360.6z M352.6,360.3c0-1.8-0.4-3.2-1.1-4.2c-0.7-1-1.7-1.5-3.1-1.5
			c-0.9,0-1.8,0.2-2.4,0.7c-0.7,0.5-1.2,1.1-1.6,2v6.7c0.4,0.8,0.9,1.4,1.6,1.8c0.7,0.4,1.5,0.6,2.4,0.6c1.3,0,2.3-0.5,3-1.5
			C352.2,363.8,352.6,362.3,352.6,360.3z M366.5,365.7c-0.9,1.4-2.4,2-4.4,2c-1.5,0-2.6-0.4-3.4-1.3c-0.8-0.9-1.2-2.1-1.2-3.8v-9.1
			h1.5v8.9c0,2.7,1.1,4,3.2,4c2.2,0,3.6-0.9,4.2-2.8v-10.1h1.5v13.9h-1.5L366.5,365.7z M374.5,349.9v3.6h2.9v1.3h-2.9v9.3
			c0,0.8,0.1,1.3,0.4,1.7c0.3,0.4,0.8,0.6,1.4,0.6c0.3,0,0.7,0,1.2-0.1l0.1,1.3c-0.4,0.1-1,0.2-1.6,0.2c-1.1,0-1.8-0.3-2.3-0.9
			c-0.5-0.6-0.7-1.5-0.7-2.7v-9.3h-2.6v-1.3h2.6v-3.6H374.5z"/>
		<path d="M205.7,323.9c-2.1-0.6-3.7-1.4-4.6-2.2c-1-0.9-1.4-2-1.4-3.3c0-1.5,0.6-2.7,1.8-3.7c1.2-1,2.7-1.5,4.6-1.5
			c1.3,0,2.4,0.2,3.4,0.7c1,0.5,1.8,1.2,2.3,2.1c0.6,0.9,0.8,1.8,0.8,2.9h-2.5c0-1.1-0.4-2-1.1-2.7c-0.7-0.7-1.7-1-3.1-1
			c-1.2,0-2.2,0.3-2.9,0.8c-0.7,0.5-1,1.3-1,2.2c0,0.8,0.3,1.4,1,1.9c0.7,0.5,1.8,1,3.3,1.4c1.6,0.4,2.8,0.9,3.7,1.5
			c0.9,0.5,1.5,1.1,2,1.8c0.4,0.7,0.6,1.5,0.6,2.5c0,1.5-0.6,2.7-1.8,3.7c-1.2,0.9-2.8,1.4-4.8,1.4c-1.3,0-2.5-0.2-3.6-0.7
			c-1.1-0.5-2-1.2-2.6-2c-0.6-0.9-0.9-1.8-0.9-2.9h2.5c0,1.1,0.4,2,1.3,2.7c0.8,0.7,2,1,3.4,1c1.3,0,2.3-0.3,3-0.8
			c0.7-0.5,1-1.3,1-2.2c0-0.9-0.3-1.6-1-2.1C208.5,324.9,207.4,324.4,205.7,323.9z M215.8,332.2v-18.8h5.3c1.6,0,3.1,0.4,4.3,1.1
			c1.3,0.7,2.2,1.7,2.9,3.1c0.7,1.3,1,2.9,1,4.6v1.2c0,1.8-0.3,3.3-1,4.7c-0.7,1.3-1.7,2.4-2.9,3.1c-1.3,0.7-2.7,1.1-4.4,1.1H215.8z
			 M218.3,315.5v14.7h2.6c1.9,0,3.4-0.6,4.4-1.8c1.1-1.2,1.6-2.9,1.6-5.1v-1.1c0-2.1-0.5-3.8-1.5-5c-1-1.2-2.4-1.8-4.3-1.8H218.3z
			 M235.8,332.2h-2.5v-18.8h2.5V332.2z M257,325.2h2.1v3H257v4.1h-3.7v-4.1h-7.7l-0.2-2.3l7.8-12.4h3.8V325.2z M249.2,325.2h4.1
			v-6.6l-0.2,0.4L249.2,325.2z M268.8,332.2V321h-2.1v-2.7h2.1v-0.6c0-1.8,0.6-3.1,1.6-4c1.1-1,2.6-1.4,4.5-1.4
			c1.2,0,2.6,0.3,4.2,0.8l-0.5,3.1c-0.8-0.2-1.5-0.4-2-0.5c-0.5-0.1-1-0.1-1.5-0.1c-1.7,0-2.6,0.8-2.6,2.3v0.6h2.7v2.7h-2.7v11.2
			H268.8z M280.9,332.2h-3.7v-13.9h3.7V332.2z M287.9,332.2h-3.7v-19.8h3.7V332.2z M294.9,332.2h-3.7v-19.8h3.7V332.2z M304.3,325.1
			c0-1.3,0.3-2.5,0.8-3.6c0.5-1.1,1.3-1.9,2.2-2.5c1-0.6,2-0.9,3.2-0.9c1.9,0,3.4,0.7,4.5,2c1.2,1.3,1.7,3,1.7,5.2v0.3
			c0,1.3-0.3,2.6-0.8,3.6c-0.5,1.1-1.2,1.9-2.2,2.5c-0.9,0.6-2,0.9-3.2,0.9c-1.8,0-3.4-0.6-4.5-1.9c-1.2-1.3-1.7-3-1.7-5.2V325.1z
			 M305.8,325.5c0,1.7,0.4,3,1.3,4.1c0.9,1.1,2,1.6,3.4,1.6c1.4,0,2.5-0.5,3.4-1.6c0.9-1.1,1.3-2.5,1.3-4.2v-0.3
			c0-1.1-0.2-2-0.6-2.9c-0.4-0.9-1-1.6-1.7-2c-0.7-0.5-1.5-0.7-2.5-0.7c-1.4,0-2.5,0.5-3.4,1.6c-0.9,1.1-1.3,2.5-1.3,4.2V325.5z
			 M328.9,330.5c-0.9,1.4-2.4,2-4.4,2c-1.5,0-2.6-0.4-3.4-1.3c-0.8-0.9-1.2-2.1-1.2-3.8v-9.1h1.5v8.9c0,2.7,1.1,4,3.2,4
			c2.2,0,3.6-0.9,4.2-2.8v-10.1h1.5v13.9h-1.5L328.9,330.5z M336.8,314.7v3.6h2.9v1.3h-2.9v9.3c0,0.8,0.1,1.3,0.4,1.7
			c0.3,0.4,0.8,0.6,1.4,0.6c0.3,0,0.7,0,1.3-0.1l0.1,1.3c-0.4,0.1-1,0.2-1.6,0.2c-1.1,0-1.8-0.3-2.3-0.9c-0.5-0.6-0.7-1.5-0.7-2.7
			v-9.3h-2.6v-1.3h2.6v-3.6H336.8z M354.1,325.4c0,2.2-0.5,3.9-1.4,5.2c-1,1.3-2.3,1.9-3.9,1.9c-1.9,0-3.4-0.7-4.4-2v7.1h-1.5v-19.3
			h1.4l0.1,2c1-1.5,2.5-2.2,4.4-2.2c1.7,0,3,0.6,3.9,1.9c1,1.3,1.4,3,1.4,5.3V325.4z M352.6,325.1c0-1.8-0.4-3.2-1.1-4.2
			c-0.7-1-1.7-1.5-3.1-1.5c-0.9,0-1.8,0.2-2.4,0.7c-0.7,0.5-1.2,1.1-1.6,2v6.7c0.4,0.8,0.9,1.4,1.6,1.8c0.7,0.4,1.5,0.6,2.4,0.6
			c1.3,0,2.3-0.5,3-1.5C352.2,328.6,352.6,327.1,352.6,325.1z M366.5,330.5c-0.9,1.4-2.4,2-4.4,2c-1.5,0-2.6-0.4-3.4-1.3
			c-0.8-0.9-1.2-2.1-1.2-3.8v-9.1h1.5v8.9c0,2.7,1.1,4,3.2,4c2.2,0,3.6-0.9,4.2-2.8v-10.1h1.5v13.9h-1.5L366.5,330.5z M374.5,314.7
			v3.6h2.9v1.3h-2.9v9.3c0,0.8,0.1,1.3,0.4,1.7c0.3,0.4,0.8,0.6,1.4,0.6c0.3,0,0.7,0,1.2-0.1l0.1,1.3c-0.4,0.1-1,0.2-1.6,0.2
			c-1.1,0-1.8-0.3-2.3-0.9c-0.5-0.6-0.7-1.5-0.7-2.7v-9.3h-2.6v-1.3h2.6v-3.6H374.5z"/>
		<path d="M194.6,288.7c-2.1-0.6-3.7-1.4-4.6-2.2c-1-0.9-1.4-2-1.4-3.3c0-1.5,0.6-2.7,1.8-3.7c1.2-1,2.7-1.5,4.6-1.5
			c1.3,0,2.4,0.2,3.4,0.7c1,0.5,1.8,1.2,2.3,2.1c0.6,0.9,0.8,1.8,0.8,2.9H199c0-1.1-0.4-2-1.1-2.7c-0.7-0.7-1.7-1-3.1-1
			c-1.2,0-2.2,0.3-2.9,0.8c-0.7,0.5-1,1.3-1,2.2c0,0.8,0.3,1.4,1,1.9c0.7,0.5,1.8,1,3.3,1.4c1.6,0.4,2.8,0.9,3.7,1.5
			c0.9,0.5,1.5,1.1,2,1.8c0.4,0.7,0.6,1.5,0.6,2.5c0,1.5-0.6,2.7-1.8,3.7c-1.2,0.9-2.8,1.4-4.8,1.4c-1.3,0-2.5-0.2-3.6-0.7
			c-1.1-0.5-2-1.2-2.6-2c-0.6-0.9-0.9-1.8-0.9-2.9h2.5c0,1.1,0.4,2,1.3,2.7c0.8,0.7,2,1,3.4,1c1.3,0,2.3-0.3,3-0.8s1-1.3,1-2.2
			c0-0.9-0.3-1.6-1-2.1C197.4,289.7,196.3,289.2,194.6,288.7z M204.7,297v-18.8h5.3c1.6,0,3.1,0.4,4.3,1.1c1.3,0.7,2.2,1.7,2.9,3.1
			c0.7,1.3,1,2.9,1,4.6v1.2c0,1.8-0.3,3.3-1,4.7c-0.7,1.3-1.7,2.4-2.9,3.1c-1.3,0.7-2.7,1.1-4.4,1.1H204.7z M207.2,280.3V295h2.6
			c1.9,0,3.4-0.6,4.4-1.8c1.1-1.2,1.6-2.9,1.6-5.1v-1.1c0-2.1-0.5-3.8-1.5-5c-1-1.2-2.4-1.8-4.3-1.8H207.2z M224.7,297h-2.5v-18.8
			h2.5V297z M235.4,287.8l1.1-9.5h10.5v3.1h-7.5l-0.5,4c0.9-0.5,1.8-0.7,2.8-0.7c1.8,0,3.2,0.6,4.2,1.7c1,1.1,1.5,2.7,1.5,4.7
			c0,1.2-0.3,2.3-0.8,3.3c-0.5,1-1.2,1.7-2.2,2.2c-1,0.5-2.1,0.8-3.4,0.8c-1.1,0-2.2-0.2-3.2-0.7c-1-0.5-1.7-1.1-2.3-1.9
			c-0.6-0.8-0.9-1.8-0.9-2.8h3.7c0.1,0.8,0.3,1.4,0.8,1.8c0.5,0.4,1.1,0.6,1.8,0.6c0.8,0,1.5-0.3,1.9-0.9c0.5-0.6,0.7-1.5,0.7-2.6
			c0-1.1-0.3-1.9-0.8-2.4c-0.5-0.6-1.3-0.9-2.2-0.9c-0.9,0-1.6,0.2-2.2,0.7l-0.4,0.3L235.4,287.8z M261.8,291.4l-1.3,1.3v4.3h-3.7
			v-19.8h3.7v11l0.7-0.9l3.6-4.2h4.5l-5,5.8l5.5,8.1h-4.3L261.8,291.4z M277,297.3c-2,0-3.7-0.6-5-1.9c-1.3-1.3-1.9-2.9-1.9-5V290
			c0-1.4,0.3-2.7,0.8-3.8c0.5-1.1,1.3-2,2.3-2.6c1-0.6,2.1-0.9,3.4-0.9c1.9,0,3.4,0.6,4.5,1.8c1.1,1.2,1.6,2.9,1.6,5.1v1.5h-8.9
			c0.1,0.9,0.5,1.6,1.1,2.2c0.6,0.6,1.4,0.8,2.3,0.8c1.4,0,2.6-0.5,3.4-1.6l1.8,2.1c-0.6,0.8-1.3,1.4-2.3,1.9
			C279.3,297.1,278.2,297.3,277,297.3z M276.6,285.8c-0.7,0-1.3,0.2-1.8,0.7c-0.5,0.5-0.7,1.2-0.9,2.1h5.2v-0.3
			c0-0.8-0.2-1.5-0.7-1.9C278,286.1,277.4,285.8,276.6,285.8z M289.9,291.8l2.6-8.7h4l-5.6,16.1l-0.3,0.7c-0.8,1.8-2.2,2.7-4.1,2.7
			c-0.5,0-1.1-0.1-1.6-0.2v-2.8l0.6,0c0.7,0,1.2-0.1,1.6-0.3c0.4-0.2,0.6-0.6,0.8-1.1l0.4-1.1l-4.9-14h4L289.9,291.8z M304.3,289.9
			c0-1.3,0.3-2.5,0.8-3.6c0.5-1.1,1.3-1.9,2.2-2.5c1-0.6,2-0.9,3.2-0.9c1.9,0,3.4,0.7,4.5,2c1.2,1.3,1.7,3,1.7,5.2v0.3
			c0,1.3-0.3,2.6-0.8,3.6c-0.5,1.1-1.2,1.9-2.2,2.5c-0.9,0.6-2,0.9-3.2,0.9c-1.8,0-3.4-0.6-4.5-1.9c-1.2-1.3-1.7-3-1.7-5.2V289.9z
			 M305.8,290.3c0,1.7,0.4,3,1.3,4.1c0.9,1.1,2,1.6,3.4,1.6c1.4,0,2.5-0.5,3.4-1.6c0.9-1.1,1.3-2.5,1.3-4.2v-0.3
			c0-1.1-0.2-2-0.6-2.9c-0.4-0.9-1-1.6-1.7-2c-0.7-0.5-1.5-0.7-2.5-0.7c-1.4,0-2.5,0.5-3.4,1.6c-0.9,1.1-1.3,2.5-1.3,4.2V290.3z
			 M328.9,295.3c-0.9,1.4-2.4,2-4.4,2c-1.5,0-2.6-0.4-3.4-1.3c-0.8-0.9-1.2-2.1-1.2-3.8v-9.1h1.5v8.9c0,2.7,1.1,4,3.2,4
			c2.2,0,3.6-0.9,4.2-2.8v-10.1h1.5V297h-1.5L328.9,295.3z M336.8,279.5v3.6h2.9v1.3h-2.9v9.3c0,0.8,0.1,1.3,0.4,1.7
			c0.3,0.4,0.8,0.6,1.4,0.6c0.3,0,0.7,0,1.3-0.1l0.1,1.3c-0.4,0.1-1,0.2-1.6,0.2c-1.1,0-1.8-0.3-2.3-0.9c-0.5-0.6-0.7-1.5-0.7-2.7
			v-9.3h-2.6v-1.3h2.6v-3.6H336.8z M354.1,290.2c0,2.2-0.5,3.9-1.4,5.2c-1,1.3-2.3,1.9-3.9,1.9c-1.9,0-3.4-0.7-4.4-2v7.1h-1.5v-19.3
			h1.4l0.1,2c1-1.5,2.5-2.2,4.4-2.2c1.7,0,3,0.6,3.9,1.9c1,1.3,1.4,3,1.4,5.3V290.2z M352.6,289.9c0-1.8-0.4-3.2-1.1-4.2
			c-0.7-1-1.7-1.5-3.1-1.5c-0.9,0-1.8,0.2-2.4,0.7c-0.7,0.5-1.2,1.1-1.6,2v6.7c0.4,0.8,0.9,1.4,1.6,1.8c0.7,0.4,1.5,0.6,2.4,0.6
			c1.3,0,2.3-0.5,3-1.5C352.2,293.4,352.6,291.9,352.6,289.9z M366.5,295.3c-0.9,1.4-2.4,2-4.4,2c-1.5,0-2.6-0.4-3.4-1.3
			c-0.8-0.9-1.2-2.1-1.2-3.8v-9.1h1.5v8.9c0,2.7,1.1,4,3.2,4c2.2,0,3.6-0.9,4.2-2.8v-10.1h1.5V297h-1.5L366.5,295.3z M374.5,279.5
			v3.6h2.9v1.3h-2.9v9.3c0,0.8,0.1,1.3,0.4,1.7c0.3,0.4,0.8,0.6,1.4,0.6c0.3,0,0.7,0,1.2-0.1l0.1,1.3c-0.4,0.1-1,0.2-1.6,0.2
			c-1.1,0-1.8-0.3-2.3-0.9c-0.5-0.6-0.7-1.5-0.7-2.7v-9.3h-2.6v-1.3h2.6v-3.6H374.5z"/>
		<path d="M205.7,253.5c-2.1-0.6-3.7-1.4-4.6-2.2c-1-0.9-1.4-2-1.4-3.3c0-1.5,0.6-2.7,1.8-3.7c1.2-1,2.7-1.5,4.6-1.5
			c1.3,0,2.4,0.2,3.4,0.7c1,0.5,1.8,1.2,2.3,2.1c0.6,0.9,0.8,1.8,0.8,2.9h-2.5c0-1.1-0.4-2-1.1-2.7c-0.7-0.7-1.7-1-3.1-1
			c-1.2,0-2.2,0.3-2.9,0.8c-0.7,0.5-1,1.3-1,2.2c0,0.8,0.3,1.4,1,1.9c0.7,0.5,1.8,1,3.3,1.4c1.6,0.4,2.8,0.9,3.7,1.5
			c0.9,0.5,1.5,1.1,2,1.8c0.4,0.7,0.6,1.5,0.6,2.5c0,1.5-0.6,2.7-1.8,3.7c-1.2,0.9-2.8,1.4-4.8,1.4c-1.3,0-2.5-0.2-3.6-0.7
			c-1.1-0.5-2-1.2-2.6-2c-0.6-0.9-0.9-1.8-0.9-2.9h2.5c0,1.1,0.4,2,1.3,2.7c0.8,0.7,2,1,3.4,1c1.3,0,2.3-0.3,3-0.8
			c0.7-0.5,1-1.3,1-2.2c0-0.9-0.3-1.6-1-2.1C208.5,254.5,207.4,254,205.7,253.5z M215.8,261.8v-18.8h5.3c1.6,0,3.1,0.4,4.3,1.1
			c1.3,0.7,2.2,1.7,2.9,3.1c0.7,1.3,1,2.9,1,4.6v1.2c0,1.8-0.3,3.3-1,4.7c-0.7,1.3-1.7,2.4-2.9,3.1c-1.3,0.7-2.7,1.1-4.4,1.1H215.8z
			 M218.3,245.1v14.7h2.6c1.9,0,3.4-0.6,4.4-1.8c1.1-1.2,1.6-2.9,1.6-5.1v-1.1c0-2.1-0.5-3.8-1.5-5c-1-1.2-2.4-1.8-4.3-1.8H218.3z
			 M235.8,261.8h-2.5v-18.8h2.5V261.8z M256.1,242.9v3.1h-0.4c-1.7,0-3,0.5-4.1,1.3c-1,0.9-1.6,2-1.8,3.5c1-1,2.3-1.5,3.8-1.5
			c1.6,0,2.9,0.6,3.9,1.8c1,1.2,1.4,2.7,1.4,4.6c0,1.2-0.3,2.3-0.8,3.3c-0.5,1-1.3,1.8-2.2,2.3c-1,0.5-2.1,0.8-3.3,0.8
			c-2,0-3.6-0.7-4.8-2.1c-1.2-1.4-1.8-3.2-1.8-5.5v-1.3c0-2,0.4-3.8,1.1-5.4c0.8-1.6,1.9-2.8,3.3-3.6c1.4-0.9,3.1-1.3,5-1.3H256.1z
			 M252.5,252.3c-0.6,0-1.1,0.2-1.6,0.5c-0.5,0.3-0.8,0.7-1.1,1.2v1.1c0,1.2,0.2,2.2,0.7,2.9c0.5,0.7,1.2,1,2.1,1
			c0.8,0,1.4-0.3,1.9-0.9c0.5-0.6,0.7-1.5,0.7-2.5c0-1-0.2-1.8-0.7-2.5C254,252.6,253.3,252.3,252.5,252.3z M268.8,261.8v-11.2h-2.1
			v-2.7h2.1v-0.6c0-1.8,0.6-3.1,1.6-4c1.1-1,2.6-1.4,4.5-1.4c1.2,0,2.6,0.3,4.2,0.8l-0.5,3.1c-0.8-0.2-1.5-0.4-2-0.5
			c-0.5-0.1-1-0.1-1.5-0.1c-1.7,0-2.6,0.8-2.6,2.3v0.6h2.7v2.7h-2.7v11.2H268.8z M280.9,261.8h-3.7v-13.9h3.7V261.8z M287.9,261.8
			h-3.7V242h3.7V261.8z M294.9,261.8h-3.7V242h3.7V261.8z M304.3,254.7c0-1.3,0.3-2.5,0.8-3.6c0.5-1.1,1.3-1.9,2.2-2.5
			c1-0.6,2-0.9,3.2-0.9c1.9,0,3.4,0.7,4.5,2c1.2,1.3,1.7,3,1.7,5.2v0.3c0,1.3-0.3,2.6-0.8,3.6c-0.5,1.1-1.2,1.9-2.2,2.5
			c-0.9,0.6-2,0.9-3.2,0.9c-1.8,0-3.4-0.6-4.5-1.9c-1.2-1.3-1.7-3-1.7-5.2V254.7z M305.8,255.1c0,1.7,0.4,3,1.3,4.1
			c0.9,1.1,2,1.6,3.4,1.6c1.4,0,2.5-0.5,3.4-1.6c0.9-1.1,1.3-2.5,1.3-4.2v-0.3c0-1.1-0.2-2-0.6-2.9c-0.4-0.9-1-1.6-1.7-2
			c-0.7-0.5-1.5-0.7-2.5-0.7c-1.4,0-2.5,0.5-3.4,1.6c-0.9,1.1-1.3,2.5-1.3,4.2V255.1z M328.9,260.1c-0.9,1.4-2.4,2-4.4,2
			c-1.5,0-2.6-0.4-3.4-1.3c-0.8-0.9-1.2-2.1-1.2-3.8v-9.1h1.5v8.9c0,2.7,1.1,4,3.2,4c2.2,0,3.6-0.9,4.2-2.8v-10.1h1.5v13.9h-1.5
			L328.9,260.1z M336.8,244.3v3.6h2.9v1.3h-2.9v9.3c0,0.8,0.1,1.3,0.4,1.7c0.3,0.4,0.8,0.6,1.4,0.6c0.3,0,0.7,0,1.3-0.1l0.1,1.3
			c-0.4,0.1-1,0.2-1.6,0.2c-1.1,0-1.8-0.3-2.3-0.9c-0.5-0.6-0.7-1.5-0.7-2.7v-9.3h-2.6v-1.3h2.6v-3.6H336.8z M354.1,255
			c0,2.2-0.5,3.9-1.4,5.2c-1,1.3-2.3,1.9-3.9,1.9c-1.9,0-3.4-0.7-4.4-2v7.1h-1.5v-19.3h1.4l0.1,2c1-1.5,2.5-2.2,4.4-2.2
			c1.7,0,3,0.6,3.9,1.9c1,1.3,1.4,3,1.4,5.3V255z M352.6,254.7c0-1.8-0.4-3.2-1.1-4.2c-0.7-1-1.7-1.5-3.1-1.5
			c-0.9,0-1.8,0.2-2.4,0.7s-1.2,1.1-1.6,2v6.7c0.4,0.8,0.9,1.4,1.6,1.8c0.7,0.4,1.5,0.6,2.4,0.6c1.3,0,2.3-0.5,3-1.5
			C352.2,258.2,352.6,256.7,352.6,254.7z M366.5,260.1c-0.9,1.4-2.4,2-4.4,2c-1.5,0-2.6-0.4-3.4-1.3c-0.8-0.9-1.2-2.1-1.2-3.8v-9.1
			h1.5v8.9c0,2.7,1.1,4,3.2,4c2.2,0,3.6-0.9,4.2-2.8v-10.1h1.5v13.9h-1.5L366.5,260.1z M374.5,244.3v3.6h2.9v1.3h-2.9v9.3
			c0,0.8,0.1,1.3,0.4,1.7c0.3,0.4,0.8,0.6,1.4,0.6c0.3,0,0.7,0,1.2-0.1l0.1,1.3c-0.4,0.1-1,0.2-1.6,0.2c-1.1,0-1.8-0.3-2.3-0.9
			c-0.5-0.6-0.7-1.5-0.7-2.7v-9.3h-2.6v-1.3h2.6v-3.6H374.5z"/>
		<path d="M194.6,218.3c-2.1-0.6-3.7-1.4-4.6-2.2c-1-0.9-1.4-2-1.4-3.3c0-1.5,0.6-2.7,1.8-3.7c1.2-1,2.7-1.5,4.6-1.5
			c1.3,0,2.4,0.2,3.4,0.7c1,0.5,1.8,1.2,2.3,2.1c0.6,0.9,0.8,1.8,0.8,2.9H199c0-1.1-0.4-2-1.1-2.7c-0.7-0.7-1.7-1-3.1-1
			c-1.2,0-2.2,0.3-2.9,0.8c-0.7,0.5-1,1.3-1,2.2c0,0.8,0.3,1.4,1,1.9c0.7,0.5,1.8,1,3.3,1.4c1.6,0.4,2.8,0.9,3.7,1.5
			c0.9,0.5,1.5,1.1,2,1.8c0.4,0.7,0.6,1.5,0.6,2.5c0,1.5-0.6,2.7-1.8,3.7c-1.2,0.9-2.8,1.4-4.8,1.4c-1.3,0-2.5-0.2-3.6-0.7
			c-1.1-0.5-2-1.2-2.6-2c-0.6-0.9-0.9-1.8-0.9-2.9h2.5c0,1.1,0.4,2,1.3,2.7c0.8,0.7,2,1,3.4,1c1.3,0,2.3-0.3,3-0.8s1-1.3,1-2.2
			s-0.3-1.6-1-2.1C197.4,219.3,196.3,218.8,194.6,218.3z M204.7,226.6v-18.8h5.3c1.6,0,3.1,0.4,4.3,1.1c1.3,0.7,2.2,1.7,2.9,3.1
			c0.7,1.3,1,2.9,1,4.6v1.2c0,1.8-0.3,3.3-1,4.7c-0.7,1.3-1.7,2.4-2.9,3.1c-1.3,0.7-2.7,1.1-4.4,1.1H204.7z M207.2,209.9v14.7h2.6
			c1.9,0,3.4-0.6,4.4-1.8c1.1-1.2,1.6-2.9,1.6-5.1v-1.1c0-2.1-0.5-3.8-1.5-5c-1-1.2-2.4-1.8-4.3-1.8H207.2z M224.7,226.6h-2.5v-18.8
			h2.5V226.6z M247.7,210l-7.3,16.7h-3.9l7.3-15.8h-9.3v-3h13.3V210z M261.8,221l-1.3,1.3v4.3h-3.7v-19.8h3.7v11l0.7-0.9l3.6-4.2
			h4.5l-5,5.8l5.5,8.1h-4.3L261.8,221z M277,226.9c-2,0-3.7-0.6-5-1.9c-1.3-1.3-1.9-2.9-1.9-5v-0.4c0-1.4,0.3-2.7,0.8-3.8
			c0.5-1.1,1.3-2,2.3-2.6c1-0.6,2.1-0.9,3.4-0.9c1.9,0,3.4,0.6,4.5,1.8c1.1,1.2,1.6,2.9,1.6,5.1v1.5h-8.9c0.1,0.9,0.5,1.6,1.1,2.2
			c0.6,0.6,1.4,0.8,2.3,0.8c1.4,0,2.6-0.5,3.4-1.6l1.8,2.1c-0.6,0.8-1.3,1.4-2.3,1.9C279.3,226.7,278.2,226.9,277,226.9z
			 M276.6,215.4c-0.7,0-1.3,0.2-1.8,0.7c-0.5,0.5-0.7,1.2-0.9,2.1h5.2V218c0-0.8-0.2-1.5-0.7-1.9C278,215.7,277.4,215.4,276.6,215.4
			z M289.9,221.4l2.6-8.7h4l-5.6,16.1l-0.3,0.7c-0.8,1.8-2.2,2.7-4.1,2.7c-0.5,0-1.1-0.1-1.6-0.2v-2.8l0.6,0c0.7,0,1.2-0.1,1.6-0.3
			c0.4-0.2,0.6-0.6,0.8-1.1l0.4-1.1l-4.9-14h4L289.9,221.4z M304.3,219.5c0-1.3,0.3-2.5,0.8-3.6c0.5-1.1,1.3-1.9,2.2-2.5
			c1-0.6,2-0.9,3.2-0.9c1.9,0,3.4,0.7,4.5,2c1.2,1.3,1.7,3,1.7,5.2v0.3c0,1.3-0.3,2.6-0.8,3.6c-0.5,1.1-1.2,1.9-2.2,2.5
			c-0.9,0.6-2,0.9-3.2,0.9c-1.8,0-3.4-0.6-4.5-1.9c-1.2-1.3-1.7-3-1.7-5.2V219.5z M305.8,219.9c0,1.7,0.4,3,1.3,4.1
			c0.9,1.1,2,1.6,3.4,1.6c1.4,0,2.5-0.5,3.4-1.6c0.9-1.1,1.3-2.5,1.3-4.2v-0.3c0-1.1-0.2-2-0.6-2.9c-0.4-0.9-1-1.6-1.7-2
			c-0.7-0.5-1.5-0.7-2.5-0.7c-1.4,0-2.5,0.5-3.4,1.6c-0.9,1.1-1.3,2.5-1.3,4.2V219.9z M328.9,224.9c-0.9,1.4-2.4,2-4.4,2
			c-1.5,0-2.6-0.4-3.4-1.3c-0.8-0.9-1.2-2.1-1.2-3.8v-9.1h1.5v8.9c0,2.7,1.1,4,3.2,4c2.2,0,3.6-0.9,4.2-2.8v-10.1h1.5v13.9h-1.5
			L328.9,224.9z M336.8,209.1v3.6h2.9v1.3h-2.9v9.3c0,0.8,0.1,1.3,0.4,1.7c0.3,0.4,0.8,0.6,1.4,0.6c0.3,0,0.7,0,1.3-0.1l0.1,1.3
			c-0.4,0.1-1,0.2-1.6,0.2c-1.1,0-1.8-0.3-2.3-0.9c-0.5-0.6-0.7-1.5-0.7-2.7v-9.3h-2.6v-1.3h2.6v-3.6H336.8z M354.1,219.8
			c0,2.2-0.5,3.9-1.4,5.2c-1,1.3-2.3,1.9-3.9,1.9c-1.9,0-3.4-0.7-4.4-2v7.1h-1.5v-19.3h1.4l0.1,2c1-1.5,2.5-2.2,4.4-2.2
			c1.7,0,3,0.6,3.9,1.9c1,1.3,1.4,3,1.4,5.3V219.8z M352.6,219.5c0-1.8-0.4-3.2-1.1-4.2c-0.7-1-1.7-1.5-3.1-1.5
			c-0.9,0-1.8,0.2-2.4,0.7c-0.7,0.5-1.2,1.1-1.6,2v6.7c0.4,0.8,0.9,1.4,1.6,1.8c0.7,0.4,1.5,0.6,2.4,0.6c1.3,0,2.3-0.5,3-1.5
			C352.2,223,352.6,221.5,352.6,219.5z M366.5,224.9c-0.9,1.4-2.4,2-4.4,2c-1.5,0-2.6-0.4-3.4-1.3c-0.8-0.9-1.2-2.1-1.2-3.8v-9.1
			h1.5v8.9c0,2.7,1.1,4,3.2,4c2.2,0,3.6-0.9,4.2-2.8v-10.1h1.5v13.9h-1.5L366.5,224.9z M374.5,209.1v3.6h2.9v1.3h-2.9v9.3
			c0,0.8,0.1,1.3,0.4,1.7c0.3,0.4,0.8,0.6,1.4,0.6c0.3,0,0.7,0,1.2-0.1l0.1,1.3c-0.4,0.1-1,0.2-1.6,0.2c-1.1,0-1.8-0.3-2.3-0.9
			c-0.5-0.6-0.7-1.5-0.7-2.7v-9.3h-2.6v-1.3h2.6v-3.6H374.5z"/>
		<path d="M205.7,183.1c-2.1-0.6-3.7-1.4-4.6-2.2c-1-0.9-1.4-2-1.4-3.3c0-1.5,0.6-2.7,1.8-3.7c1.2-1,2.7-1.5,4.6-1.5
			c1.3,0,2.4,0.2,3.4,0.7c1,0.5,1.8,1.2,2.3,2.1c0.6,0.9,0.8,1.8,0.8,2.9h-2.5c0-1.1-0.4-2-1.1-2.7c-0.7-0.7-1.7-1-3.1-1
			c-1.2,0-2.2,0.3-2.9,0.8c-0.7,0.5-1,1.3-1,2.2c0,0.8,0.3,1.4,1,1.9c0.7,0.5,1.8,1,3.3,1.4c1.6,0.4,2.8,0.9,3.7,1.5
			c0.9,0.5,1.5,1.1,2,1.8c0.4,0.7,0.6,1.5,0.6,2.5c0,1.5-0.6,2.7-1.8,3.7c-1.2,0.9-2.8,1.4-4.8,1.4c-1.3,0-2.5-0.2-3.6-0.7
			c-1.1-0.5-2-1.2-2.6-2c-0.6-0.9-0.9-1.8-0.9-2.9h2.5c0,1.1,0.4,2,1.3,2.7c0.8,0.7,2,1,3.4,1c1.3,0,2.3-0.3,3-0.8
			c0.7-0.5,1-1.3,1-2.2c0-0.9-0.3-1.6-1-2.1C208.5,184.1,207.4,183.6,205.7,183.1z M215.8,191.4v-18.8h5.3c1.6,0,3.1,0.4,4.3,1.1
			c1.3,0.7,2.2,1.7,2.9,3.1c0.7,1.3,1,2.9,1,4.6v1.2c0,1.8-0.3,3.3-1,4.7c-0.7,1.3-1.7,2.4-2.9,3.1c-1.3,0.7-2.7,1.1-4.4,1.1H215.8z
			 M218.3,174.7v14.7h2.6c1.9,0,3.4-0.6,4.4-1.8c1.1-1.2,1.6-2.9,1.6-5.1v-1.1c0-2.1-0.5-3.8-1.5-5c-1-1.2-2.4-1.8-4.3-1.8H218.3z
			 M235.8,191.4h-2.5v-18.8h2.5V191.4z M258.2,177.7c0,0.9-0.2,1.7-0.7,2.4c-0.5,0.7-1.1,1.3-1.9,1.7c0.9,0.4,1.6,1,2.2,1.8
			c0.5,0.8,0.8,1.7,0.8,2.7c0,1.7-0.6,3-1.7,4c-1.1,1-2.7,1.4-4.6,1.4c-1.9,0-3.5-0.5-4.6-1.5c-1.1-1-1.7-2.3-1.7-3.9
			c0-1,0.3-1.9,0.8-2.7c0.5-0.8,1.2-1.4,2.2-1.8c-0.8-0.4-1.4-1-1.9-1.7c-0.4-0.7-0.7-1.5-0.7-2.4c0-1.6,0.5-2.9,1.6-3.8
			c1.1-1,2.5-1.4,4.3-1.4c1.8,0,3.3,0.5,4.3,1.4C257.7,174.8,258.2,176,258.2,177.7z M254.9,186c0-0.8-0.2-1.5-0.7-2
			c-0.5-0.5-1.1-0.7-1.9-0.7c-0.8,0-1.4,0.2-1.9,0.7c-0.5,0.5-0.7,1.1-0.7,2c0,0.8,0.2,1.4,0.7,1.9c0.5,0.5,1.1,0.7,1.9,0.7
			c0.8,0,1.4-0.2,1.9-0.7C254.7,187.5,254.9,186.9,254.9,186z M254.5,177.8c0-0.7-0.2-1.3-0.6-1.8c-0.4-0.4-0.9-0.7-1.6-0.7
			c-0.7,0-1.2,0.2-1.6,0.6c-0.4,0.4-0.6,1-0.6,1.8c0,0.7,0.2,1.3,0.6,1.8c0.4,0.5,0.9,0.7,1.6,0.7c0.7,0,1.2-0.2,1.6-0.7
			C254.3,179.2,254.5,178.6,254.5,177.8z M268.8,191.4v-11.2h-2.1v-2.7h2.1v-0.6c0-1.8,0.6-3.1,1.6-4c1.1-1,2.6-1.4,4.5-1.4
			c1.2,0,2.6,0.3,4.2,0.8l-0.5,3.1c-0.8-0.2-1.5-0.4-2-0.5c-0.5-0.1-1-0.1-1.5-0.1c-1.7,0-2.6,0.8-2.6,2.3v0.6h2.7v2.7h-2.7v11.2
			H268.8z M280.9,191.4h-3.7v-13.9h3.7V191.4z M287.9,191.4h-3.7v-19.8h3.7V191.4z M294.9,191.4h-3.7v-19.8h3.7V191.4z M304.3,184.3
			c0-1.3,0.3-2.5,0.8-3.6c0.5-1.1,1.3-1.9,2.2-2.5c1-0.6,2-0.9,3.2-0.9c1.9,0,3.4,0.7,4.5,2c1.2,1.3,1.7,3,1.7,5.2v0.3
			c0,1.3-0.3,2.6-0.8,3.6c-0.5,1.1-1.2,1.9-2.2,2.5c-0.9,0.6-2,0.9-3.2,0.9c-1.8,0-3.4-0.6-4.5-1.9c-1.2-1.3-1.7-3-1.7-5.2V184.3z
			 M305.8,184.7c0,1.7,0.4,3,1.3,4.1c0.9,1.1,2,1.6,3.4,1.6c1.4,0,2.5-0.5,3.4-1.6c0.9-1.1,1.3-2.5,1.3-4.2v-0.3
			c0-1.1-0.2-2-0.6-2.9c-0.4-0.9-1-1.6-1.7-2c-0.7-0.5-1.5-0.7-2.5-0.7c-1.4,0-2.5,0.5-3.4,1.6c-0.9,1.1-1.3,2.5-1.3,4.2V184.7z
			 M328.9,189.7c-0.9,1.3-2.4,2-4.4,2c-1.5,0-2.6-0.4-3.4-1.3c-0.8-0.9-1.2-2.1-1.2-3.8v-9.1h1.5v8.9c0,2.7,1.1,4,3.2,4
			c2.2,0,3.6-0.9,4.2-2.8v-10.1h1.5v13.9h-1.5L328.9,189.7z M336.8,173.9v3.6h2.9v1.3h-2.9v9.3c0,0.8,0.1,1.3,0.4,1.7
			c0.3,0.4,0.8,0.6,1.4,0.6c0.3,0,0.7,0,1.3-0.1l0.1,1.3c-0.4,0.1-1,0.2-1.6,0.2c-1.1,0-1.8-0.3-2.3-0.9c-0.5-0.6-0.7-1.5-0.7-2.7
			v-9.3h-2.6v-1.3h2.6v-3.6H336.8z M354.1,184.6c0,2.2-0.5,3.9-1.4,5.2c-1,1.3-2.3,1.9-3.9,1.9c-1.9,0-3.4-0.7-4.4-2v7.1h-1.5v-19.3
			h1.4l0.1,2c1-1.5,2.5-2.2,4.4-2.2c1.7,0,3,0.6,3.9,1.9c1,1.3,1.4,3,1.4,5.3V184.6z M352.6,184.3c0-1.8-0.4-3.2-1.1-4.2
			c-0.7-1-1.7-1.5-3.1-1.5c-0.9,0-1.8,0.2-2.4,0.7s-1.2,1.1-1.6,2v6.7c0.4,0.8,0.9,1.4,1.6,1.8c0.7,0.4,1.5,0.6,2.4,0.6
			c1.3,0,2.3-0.5,3-1.5C352.2,187.8,352.6,186.3,352.6,184.3z M366.5,189.7c-0.9,1.3-2.4,2-4.4,2c-1.5,0-2.6-0.4-3.4-1.3
			c-0.8-0.9-1.2-2.1-1.2-3.8v-9.1h1.5v8.9c0,2.7,1.1,4,3.2,4c2.2,0,3.6-0.9,4.2-2.8v-10.1h1.5v13.9h-1.5L366.5,189.7z M374.5,173.9
			v3.6h2.9v1.3h-2.9v9.3c0,0.8,0.1,1.3,0.4,1.7c0.3,0.4,0.8,0.6,1.4,0.6c0.3,0,0.7,0,1.2-0.1l0.1,1.3c-0.4,0.1-1,0.2-1.6,0.2
			c-1.1,0-1.8-0.3-2.3-0.9c-0.5-0.6-0.7-1.5-0.7-2.7v-9.3h-2.6v-1.3h2.6v-3.6H374.5z"/>
		<path d="M388.8,217.1c-0.4,0.4-0.4,1.1,0,1.6l7,7c0.4,0.4,1.1,0.4,1.6,0c0.4-0.4,0.4-1.1,0-1.6l-6.2-6.2l6.2-6.2
			c0.4-0.4,0.4-1.1,0-1.6c-0.4-0.4-1.1-0.4-1.6,0L388.8,217.1z M389.6,218.9h2.1v-2.2h-2.1V218.9z M395.7,218.9h4.1v-2.2h-4.1V218.9
			z M404,218.9h4.1v-2.2H404V218.9z M412.2,218.9h4.1v-2.2h-4.1V218.9z M420.5,218.9h4.1v-2.2h-4.1V218.9z M428.7,218.9h4.1v-2.2
			h-4.1V218.9z M437,218.9h4.1v-2.2H437V218.9z M445.2,218.9h4.1v-2.2h-4.1V218.9z M453.5,218.9h2.1v-2.2h-2.1V218.9z"/>
		<path d="M388.8,287.5c-0.4,0.4-0.4,1.1,0,1.6l7,7c0.4,0.4,1.1,0.4,1.6,0c0.4-0.4,0.4-1.1,0-1.6l-6.2-6.2l6.2-6.2
			c0.4-0.4,0.4-1.1,0-1.6c-0.4-0.4-1.1-0.4-1.6,0L388.8,287.5z M389.6,289.3h2.1v-2.2h-2.1V289.3z M395.7,289.3h4.1v-2.2h-4.1V289.3
			z M404,289.3h4.1v-2.2H404V289.3z M412.2,289.3h4.1v-2.2h-4.1V289.3z M420.5,289.3h4.1v-2.2h-4.1V289.3z M428.7,289.3h4.1v-2.2
			h-4.1V289.3z M437,289.3h4.1v-2.2H437V289.3z M445.2,289.3h4.1v-2.2h-4.1V289.3z M453.5,289.3h2.1v-2.2h-2.1V289.3z"/>
		<path d="M388.8,357.9c-0.4,0.4-0.4,1.1,0,1.6l7,7c0.4,0.4,1.1,0.4,1.6,0c0.4-0.4,0.4-1.1,0-1.6l-6.2-6.2l6.2-6.2
			c0.4-0.4,0.4-1.1,0-1.6c-0.4-0.4-1.1-0.4-1.6,0L388.8,357.9z M389.6,359.7h2.1v-2.2h-2.1V359.7z M395.7,359.7h4.1v-2.2h-4.1V359.7
			z M404,359.7h4.1v-2.2H404V359.7z M412.2,359.7h4.1v-2.2h-4.1V359.7z M420.5,359.7h4.1v-2.2h-4.1V359.7z M428.7,359.7h4.1v-2.2
			h-4.1V359.7z M437,359.7h4.1v-2.2H437V359.7z M445.2,359.7h4.1v-2.2h-4.1V359.7z M453.5,359.7h2.1v-2.2h-2.1V359.7z"/>
		<path d="M388.8,428.3c-0.4,0.4-0.4,1.1,0,1.6l7,7c0.4,0.4,1.1,0.4,1.6,0c0.4-0.4,0.4-1.1,0-1.6l-6.2-6.2l6.2-6.2
			c0.4-0.4,0.4-1.1,0-1.6c-0.4-0.4-1.1-0.4-1.6,0L388.8,428.3z M389.6,430.1h2.1v-2.2h-2.1V430.1z M395.7,430.1h4.1v-2.2h-4.1V430.1
			z M404,430.1h4.1v-2.2H404V430.1z M412.2,430.1h4.1v-2.2h-4.1V430.1z M420.5,430.1h4.1v-2.2h-4.1V430.1z M428.7,430.1h4.1v-2.2
			h-4.1V430.1z M437,430.1h4.1v-2.2H437V430.1z M445.2,430.1h4.1v-2.2h-4.1V430.1z M453.5,430.1h2.1v-2.2h-2.1V430.1z"/>
		<line class="st11" x1="391.4" y1="181.5" x2="455.6" y2="181.5"/>
		<line class="st12" x1="391.4" y1="183.7" x2="455.6" y2="183.7"/>
		<line class="st13" x1="391.4" y1="185.9" x2="455.6" y2="185.9"/>
		<path d="M388.8,183c-0.4,0.4-0.4,1.1,0,1.6l7,7c0.4,0.4,1.1,0.4,1.6,0c0.4-0.4,0.4-1.1,0-1.6l-6.2-6.2l6.2-6.2
			c0.4-0.4,0.4-1.1,0-1.6c-0.4-0.4-1.1-0.4-1.6,0L388.8,183z M389.6,184.8h1.4v-2.2h-1.4V184.8z"/>
		<line class="st11" x1="391.4" y1="251.9" x2="455.6" y2="251.9"/>
		<line class="st12" x1="391.4" y1="254.1" x2="455.6" y2="254.1"/>
		<line class="st13" x1="391.4" y1="256.3" x2="455.6" y2="256.3"/>
		<path d="M388.8,253.4c-0.4,0.4-0.4,1.1,0,1.6l7,7c0.4,0.4,1.1,0.4,1.6,0c0.4-0.4,0.4-1.1,0-1.6l-6.2-6.2l6.2-6.2
			c0.4-0.4,0.4-1.1,0-1.6c-0.4-0.4-1.1-0.4-1.6,0L388.8,253.4z M389.6,255.2h1.4V253h-1.4V255.2z"/>
		<line class="st11" x1="391.4" y1="322.3" x2="455.6" y2="322.3"/>
		<line class="st12" x1="391.4" y1="324.5" x2="455.6" y2="324.5"/>
		<line class="st13" x1="391.4" y1="326.7" x2="455.6" y2="326.7"/>
		<path d="M388.8,323.8c-0.4,0.4-0.4,1.1,0,1.6l7,7c0.4,0.4,1.1,0.4,1.6,0c0.4-0.4,0.4-1.1,0-1.6l-6.2-6.2l6.2-6.2
			c0.4-0.4,0.4-1.1,0-1.6c-0.4-0.4-1.1-0.4-1.6,0L388.8,323.8z M389.6,325.6h1.4v-2.2h-1.4V325.6z"/>
		<line class="st11" x1="391.4" y1="392.7" x2="455.6" y2="392.7"/>
		<line class="st12" x1="391.4" y1="394.9" x2="455.6" y2="394.9"/>
		<line class="st13" x1="391.4" y1="397.1" x2="455.6" y2="397.1"/>
		<path d="M388.8,394.2c-0.4,0.4-0.4,1.1,0,1.6l7,7c0.4,0.4,1.1,0.4,1.6,0c0.4-0.4,0.4-1.1,0-1.6l-6.2-6.2l6.2-6.2
			c0.4-0.4,0.4-1.1,0-1.6c-0.4-0.4-1.1-0.4-1.6,0L388.8,394.2z M389.6,396h1.4v-2.2h-1.4V396z"/>
		<path class="st14" d="M532.6,169.4h112.2c3.6,0,6.6,3,6.6,6.6v15.4c0,3.6-3,6.6-6.6,6.6H532.6V169.4z"/>
		<path class="st14" d="M532.6,204.6h112.2c3.6,0,6.6,3,6.6,6.6v15.4c0,3.6-3,6.6-6.6,6.6H532.6V204.6z"/>
		<path class="st14" d="M539.2,169.4h246.4c3.6,0,6.6,3,6.6,6.6v50.6c0,3.6-3,6.6-6.6,6.6H539.2V169.4z"/>
		<path class="st1" d="M550,209v-17.2h4.9c1.5,0,2.8,0.3,4,1c1.2,0.7,2,1.6,2.7,2.8c0.6,1.2,1,2.6,1,4.2v1.1c0,1.6-0.3,3-0.9,4.3
			c-0.6,1.2-1.5,2.2-2.7,2.8c-1.2,0.7-2.5,1-4.1,1H550z M552.2,193.7v13.5h2.4c1.7,0,3.1-0.5,4.1-1.6c1-1.1,1.5-2.6,1.5-4.6v-1
			c0-2-0.5-3.5-1.4-4.5c-0.9-1.1-2.2-1.6-3.9-1.7H552.2z M570.8,209.3c-1.7,0-3.1-0.6-4.2-1.7c-1.1-1.1-1.6-2.7-1.6-4.6v-0.4
			c0-1.3,0.2-2.4,0.7-3.4c0.5-1,1.2-1.8,2-2.3c0.9-0.6,1.8-0.9,2.8-0.9c1.7,0,3,0.5,3.9,1.6c0.9,1.1,1.4,2.7,1.4,4.7v0.9h-8.7
			c0,1.3,0.4,2.3,1.1,3.1c0.7,0.8,1.6,1.2,2.7,1.2c0.8,0,1.4-0.2,2-0.5c0.5-0.3,1-0.7,1.4-1.3l1.3,1
			C574.6,208.4,572.9,209.3,570.8,209.3z M570.5,197.8c-0.9,0-1.6,0.3-2.2,1c-0.6,0.6-1,1.5-1.1,2.7h6.4v-0.2
			c-0.1-1.1-0.4-2-0.9-2.6C572.2,198.1,571.4,197.8,570.5,197.8z M582.4,206.1l3.2-9.8h2.2l-4.6,12.8h-1.7l-4.6-12.8h2.2
			L582.4,206.1z M592.3,209h-2.2v-12.8h2.2V209z M589.9,192.9c0-0.4,0.1-0.7,0.3-0.9c0.2-0.2,0.5-0.4,1-0.4c0.4,0,0.8,0.1,1,0.4
			c0.2,0.2,0.3,0.5,0.3,0.9c0,0.4-0.1,0.6-0.3,0.9c-0.2,0.2-0.5,0.4-1,0.4c-0.4,0-0.7-0.1-1-0.4C590,193.5,589.9,193.2,589.9,192.9z
			 M600.9,207.5c0.8,0,1.5-0.2,2-0.7c0.6-0.5,0.9-1.1,1-1.8h2.1c0,0.7-0.3,1.4-0.8,2.1c-0.5,0.7-1.1,1.2-1.9,1.6
			c-0.8,0.4-1.6,0.6-2.5,0.6c-1.7,0-3.1-0.6-4.2-1.7c-1-1.2-1.5-2.8-1.5-4.8v-0.4c0-1.2,0.2-2.4,0.7-3.3c0.5-1,1.1-1.7,2-2.3
			c0.9-0.5,1.9-0.8,3-0.8c1.4,0,2.6,0.4,3.6,1.3c1,0.9,1.5,2,1.5,3.3h-2.1c-0.1-0.8-0.4-1.5-0.9-2c-0.6-0.5-1.3-0.8-2.1-0.8
			c-1.1,0-2,0.4-2.6,1.2c-0.6,0.8-0.9,1.9-0.9,3.5v0.4c0,1.5,0.3,2.6,0.9,3.4C598.9,207.1,599.8,207.5,600.9,207.5z M613.7,209.3
			c-1.7,0-3.1-0.6-4.2-1.7c-1.1-1.1-1.6-2.7-1.6-4.6v-0.4c0-1.3,0.2-2.4,0.7-3.4c0.5-1,1.2-1.8,2-2.3c0.9-0.6,1.8-0.9,2.8-0.9
			c1.7,0,3,0.5,3.9,1.6c0.9,1.1,1.4,2.7,1.4,4.7v0.9h-8.7c0,1.3,0.4,2.3,1.1,3.1c0.7,0.8,1.6,1.2,2.7,1.2c0.8,0,1.4-0.2,2-0.5
			c0.5-0.3,1-0.7,1.4-1.3l1.3,1C617.5,208.4,615.9,209.3,613.7,209.3z M613.5,197.8c-0.9,0-1.6,0.3-2.2,1c-0.6,0.6-1,1.5-1.1,2.7
			h6.4v-0.2c-0.1-1.1-0.4-2-0.9-2.6C615.1,198.1,614.4,197.8,613.5,197.8z M636.9,202.6h1.9v2.8h-1.9v3.7h-3.4v-3.7h-7.1l-0.2-2.2
			l7.2-11.3h3.5V202.6z M629.7,202.6h3.8v-6.1l-0.2,0.4L629.7,202.6z"/>
		<path class="st14" d="M532.6,239.8h112.2c3.6,0,6.6,3,6.6,6.6v15.4c0,3.6-3,6.6-6.6,6.6H532.6V239.8z"/>
		<path class="st14" d="M532.6,275h112.2c3.6,0,6.6,3,6.6,6.6V297c0,3.6-3,6.6-6.6,6.6H532.6V275z"/>
		<path class="st14" d="M539.2,239.8h246.4c3.6,0,6.6,3,6.6,6.6V297c0,3.6-3,6.6-6.6,6.6H539.2V239.8z"/>
		<path class="st1" d="M550,279.4v-17.2h4.9c1.5,0,2.8,0.3,4,1c1.2,0.7,2,1.6,2.7,2.8c0.6,1.2,1,2.6,1,4.2v1.1c0,1.6-0.3,3-0.9,4.3
			c-0.6,1.2-1.5,2.2-2.7,2.8c-1.2,0.7-2.5,1-4.1,1H550z M552.2,264.1v13.5h2.4c1.7,0,3.1-0.5,4.1-1.6c1-1.1,1.5-2.6,1.5-4.6v-1
			c0-2-0.5-3.5-1.4-4.5c-0.9-1.1-2.2-1.6-3.9-1.7H552.2z M570.8,279.7c-1.7,0-3.1-0.6-4.2-1.7c-1.1-1.1-1.6-2.7-1.6-4.6V273
			c0-1.3,0.2-2.4,0.7-3.4c0.5-1,1.2-1.8,2-2.3c0.9-0.6,1.8-0.9,2.8-0.9c1.7,0,3,0.5,3.9,1.6c0.9,1.1,1.4,2.7,1.4,4.7v0.9h-8.7
			c0,1.3,0.4,2.3,1.1,3.1c0.7,0.8,1.6,1.2,2.7,1.2c0.8,0,1.4-0.2,2-0.5c0.5-0.3,1-0.7,1.4-1.3l1.3,1
			C574.6,278.8,572.9,279.7,570.8,279.7z M570.5,268.2c-0.9,0-1.6,0.3-2.2,1c-0.6,0.6-1,1.5-1.1,2.7h6.4v-0.2
			c-0.1-1.1-0.4-2-0.9-2.6C572.2,268.5,571.4,268.2,570.5,268.2z M582.4,276.5l3.2-9.8h2.2l-4.6,12.8h-1.7l-4.6-12.8h2.2
			L582.4,276.5z M592.3,279.4h-2.2v-12.8h2.2V279.4z M589.9,263.3c0-0.4,0.1-0.7,0.3-0.9c0.2-0.2,0.5-0.4,1-0.4c0.4,0,0.8,0.1,1,0.4
			c0.2,0.2,0.3,0.5,0.3,0.9c0,0.4-0.1,0.6-0.3,0.9c-0.2,0.2-0.5,0.4-1,0.4c-0.4,0-0.7-0.1-1-0.4C590,263.9,589.9,263.6,589.9,263.3z
			 M600.9,277.9c0.8,0,1.5-0.2,2-0.7c0.6-0.5,0.9-1.1,1-1.8h2.1c0,0.7-0.3,1.4-0.8,2.1c-0.5,0.7-1.1,1.2-1.9,1.6
			c-0.8,0.4-1.6,0.6-2.5,0.6c-1.7,0-3.1-0.6-4.2-1.7c-1-1.2-1.5-2.8-1.5-4.8v-0.4c0-1.2,0.2-2.3,0.7-3.3c0.5-1,1.1-1.7,2-2.3
			c0.9-0.5,1.9-0.8,3-0.8c1.4,0,2.6,0.4,3.6,1.3c1,0.9,1.5,2,1.5,3.3h-2.1c-0.1-0.8-0.4-1.5-0.9-2c-0.6-0.5-1.3-0.8-2.1-0.8
			c-1.1,0-2,0.4-2.6,1.2c-0.6,0.8-0.9,2-0.9,3.5v0.4c0,1.5,0.3,2.6,0.9,3.4C598.9,277.5,599.8,277.9,600.9,277.9z M613.7,279.7
			c-1.7,0-3.1-0.6-4.2-1.7c-1.1-1.1-1.6-2.7-1.6-4.6V273c0-1.3,0.2-2.4,0.7-3.4c0.5-1,1.2-1.8,2-2.3c0.9-0.6,1.8-0.9,2.8-0.9
			c1.7,0,3,0.5,3.9,1.6c0.9,1.1,1.4,2.7,1.4,4.7v0.9h-8.7c0,1.3,0.4,2.3,1.1,3.1c0.7,0.8,1.6,1.2,2.7,1.2c0.8,0,1.4-0.2,2-0.5
			c0.5-0.3,1-0.7,1.4-1.3l1.3,1C617.5,278.8,615.9,279.7,613.7,279.7z M613.5,268.2c-0.9,0-1.6,0.3-2.2,1c-0.6,0.6-1,1.5-1.1,2.7
			h6.4v-0.2c-0.1-1.1-0.4-2-0.9-2.6C615.1,268.5,614.4,268.2,613.5,268.2z M630.3,269.3h1.8c0.9,0,1.5-0.2,1.9-0.6
			c0.4-0.4,0.6-1,0.6-1.7c0-0.7-0.2-1.2-0.6-1.6c-0.4-0.4-1-0.6-1.7-0.6c-0.7,0-1.2,0.2-1.6,0.5c-0.4,0.4-0.7,0.8-0.7,1.4h-3.4
			c0-0.9,0.2-1.7,0.7-2.4c0.5-0.7,1.2-1.3,2-1.7c0.9-0.4,1.8-0.6,2.9-0.6c1.8,0,3.2,0.4,4.3,1.3c1,0.9,1.5,2.1,1.5,3.6
			c0,0.8-0.2,1.5-0.7,2.2c-0.5,0.7-1.1,1.2-1.9,1.5c1,0.3,1.7,0.9,2.2,1.6c0.5,0.7,0.7,1.5,0.7,2.5c0,1.5-0.6,2.8-1.7,3.7
			c-1.1,0.9-2.6,1.4-4.4,1.4c-1.7,0-3.1-0.5-4.2-1.4c-1.1-0.9-1.6-2.1-1.6-3.6h3.4c0,0.6,0.2,1.2,0.7,1.6c0.5,0.4,1.1,0.6,1.8,0.6
			c0.8,0,1.4-0.2,1.9-0.6c0.5-0.4,0.7-1,0.7-1.7c0-1.7-0.9-2.6-2.8-2.6h-1.8V269.3z"/>
		<path class="st14" d="M532.6,310.2h112.2c3.6,0,6.6,3,6.6,6.6v15.4c0,3.6-3,6.6-6.6,6.6H532.6V310.2z"/>
		<path class="st14" d="M532.6,345.4h112.2c3.6,0,6.6,3,6.6,6.6v15.4c0,3.6-3,6.6-6.6,6.6H532.6V345.4z"/>
		<path class="st14" d="M539.2,310.2h246.4c3.6,0,6.6,3,6.6,6.6v50.6c0,3.6-3,6.6-6.6,6.6H539.2V310.2z"/>
		<path class="st1" d="M550,349.8v-17.2h4.9c1.5,0,2.8,0.3,4,1c1.2,0.7,2,1.6,2.7,2.8c0.6,1.2,1,2.6,1,4.2v1.1c0,1.6-0.3,3-0.9,4.3
			c-0.6,1.2-1.5,2.2-2.7,2.8c-1.2,0.7-2.5,1-4.1,1H550z M552.2,334.5V348h2.4c1.7,0,3.1-0.5,4.1-1.6c1-1.1,1.5-2.6,1.5-4.6v-1
			c0-2-0.5-3.5-1.4-4.5c-0.9-1.1-2.2-1.6-3.9-1.7H552.2z M570.8,350.1c-1.7,0-3.1-0.6-4.2-1.7c-1.1-1.1-1.6-2.7-1.6-4.6v-0.4
			c0-1.3,0.2-2.4,0.7-3.4c0.5-1,1.2-1.8,2-2.3c0.9-0.6,1.8-0.9,2.8-0.9c1.7,0,3,0.5,3.9,1.6c0.9,1.1,1.4,2.7,1.4,4.7v0.9h-8.7
			c0,1.3,0.4,2.3,1.1,3.1c0.7,0.8,1.6,1.2,2.7,1.2c0.8,0,1.4-0.2,2-0.5c0.5-0.3,1-0.7,1.4-1.3l1.3,1
			C574.6,349.2,572.9,350.1,570.8,350.1z M570.5,338.6c-0.9,0-1.6,0.3-2.2,1c-0.6,0.6-1,1.5-1.1,2.7h6.4v-0.2
			c-0.1-1.1-0.4-2-0.9-2.6C572.2,338.9,571.4,338.6,570.5,338.6z M582.4,346.9l3.2-9.8h2.2l-4.6,12.8h-1.7l-4.6-12.8h2.2
			L582.4,346.9z M592.3,349.8h-2.2V337h2.2V349.8z M589.9,333.7c0-0.4,0.1-0.7,0.3-0.9c0.2-0.2,0.5-0.4,1-0.4c0.4,0,0.8,0.1,1,0.4
			c0.2,0.2,0.3,0.5,0.3,0.9c0,0.4-0.1,0.6-0.3,0.9c-0.2,0.2-0.5,0.4-1,0.4c-0.4,0-0.7-0.1-1-0.4C590,334.3,589.9,334,589.9,333.7z
			 M600.9,348.3c0.8,0,1.5-0.2,2-0.7c0.6-0.5,0.9-1.1,1-1.8h2.1c0,0.7-0.3,1.4-0.8,2.1c-0.5,0.7-1.1,1.2-1.9,1.6
			c-0.8,0.4-1.6,0.6-2.5,0.6c-1.7,0-3.1-0.6-4.2-1.7c-1-1.2-1.5-2.8-1.5-4.8v-0.4c0-1.2,0.2-2.3,0.7-3.3c0.5-1,1.1-1.7,2-2.3
			c0.9-0.5,1.9-0.8,3-0.8c1.4,0,2.6,0.4,3.6,1.3c1,0.9,1.5,2,1.5,3.3h-2.1c-0.1-0.8-0.4-1.5-0.9-2c-0.6-0.5-1.3-0.8-2.1-0.8
			c-1.1,0-2,0.4-2.6,1.2c-0.6,0.8-0.9,2-0.9,3.5v0.4c0,1.5,0.3,2.6,0.9,3.4C598.9,347.9,599.8,348.3,600.9,348.3z M613.7,350.1
			c-1.7,0-3.1-0.6-4.2-1.7c-1.1-1.1-1.6-2.7-1.6-4.6v-0.4c0-1.3,0.2-2.4,0.7-3.4c0.5-1,1.2-1.8,2-2.3c0.9-0.6,1.8-0.9,2.8-0.9
			c1.7,0,3,0.5,3.9,1.6c0.9,1.1,1.4,2.7,1.4,4.7v0.9h-8.7c0,1.3,0.4,2.3,1.1,3.1c0.7,0.8,1.6,1.2,2.7,1.2c0.8,0,1.4-0.2,2-0.5
			c0.5-0.3,1-0.7,1.4-1.3l1.3,1C617.5,349.2,615.9,350.1,613.7,350.1z M613.5,338.6c-0.9,0-1.6,0.3-2.2,1c-0.6,0.6-1,1.5-1.1,2.7
			h6.4v-0.2c-0.1-1.1-0.4-2-0.9-2.6C615.1,338.9,614.4,338.6,613.5,338.6z M638.6,349.8h-11.8v-2.3l5.6-5.9c0.8-0.8,1.3-1.6,1.7-2.2
			c0.4-0.6,0.6-1.2,0.6-1.8c0-0.8-0.2-1.4-0.6-1.8c-0.4-0.4-0.9-0.7-1.7-0.7c-0.8,0-1.4,0.3-1.8,0.8c-0.4,0.5-0.7,1.2-0.7,2.1h-3.4
			c0-1,0.2-2,0.7-2.9c0.5-0.9,1.2-1.5,2.1-2c0.9-0.5,1.9-0.7,3.1-0.7c1.8,0,3.1,0.4,4.1,1.3c1,0.9,1.5,2.1,1.5,3.6
			c0,0.8-0.2,1.7-0.7,2.6c-0.4,0.9-1.2,1.9-2.3,3.1l-3.9,4.1h7.4V349.8z"/>
		<path class="st14" d="M532.6,380.6h112.2c3.6,0,6.6,3,6.6,6.6v15.4c0,3.6-3,6.6-6.6,6.6H532.6V380.6z"/>
		<path class="st14" d="M532.6,415.8h112.2c3.6,0,6.6,3,6.6,6.6v15.4c0,3.6-3,6.6-6.6,6.6H532.6V415.8z"/>
		<path class="st14" d="M539.2,380.6h246.4c3.6,0,6.6,3,6.6,6.6v50.6c0,3.6-3,6.6-6.6,6.6H539.2V380.6z"/>
		<path class="st1" d="M550,420.2V403h4.9c1.5,0,2.8,0.3,4,1c1.2,0.7,2,1.6,2.7,2.8c0.6,1.2,1,2.6,1,4.2v1.1c0,1.6-0.3,3-0.9,4.3
			c-0.6,1.2-1.5,2.2-2.7,2.8c-1.2,0.7-2.5,1-4.1,1H550z M552.2,404.9v13.5h2.4c1.7,0,3.1-0.5,4.1-1.6c1-1.1,1.5-2.6,1.5-4.6v-1
			c0-2-0.5-3.5-1.4-4.5c-0.9-1.1-2.2-1.6-3.9-1.7H552.2z M570.8,420.5c-1.7,0-3.1-0.6-4.2-1.7c-1.1-1.1-1.6-2.7-1.6-4.6v-0.4
			c0-1.3,0.2-2.4,0.7-3.4c0.5-1,1.2-1.8,2-2.3c0.9-0.6,1.8-0.9,2.8-0.9c1.7,0,3,0.5,3.9,1.6c0.9,1.1,1.4,2.7,1.4,4.7v0.9h-8.7
			c0,1.3,0.4,2.3,1.1,3.1c0.7,0.8,1.6,1.2,2.7,1.2c0.8,0,1.4-0.2,2-0.5c0.5-0.3,1-0.7,1.4-1.3l1.3,1
			C574.6,419.6,572.9,420.5,570.8,420.5z M570.5,409c-0.9,0-1.6,0.3-2.2,1c-0.6,0.6-1,1.5-1.1,2.7h6.4v-0.2c-0.1-1.1-0.4-2-0.9-2.6
			C572.2,409.3,571.4,409,570.5,409z M582.4,417.3l3.2-9.8h2.2l-4.6,12.8h-1.7l-4.6-12.8h2.2L582.4,417.3z M592.3,420.2h-2.2v-12.8
			h2.2V420.2z M589.9,404.1c0-0.4,0.1-0.7,0.3-0.9c0.2-0.2,0.5-0.4,1-0.4c0.4,0,0.8,0.1,1,0.4c0.2,0.2,0.3,0.5,0.3,0.9
			c0,0.4-0.1,0.6-0.3,0.9c-0.2,0.2-0.5,0.4-1,0.4c-0.4,0-0.7-0.1-1-0.4C590,404.7,589.9,404.4,589.9,404.1z M600.9,418.7
			c0.8,0,1.5-0.2,2-0.7c0.6-0.5,0.9-1.1,1-1.8h2.1c0,0.7-0.3,1.4-0.8,2.1c-0.5,0.7-1.1,1.2-1.9,1.6c-0.8,0.4-1.6,0.6-2.5,0.6
			c-1.7,0-3.1-0.6-4.2-1.7c-1-1.2-1.5-2.8-1.5-4.8v-0.4c0-1.2,0.2-2.3,0.7-3.3c0.5-1,1.1-1.7,2-2.3c0.9-0.5,1.9-0.8,3-0.8
			c1.4,0,2.6,0.4,3.6,1.3c1,0.9,1.5,2,1.5,3.3h-2.1c-0.1-0.8-0.4-1.5-0.9-2c-0.6-0.5-1.3-0.8-2.1-0.8c-1.1,0-2,0.4-2.6,1.2
			c-0.6,0.8-0.9,2-0.9,3.5v0.4c0,1.5,0.3,2.6,0.9,3.4C598.9,418.3,599.8,418.7,600.9,418.7z M613.7,420.5c-1.7,0-3.1-0.6-4.2-1.7
			c-1.1-1.1-1.6-2.7-1.6-4.6v-0.4c0-1.3,0.2-2.4,0.7-3.4c0.5-1,1.2-1.8,2-2.3c0.9-0.6,1.8-0.9,2.8-0.9c1.7,0,3,0.5,3.9,1.6
			c0.9,1.1,1.4,2.7,1.4,4.7v0.9h-8.7c0,1.3,0.4,2.3,1.1,3.1c0.7,0.8,1.6,1.2,2.7,1.2c0.8,0,1.4-0.2,2-0.5c0.5-0.3,1-0.7,1.4-1.3
			l1.3,1C617.5,419.6,615.9,420.5,613.7,420.5z M613.5,409c-0.9,0-1.6,0.3-2.2,1c-0.6,0.6-1,1.5-1.1,2.7h6.4v-0.2
			c-0.1-1.1-0.4-2-0.9-2.6C615.1,409.3,614.4,409,613.5,409z M635.1,420.2h-3.4v-13.2l-4.1,1.3v-2.8l7.1-2.6h0.4V420.2z"/>
	</g>
</g>
</svg>
